<svg width="36" height="36" viewBox="0 0 36 36" fill="none" xmlns="http://www.w3.org/2000/svg">
<g clip-path="url(#clip0_594_771)">
<path d="M36 18C36 8.05888 27.9411 0 18 0C8.05887 0 0 8.05888 0 18C0 27.9411 8.05887 36 18 36C27.9411 36 36 27.9411 36 18Z" fill="#E8E8EA" fill-opacity="0.5"/>
<path d="M12.4413 16.916C11.8553 17.5 11.8533 18.446 12.4353 19.034L19.3923 26.056C19.6853 26.352 20.0713 26.5 20.4573 26.5C20.8393 26.5 21.2213 26.355 21.5133 26.065C22.1023 25.482 22.1053 24.533 21.5223 23.944L15.6182 17.984L21.5592 12.062C22.1452 11.478 22.1472 10.5279 21.5622 9.941C20.9782 9.354 20.0262 9.353 19.4412 9.938L12.4413 16.916Z" fill="#16085E"/>
</g>
<defs>
<clipPath id="clip0_594_771">
<path d="M36 18C36 8.05888 27.9411 0 18 0C8.05887 0 0 8.05888 0 18C0 27.9411 8.05887 36 18 36C27.9411 36 36 27.9411 36 18Z" fill="white"/>
</clipPath>
</defs>
</svg>
