<?xml version="1.0" encoding="utf-8"?>
 
<!DOCTYPE svg PUBLIC "-//W3C//DTD SVG 1.1//EN" "http://www.w3.org/Graphics/SVG/1.1/DTD/svg11.dtd">
<svg version="1.1" id="Layer_1" xmlns="http://www.w3.org/2000/svg" xmlns:xlink="http://www.w3.org/1999/xlink" x="0px" y="0px"
	 width="483.797px" height="167.105px" viewBox="0 0 483.797 167.105" enable-background="new 0 0 483.797 167.105"
	 xml:space="preserve">
<g id="react">
	<path fill="#9EAAB7" d="M178.859,33.007c0-4.908-6.147-9.562-15.574-12.446c2.176-9.608,1.209-17.252-3.051-19.699
		c-0.982-0.573-2.131-0.846-3.385-0.846v3.367c0.694,0,1.254,0.138,1.723,0.394c2.055,1.18,2.945,5.666,2.251,11.437
		c-0.166,1.42-0.438,2.915-0.771,4.44c-2.961-0.726-6.192-1.283-9.592-1.646c-2.04-2.794-4.154-5.332-6.285-7.553
		c4.925-4.577,9.548-7.085,12.689-7.085V0l0,0c-4.154,0-9.592,2.961-15.092,8.098c-5.498-5.106-10.937-8.036-15.091-8.036v3.368
		c3.127,0,7.765,2.492,12.689,7.039c-2.114,2.222-4.229,4.743-6.239,7.537c-3.414,0.363-6.646,0.922-9.607,1.662
		c-0.348-1.511-0.604-2.977-0.785-4.381c-0.711-5.771,0.166-10.258,2.205-11.451c0.453-0.271,1.043-0.393,1.737-0.393V0.075l0,0
		c-1.269,0-2.417,0.272-3.414,0.846c-4.245,2.447-5.196,10.076-3.007,19.653c-9.396,2.9-15.514,7.539-15.514,12.433
		c0,4.909,6.148,9.563,15.574,12.448c-2.175,9.607-1.208,17.25,3.053,19.697c0.981,0.574,2.129,0.848,3.398,0.848
		c4.154,0,9.592-2.961,15.092-8.098c5.498,5.104,10.937,8.037,15.091,8.037c1.269,0,2.417-0.273,3.414-0.849
		c4.245-2.446,5.196-10.073,3.006-19.651C172.742,42.555,178.859,37.901,178.859,33.007z M159.191,22.932
		c-0.56,1.947-1.254,3.957-2.039,5.967c-0.619-1.209-1.271-2.418-1.979-3.626c-0.694-1.208-1.437-2.388-2.176-3.534
		C155.143,22.055,157.213,22.447,159.191,22.932z M152.273,39.02c-1.18,2.039-2.388,3.973-3.642,5.77
		c-2.252,0.197-4.533,0.303-6.828,0.303c-2.281,0-4.563-0.104-6.799-0.286c-1.254-1.798-2.477-3.717-3.655-5.74
		c-1.147-1.979-2.19-3.988-3.142-6.012c0.936-2.024,1.994-4.05,3.127-6.027c1.178-2.04,2.387-3.975,3.641-5.771
		c2.25-0.195,4.531-0.302,6.828-0.302c2.281,0,4.562,0.105,6.797,0.287c1.254,1.798,2.479,3.716,3.655,5.74
		c1.148,1.979,2.19,3.987,3.144,6.013C154.448,35.016,153.406,37.041,152.273,39.02z M157.152,37.056
		c0.815,2.023,1.511,4.048,2.084,6.013c-1.979,0.481-4.063,0.891-6.223,1.208c0.739-1.163,1.479-2.356,2.174-3.58
		C155.883,39.488,156.533,38.264,157.152,37.056z M141.834,53.174c-1.404-1.45-2.81-3.065-4.199-4.834
		c1.359,0.062,2.75,0.105,4.154,0.105c1.42,0,2.824-0.029,4.199-0.105C144.629,50.107,143.225,51.723,141.834,53.174z
		 M130.596,44.276c-2.146-0.317-4.215-0.71-6.194-1.193c0.56-1.948,1.254-3.958,2.04-5.967c0.619,1.208,1.269,2.417,1.979,3.626
		C129.13,41.95,129.855,43.129,130.596,44.276z M141.759,12.84c1.405,1.45,2.81,3.066,4.2,4.834c-1.36-0.061-2.75-0.104-4.154-0.104
		c-1.42,0-2.825,0.03-4.2,0.104C138.965,15.906,140.369,14.29,141.759,12.84z M130.58,21.738c-0.74,1.162-1.48,2.354-2.176,3.58
		c-0.694,1.208-1.344,2.416-1.963,3.625c-0.816-2.024-1.512-4.049-2.085-6.012C126.336,22.463,128.42,22.055,130.58,21.738z
		 M116.908,40.65c-5.348-2.281-8.807-5.271-8.807-7.645s3.459-5.378,8.807-7.644c1.3-0.56,2.72-1.058,4.186-1.525
		c0.86,2.961,1.994,6.042,3.398,9.199c-1.39,3.144-2.508,6.209-3.354,9.154C119.643,41.724,118.223,41.21,116.908,40.65z
		 M125.036,62.238c-2.055-1.18-2.946-5.666-2.251-11.437c0.166-1.42,0.438-2.916,0.771-4.44c2.961,0.725,6.193,1.283,9.593,1.646
		c2.039,2.795,4.154,5.332,6.284,7.554c-4.925,4.578-9.548,7.084-12.689,7.084C126.063,62.631,125.489,62.494,125.036,62.238z
		 M160.869,50.727c0.709,5.771-0.167,10.258-2.206,11.45c-0.453,0.271-1.042,0.394-1.737,0.394c-3.127,0-7.765-2.492-12.689-7.039
		c2.115-2.221,4.23-4.744,6.238-7.539c3.414-0.363,6.647-0.922,9.608-1.662C160.432,47.855,160.702,49.322,160.869,50.727z
		 M166.686,40.65c-1.301,0.56-2.721,1.059-4.186,1.525c-0.861-2.961-1.994-6.042-3.398-9.199c1.39-3.144,2.508-6.209,3.354-9.154
		c1.495,0.469,2.915,0.982,4.244,1.541c5.348,2.281,8.808,5.271,8.808,7.644C175.492,35.379,172.032,38.385,166.686,40.65z"/>
	<path fill="#9EAAB7" d="M126.668,0.061L126.668,0.061L126.668,0.061z"/>
	<circle fill="#9EAAB7" cx="141.789" cy="33.007" r="6.903"/>
	<path fill="#9EAAB7" d="M156.835,0.015L156.835,0.015L156.835,0.015z"/>
</g>
<g id="react-hover">
	<path fill="#61DAFB" d="M178.859,134.112c0-4.909-6.147-9.563-15.574-12.447c2.176-9.607,1.209-17.252-3.051-19.699
		c-0.982-0.572-2.131-0.846-3.385-0.846v3.368c0.694,0,1.254,0.137,1.723,0.393c2.055,1.181,2.945,5.666,2.251,11.438
		c-0.166,1.42-0.438,2.915-0.771,4.439c-2.961-0.725-6.192-1.282-9.592-1.646c-2.04-2.794-4.154-5.332-6.285-7.553
		c4.925-4.577,9.548-7.085,12.689-7.085v-3.368l0,0c-4.154,0-9.592,2.961-15.092,8.097c-5.498-5.105-10.937-8.036-15.091-8.036
		v3.368c3.127,0,7.765,2.493,12.689,7.04c-2.114,2.221-4.229,4.743-6.239,7.537c-3.414,0.363-6.646,0.922-9.607,1.662
		c-0.348-1.511-0.604-2.978-0.785-4.381c-0.711-5.771,0.166-10.259,2.205-11.451c0.453-0.271,1.043-0.394,1.737-0.394v-3.367l0,0
		c-1.269,0-2.417,0.271-3.414,0.846c-4.245,2.447-5.196,10.076-3.007,19.653c-9.396,2.899-15.514,7.538-15.514,12.433
		c0,4.909,6.148,9.563,15.574,12.448c-2.175,9.606-1.208,17.251,3.053,19.697c0.981,0.574,2.129,0.848,3.398,0.848
		c4.154,0,9.592-2.961,15.092-8.099c5.498,5.106,10.937,8.037,15.091,8.037c1.269,0,2.417-0.271,3.414-0.847
		c4.245-2.447,5.196-10.075,3.006-19.653C172.742,143.66,178.859,139.007,178.859,134.112z M159.191,124.037
		c-0.56,1.948-1.254,3.957-2.039,5.967c-0.619-1.209-1.271-2.418-1.979-3.626c-0.694-1.208-1.437-2.387-2.176-3.534
		C155.143,123.16,157.213,123.552,159.191,124.037z M152.273,140.125c-1.18,2.039-2.388,3.974-3.642,5.771
		c-2.252,0.195-4.533,0.302-6.828,0.302c-2.281,0-4.563-0.105-6.799-0.287c-1.254-1.797-2.477-3.716-3.655-5.74
		c-1.147-1.979-2.19-3.987-3.142-6.012c0.936-2.024,1.994-4.049,3.127-6.027c1.178-2.04,2.387-3.974,3.641-5.771
		c2.25-0.196,4.531-0.302,6.828-0.302c2.281,0,4.562,0.104,6.797,0.287c1.254,1.798,2.479,3.716,3.655,5.739
		c1.148,1.979,2.19,3.988,3.144,6.014C154.448,136.121,153.406,138.146,152.273,140.125z M157.152,138.161
		c0.815,2.024,1.511,4.048,2.084,6.013c-1.979,0.482-4.063,0.892-6.223,1.208c0.739-1.163,1.479-2.355,2.174-3.58
		C155.883,140.594,156.533,139.369,157.152,138.161z M141.834,154.279c-1.404-1.45-2.81-3.066-4.199-4.834
		c1.359,0.061,2.75,0.105,4.154,0.105c1.42,0,2.824-0.029,4.199-0.105C144.629,151.213,143.225,152.829,141.834,154.279z
		 M130.596,145.382c-2.146-0.316-4.215-0.71-6.194-1.192c0.56-1.948,1.254-3.958,2.04-5.967c0.619,1.208,1.269,2.417,1.979,3.626
		C129.13,143.056,129.855,144.234,130.596,145.382z M141.759,113.945c1.405,1.45,2.81,3.065,4.2,4.834
		c-1.36-0.062-2.75-0.105-4.154-0.105c-1.42,0-2.825,0.03-4.2,0.105C138.965,117.012,140.369,115.396,141.759,113.945z
		 M130.58,122.844c-0.74,1.162-1.48,2.355-2.176,3.58c-0.694,1.208-1.344,2.416-1.963,3.625c-0.816-2.023-1.512-4.049-2.085-6.012
		C126.336,123.568,128.42,123.16,130.58,122.844z M116.908,141.756c-5.348-2.28-8.807-5.271-8.807-7.644s3.459-5.378,8.807-7.645
		c1.3-0.559,2.72-1.058,4.186-1.524c0.86,2.961,1.994,6.042,3.398,9.199c-1.39,3.143-2.508,6.209-3.354,9.153
		C119.643,142.829,118.223,142.315,116.908,141.756z M125.036,163.344c-2.055-1.179-2.946-5.664-2.251-11.436
		c0.166-1.42,0.438-2.916,0.771-4.441c2.961,0.726,6.193,1.284,9.593,1.646c2.039,2.795,4.154,5.333,6.284,7.553
		c-4.925,4.578-9.548,7.085-12.689,7.085C126.063,163.736,125.489,163.601,125.036,163.344z M160.869,151.832
		c0.709,5.771-0.167,10.258-2.206,11.451c-0.453,0.271-1.042,0.393-1.737,0.393c-3.127,0-7.765-2.491-12.689-7.038
		c2.115-2.222,4.23-4.744,6.238-7.539c3.414-0.362,6.647-0.922,9.608-1.661C160.432,148.962,160.702,150.427,160.869,151.832z
		 M166.686,141.756c-1.301,0.561-2.721,1.06-4.186,1.526c-0.861-2.961-1.994-6.042-3.398-9.2c1.39-3.143,2.508-6.209,3.354-9.154
		c1.495,0.47,2.915,0.982,4.244,1.541c5.348,2.281,8.808,5.271,8.808,7.645C175.492,136.484,172.032,139.49,166.686,141.756z"/>
	<path fill="#61DAFB" d="M126.668,101.166L126.668,101.166L126.668,101.166z"/>
	<circle fill="#61DAFB" cx="141.789" cy="134.112" r="6.903"/>
	<path fill="#61DAFB" d="M156.835,101.12L156.835,101.12L156.835,101.12z"/>
</g>
<g>
	<path fill="#4E8EF7" d="M32.5,148.222c-7.508,0-13.616-6.108-13.616-13.616S24.992,120.99,32.5,120.99s13.615,6.108,13.615,13.616
		S40.008,148.222,32.5,148.222z"/>
	<path fill="#4E8EF7" d="M32.5,167.105c-17.921,0-32.5-14.579-32.5-32.499c0-17.922,14.579-32.501,32.499-32.501
		c3.584,0,7.106,0.583,10.472,1.73c3.11,1.063,6.033,2.588,8.695,4.539c0.854-0.613,1.882-0.947,2.941-0.947
		c2.796,0,5.069,2.273,5.069,5.066c0.001,1.062-0.333,2.089-0.946,2.943c1.95,2.662,3.477,5.586,4.538,8.694
		c1.148,3.365,1.73,6.89,1.73,10.474C64.999,152.526,50.42,167.105,32.5,167.105z M32.5,104.351
		c-16.684,0-30.256,13.571-30.256,30.254c0,16.64,13.501,30.185,30.123,30.256h0.132c8.068,0,15.663-3.15,21.384-8.872
		c5.721-5.721,8.871-13.314,8.87-21.384c0-6.398-1.972-12.496-5.709-17.67c-0.745,0.412-1.576,0.627-2.435,0.627
		c-2.794,0-5.066-2.273-5.066-5.066c-0.001-0.859,0.214-1.69,0.625-2.436C44.995,106.323,38.897,104.351,32.5,104.351z"/>
</g>
<g>
	<path fill="#9EAAB7" d="M32.5,46.116c-7.508,0-13.616-6.108-13.616-13.616S24.992,18.884,32.5,18.884S46.115,24.992,46.115,32.5
		S40.008,46.116,32.5,46.116z"/>
	<path fill="#9EAAB7" d="M32.5,65C14.579,65,0,50.421,0,32.501C0,14.579,14.579,0,32.499,0c3.584,0,7.106,0.583,10.472,1.731
		c3.11,1.062,6.033,2.588,8.695,4.539c0.854-0.613,1.882-0.947,2.941-0.947c2.796,0,5.069,2.273,5.069,5.066
		c0.001,1.061-0.333,2.089-0.946,2.942c1.95,2.662,3.477,5.586,4.538,8.695c1.148,3.365,1.73,6.889,1.73,10.473
		C64.999,50.421,50.42,65,32.5,65z M32.5,2.245c-16.684,0-30.256,13.572-30.256,30.254c0,16.641,13.501,30.186,30.123,30.256h0.132
		c8.068,0,15.663-3.149,21.384-8.872c5.721-5.721,8.871-13.313,8.87-21.384c0-6.397-1.972-12.496-5.709-17.67
		c-0.745,0.412-1.576,0.627-2.435,0.627c-2.794,0-5.066-2.272-5.066-5.065c-0.001-0.859,0.214-1.691,0.625-2.437
		C44.995,4.218,38.897,2.245,32.5,2.245z"/>
</g>
<g>
	<path fill="#9EAAB7" d="M292.075,30.123L276.432,2.876c-1.007-1.734-2.962-2.873-4.959-2.876h-31.287
		c-1.998,0.004-3.955,1.142-4.961,2.876l-15.643,27.247c-0.99,1.74-0.99,4.013,0,5.753l15.643,27.247
		c1.006,1.735,2.963,2.872,4.961,2.877h31.287c1.997-0.005,3.952-1.142,4.959-2.877l15.645-27.247
		C293.064,34.135,293.064,31.863,292.075,30.123z M271.057,50.06h-5.396c-0.251-0.002-0.495-0.15-0.612-0.373l-9.132-16.357
		c-0.046-0.081-0.076-0.171-0.087-0.264c-0.011,0.092-0.041,0.183-0.087,0.264l-9.154,16.357c-0.113,0.216-0.347,0.362-0.59,0.373
		H240.6c-0.49,0.004-0.856-0.628-0.611-1.055L248.924,33l-8.936-16.027c-0.215-0.388,0.047-0.949,0.479-1.032
		c0.043-0.004,0.089-0.004,0.132,0h5.396c0.239,0.005,0.47,0.143,0.59,0.351l9.154,16.357c0.046,0.081,0.075,0.171,0.087,0.263
		c0.012-0.092,0.042-0.183,0.087-0.263l9.132-16.357c0.124-0.214,0.366-0.354,0.612-0.351h5.396
		c0.479,0.004,0.836,0.606,0.611,1.032L262.73,33l8.937,16.006C271.912,49.432,271.546,50.063,271.057,50.06z"/>
</g>
<g>
	<path fill="#3498DB" d="M292.075,131.229l-15.646-27.247c-1.006-1.735-2.961-2.872-4.959-2.876h-31.287
		c-1.998,0.004-3.953,1.141-4.959,2.876l-15.644,27.247c-0.99,1.739-0.99,4.014,0,5.753l15.644,27.247
		c1.006,1.734,2.961,2.872,4.959,2.877h31.287c1.998-0.005,3.953-1.143,4.959-2.877l15.646-27.247
		C293.064,135.242,293.064,132.969,292.075,131.229z M271.057,151.165h-5.396c-0.251-0.002-0.495-0.149-0.612-0.373l-9.132-16.356
		c-0.046-0.081-0.076-0.171-0.087-0.265c-0.011,0.094-0.041,0.184-0.087,0.265l-9.154,16.356c-0.113,0.216-0.347,0.363-0.59,0.373
		H240.6c-0.49,0.004-0.856-0.628-0.611-1.054l8.936-16.006l-8.936-16.028c-0.215-0.388,0.047-0.949,0.479-1.032
		c0.043-0.004,0.089-0.004,0.132,0h5.396c0.239,0.006,0.47,0.145,0.59,0.353l9.154,16.356c0.046,0.08,0.075,0.171,0.087,0.265
		c0.012-0.094,0.042-0.185,0.087-0.265l9.132-16.356c0.124-0.215,0.366-0.354,0.612-0.353h5.396
		c0.479,0.004,0.836,0.607,0.611,1.032l-8.936,16.028l8.936,16.006C271.912,150.537,271.546,151.169,271.057,151.165z"/>
</g>
<g>
	<path fill="#9EAAB7" d="M377.226,21.789h-33.48c-0.745,0-1.349,0.604-1.349,1.349v28.076c0,0.745,0.604,1.349,1.349,1.349h5.969
		v9.462c0,2.195,1.779,3.976,3.975,3.976l0,0c2.195,0,3.976-1.78,3.976-3.976v-9.462h5.56v9.462c0,2.195,1.78,3.976,3.976,3.976l0,0
		c2.195,0,3.975-1.78,3.975-3.976v-9.462h6.052c0.745,0,1.349-0.604,1.349-1.349V23.138
		C378.574,22.393,377.971,21.789,377.226,21.789z"/>
	<path fill="#9EAAB7" d="M336.729,21.783L336.729,21.783c-2.196,0-3.976,1.78-3.976,3.975v16.146c0,2.195,1.779,3.976,3.976,3.976
		l0,0c2.195,0,3.975-1.78,3.975-3.976V25.758C340.703,23.563,338.924,21.783,336.729,21.783z"/>
	<path fill="#9EAAB7" d="M384.243,21.783L384.243,21.783c-2.196,0-3.976,1.78-3.976,3.975v16.146c0,2.195,1.779,3.976,3.976,3.976
		l0,0c2.195,0,3.975-1.78,3.975-3.976V25.758C388.218,23.563,386.438,21.783,384.243,21.783z"/>
	<path fill="#9EAAB7" d="M344.016,19.821h32.86c0.857,0,1.496-0.79,1.32-1.629c-1.087-5.181-4.385-9.546-8.86-12.068l2.809-5.068
		c0.19-0.343,0.066-0.775-0.276-0.966c-0.345-0.19-0.776-0.066-0.967,0.277l-2.83,5.106c-2.318-1.076-4.901-1.677-7.625-1.677
		c-2.725,0-5.309,0.601-7.626,1.677l-2.831-5.107c-0.189-0.343-0.622-0.467-0.965-0.277c-0.344,0.19-0.468,0.623-0.277,0.966
		l2.809,5.068c-4.475,2.522-7.773,6.888-8.86,12.068C342.52,19.031,343.158,19.821,344.016,19.821z M370.251,12.267
		c0,0.844-0.685,1.528-1.528,1.528s-1.528-0.684-1.528-1.528s0.685-1.528,1.528-1.528S370.251,11.423,370.251,12.267z
		 M352.169,10.739c0.844,0,1.527,0.684,1.527,1.528c0,0.844-0.684,1.528-1.527,1.528s-1.528-0.684-1.528-1.528
		S351.324,10.739,352.169,10.739z"/>
</g>
<g>
	<path fill="#AAC148" d="M377.226,122.789h-33.48c-0.745,0-1.349,0.604-1.349,1.35v28.076c0,0.744,0.604,1.348,1.349,1.348h5.969
		v9.463c0,2.195,1.779,3.975,3.975,3.975l0,0c2.195,0,3.976-1.779,3.976-3.975v-9.463h5.56v9.463c0,2.195,1.78,3.975,3.976,3.975
		l0,0c2.195,0,3.975-1.779,3.975-3.975v-9.463h6.052c0.745,0,1.349-0.604,1.349-1.348v-28.076
		C378.574,123.393,377.971,122.789,377.226,122.789z"/>
	<path fill="#AAC148" d="M336.729,122.783L336.729,122.783c-2.196,0-3.976,1.779-3.976,3.975v16.146
		c0,2.195,1.779,3.975,3.976,3.975l0,0c2.195,0,3.975-1.779,3.975-3.975v-16.146C340.703,124.562,338.924,122.783,336.729,122.783z"
		/>
	<path fill="#AAC148" d="M384.243,122.783L384.243,122.783c-2.196,0-3.976,1.779-3.976,3.975v16.146
		c0,2.195,1.779,3.975,3.976,3.975l0,0c2.195,0,3.975-1.779,3.975-3.975v-16.146C388.218,124.562,386.438,122.783,384.243,122.783z"
		/>
	<path fill="#AAC148" d="M344.016,120.82h32.86c0.857,0,1.496-0.789,1.32-1.629c-1.087-5.18-4.385-9.546-8.86-12.068l2.809-5.068
		c0.19-0.343,0.066-0.775-0.276-0.965c-0.345-0.191-0.776-0.066-0.967,0.277l-2.83,5.105c-2.318-1.075-4.901-1.676-7.625-1.676
		c-2.725,0-5.309,0.601-7.626,1.676l-2.831-5.106c-0.189-0.343-0.622-0.467-0.965-0.276c-0.344,0.189-0.468,0.622-0.277,0.965
		l2.809,5.068c-4.475,2.522-7.773,6.889-8.86,12.068C342.52,120.031,343.158,120.82,344.016,120.82z M370.251,113.267
		c0,0.844-0.685,1.527-1.528,1.527s-1.528-0.684-1.528-1.527s0.685-1.529,1.528-1.529S370.251,112.424,370.251,113.267z
		 M352.169,111.738c0.844,0,1.527,0.685,1.527,1.529c0,0.844-0.684,1.527-1.527,1.527s-1.528-0.684-1.528-1.527
		S351.324,111.738,352.169,111.738z"/>
</g>
<g>
	<path id="path4" fill="#9EAAB7" d="M482.632,51.433c-0.998,2.305-2.18,4.428-3.549,6.379
		c-1.866,2.66-3.394,4.502-4.571,5.525c-1.825,1.678-3.78,2.537-5.874,2.586c-1.504,0-3.316-0.428-5.427-1.295
		c-2.117-0.863-4.063-1.291-5.842-1.291c-1.866,0-3.867,0.428-6.008,1.291c-2.144,0.867-3.871,1.32-5.191,1.365
		c-2.008,0.086-4.01-0.799-6.007-2.656c-1.275-1.113-2.87-3.02-4.78-5.721c-2.051-2.885-3.736-6.229-5.057-10.042
		c-1.414-4.119-2.123-8.107-2.123-11.969c0-4.423,0.956-8.238,2.871-11.435c1.504-2.568,3.506-4.593,6.01-6.08
		c2.506-1.487,5.213-2.245,8.127-2.293c1.596,0,3.688,0.493,6.286,1.463c2.592,0.973,4.256,1.466,4.985,1.466
		c0.546,0,2.395-0.577,5.528-1.727c2.964-1.066,5.466-1.508,7.515-1.334c5.553,0.448,9.725,2.637,12.499,6.581
		c-4.966,3.009-7.423,7.224-7.374,12.63c0.045,4.211,1.572,7.716,4.575,10.498c1.36,1.291,2.88,2.289,4.571,2.998
		C483.43,49.437,483.043,50.456,482.632,51.433L482.632,51.433z M469.896,1.32c0,3.301-1.206,6.383-3.609,9.235
		c-2.901,3.391-6.409,5.351-10.215,5.042c-0.048-0.396-0.076-0.813-0.076-1.25c0-3.169,1.38-6.56,3.829-9.333
		c1.224-1.404,2.778-2.571,4.665-3.502c1.882-0.917,3.662-1.425,5.337-1.512C469.876,0.441,469.896,0.882,469.896,1.32L469.896,1.32
		z"/>
</g>
<g>
	<path id="path4_1_" d="M482.632,152.433c-0.998,2.305-2.18,4.428-3.549,6.379
		c-1.866,2.66-3.394,4.502-4.571,5.525c-1.825,1.678-3.78,2.537-5.874,2.586c-1.504,0-3.316-0.428-5.427-1.295
		c-2.117-0.863-4.063-1.291-5.842-1.291c-1.866,0-3.867,0.428-6.008,1.291c-2.144,0.867-3.871,1.32-5.191,1.365
		c-2.008,0.086-4.01-0.799-6.007-2.656c-1.275-1.113-2.87-3.02-4.78-5.721c-2.051-2.885-3.736-6.229-5.057-10.041
		c-1.414-4.119-2.123-8.107-2.123-11.969c0-4.424,0.956-8.238,2.871-11.436c1.504-2.567,3.506-4.593,6.01-6.08
		c2.506-1.486,5.213-2.244,8.127-2.293c1.596,0,3.688,0.493,6.286,1.463c2.592,0.973,4.256,1.467,4.985,1.467
		c0.546,0,2.395-0.577,5.528-1.728c2.964-1.066,5.466-1.508,7.515-1.334c5.553,0.448,9.725,2.637,12.499,6.581
		c-4.966,3.009-7.423,7.223-7.374,12.63c0.045,4.211,1.572,7.716,4.575,10.498c1.36,1.291,2.88,2.289,4.571,2.998
		C483.43,150.437,483.043,151.456,482.632,152.433L482.632,152.433z M469.896,102.32c0,3.301-1.206,6.383-3.609,9.234
		c-2.901,3.392-6.409,5.352-10.215,5.042c-0.048-0.396-0.076-0.813-0.076-1.251c0-3.168,1.38-6.56,3.829-9.332
		c1.224-1.404,2.778-2.571,4.665-3.502c1.882-0.918,3.662-1.426,5.337-1.512C469.876,101.441,469.896,101.883,469.896,102.32
		L469.896,102.32z"/>
</g>
</svg>
