<?xml version="1.0" encoding="utf-8"?>
 
<!DOCTYPE svg PUBLIC "-//W3C//DTD SVG 1.1//EN" "http://www.w3.org/Graphics/SVG/1.1/DTD/svg11.dtd">
<svg version="1.1" id="Layer_1" xmlns="http://www.w3.org/2000/svg" xmlns:xlink="http://www.w3.org/1999/xlink" x="0px" y="0px"
	 width="433.439px" height="564.889px" viewBox="0 0 433.439 564.889" enable-background="new 0 0 433.439 564.889"
	 xml:space="preserve">
<g>
	<polygon opacity="0.39" fill="#FFFFFF" points="348.065,25.224 390.752,0 433.439,25.224 433.439,75.673 390.752,100.897 
		348.065,75.673 	"/>
	<linearGradient id="SVGID_1_" gradientUnits="userSpaceOnUse" x1="348.8408" y1="50.4482" x2="432.6641" y2="50.4482">
		<stop  offset="0" style="stop-color:#FBFBFB"/>
		<stop  offset="1" style="stop-color:#E4E3E4"/>
	</linearGradient>
	<polygon opacity="0.39" fill="url(#SVGID_1_)" points="348.841,75.229 348.841,25.667 390.752,0.901 432.664,25.667 
		432.664,75.229 390.752,99.995 	"/>
	<polygon opacity="0.39" fill="#FFFFFF" points="261.139,25.224 303.825,0 346.513,25.224 346.513,75.673 303.825,100.897 
		261.139,75.673 	"/>
	<linearGradient id="SVGID_2_" gradientUnits="userSpaceOnUse" x1="261.915" y1="50.4482" x2="345.7373" y2="50.4482">
		<stop  offset="0" style="stop-color:#FBFBFB"/>
		<stop  offset="1" style="stop-color:#E4E3E4"/>
	</linearGradient>
	<polygon opacity="0.39" fill="url(#SVGID_2_)" points="261.915,75.229 261.915,25.667 303.825,0.901 345.737,25.667 
		345.737,75.229 303.825,99.995 	"/>
	<polygon opacity="0.39" fill="#FFFFFF" points="87.285,25.224 129.973,0 172.66,25.224 172.66,75.673 129.973,100.897 
		87.285,75.673 	"/>
	<linearGradient id="SVGID_3_" gradientUnits="userSpaceOnUse" x1="88.0615" y1="50.4482" x2="171.8838" y2="50.4482">
		<stop  offset="0" style="stop-color:#FBFBFB"/>
		<stop  offset="1" style="stop-color:#E4E3E4"/>
	</linearGradient>
	<polygon opacity="0.39" fill="url(#SVGID_3_)" points="88.062,75.229 88.062,25.667 129.973,0.901 171.884,25.667 171.884,75.229 
		129.973,99.995 	"/>
	<polygon opacity="0.39" fill="#FFFFFF" points="304.602,102.255 347.289,77.031 389.977,102.255 389.977,152.704 347.289,177.928 
		304.602,152.704 	"/>
	<linearGradient id="SVGID_4_" gradientUnits="userSpaceOnUse" x1="305.3779" y1="127.4795" x2="389.2002" y2="127.4795">
		<stop  offset="0" style="stop-color:#FBFBFB"/>
		<stop  offset="1" style="stop-color:#E4E3E4"/>
	</linearGradient>
	<polygon opacity="0.39" fill="url(#SVGID_4_)" points="305.378,152.261 305.378,102.698 347.289,77.933 389.2,102.698 
		389.2,152.261 347.289,177.027 	"/>
	<polygon opacity="0.39" fill="#FFFFFF" points="217.675,102.255 260.362,77.031 303.05,102.255 303.05,152.704 260.362,177.928 
		217.675,152.704 	"/>
	<linearGradient id="SVGID_5_" gradientUnits="userSpaceOnUse" x1="218.4512" y1="127.4795" x2="302.2734" y2="127.4795">
		<stop  offset="0" style="stop-color:#FBFBFB"/>
		<stop  offset="1" style="stop-color:#E4E3E4"/>
	</linearGradient>
	<polygon opacity="0.39" fill="url(#SVGID_5_)" points="218.451,152.261 218.451,102.698 260.362,77.933 302.273,102.698 
		302.273,152.261 260.362,177.027 	"/>
	<polygon opacity="0.39" fill="#FFFFFF" points="130.749,102.255 173.436,77.031 216.123,102.255 216.123,152.704 173.436,177.928 
		130.749,152.704 	"/>
	<linearGradient id="SVGID_6_" gradientUnits="userSpaceOnUse" x1="131.5254" y1="127.4795" x2="215.3477" y2="127.4795">
		<stop  offset="0" style="stop-color:#FBFBFB"/>
		<stop  offset="1" style="stop-color:#E4E3E4"/>
	</linearGradient>
	<polygon opacity="0.39" fill="url(#SVGID_6_)" points="131.525,152.261 131.525,102.698 173.436,77.933 215.348,102.698 
		215.348,152.261 173.436,177.027 	"/>
	<polygon opacity="0.39" fill="#FFFFFF" points="43.822,102.255 86.51,77.031 129.196,102.255 129.196,152.704 86.51,177.928 
		43.822,152.704 	"/>
	<linearGradient id="SVGID_7_" gradientUnits="userSpaceOnUse" x1="44.5977" y1="127.4795" x2="128.4199" y2="127.4795">
		<stop  offset="0" style="stop-color:#FBFBFB"/>
		<stop  offset="1" style="stop-color:#E4E3E4"/>
	</linearGradient>
	<polygon opacity="0.39" fill="url(#SVGID_7_)" points="44.598,152.261 44.598,102.698 86.51,77.933 128.42,102.698 128.42,152.261 
		86.51,177.027 	"/>
	<polygon opacity="0.39" fill="#FFFFFF" points="86.926,489.217 129.613,463.992 172.301,489.217 172.301,539.665 129.613,564.889 
		86.926,539.665 	"/>
	<linearGradient id="SVGID_8_" gradientUnits="userSpaceOnUse" x1="87.7021" y1="514.4404" x2="171.5244" y2="514.4404">
		<stop  offset="0" style="stop-color:#FBFBFB"/>
		<stop  offset="1" style="stop-color:#E4E3E4"/>
	</linearGradient>
	<polygon opacity="0.39" fill="url(#SVGID_8_)" points="87.702,539.222 87.702,489.659 129.613,464.893 171.524,489.659 
		171.524,539.222 129.613,563.988 	"/>
	<polygon opacity="0.39" fill="#FFFFFF" points="0,489.217 42.687,463.992 85.374,489.217 85.374,539.665 42.687,564.889 0,539.665 
			"/>
	<linearGradient id="SVGID_9_" gradientUnits="userSpaceOnUse" x1="0.7754" y1="514.4404" x2="84.5977" y2="514.4404">
		<stop  offset="0" style="stop-color:#FBFBFB"/>
		<stop  offset="1" style="stop-color:#E4E3E4"/>
	</linearGradient>
	<polygon opacity="0.39" fill="url(#SVGID_9_)" points="0.775,539.222 0.775,489.659 42.687,464.893 84.598,489.659 84.598,539.222 
		42.687,563.988 	"/>
	<polygon opacity="0.39" fill="#FFFFFF" points="348.065,179.286 390.752,154.062 433.439,179.286 433.439,229.734 390.752,254.959 
		348.065,229.734 	"/>
	<linearGradient id="SVGID_10_" gradientUnits="userSpaceOnUse" x1="348.8408" y1="204.5103" x2="432.6641" y2="204.5103">
		<stop  offset="0" style="stop-color:#FBFBFB"/>
		<stop  offset="1" style="stop-color:#E4E3E4"/>
	</linearGradient>
	<polygon opacity="0.39" fill="url(#SVGID_10_)" points="348.841,229.292 348.841,179.729 390.752,154.963 432.664,179.729 
		432.664,229.292 390.752,254.057 	"/>
	<polygon opacity="0.39" fill="#FFFFFF" points="261.139,179.286 303.825,154.062 346.513,179.286 346.513,229.734 303.825,254.959 
		261.139,229.734 	"/>
	<linearGradient id="SVGID_11_" gradientUnits="userSpaceOnUse" x1="261.915" y1="204.5103" x2="345.7373" y2="204.5103">
		<stop  offset="0" style="stop-color:#FBFBFB"/>
		<stop  offset="1" style="stop-color:#E4E3E4"/>
	</linearGradient>
	<polygon opacity="0.39" fill="url(#SVGID_11_)" points="261.915,229.292 261.915,179.729 303.825,154.963 345.737,179.729 
		345.737,229.292 303.825,254.057 	"/>
	<polygon opacity="0.39" fill="#FFFFFF" points="174.212,179.286 216.899,154.062 259.587,179.286 259.587,229.734 216.899,254.959 
		174.212,229.734 	"/>
	<linearGradient id="SVGID_12_" gradientUnits="userSpaceOnUse" x1="174.9883" y1="204.5103" x2="258.8096" y2="204.5103">
		<stop  offset="0" style="stop-color:#FBFBFB"/>
		<stop  offset="1" style="stop-color:#E4E3E4"/>
	</linearGradient>
	<polygon opacity="0.39" fill="url(#SVGID_12_)" points="174.988,229.292 174.988,179.729 216.899,154.963 258.81,179.729 
		258.81,229.292 216.899,254.057 	"/>
	<polygon opacity="0.39" fill="#FFFFFF" points="87.285,179.286 129.973,154.062 172.66,179.286 172.66,229.734 129.973,254.959 
		87.285,229.734 	"/>
	<linearGradient id="SVGID_13_" gradientUnits="userSpaceOnUse" x1="88.0615" y1="204.5103" x2="171.8838" y2="204.5103">
		<stop  offset="0" style="stop-color:#FBFBFB"/>
		<stop  offset="1" style="stop-color:#E4E3E4"/>
	</linearGradient>
	<polygon opacity="0.39" fill="url(#SVGID_13_)" points="88.062,229.292 88.062,179.729 129.973,154.963 171.884,179.729 
		171.884,229.292 129.973,254.057 	"/>
	<polygon opacity="0.39" fill="#FFFFFF" points="304.602,256.316 347.289,231.093 389.977,256.316 389.977,306.766 347.289,331.99 
		304.602,306.766 	"/>
	<linearGradient id="SVGID_14_" gradientUnits="userSpaceOnUse" x1="305.3779" y1="281.541" x2="389.2002" y2="281.541">
		<stop  offset="0" style="stop-color:#FBFBFB"/>
		<stop  offset="1" style="stop-color:#E4E3E4"/>
	</linearGradient>
	<polygon opacity="0.39" fill="url(#SVGID_14_)" points="305.378,306.322 305.378,256.759 347.289,231.994 389.2,256.759 
		389.2,306.322 347.289,331.088 	"/>
	<polygon opacity="0.39" fill="#FFFFFF" points="130.749,256.316 173.436,231.093 216.123,256.316 216.123,306.766 173.436,331.99 
		130.749,306.766 	"/>
	<linearGradient id="SVGID_15_" gradientUnits="userSpaceOnUse" x1="131.5254" y1="281.541" x2="215.3477" y2="281.541">
		<stop  offset="0" style="stop-color:#FBFBFB"/>
		<stop  offset="1" style="stop-color:#E4E3E4"/>
	</linearGradient>
	<polygon opacity="0.39" fill="url(#SVGID_15_)" points="131.525,306.322 131.525,256.759 173.436,231.994 215.348,256.759 
		215.348,306.322 173.436,331.088 	"/>
	<polygon opacity="0.39" fill="#FFFFFF" points="348.065,333.348 390.752,308.124 433.439,333.348 433.439,383.797 390.752,409.021 
		348.065,383.797 	"/>
	<linearGradient id="SVGID_16_" gradientUnits="userSpaceOnUse" x1="348.8408" y1="358.5723" x2="432.6641" y2="358.5723">
		<stop  offset="0" style="stop-color:#FBFBFB"/>
		<stop  offset="1" style="stop-color:#E4E3E4"/>
	</linearGradient>
	<polygon opacity="0.39" fill="url(#SVGID_16_)" points="348.841,383.354 348.841,333.791 390.752,309.025 432.664,333.791 
		432.664,383.354 390.752,408.119 	"/>
	<polygon opacity="0.39" fill="#FFFFFF" points="261.139,333.348 303.825,308.124 346.513,333.348 346.513,383.797 303.825,409.021 
		261.139,383.797 	"/>
	<linearGradient id="SVGID_17_" gradientUnits="userSpaceOnUse" x1="261.915" y1="358.5723" x2="345.7373" y2="358.5723">
		<stop  offset="0" style="stop-color:#FBFBFB"/>
		<stop  offset="1" style="stop-color:#E4E3E4"/>
	</linearGradient>
	<polygon opacity="0.39" fill="url(#SVGID_17_)" points="261.915,383.354 261.915,333.791 303.825,309.025 345.737,333.791 
		345.737,383.354 303.825,408.119 	"/>
	<polygon opacity="0.39" fill="#FFFFFF" points="174.212,333.348 216.899,308.124 259.587,333.348 259.587,383.797 216.899,409.021 
		174.212,383.797 	"/>
	<linearGradient id="SVGID_18_" gradientUnits="userSpaceOnUse" x1="174.9883" y1="358.5723" x2="258.8096" y2="358.5723">
		<stop  offset="0" style="stop-color:#FBFBFB"/>
		<stop  offset="1" style="stop-color:#E4E3E4"/>
	</linearGradient>
	<polygon opacity="0.39" fill="url(#SVGID_18_)" points="174.988,383.354 174.988,333.791 216.899,309.025 258.81,333.791 
		258.81,383.354 216.899,408.119 	"/>
	<polygon opacity="0.39" fill="#FFFFFF" points="87.285,333.348 129.973,308.124 172.66,333.348 172.66,383.797 129.973,409.021 
		87.285,383.797 	"/>
	<linearGradient id="SVGID_19_" gradientUnits="userSpaceOnUse" x1="88.0615" y1="358.5723" x2="171.8838" y2="358.5723">
		<stop  offset="0" style="stop-color:#FBFBFB"/>
		<stop  offset="1" style="stop-color:#E4E3E4"/>
	</linearGradient>
	<polygon opacity="0.39" fill="url(#SVGID_19_)" points="88.062,383.354 88.062,333.791 129.973,309.025 171.884,333.791 
		171.884,383.354 129.973,408.119 	"/>
	<polygon opacity="0.39" fill="#FFFFFF" points="0.358,333.348 43.046,308.124 85.733,333.348 85.733,383.797 43.046,409.021 
		0.358,383.797 	"/>
	<linearGradient id="SVGID_20_" gradientUnits="userSpaceOnUse" x1="1.1348" y1="358.5723" x2="84.957" y2="358.5723">
		<stop  offset="0" style="stop-color:#FBFBFB"/>
		<stop  offset="1" style="stop-color:#E4E3E4"/>
	</linearGradient>
	<polygon opacity="0.39" fill="url(#SVGID_20_)" points="1.135,383.354 1.135,333.791 43.046,309.025 84.957,333.791 
		84.957,383.354 43.046,408.119 	"/>
	<polygon opacity="0.39" fill="#FFFFFF" points="43.822,410.379 86.51,385.153 129.196,410.379 129.196,460.827 86.51,486.051 
		43.822,460.827 	"/>
	<linearGradient id="SVGID_21_" gradientUnits="userSpaceOnUse" x1="44.5977" y1="435.6025" x2="128.4199" y2="435.6025">
		<stop  offset="0" style="stop-color:#FBFBFB"/>
		<stop  offset="1" style="stop-color:#E4E3E4"/>
	</linearGradient>
	<polygon opacity="0.39" fill="url(#SVGID_21_)" points="44.598,460.384 44.598,410.822 86.51,386.056 128.42,410.822 
		128.42,460.384 86.51,485.15 	"/>
	<polygon opacity="0.39" fill="#FFFFFF" points="217.675,256.316 260.362,231.093 303.05,256.316 303.05,306.766 260.362,331.99 
		217.675,306.766 	"/>
	<linearGradient id="SVGID_22_" gradientUnits="userSpaceOnUse" x1="218.4512" y1="281.541" x2="302.2734" y2="281.541">
		<stop  offset="0" style="stop-color:#FBFBFB"/>
		<stop  offset="1" style="stop-color:#E4E3E4"/>
	</linearGradient>
	<polygon opacity="0.39" fill="url(#SVGID_22_)" points="218.451,306.322 218.451,256.759 260.362,231.994 302.273,256.759 
		302.273,306.322 260.362,331.088 	"/>
	<polygon opacity="0.39" fill="#FFFFFF" points="0.358,179.286 43.046,154.062 85.733,179.286 85.733,229.734 43.046,254.959 
		0.358,229.734 	"/>
	<linearGradient id="SVGID_23_" gradientUnits="userSpaceOnUse" x1="1.1348" y1="204.5103" x2="84.957" y2="204.5103">
		<stop  offset="0" style="stop-color:#FBFBFB"/>
		<stop  offset="1" style="stop-color:#E4E3E4"/>
	</linearGradient>
	<polygon opacity="0.39" fill="url(#SVGID_23_)" points="1.135,229.292 1.135,179.729 43.046,154.963 84.957,179.729 
		84.957,229.292 43.046,254.057 	"/>
	<polygon opacity="0.39" fill="#FFFFFF" points="43.822,256.316 86.51,231.093 129.196,256.316 129.196,306.766 86.51,331.99 
		43.822,306.766 	"/>
	<linearGradient id="SVGID_24_" gradientUnits="userSpaceOnUse" x1="44.5977" y1="281.541" x2="128.4199" y2="281.541">
		<stop  offset="0" style="stop-color:#FBFBFB"/>
		<stop  offset="1" style="stop-color:#E4E3E4"/>
	</linearGradient>
	<polygon opacity="0.39" fill="url(#SVGID_24_)" points="44.598,306.322 44.598,256.759 86.51,231.994 128.42,256.759 
		128.42,306.322 86.51,331.088 	"/>
</g>
</svg>
