<svg width="150" height="38" viewBox="0 0 150 38" fill="none" xmlns="http://www.w3.org/2000/svg">
<path d="M59.0903 13.8777H63.8282V28.7803H59.0903V13.8777Z" fill="#E60023"/>
<mask id="mask0_23_295" style="mask-type:luminance" maskUnits="userSpaceOnUse" x="0" y="0" width="150" height="38">
<path d="M0 0.646126H150V37.3545H0V0.646126Z" fill="white"/>
</mask>
<g mask="url(#mask0_23_295)">
<path d="M64.8174 13.8777H69.3808V15.9152H69.4679C70.5724 14.3142 71.9966 13.4412 74.0604 13.4412C77.3157 13.4412 79.234 15.7697 79.234 19.0878V28.7803H74.4963V20.0484C74.4963 18.4765 73.7116 17.3995 72.1711 17.3995C70.6016 17.3995 69.5551 18.7094 69.5551 20.5431V28.7803H64.8174V13.8777Z" fill="#E60023"/>
<path d="M64.3011 9.89055C64.3011 8.3187 63.0287 7.04462 61.4591 7.04462C59.8896 7.04462 58.6172 8.3187 58.6172 9.89055C58.6172 11.4623 59.8896 12.7363 61.4591 12.7363C63.0287 12.7363 64.3011 11.4623 64.3011 9.89055Z" fill="#E60023"/>
<path d="M112.555 13.6621C112.42 13.6499 112.265 13.6445 112.084 13.6445C110.282 13.6445 109.061 14.4303 108.014 16.2058H107.927V13.8774H103.393V28.7798H108.131V22.0854C108.131 18.9835 109.846 17.5461 112.555 17.7969V13.6621Z" fill="#E60023"/>
<path d="M135.805 19.3784C133.916 19.0292 132.23 18.8837 132.23 17.8359C132.23 16.9044 133.131 16.4679 134.293 16.4679C135.601 16.4679 136.503 16.8753 136.677 18.2143H141.037C140.804 15.2745 138.537 13.4407 134.323 13.4407C130.806 13.4407 127.899 15.0707 127.899 18.2143C127.899 21.7069 130.66 22.4055 133.247 22.8422C135.224 23.1915 137.026 23.337 137.026 24.6759C137.026 25.6364 136.125 26.1603 134.701 26.1603C133.272 26.1603 132.327 25.5549 132.037 24.3267H127.522C127.855 27.3902 130.54 29.2456 134.73 29.2456C138.624 29.2456 141.502 27.5575 141.502 24.2976C141.502 20.4845 138.421 19.8151 135.805 19.3784Z" fill="#E60023"/>
<path d="M119.905 16.8173C121.445 16.8173 122.549 17.9525 122.724 19.7281H116.853C117.172 17.9525 118.103 16.8173 119.905 16.8173ZM120.166 25.8111C118.219 25.8111 117.114 24.5597 116.823 22.5513H127.52C127.549 19.5243 126.677 16.9337 124.904 15.3039C123.625 14.1396 121.939 13.441 119.817 13.441C115.283 13.441 112.173 16.8464 112.173 21.2998C112.173 25.8111 115.196 29.2168 120.108 29.2168C121.997 29.2168 123.509 28.722 124.759 27.8487C126.066 26.9465 126.938 25.6658 127.258 24.3269H122.637C122.23 25.2583 121.416 25.8111 120.166 25.8111Z" fill="#E60023"/>
<path d="M149.846 25.2658C149.626 25.2745 149.332 25.2873 149.061 25.2873C148.043 25.2873 147.404 24.9961 147.404 23.8319V16.8463H149.846V13.8774H147.404V9.16217H142.783V13.8774H141.329V16.8463H142.783V24.8506C142.783 28.0524 144.759 28.9546 147.52 28.9546C148.574 28.9546 149.37 28.8756 149.846 28.7826V25.2658Z" fill="#E60023"/>
<path d="M87.6948 25.2726C87.5058 25.2799 87.2876 25.2873 87.0838 25.2873C86.0666 25.2873 85.427 24.9961 85.427 23.8319V16.8463H87.6948V13.8774H85.427V9.16217H80.8056V13.8774H79.2646V16.8463H80.8056V24.8506C80.8056 28.0524 82.782 28.9546 85.5433 28.9546C86.4776 28.9546 87.2091 28.8923 87.6948 28.8135V25.2726Z" fill="#E60023"/>
<path d="M98.0144 19.7281C97.8401 17.9526 96.7354 16.8173 95.1949 16.8173C93.3928 16.8173 92.4628 17.9526 92.143 19.7281H98.0144ZM87.4635 21.2998C87.4635 16.8465 90.5735 13.4412 95.1078 13.4412C97.2295 13.4412 98.9154 14.1396 100.194 15.3039C101.967 16.9339 102.839 19.5243 102.81 22.5514H92.1141C92.4046 24.5597 93.5091 25.8113 95.4566 25.8113C96.7063 25.8113 97.5203 25.2583 97.927 24.3269H102.549C102.229 25.6658 101.357 26.9465 100.049 27.8489C98.7992 28.722 97.2877 29.2168 95.3984 29.2168C90.4863 29.2168 87.4635 25.8113 87.4635 21.2998Z" fill="#E60023"/>
<path d="M50.8625 17.7485C52.7228 17.7485 53.7691 16.6424 53.7691 14.9832C53.7691 13.3242 52.6936 12.3055 50.8625 12.3055H47.2291V17.7485H50.8625ZM42.4326 7.96864H50.6599C53.1885 7.96864 55.0488 8.66712 56.3276 9.88966C57.6647 11.1411 58.4205 12.9168 58.4205 15.0124C58.4205 18.9999 55.6592 21.8234 51.3864 21.8234H47.2291V28.7798H42.4326V7.96864Z" fill="#E60023"/>
<path d="M35.929 19.0001C35.929 28.8928 27.9205 36.9126 18.0416 36.9126C8.16272 36.9126 0.154221 28.8928 0.154221 19.0001C0.154221 9.10719 8.16272 1.08759 18.0416 1.08759C27.9205 1.08759 35.929 9.10719 35.929 19.0001Z" fill="white"/>
<path d="M18.0414 1.0871C8.1625 1.0871 0.153992 9.10685 0.153992 18.9996C0.153992 26.5883 4.8688 33.0755 11.5228 35.6855C11.3665 34.2682 11.2251 32.0886 11.5848 30.5414C11.9099 29.1434 13.6823 21.6378 13.6823 21.6378C13.6823 21.6378 13.1472 20.5647 13.1472 18.9783C13.1472 16.4876 14.5889 14.6281 16.3839 14.6281C17.91 14.6281 18.6471 15.7754 18.6471 17.1513C18.6471 18.6882 17.67 20.986 17.1657 23.1153C16.7443 24.8982 18.0585 26.3521 19.8145 26.3521C22.9937 26.3521 25.4376 22.9952 25.4376 18.1496C25.4376 13.8607 22.3602 10.8621 17.9659 10.8621C12.8763 10.8621 9.88889 14.6849 9.88889 18.6356C9.88889 20.1752 10.4811 21.826 11.2201 22.7234C11.3663 22.9008 11.3877 23.0562 11.3442 23.2372C11.2084 23.803 10.9066 25.0196 10.8474 25.2687C10.7694 25.5965 10.5882 25.6661 10.2492 25.5081C8.01514 24.4668 6.61836 21.1959 6.61836 18.5688C6.61836 12.9184 10.7181 7.72911 18.4373 7.72911C24.6424 7.72911 29.4646 12.157 29.4646 18.0746C29.4646 24.2479 25.5776 29.2161 20.1826 29.2161C18.37 29.2161 16.666 28.2732 16.0827 27.1593C16.0827 27.1593 15.1858 30.5793 14.9684 31.4175C14.5645 32.9733 13.4744 34.9235 12.7452 36.1133C14.4188 36.6322 16.1974 36.9121 18.0414 36.9121C27.9204 36.9121 35.9289 28.8924 35.9289 18.9996C35.9289 9.10685 27.9204 1.0871 18.0414 1.0871Z" fill="#E60023"/>
</g>
</svg>
