<svg width="584" height="435" viewBox="0 0 584 435" fill="none" xmlns="http://www.w3.org/2000/svg">
<g clip-path="url(#clip0_5_4)">
<path d="M584 382.278H0V382.571H584V382.278Z" fill="#EBEBEB"/>
<path d="M525.483 401.062H486.799V401.355H525.483V401.062Z" fill="#EBEBEB"/>
<path d="M386.865 404.238H376.715V404.53H386.865V404.238Z" fill="#EBEBEB"/>
<path d="M485.631 390.229H463.217V390.521H485.631V390.229Z" fill="#EBEBEB"/>
<path d="M111.719 392.19H61.2733V392.482H111.719V392.19Z" fill="#EBEBEB"/>
<path d="M129.52 392.19H122.126V392.482H129.52V392.19Z" fill="#EBEBEB"/>
<path d="M262.975 397.117H153.557V397.409H262.975V397.117Z" fill="#EBEBEB"/>
<path d="M276.828 330.211H51.2986C47.6194 330.211 44.6293 327.222 44.6293 323.544V6.66608C44.6293 2.98865 47.6194 0 51.2986 0H276.839C280.519 0 283.509 2.98865 283.509 6.66608V323.544C283.497 327.222 280.507 330.211 276.828 330.211ZM51.2986 0.29186C47.7829 0.29186 44.9213 3.15209 44.9213 6.66608V323.544C44.9213 327.058 47.7829 329.919 51.2986 329.919H276.839C280.355 329.919 283.217 327.058 283.217 323.544V6.66608C283.217 3.15209 280.355 0.29186 276.839 0.29186H51.2986Z" fill="#EBEBEB"/>
<path d="M529.466 330.211H303.925C300.246 330.211 297.256 327.222 297.256 323.544V6.66608C297.256 2.98865 300.246 0 303.925 0H529.466C533.145 0 536.135 2.98865 536.135 6.66608V323.544C536.135 327.222 533.145 330.211 529.466 330.211ZM303.925 0.29186C300.41 0.29186 297.548 3.15209 297.548 6.66608V323.544C297.548 327.058 300.41 329.919 303.925 329.919H529.466C532.982 329.919 535.843 327.058 535.843 323.544V6.66608C535.843 3.15209 532.982 0.29186 529.466 0.29186H303.925Z" fill="#EBEBEB"/>
<path d="M413.39 50.4101C413.39 47.258 410.832 44.7013 407.679 44.7013C407.106 44.7013 406.557 44.783 406.044 44.9464C406.125 44.3744 406.172 43.7907 406.172 43.1953C406.172 36.5175 400.752 31.1006 394.072 31.1006C393.312 31.1006 392.565 31.1706 391.841 31.3107C389.984 28.2754 386.643 26.2324 382.812 26.2324C377.019 26.2324 372.323 30.8788 372.242 36.6459C372.183 36.6459 372.125 36.6343 372.066 36.6343C366.682 36.6343 362.325 40.9888 362.325 46.3707C362.325 51.7526 366.682 56.1072 372.066 56.1072H407.842L407.831 56.0955C410.914 56.0254 413.39 53.5154 413.39 50.4101Z" fill="#F0F0F0"/>
<path d="M392.39 58.9557V47.83H383.314V58.9557H375.921L387.858 69.0424L399.795 58.9557H392.39Z" fill="#E0E0E0"/>
<path d="M234.394 67.2446C234.394 60.5435 228.963 55.1149 222.259 55.1149C221.044 55.1149 219.876 55.3016 218.778 55.6285C218.953 54.4144 219.047 53.1652 219.047 51.9044C219.047 37.72 207.542 26.2324 193.362 26.2324C191.751 26.2324 190.162 26.3841 188.632 26.676C184.684 20.2201 177.583 15.8889 169.465 15.8889C157.166 15.8889 147.191 25.7654 147.004 38.0119C146.876 38.0119 146.759 37.9885 146.631 37.9885C135.208 37.9885 125.934 47.2463 125.934 58.6755C125.934 70.0931 135.196 79.3626 146.631 79.3626H222.621L222.609 79.3509C229.15 79.1758 234.394 73.8289 234.394 67.2446Z" fill="#F0F0F0"/>
<path d="M170.528 68.1902V91.8309H189.812V68.1902H205.521L180.164 46.7793L154.818 68.1902H170.528Z" fill="#E0E0E0"/>
<path d="M244.077 126.294V94.5043H341.465V125.967" stroke="#E6E6E6" stroke-miterlimit="10"/>
<path d="M294.208 64.5478V126.2" stroke="#E6E6E6" stroke-miterlimit="10"/>
<path d="M310.781 52.4414H277.657C276.886 52.4414 276.267 53.0602 276.267 53.8307V73.5371C276.267 74.3076 276.886 74.9263 277.657 74.9263H310.781C311.552 74.9263 312.171 74.3076 312.171 73.5371V53.819C312.16 53.0602 311.541 52.4414 310.781 52.4414Z" fill="#F0F0F0"/>
<path d="M310.431 74.0157H277.996C277.727 74.0157 277.505 73.7939 277.505 73.5254V55.5702C277.505 55.3016 277.727 55.0798 277.996 55.0798H310.431C310.7 55.0798 310.922 55.3016 310.922 55.5702V73.5254C310.922 73.7939 310.7 74.0157 310.431 74.0157Z" fill="#E0E0E0"/>
<path d="M260.639 123.41H227.515C226.744 123.41 226.125 124.029 226.125 124.799V144.506C226.125 145.276 226.744 145.895 227.515 145.895H260.639C261.41 145.895 262.029 145.276 262.029 144.506V124.799C262.029 124.029 261.41 123.41 260.639 123.41Z" fill="#F0F0F0"/>
<path d="M260.3 144.996H227.865C227.596 144.996 227.375 144.774 227.375 144.506V126.551C227.375 126.282 227.596 126.06 227.865 126.06H260.3C260.569 126.06 260.791 126.282 260.791 126.551V144.506C260.791 144.774 260.569 144.996 260.3 144.996Z" fill="#E0E0E0"/>
<path d="M310.781 123.41H277.657C276.886 123.41 276.267 124.029 276.267 124.799V144.506C276.267 145.276 276.886 145.895 277.657 145.895H310.781C311.552 145.895 312.171 145.276 312.171 144.506V124.799C312.16 124.029 311.541 123.41 310.781 123.41Z" fill="#F0F0F0"/>
<path d="M310.431 144.996H277.996C277.727 144.996 277.505 144.774 277.505 144.506V126.551C277.505 126.282 277.727 126.06 277.996 126.06H310.431C310.7 126.06 310.922 126.282 310.922 126.551V144.506C310.922 144.774 310.7 144.996 310.431 144.996Z" fill="#E0E0E0"/>
<path d="M358.109 123.41H324.984C324.213 123.41 323.594 124.029 323.594 124.799V144.506C323.594 145.276 324.213 145.895 324.984 145.895H358.109C358.88 145.895 359.499 145.276 359.499 144.506V124.799C359.499 124.029 358.88 123.41 358.109 123.41Z" fill="#F0F0F0"/>
<path d="M357.77 144.996H325.335C325.066 144.996 324.844 144.774 324.844 144.506V126.551C324.844 126.282 325.066 126.06 325.335 126.06H357.77C358.039 126.06 358.261 126.282 358.261 126.551V144.506C358.261 144.774 358.039 144.996 357.77 144.996Z" fill="#E0E0E0"/>
<path d="M293.542 84.8612L284.56 93.8389C284.198 94.2008 284.198 94.7962 284.56 95.1697L293.542 104.147C293.904 104.509 294.5 104.509 294.873 104.147L303.855 95.1697C304.217 94.8078 304.217 94.2124 303.855 93.8389L294.873 84.8612C294.511 84.4993 293.916 84.4993 293.542 84.8612Z" fill="#E0E0E0"/>
<path opacity="0.8" d="M104.045 94.2475H80.6854C80.1248 94.2475 79.6693 93.7922 79.6693 93.2318V80.0514C79.6693 79.491 80.1248 79.0357 80.6854 79.0357H104.057C104.618 79.0357 105.073 79.491 105.073 80.0514V93.2318C105.073 93.7922 104.618 94.2475 104.045 94.2475Z" fill="#E0E0E0"/>
<path d="M86.2218 123.375H67.709C67.1483 123.375 66.6928 122.92 66.6928 122.359V112.775C66.6928 112.214 67.1483 111.759 67.709 111.759H86.2218C86.7824 111.759 87.2379 112.214 87.2379 112.775V122.359C87.2379 122.92 86.7824 123.375 86.2218 123.375Z" fill="#E0E0E0"/>
<path d="M117.396 123.375H98.8829C98.3222 123.375 97.8667 122.92 97.8667 122.359V112.775C97.8667 112.214 98.3222 111.759 98.8829 111.759H117.396C117.956 111.759 118.412 112.214 118.412 112.775V122.359C118.412 122.92 117.956 123.375 117.396 123.375Z" fill="#E0E0E0"/>
<path d="M98.2288 146.269H89.4805C88.9198 146.269 88.4643 145.813 88.4643 145.253V137.361C88.4643 136.801 88.9198 136.345 89.4805 136.345H98.2288C98.7894 136.345 99.245 136.801 99.245 137.361V145.253C99.245 145.802 98.7894 146.269 98.2288 146.269Z" fill="#E0E0E0"/>
<path d="M111.929 146.269H103.181C102.62 146.269 102.165 145.813 102.165 145.253V137.361C102.165 136.801 102.62 136.345 103.181 136.345H111.929C112.49 136.345 112.946 136.801 112.946 137.361V145.253C112.946 145.802 112.49 146.269 111.929 146.269Z" fill="#E0E0E0"/>
<path d="M125.618 146.269H116.87C116.309 146.269 115.854 145.813 115.854 145.253V137.361C115.854 136.801 116.309 136.345 116.87 136.345H125.618C126.179 136.345 126.635 136.801 126.635 137.361V145.253C126.635 145.802 126.179 146.269 125.618 146.269Z" fill="#E0E0E0"/>
<path d="M66.541 146.269H57.7926C57.232 146.269 56.7765 145.813 56.7765 145.253V137.361C56.7765 136.801 57.232 136.345 57.7926 136.345H66.541C67.1016 136.345 67.5571 136.801 67.5571 137.361V145.253C67.5571 145.802 67.1016 146.269 66.541 146.269Z" fill="#E0E0E0"/>
<path d="M81.3979 146.269H72.6496C72.089 146.269 71.6334 145.813 71.6334 145.253V137.361C71.6334 136.801 72.089 136.345 72.6496 136.345H81.3979C81.9586 136.345 82.4141 136.801 82.4141 137.361V145.253C82.4258 145.802 81.9702 146.269 81.3979 146.269Z" fill="#E0E0E0"/>
<path d="M106.965 111.759H108.133V103.587H92.9494V94.2475H91.7814V103.587H76.5974V111.759H77.7654V104.754H106.965V111.759Z" fill="#E0E0E0"/>
<path d="M76.5974 130.438H61.4134V136.275H62.5814V131.606H76.5974V136.275H77.7654V123.433H76.5974V130.438Z" fill="#E0E0E0"/>
<path d="M108.133 131.606V123.433H106.965V131.606H92.9494V136.275H94.1174V132.773H106.965V136.275H108.133V132.773H120.981V136.275H122.149V131.606H108.133Z" fill="#E0E0E0"/>
<path d="M444.996 82.6898V91.072L449.318 91.4806C449.902 94.2942 451.012 96.9092 452.542 99.2324L449.762 102.583L455.695 108.514L459.047 105.735C461.372 107.264 463.988 108.373 466.803 108.957L467.212 113.277H475.598L476.007 108.957C478.822 108.373 481.438 107.264 483.762 105.735L487.114 108.514L493.048 102.583L490.268 99.2324C491.786 96.9092 492.908 94.2942 493.492 91.4806L497.813 91.072V82.6898L493.492 82.2812C492.908 79.4677 491.798 76.8526 490.268 74.5294L493.048 71.1788L487.114 65.2482L483.762 68.0267C481.438 66.5091 478.822 65.3883 476.007 64.8046L475.598 60.4851H467.212L466.803 64.8046C463.988 65.3883 461.372 66.4974 459.047 68.0267L455.695 65.2482L449.762 71.1788L452.542 74.5294C451.012 76.8526 449.902 79.4677 449.318 82.2812L444.996 82.6898ZM471.405 75.5217C477.677 75.5217 482.769 80.6001 482.769 86.8809C482.769 93.1501 477.689 98.2284 471.405 98.2284C465.133 98.2284 460.04 93.1501 460.04 86.8809C460.04 80.6117 465.133 75.5217 471.405 75.5217Z" fill="#F5F5F5"/>
<path d="M450.416 143.875C452.623 143.42 454.667 142.544 456.489 141.354L459.117 143.525L463.766 138.879L461.594 136.252C462.785 134.431 463.661 132.388 464.116 130.181L467.504 129.866V123.293L464.116 122.978C463.661 120.772 462.785 118.729 461.594 116.907L463.766 114.281L459.117 109.634L456.489 111.806C454.667 110.615 452.623 109.739 450.416 109.284L450.1 105.899H443.525L443.209 109.284C441.002 109.739 438.958 110.615 437.136 111.806L434.508 109.634L429.859 114.281L432.032 116.907C430.84 118.729 429.964 120.772 429.509 122.978L426.121 123.293V129.866L429.509 130.181C429.964 132.388 430.84 134.431 432.032 136.252L429.859 138.879L434.508 143.525L437.136 141.354C438.958 142.544 441.002 143.42 443.209 143.875L443.525 147.261H450.1L450.416 143.875ZM437.907 126.586C437.907 121.671 441.889 117.69 446.807 117.69C451.724 117.69 455.707 121.671 455.707 126.586C455.707 131.5 451.724 135.481 446.807 135.481C441.901 135.481 437.907 131.5 437.907 126.586Z" fill="#F5F5F5"/>
<path d="M435.746 108.315L437.953 110.136L441.854 106.237L440.032 104.031C441.037 102.501 441.773 100.785 442.158 98.9289L444.996 98.6604V93.1384L442.158 92.8699C441.773 91.0136 441.037 89.2975 440.032 87.7682L441.854 85.5617L437.953 81.6624L435.746 83.4837C434.216 82.4797 432.499 81.7442 430.642 81.3589L430.373 78.522H424.848L424.58 81.3589C422.723 81.7442 421.006 82.4797 419.476 83.4837L417.268 81.6624L413.367 85.5617L415.189 87.7682C414.184 89.2975 413.449 91.0136 413.063 92.8699L410.225 93.1384V98.6604L413.063 98.9289C413.449 100.773 414.184 102.501 415.189 104.031L413.379 106.237L417.28 110.136L419.487 108.315C421.017 109.319 422.734 110.055 424.591 110.44L424.86 113.277H430.385L430.653 110.428C432.499 110.043 434.216 109.307 435.746 108.315ZM420.141 95.9052C420.141 91.7725 423.493 88.4336 427.616 88.4336C431.739 88.4336 435.092 91.7842 435.092 95.9052C435.092 100.038 431.739 103.377 427.616 103.377C423.493 103.377 420.141 100.026 420.141 95.9052Z" fill="#F5F5F5"/>
<path d="M513.208 314.135H434.776V365.117H513.208V314.135Z" fill="#F5F5F5"/>
<path d="M510.323 323.696H437.638V362.572H510.323V323.696Z" fill="#E0E0E0"/>
<path d="M497.334 329.498H443.56V331.168H497.334V329.498Z" fill="#F5F5F5"/>
<path d="M469.361 334.623H443.56V336.293H469.361V334.623Z" fill="#F5F5F5"/>
<path d="M476.053 339.749H443.56V341.418H476.053V339.749Z" fill="#F5F5F5"/>
<path d="M455.006 344.874H443.56V346.543H455.006V344.874Z" fill="#F5F5F5"/>
<path d="M450.976 349.987H443.56V351.656H450.976V349.987Z" fill="#F5F5F5"/>
<path d="M111.653 313.848L55.8463 314.102L56.0032 348.506L111.81 348.252L111.653 313.848Z" fill="#EBEBEB"/>
<path d="M77.2515 339.854C77.0179 339.854 76.7726 339.784 76.5624 339.632L66.3774 332.195C66.0738 331.973 65.8986 331.623 65.8986 331.261C65.8986 330.888 66.0738 330.538 66.3658 330.316L76.4806 322.786C76.9946 322.4 77.7304 322.506 78.1158 323.019C78.5013 323.533 78.3962 324.268 77.8706 324.654L69.0288 331.238L77.929 337.741C78.4546 338.126 78.5597 338.85 78.1859 339.375C77.964 339.69 77.6136 339.854 77.2515 339.854Z" fill="#FAFAFA"/>
<path d="M90.4733 339.795C90.1112 339.795 89.7608 339.632 89.5389 339.328C89.1534 338.815 89.2586 338.079 89.7842 337.694L98.6259 331.109L89.7258 324.607C89.2002 324.222 89.095 323.498 89.4688 322.972C89.8542 322.447 90.5784 322.342 91.104 322.716L101.289 330.152C101.593 330.374 101.768 330.724 101.768 331.086C101.768 331.46 101.593 331.81 101.301 332.032L91.1858 339.562C90.9522 339.713 90.7069 339.795 90.4733 339.795Z" fill="#FAFAFA"/>
<path d="M81.1994 339.83C81.0709 339.83 80.9424 339.807 80.8139 339.76C80.2066 339.55 79.8795 338.885 80.1014 338.278L85.3458 323.288C85.556 322.681 86.2218 322.354 86.8291 322.575C87.4365 322.786 87.7635 323.451 87.5416 324.058L82.2973 339.048C82.1338 339.538 81.6899 339.83 81.1994 339.83Z" fill="#FAFAFA"/>
<path d="M292 435C417.072 435 518.464 429.083 518.464 421.785C518.464 414.486 417.072 408.569 292 408.569C166.928 408.569 65.5365 414.486 65.5365 421.785C65.5365 429.083 166.928 435 292 435Z" fill="#F5F5F5"/>
<path d="M390.556 421.785H399.141L410.821 357.295H402.236L390.556 421.785Z" fill="#263238"/>
<path opacity="0.2" d="M390.556 421.785H399.141L410.821 357.295H402.236L390.556 421.785Z" fill="white"/>
<path opacity="0.2" d="M390.556 421.785H396.805L408.485 357.295H402.236L390.556 421.785Z" fill="white"/>
<path d="M366.39 376.476H400.717C401.769 376.476 402.61 375.624 402.61 374.585C402.61 373.534 401.757 372.694 400.717 372.694H366.39C365.339 372.694 364.498 373.546 364.498 374.585C364.498 375.624 365.339 376.476 366.39 376.476Z" fill="#263238"/>
<path d="M362.571 398.062H396.898C397.949 398.062 398.79 397.21 398.79 396.171C398.79 395.12 397.938 394.28 396.898 394.28H362.571C361.519 394.28 360.678 395.132 360.678 396.171C360.678 397.222 361.531 398.062 362.571 398.062Z" fill="#263238"/>
<path d="M355.516 421.785H364.101L375.781 357.295H367.196L355.516 421.785Z" fill="#263238"/>
<path opacity="0.2" d="M355.516 421.785H364.101L375.781 357.295H367.196L355.516 421.785Z" fill="white"/>
<path opacity="0.2" d="M355.516 421.785H361.765L373.445 357.295H367.196L355.516 421.785Z" fill="white"/>
<path d="M435.349 421.785H426.764L415.084 357.295H423.669L435.349 421.785Z" fill="#263238"/>
<path opacity="0.4" d="M435.349 421.785H426.764L415.084 357.295H423.669L435.349 421.785Z" fill="white"/>
<path opacity="0.2" d="M433.013 421.785H426.764L415.084 357.295H421.333L433.013 421.785Z" fill="white"/>
<path d="M420.27 376.476H385.942C384.891 376.476 384.05 375.624 384.05 374.585C384.05 373.534 384.903 372.694 385.942 372.694H420.27C421.321 372.694 422.162 373.546 422.162 374.585C422.162 375.624 421.309 376.476 420.27 376.476Z" fill="#263238"/>
<path d="M424.077 398.062H389.75C388.699 398.062 387.858 397.21 387.858 396.171C387.858 395.12 388.71 394.28 389.75 394.28H424.077C425.129 394.28 425.97 395.132 425.97 396.171C425.97 397.222 425.129 398.062 424.077 398.062Z" fill="#263238"/>
<path opacity="0.2" d="M420.27 376.476H385.942C384.891 376.476 384.05 375.624 384.05 374.585C384.05 373.534 384.903 372.694 385.942 372.694H420.27C421.321 372.694 422.162 373.546 422.162 374.585C422.162 375.624 421.309 376.476 420.27 376.476Z" fill="white"/>
<path opacity="0.2" d="M424.077 398.062H389.75C388.699 398.062 387.858 397.21 387.858 396.171C387.858 395.12 388.71 394.28 389.75 394.28H424.077C425.129 394.28 425.97 395.132 425.97 396.171C425.97 397.222 425.129 398.062 424.077 398.062Z" fill="white"/>
<path d="M400.309 421.785H391.724L380.044 357.295H388.629L400.309 421.785Z" fill="#263238"/>
<path opacity="0.4" d="M400.309 421.785H391.724L380.044 357.295H388.629L400.309 421.785Z" fill="white"/>
<path opacity="0.2" d="M397.973 421.785H391.724L380.044 357.295H386.293L397.973 421.785Z" fill="white"/>
<path d="M427.009 360.366H364.988C364.217 360.366 363.598 359.747 363.598 358.976V355.591C363.598 354.82 364.217 354.201 364.988 354.201H427.009C427.78 354.201 428.399 354.82 428.399 355.591V358.976C428.399 359.747 427.78 360.366 427.009 360.366Z" fill="#263238"/>
<path opacity="0.2" d="M388.57 360.366H364.988C364.217 360.366 363.598 359.747 363.598 358.976V355.591C363.598 354.82 364.217 354.201 364.988 354.201H388.57C389.341 354.201 389.96 354.82 389.96 355.591V358.976C389.96 359.747 389.341 360.366 388.57 360.366Z" fill="white"/>
<path d="M227.001 369.95H148.57V420.932H227.001V369.95Z" fill="#407BFF"/>
<path opacity="0.6" d="M227.001 369.95H148.57V420.932H227.001V369.95Z" fill="white"/>
<path d="M224.139 379.512H151.443V418.387H224.139V379.512Z" fill="#407BFF"/>
<path d="M211.139 385.325H157.365V386.995H211.139V385.325Z" fill="white"/>
<path d="M183.166 390.451H157.365V392.12H183.166V390.451Z" fill="white"/>
<path d="M189.858 395.564H157.365V397.233H189.858V395.564Z" fill="white"/>
<path d="M168.823 400.689H157.365V402.358H168.823V400.689Z" fill="white"/>
<path d="M164.781 405.814H157.365V407.483H164.781V405.814Z" fill="white"/>
<path d="M323.921 421.785H260.079L270.883 336.947H313.117L323.921 421.785Z" fill="#407BFF"/>
<path opacity="0.6" d="M323.921 421.785H260.079L267.472 363.739L270.894 336.947H313.106L318.152 376.476L323.921 421.785Z" fill="white"/>
<path opacity="0.1" d="M318.152 376.476L267.472 363.739L270.894 336.947H313.106L318.152 376.476Z" fill="black"/>
<path d="M442.52 127.753H436.143H147.869H141.492C137.24 127.753 133.783 131.197 133.783 135.458V339.153C133.783 343.403 137.228 346.858 141.492 346.858H147.869H436.131H442.508C446.76 346.858 450.217 343.414 450.217 339.153V135.446C450.217 131.197 446.772 127.753 442.52 127.753Z" fill="#407BFF"/>
<path opacity="0.7" d="M442.52 127.753H436.143H147.869H141.492C137.24 127.753 133.783 131.197 133.783 135.458V339.153C133.783 343.403 137.228 346.858 141.492 346.858H147.869H436.131H442.508C446.76 346.858 450.217 343.414 450.217 339.153V135.446C450.217 131.197 446.772 127.753 442.52 127.753Z" fill="white"/>
<path d="M440.091 135.295H143.921V331.717H440.091V135.295Z" fill="#407BFF"/>
<path d="M345.623 415.41H238.377C237.711 415.41 237.162 415.947 237.162 416.625V420.477C237.162 421.143 237.7 421.691 238.377 421.691H345.623C346.289 421.691 346.838 421.154 346.838 420.477V416.625C346.838 415.947 346.289 415.41 345.623 415.41Z" fill="#407BFF"/>
<path opacity="0.7" d="M345.623 415.41H238.377C237.711 415.41 237.162 415.947 237.162 416.625V420.477C237.162 421.143 237.7 421.691 238.377 421.691H345.623C346.289 421.691 346.838 421.154 346.838 420.477V416.625C346.838 415.947 346.289 415.41 345.623 415.41Z" fill="white"/>
<path opacity="0.2" d="M440.091 135.481H143.921V164.761H440.091V135.481Z" fill="black"/>
<path opacity="0.4" d="M270.836 165.099H143.921V331.705H270.836V165.099Z" fill="white"/>
<path d="M394.504 207.606V210.525H391.584" stroke="white" stroke-miterlimit="10"/>
<path d="M385.417 210.525H289.757" stroke="white" stroke-miterlimit="10" stroke-dasharray="5.28 5.28"/>
<path d="M286.674 210.525H283.754V207.606" stroke="white" stroke-miterlimit="10"/>
<path d="M283.754 202.317V152.082" stroke="white" stroke-miterlimit="10" stroke-dasharray="4.53 4.53"/>
<path d="M283.754 149.444V146.525H286.674" stroke="white" stroke-miterlimit="10"/>
<path d="M292.841 146.525H388.5" stroke="white" stroke-miterlimit="10" stroke-dasharray="5.28 5.28"/>
<path d="M391.584 146.525H394.504V149.444" stroke="white" stroke-miterlimit="10"/>
<path d="M394.504 154.721V204.956" stroke="white" stroke-miterlimit="10" stroke-dasharray="4.53 4.53"/>
<path d="M396.361 144.669H392.658V148.37H396.361V144.669Z" fill="#407BFF" stroke="white" stroke-miterlimit="10"/>
<path d="M396.361 208.668H392.658V212.369H396.361V208.668Z" fill="#407BFF" stroke="white" stroke-miterlimit="10"/>
<path d="M285.599 144.669H281.897V148.37H285.599V144.669Z" fill="#407BFF" stroke="white" stroke-miterlimit="10"/>
<path d="M285.599 208.668H281.897V212.369H285.599V208.668Z" fill="#407BFF" stroke="white" stroke-miterlimit="10"/>
<path d="M340.986 144.669H337.283V148.37H340.986V144.669Z" fill="#407BFF" stroke="white" stroke-miterlimit="10"/>
<path d="M340.986 208.668H337.283V212.369H340.986V208.668Z" fill="#407BFF" stroke="white" stroke-miterlimit="10"/>
<path d="M396.361 176.669H392.658V180.37H396.361V176.669Z" fill="#407BFF" stroke="white" stroke-miterlimit="10"/>
<path d="M285.599 176.669H281.897V180.37H285.599V176.669Z" fill="#407BFF" stroke="white" stroke-miterlimit="10"/>
<path opacity="0.7" d="M384.447 179.681H357.35C356.123 179.681 355.142 178.688 355.142 177.474V170.236C355.142 169.01 356.135 168.03 357.35 168.03H384.447C385.674 168.03 386.655 169.022 386.655 170.236V177.474C386.655 178.688 385.674 179.681 384.447 179.681Z" fill="white"/>
<path opacity="0.7" d="M337.727 179.681H310.63C309.403 179.681 308.422 178.688 308.422 177.474V170.236C308.422 169.01 309.415 168.03 310.63 168.03H337.727C338.954 168.03 339.935 169.022 339.935 170.236V177.474C339.935 178.688 338.954 179.681 337.727 179.681Z" fill="white"/>
<path opacity="0.7" d="M277.575 321.618H250.478C249.251 321.618 248.27 320.626 248.27 319.412V312.174C248.27 310.948 249.263 309.967 250.478 309.967H277.575C278.802 309.967 279.783 310.959 279.783 312.174V319.412C279.794 320.638 278.802 321.618 277.575 321.618Z" fill="white"/>
<path d="M420.538 145.895H430.396" stroke="white" stroke-width="1.5" stroke-miterlimit="10" stroke-linecap="round" stroke-linejoin="round"/>
<path d="M420.538 150.565H430.396" stroke="white" stroke-width="1.5" stroke-miterlimit="10" stroke-linecap="round" stroke-linejoin="round"/>
<path d="M420.538 155.235H430.396" stroke="white" stroke-width="1.5" stroke-miterlimit="10" stroke-linecap="round" stroke-linejoin="round"/>
<path opacity="0.5" d="M263.337 190.935H163.999V290.226H263.337V190.935Z" fill="white"/>
<path d="M205.58 199.049V284.692" stroke="#407BFF" stroke-miterlimit="10"/>
<path d="M248.422 284.692C224.758 284.692 205.58 265.523 205.58 241.87C205.58 218.218 224.758 199.049 248.422 199.049" stroke="#407BFF" stroke-miterlimit="10"/>
<path d="M250.279 197.204H246.576V200.905H250.279V197.204Z" fill="white" stroke="#407BFF" stroke-miterlimit="10"/>
<path d="M250.279 282.847H246.576V286.548H250.279V282.847Z" fill="white" stroke="#407BFF" stroke-miterlimit="10"/>
<path d="M207.437 240.026H203.734V243.727H207.437V240.026Z" fill="white" stroke="#407BFF" stroke-miterlimit="10"/>
<path d="M206.537 199.049C206.537 199.574 206.105 200.006 205.58 200.006C205.054 200.006 204.622 199.574 204.622 199.049C204.622 198.523 205.054 198.091 205.58 198.091C206.105 198.091 206.537 198.523 206.537 199.049Z" fill="white" stroke="#407BFF" stroke-miterlimit="10"/>
<path d="M206.537 284.692C206.537 285.217 206.105 285.649 205.58 285.649C205.054 285.649 204.622 285.217 204.622 284.692C204.622 284.167 205.054 283.735 205.58 283.735C206.105 283.735 206.537 284.167 206.537 284.692Z" fill="white" stroke="#407BFF" stroke-miterlimit="10"/>
<path opacity="0.7" d="M370.174 311.38H340.098C335.298 311.38 331.408 307.492 331.408 302.694C331.408 297.896 335.298 294.008 340.098 294.008H370.174C374.975 294.008 378.864 297.896 378.864 302.694C378.864 307.492 374.975 311.38 370.174 311.38Z" fill="white"/>
<path opacity="0.7" d="M396.594 237.306H303.692C302.64 237.306 301.788 236.453 301.788 235.403C301.788 234.352 302.64 233.5 303.692 233.5H396.594C397.646 233.5 398.498 234.352 398.498 235.403C398.498 236.453 397.646 237.306 396.594 237.306Z" fill="white"/>
<path opacity="0.7" d="M396.594 251.163H303.692C302.64 251.163 301.788 250.311 301.788 249.26C301.788 248.21 302.64 247.357 303.692 247.357H396.594C397.646 247.357 398.498 248.21 398.498 249.26C398.498 250.311 397.646 251.163 396.594 251.163Z" fill="white"/>
<path opacity="0.7" d="M396.594 265.032H338.732C337.68 265.032 336.828 264.18 336.828 263.129C336.828 262.079 337.68 261.226 338.732 261.226H396.594C397.646 261.226 398.498 262.079 398.498 263.129C398.498 264.18 397.646 265.032 396.594 265.032Z" fill="white"/>
<path opacity="0.4" d="M159.841 143.595H153.277V150.156H159.841V143.595Z" fill="black"/>
<path opacity="0.4" d="M170.913 150.156H167.713C166.779 150.156 166.031 149.409 166.031 148.475V145.276C166.031 144.354 166.779 143.595 167.713 143.595H170.913C171.848 143.595 172.595 144.342 172.595 145.276V148.475C172.595 149.397 171.848 150.156 170.913 150.156Z" fill="black"/>
<path opacity="0.4" d="M182.348 150.156H181.788C180.129 150.156 178.786 148.814 178.786 147.156V146.596C178.786 144.938 180.129 143.595 181.788 143.595H182.348C184.007 143.595 185.35 144.938 185.35 146.596V147.156C185.362 148.814 184.007 150.156 182.348 150.156Z" fill="black"/>
<path opacity="0.9" d="M173.39 305.344V302.787L172.07 302.659C171.895 301.807 171.556 301.001 171.089 300.301L171.93 299.285L170.119 297.476L169.103 298.316C168.391 297.849 167.596 297.511 166.744 297.335L166.615 296.016H164.057L163.929 297.335C163.076 297.511 162.27 297.849 161.569 298.316L160.553 297.476L158.743 299.285L159.584 300.301C159.117 301.013 158.778 301.807 158.603 302.659L157.283 302.787V305.344L158.603 305.473C158.778 306.325 159.117 307.13 159.584 307.831L158.743 308.846L160.553 310.656L161.569 309.815C162.282 310.282 163.076 310.621 163.929 310.796L164.057 312.115H166.615L166.744 310.796C167.596 310.621 168.402 310.282 169.103 309.815L170.119 310.656L171.93 308.846L171.089 307.831C171.556 307.119 171.895 306.325 172.07 305.473L173.39 305.344ZM165.342 307.527C163.427 307.527 161.885 305.974 161.885 304.072C161.885 302.169 163.438 300.616 165.342 300.616C167.258 300.616 168.799 302.169 168.799 304.072C168.799 305.974 167.258 307.527 165.342 307.527Z" fill="white"/>
<path opacity="0.6" d="M183.761 312.559V310.551L182.734 310.457C182.593 309.78 182.325 309.162 181.963 308.601L182.628 307.796L181.215 306.383L180.409 307.049C179.86 306.687 179.23 306.418 178.564 306.278L178.47 305.251H176.461L176.368 306.278C175.691 306.418 175.072 306.687 174.511 307.049L173.705 306.383L172.292 307.796L172.957 308.601C172.595 309.162 172.327 309.78 172.187 310.457L171.159 310.551V312.559L172.187 312.652C172.327 313.329 172.595 313.948 172.957 314.497L172.292 315.302L173.705 316.715L174.511 316.05C175.072 316.411 175.691 316.68 176.368 316.82L176.461 317.847H178.47L178.564 316.82C179.241 316.68 179.86 316.411 180.421 316.05L181.227 316.715L182.64 315.302L181.974 314.497C182.336 313.936 182.605 313.318 182.745 312.652L183.761 312.559ZM177.454 314.275C175.959 314.275 174.744 313.061 174.744 311.567C174.744 310.072 175.959 308.858 177.454 308.858C178.949 308.858 180.164 310.072 180.164 311.567C180.164 313.049 178.949 314.275 177.454 314.275Z" fill="white"/>
<path opacity="0.4" d="M173.39 318.244V316.563L172.525 316.481C172.408 315.921 172.187 315.396 171.883 314.929L172.444 314.252L171.252 313.061L170.575 313.621C170.108 313.318 169.582 313.096 169.021 312.979L168.94 312.115H167.258L167.176 312.979C166.615 313.096 166.09 313.318 165.622 313.621L164.945 313.061L163.754 314.252L164.314 314.929C164.011 315.396 163.789 315.921 163.672 316.481L162.808 316.563V318.244L163.672 318.326C163.789 318.886 164.011 319.412 164.314 319.879L163.754 320.556L164.945 321.747L165.622 321.186C166.09 321.49 166.615 321.712 167.176 321.828L167.258 322.692H168.94L169.021 321.828C169.582 321.712 170.108 321.49 170.575 321.186L171.252 321.747L172.444 320.556L171.883 319.879C172.187 319.412 172.408 318.886 172.525 318.326L173.39 318.244ZM168.099 319.68C166.837 319.68 165.821 318.665 165.821 317.404C165.821 316.143 166.837 315.127 168.099 315.127C169.36 315.127 170.376 316.143 170.376 317.404C170.376 318.665 169.36 319.68 168.099 319.68Z" fill="white"/>
<path d="M393.826 145.86L398.779 159.099L407.071 150.81L393.826 145.86Z" fill="#407BFF"/>
<path d="M401.797 151.982L399.947 153.831L404.052 157.934L405.902 156.085L401.797 151.982Z" fill="#407BFF"/>
<path opacity="0.4" d="M407.071 150.81L393.826 145.86L398.779 159.099L402.002 155.877L404.046 157.931L405.892 156.087L403.848 154.032L407.071 150.81Z" fill="white"/>
<path d="M190.921 193.165L203.384 197.823L196.855 191.297C196.364 191.565 195.745 191.519 195.325 191.098C194.822 190.596 194.822 189.779 195.325 189.277C195.827 188.775 196.644 188.775 197.147 189.277C197.567 189.697 197.614 190.316 197.345 190.806L203.874 197.332L199.214 184.876L195.091 185.786L194.928 184.292L194.145 183.51L189.566 188.086L190.349 188.869L191.844 189.032L190.921 193.165Z" fill="#263238"/>
<path opacity="0.2" d="M190.921 193.165L203.384 197.823L196.855 191.297C196.364 191.565 195.745 191.519 195.325 191.098C194.822 190.596 194.822 189.779 195.325 189.277C195.827 188.775 196.644 188.775 197.147 189.277C197.567 189.697 197.614 190.316 197.345 190.806L203.874 197.332L199.214 184.876L195.091 185.786L194.928 184.292L194.145 183.51L189.566 188.086L190.349 188.869L191.844 189.032L190.921 193.165Z" fill="white"/>
<g opacity="0.1">
<path d="M187.23 135.295L143.337 299.227V135.295H187.23Z" fill="white"/>
<path d="M236.765 135.295L184.17 331.717H147.939L200.522 135.295H236.765Z" fill="white"/>
<path d="M289.442 135.295L236.847 331.717H220.46L273.055 135.295H289.442Z" fill="white"/>
<path d="M337.949 135.295L285.354 331.717H279.491L332.086 135.295H337.949Z" fill="white"/>
</g>
<path d="M516.139 178.63C520.286 183.417 541.38 224.032 537.303 233.511C533.227 242.991 499.425 232.064 499.425 232.064L501.446 218.685C501.446 218.685 514.586 219.152 515.836 217.903C517.097 216.654 498.07 197.671 498.07 197.671L516.139 178.63Z" fill="#263238"/>
<g opacity="0.2">
<path d="M537.303 233.511C536.836 234.597 535.984 235.414 534.839 236.01C534.827 236.01 534.816 236.021 534.804 236.033C534.594 236.138 534.36 236.243 534.126 236.337C534.103 236.348 534.068 236.36 534.033 236.372C533.834 236.453 533.613 236.535 533.391 236.593C532.515 236.885 531.533 237.084 530.471 237.201C530.19 237.236 529.91 237.259 529.618 237.282C529.197 237.317 528.777 237.341 528.345 237.352C527.983 237.364 527.609 237.376 527.235 237.376C515.906 237.387 499.425 232.064 499.425 232.064L501.446 218.673C501.446 218.673 514.574 219.14 515.836 217.891C516.139 217.588 515.24 216.233 513.71 214.354C513.698 214.342 513.698 214.342 513.686 214.33C509.972 209.766 502.532 202.166 499.46 199.06C498.596 198.185 498.07 197.659 498.07 197.659L516.139 178.63C520.286 183.405 541.38 224.02 537.303 233.511Z" fill="white"/>
</g>
<path opacity="0.2" d="M534.839 236.01C534.827 236.01 534.816 236.021 534.804 236.033C534.594 236.138 534.36 236.243 534.126 236.337C534.103 236.348 534.068 236.36 534.033 236.372C533.834 236.453 533.612 236.535 533.391 236.594C532.515 236.885 531.533 237.084 530.471 237.201C530.19 237.236 529.91 237.259 529.618 237.282C529.197 237.317 528.777 237.341 528.345 237.352C527.983 237.364 527.609 237.376 527.235 237.376C515.906 237.387 499.425 232.064 499.425 232.064L501.446 218.673C501.446 218.673 516.233 219.922 517.494 218.673C517.517 218.65 517.517 218.638 517.529 218.615C517.763 218.125 516.128 216.467 513.71 214.354C513.698 214.342 513.698 214.342 513.686 214.33C509.972 209.766 502.532 202.166 499.46 199.06L508.01 189.931L514.516 189.23C514.516 189.23 528.882 212.474 534.839 236.01Z" fill="black"/>
<path d="M473.519 177.288C471.183 178.98 470.027 181.385 470.949 182.658L532.666 267.706C533.589 268.978 536.229 268.628 538.576 266.935C540.912 265.242 542.069 262.838 541.146 261.565L479.429 176.517C478.506 175.244 475.867 175.595 473.519 177.288Z" fill="#263238"/>
<path opacity="0.7" d="M479.429 176.517L541.146 261.565C542.069 262.826 540.912 265.242 538.576 266.935C536.229 268.64 533.589 268.978 532.678 267.706L470.961 182.658C470.459 181.957 470.576 180.918 471.183 179.821C471.463 179.319 471.86 178.782 472.351 178.292C472.69 177.941 473.087 177.603 473.519 177.288C475.867 175.595 478.506 175.256 479.429 176.517Z" fill="white"/>
<path opacity="0.3" d="M541.146 261.577C542.069 262.838 540.912 265.254 538.576 266.947C536.229 268.651 533.589 268.99 532.678 267.717C532.176 267.017 533.449 265.966 534.185 264.425L471.183 179.833C471.463 179.331 471.86 178.794 472.351 178.303L534.08 263.363C534.43 263.013 534.816 262.662 535.248 262.347C537.584 260.654 540.223 260.304 541.146 261.577Z" fill="black"/>
<path d="M465.88 174.929C463.906 177.042 463.229 179.622 464.373 180.685L541.111 252.494C542.256 253.568 544.79 252.728 546.764 250.614C548.738 248.501 549.415 245.921 548.271 244.859L471.533 173.05C470.389 171.976 467.854 172.828 465.88 174.929Z" fill="#407BFF"/>
<path opacity="0.7" d="M471.533 173.05L548.271 244.859C549.416 245.933 548.738 248.513 546.764 250.614C544.79 252.728 542.256 253.568 541.111 252.494L464.373 180.685C463.743 180.089 463.661 179.05 464.058 177.86C464.233 177.311 464.525 176.715 464.922 176.143C465.191 175.735 465.518 175.326 465.88 174.929C467.854 172.828 470.389 171.987 471.533 173.05Z" fill="white"/>
<path opacity="0.3" d="M548.271 244.859C549.416 245.933 548.738 248.513 546.764 250.614C544.79 252.728 542.256 253.568 541.111 252.494C540.48 251.899 541.532 250.626 541.964 248.98L464.058 177.86C464.233 177.311 464.525 176.715 464.922 176.143L541.672 247.964C541.952 247.556 542.256 247.135 542.618 246.739C544.592 244.637 547.126 243.797 548.271 244.859Z" fill="black"/>
<path d="M484.323 404.11L478.471 404.203C472.526 376.289 468.321 341.745 465.705 315.688C465.296 311.602 464.922 307.737 464.595 304.13C464.444 302.414 464.292 300.768 464.152 299.18C463.451 291.346 462.972 285.136 462.68 281.295C462.47 278.493 462.364 276.952 462.364 276.952H483.505L483.307 282.334L482.653 300.102L482.583 302.134L482.139 313.866L481.403 333.841C488.656 361.965 484.323 404.11 484.323 404.11Z" fill="#EBB376"/>
<path d="M531.744 402.615L525.985 403.701C514.457 374.9 503.63 338.021 496.587 312.255C495.501 308.263 494.496 304.527 493.597 301.141C493.55 300.966 493.515 300.803 493.468 300.639C491.693 293.915 490.326 288.556 489.474 285.159C488.82 282.497 488.458 281.038 488.458 281.038L509.295 277.442L510.474 286.198L512.215 299.063L512.553 301.585L513.733 310.352L516.898 333.865C528.835 360.342 531.744 402.615 531.744 402.615Z" fill="#EBB376"/>
<path opacity="0.2" d="M512.215 299.063L493.597 301.141C493.55 300.966 493.515 300.803 493.468 300.639C491.693 293.915 490.326 288.556 489.474 285.159L510.474 286.198L512.215 299.063Z" fill="black"/>
<path opacity="0.2" d="M483.307 282.334L482.653 300.102L482.583 302.134L464.595 304.13C464.444 302.414 464.292 300.768 464.152 299.18C463.451 291.346 462.972 285.136 462.68 281.295L483.307 282.334Z" fill="black"/>
<path d="M467.048 423.512C468.134 422.637 469.372 421.96 470.716 421.528C470.716 421.528 474.699 417.582 476.614 405.686L481.823 404.331C483.634 403.888 485.526 404.635 486.565 406.188C486.706 406.398 486.822 406.631 486.892 406.876C487.161 408.149 487.348 409.445 487.453 410.741C487.979 414.768 487.523 423.793 487.523 423.793H486.577L486.203 415.597C486.063 412.819 483.937 416.076 483.318 419.076C482.699 422.076 481.415 425.264 475.306 425.415C468.204 425.532 465.249 425.252 467.048 423.512Z" fill="#263238"/>
<path d="M486.752 406.269C487.091 403.491 487.208 398.646 487.208 398.646L475.621 399.93C475.621 399.93 477.023 405.429 475.867 409.561C481.695 408.032 486.752 406.269 486.752 406.269Z" fill="#263238"/>
<path d="M514.189 423.512C515.275 422.637 516.513 421.96 517.856 421.528C517.856 421.528 521.839 417.582 523.755 405.686L528.964 404.331C530.774 403.888 532.666 404.635 533.706 406.188C533.846 406.398 533.963 406.631 534.033 406.876C534.302 408.149 534.488 409.445 534.594 410.741C535.119 414.768 534.664 423.793 534.664 423.793H533.718L533.344 415.597C533.204 412.819 531.078 416.076 530.459 419.076C529.84 422.076 528.555 425.264 522.446 425.415C515.345 425.532 512.39 425.252 514.189 423.512Z" fill="#263238"/>
<path d="M533.881 406.269C534.22 403.491 534.337 398.646 534.337 398.646L522.75 399.93C522.75 399.93 524.152 405.429 522.995 409.561C528.835 408.032 533.881 406.269 533.881 406.269Z" fill="#263238"/>
<path d="M514.224 293.331L492.184 296.145L491.331 296.25L486.799 279.649L485.608 297.44L461.991 296.203C451.467 234.48 469.454 219.899 469.454 219.899L501.492 226.343C515.999 251 512.553 279.649 512.553 279.649L514.224 293.331Z" fill="#407BFF"/>
<path d="M483.879 143C483.879 145.428 482.804 147.389 481.473 147.389C480.141 147.389 479.067 145.428 479.067 143C479.067 140.572 480.141 138.61 481.473 138.61C482.804 138.61 483.879 140.572 483.879 143Z" stroke="#263238" stroke-width="0.5" stroke-miterlimit="10" stroke-linecap="round" stroke-linejoin="round"/>
<path d="M499.705 157.698C499.624 157.768 499.519 157.85 499.425 157.896C498.129 158.819 496.645 159.694 494.952 160.079C490.221 161.177 486.986 160.523 484.872 158.387C484.86 158.387 484.86 158.387 484.86 158.387C481.905 155.176 481.169 149.491 481.578 142.626C481.765 139.486 482.209 136.742 483.073 134.618C483.085 134.594 483.085 134.512 483.096 134.501C483.143 134.419 483.167 134.291 483.213 134.209C484.51 131.232 486.659 129.306 490.093 128.488C491.284 128.208 492.627 128.057 494.146 128.033C507.554 127.905 509.96 150.063 499.705 157.698Z" fill="#EBB376"/>
<path opacity="0.2" d="M499.425 157.908C498.129 158.83 496.645 159.519 494.952 159.904C490.221 161.002 486.986 160.196 484.872 158.025C487.196 158.538 490.326 158.737 493.363 157.324C495.279 156.449 497.416 156.892 499.425 157.908Z" fill="black"/>
<path d="M500.78 169.979C501.609 173.785 496.669 175.338 496.669 175.338C488.598 171.894 487.103 167.598 487.103 167.598C493.842 164.084 491.892 154.161 491.892 154.161L493.258 154.838L502.871 156.717C502.871 156.717 500.208 161.831 499.846 162.998C499.846 163.01 499.834 163.021 499.834 163.033C498.035 169.139 500.78 169.979 500.78 169.979Z" fill="#EBB376"/>
<path d="M483.085 134.536C483.085 134.536 482.349 143.922 491.237 147.95C491.237 147.95 495.057 157.698 500.675 157.838C508.337 158.025 515.1 147.121 512.437 136.018C509.003 121.612 487.173 120.445 483.085 134.536Z" fill="#263238"/>
<path d="M486.729 145.253C486.729 143.794 487.909 141.33 490.186 141.669C492.546 142.019 493.842 147.821 488.06 149.117C487.231 149.292 486.729 148.3 486.729 145.253Z" fill="#EBB376"/>
<path d="M499.425 124.566C499.425 124.566 490.467 122.301 485.526 125.897C479.744 130.1 477.548 134.442 484.393 141.19C484.393 141.19 499.425 136.322 504.424 137.349C509.423 138.377 512.997 139.836 512.997 139.836C514.048 129.924 504.424 122.535 499.425 124.566Z" fill="#263238"/>
<path d="M486.729 142.988C486.729 142.988 489.123 153.81 485.397 163.021C485.397 163.021 506.655 170.388 514.048 166.395C521.442 162.391 514.668 148.954 514.352 141.202C514.048 133.45 510.673 121.998 499.425 124.566C488.177 127.134 486.729 142.988 486.729 142.988Z" fill="#263238"/>
<path d="M479.079 142.299H488.06" stroke="#263238" stroke-width="0.5" stroke-miterlimit="10" stroke-linecap="round" stroke-linejoin="round"/>
<path opacity="0.2" d="M492.184 296.145L491.331 296.25L486.799 279.649C486.799 279.649 496.517 263.059 493.48 254.42C493.912 255.027 504.377 270.543 492.184 296.145Z" fill="black"/>
<path d="M473.986 169.15C473.986 169.15 484.673 165.345 500.78 169.991C516.887 174.637 517.482 181.502 517.482 181.502C517.482 181.502 507.274 204.629 505.674 230.803L463.696 229.227C463.696 229.227 458.685 192.277 473.986 169.15Z" fill="#263238"/>
<path opacity="0.2" d="M517.494 181.49C517.494 181.49 507.286 204.617 505.674 230.803L463.696 229.239C463.696 229.239 462.995 224.09 462.925 216.443C462.867 211.108 463.112 204.547 464.093 197.659C465.495 187.97 468.38 177.626 473.986 169.15C473.986 169.15 484.673 165.345 500.78 169.991C516.898 174.637 517.494 181.49 517.494 181.49Z" fill="white"/>
<path opacity="0.2" d="M473.402 199.235C473.402 199.235 471.662 209.882 462.925 216.443C462.867 211.108 463.112 204.547 464.093 197.659L473.402 199.235Z" fill="black"/>
<path d="M427.021 168.415L421.73 160.57C421.73 160.57 420.912 157.161 419.896 156.379C418.88 155.596 408.695 151.289 407.48 151.312C406.254 151.335 406.254 159.227 407.48 160.57C408.707 161.912 415.119 164.784 416.789 165.076C418.471 165.368 417.653 165.076 417.653 165.076L422.337 174.404L427.021 168.415Z" fill="#EBB376"/>
<path d="M473.986 169.15C473.986 169.15 459.258 174.941 441.259 186.032L424.183 162.741C424.183 162.741 419.569 164.177 417.875 172.174C417.875 172.174 426.647 205.586 438.047 208.89C449.446 212.206 473.414 199.247 473.414 199.247C473.414 199.247 480.363 181.829 473.986 169.15Z" fill="#263238"/>
<path opacity="0.2" d="M473.986 169.15C473.986 169.15 459.258 174.941 441.259 186.032L424.183 162.741C424.183 162.741 419.569 164.177 417.875 172.174C417.875 172.174 426.647 205.586 438.047 208.89C449.446 212.206 473.414 199.247 473.414 199.247C473.414 199.247 480.363 181.829 473.986 169.15Z" fill="white"/>
<path d="M484.79 167.679C484.79 167.679 488.516 194.344 500.324 195.418C512.133 196.492 517.424 176.797 515.415 174.404C513.418 172.011 498.21 167.504 484.79 167.679Z" fill="#263238"/>
<path opacity="0.3" d="M484.79 167.679C484.79 167.679 488.516 194.344 500.324 195.418C512.133 196.492 517.424 176.797 515.415 174.404C513.418 172.011 498.21 167.504 484.79 167.679Z" fill="white"/>
<path d="M64.6605 412.935H73.3154L74.0278 392.914H65.373L64.6605 412.935Z" fill="#B97964"/>
<path d="M74.5067 411.943H63.9947C63.6443 411.943 63.329 412.188 63.2589 412.538L61.5536 420.232C61.4134 420.921 61.8456 421.598 62.5347 421.75C62.6282 421.773 62.7216 421.773 62.815 421.773C66.2139 421.715 68.6901 421.504 72.965 421.504C75.593 421.504 83.5237 421.785 87.1562 421.785C90.7886 421.785 91.2558 418.201 89.7725 417.874C83.1032 416.426 78.0925 414.406 75.955 412.492C75.5696 412.13 75.044 411.931 74.5067 411.943Z" fill="#263238"/>
<path d="M75.1024 413.134C75.0206 413.111 74.9622 413.04 74.9506 412.959C74.9389 412.877 74.9739 412.795 75.044 412.76C75.3477 412.562 78.1509 410.846 79.1086 411.336C79.3306 411.441 79.4707 411.663 79.459 411.908C79.5174 412.328 79.3539 412.737 79.0269 413.005C78.5363 413.332 77.9523 413.496 77.3683 413.449C76.6091 413.437 75.8499 413.332 75.1024 413.134ZM75.6981 412.854C76.7026 413.192 77.8122 413.134 78.7816 412.702C78.9918 412.515 79.097 412.247 79.0619 411.966C79.0502 411.803 78.9802 411.721 78.9334 411.721C78.8517 411.675 78.7582 411.663 78.6648 411.663C77.6019 411.873 76.5974 412.27 75.6981 412.854Z" fill="#407BFF"/>
<path d="M75.044 413.181C74.9856 413.134 74.9389 413.064 74.9506 412.994C74.9622 412.877 75.1725 410.39 76.177 409.573C76.4106 409.363 76.7376 409.27 77.0413 409.305C77.3566 409.305 77.637 409.526 77.707 409.842C77.8822 410.752 76.1536 412.655 75.2659 413.146H75.1725C75.1258 413.169 75.0907 413.181 75.044 413.181ZM76.4339 409.818C75.8266 410.601 75.4645 411.534 75.4061 412.527C76.2938 411.861 77.3917 410.414 77.2866 409.853C77.2749 409.795 77.2515 409.643 76.9946 409.643H76.9011C76.7259 409.643 76.5624 409.702 76.4339 409.818Z" fill="#407BFF"/>
<path opacity="0.2" d="M65.373 392.925H74.0278L73.6541 403.246H64.9992L65.373 392.925Z" fill="black"/>
<path d="M109.196 413.589L118.132 414.535L119.802 395.295L110.878 394.35L109.196 413.589Z" fill="#B97964"/>
<path d="M119.066 411.663H108.554C108.204 411.663 107.888 411.908 107.818 412.258L106.113 419.952C105.973 420.64 106.405 421.318 107.094 421.469C107.187 421.493 107.281 421.493 107.374 421.493C110.773 421.434 113.249 421.224 117.524 421.224C120.152 421.224 128.083 421.504 131.715 421.504C135.348 421.504 135.815 417.92 134.332 417.593C127.662 416.146 122.652 414.126 120.514 412.212C120.129 411.85 119.603 411.651 119.066 411.663Z" fill="#263238"/>
<path d="M119.662 412.865C119.58 412.842 119.521 412.772 119.51 412.69C119.498 412.608 119.533 412.527 119.603 412.492C119.907 412.293 122.71 410.577 123.668 411.067C123.89 411.173 124.03 411.394 124.018 411.64C124.077 412.06 123.913 412.468 123.586 412.737C123.096 413.064 122.512 413.227 121.928 413.181C121.168 413.157 120.409 413.052 119.662 412.865ZM120.257 412.573C121.262 412.912 122.371 412.854 123.341 412.422C123.551 412.235 123.656 411.966 123.621 411.686C123.609 411.523 123.539 411.441 123.493 411.441C123.411 411.394 123.317 411.383 123.224 411.383C122.161 411.593 121.157 411.99 120.257 412.573Z" fill="#407BFF"/>
<path d="M119.615 412.912C119.556 412.865 119.51 412.795 119.521 412.725C119.533 412.608 119.743 410.122 120.748 409.305C120.981 409.095 121.308 409.001 121.612 409.036C121.928 409.036 122.208 409.258 122.278 409.573C122.453 410.484 120.724 412.387 119.837 412.877H119.743C119.685 412.9 119.65 412.912 119.615 412.912ZM120.993 409.538C120.386 410.32 120.024 411.254 119.965 412.247C120.853 411.581 121.963 410.134 121.846 409.573C121.834 409.515 121.811 409.363 121.554 409.363H121.46C121.285 409.363 121.122 409.433 120.993 409.538Z" fill="#407BFF"/>
<path opacity="0.2" d="M110.878 394.35L119.802 395.295L118.926 405.219L110.002 404.273L110.878 394.35Z" fill="black"/>
<path d="M68.9354 217.261H114.838C119.206 241.088 132.86 325.389 123.06 400.502L107.514 398.576C107.514 398.576 108.951 298.853 95.227 261.985C93.6502 281.715 91.7698 302.706 90.1462 313.878C86.1517 341.371 77.6019 401.459 77.6019 401.459H61.7989C61.7989 401.459 65.0342 343.951 66.5293 316.925C68.1645 287.599 68.877 223.285 68.9354 217.261Z" fill="#263238"/>
<path d="M124.848 404.121L105.611 401.261L106.206 395.937L126.214 398.564L124.848 404.121Z" fill="#407BFF"/>
<path d="M79.5291 401.588H60.8645V396.019L80.2299 395.657L79.5291 401.588Z" fill="#407BFF"/>
<path opacity="0.2" d="M95.2504 261.997C97.2711 267.426 98.953 274.22 100.378 281.843C101.663 264.285 96.5235 245.665 96.5235 245.665L95.2504 261.997Z" fill="black"/>
<path d="M67.6389 225.246L66.5877 230.791C66.5877 230.791 98.7077 234.947 118.692 234.831L118.003 231.025L67.6389 225.246Z" fill="#407BFF"/>
<path d="M132.848 177.229C132.848 177.229 143.968 212.241 151.56 214.529C159.152 216.817 178.482 187.923 178.482 187.923C178.482 187.923 195.804 187.759 196.574 186.569C197.345 185.39 192.078 173.201 190.804 173.178C189.543 173.155 174.464 178.852 173.88 179.798C173.296 180.743 155.998 197.286 155.145 196.819C154.304 196.352 147.764 175.513 147.764 175.513L132.848 177.229Z" fill="#B97964"/>
<path d="M180.69 186.09C180.841 186.055 180.982 186.032 181.11 185.985C181.04 185.938 180.97 185.903 180.912 185.857C180.83 185.938 180.771 186.008 180.69 186.09Z" fill="#B97964"/>
<path d="M126.541 173.178L127.896 175.676L134.227 187.363L135.535 189.767L153.277 183.603C153.277 183.603 145.907 156.075 143.349 153.262L126.541 173.178Z" fill="#407BFF"/>
<path opacity="0.4" d="M126.541 173.178L127.896 175.676L134.227 187.363L135.535 189.767L153.277 183.603C153.277 183.603 145.907 156.075 143.349 153.262L126.541 173.178Z" fill="white"/>
<path opacity="0.2" d="M127.896 175.676L134.227 187.363C138.128 179.681 136.995 169.185 136.995 169.185L127.896 175.676Z" fill="black"/>
<path d="M143.337 153.262C143.337 153.262 134.005 141.12 116.613 140.303C99.2216 139.486 93.767 141.214 87.4014 146.887C78.1158 155.176 66.5877 226.565 66.5877 226.565C66.5877 226.565 90.8821 234.072 118.704 232.227C118.704 232.227 118.914 212.416 125.186 199.049C137.392 173.073 143.337 153.262 143.337 153.262Z" fill="#407BFF"/>
<path opacity="0.4" d="M66.5877 226.554C66.5877 226.554 90.8821 234.06 118.704 232.227C118.704 232.227 118.727 229.787 119.031 226.028C119.171 224.254 119.381 222.176 119.685 219.946C119.989 217.634 120.386 215.136 120.911 212.603C121.192 211.237 121.507 209.859 121.857 208.482C122.71 205.213 123.796 201.967 125.175 199.049C125.945 197.403 126.693 195.791 127.417 194.192C128.679 191.425 129.858 188.717 130.968 186.137C133.292 180.708 135.289 175.747 136.948 171.404C138.139 168.287 139.167 165.496 140.02 163.103C140.966 160.441 141.713 158.247 142.262 156.612C142.975 154.452 143.325 153.262 143.325 153.262C143.325 153.262 142.695 152.444 141.445 151.207C137.976 147.763 129.718 141.109 117.174 140.338C116.987 140.315 116.788 140.303 116.601 140.291C103.356 139.673 97.0258 140.525 91.9566 143.478C90.3682 144.401 88.9082 145.521 87.3898 146.876C86.3502 147.798 85.2757 149.514 84.2128 151.849C82.4374 155.667 80.6387 161.107 78.9101 167.329C78.6531 168.252 78.3962 169.209 78.1392 170.166C76.9946 174.497 75.8733 179.109 74.8221 183.778C74.5184 185.098 74.2264 186.429 73.9344 187.759C73.5022 189.791 73.0701 191.81 72.6496 193.807C71.5984 198.838 70.6523 203.718 69.823 208.108C68.6434 214.424 67.709 219.701 67.16 222.969C66.7979 225.258 66.5877 226.554 66.5877 226.554ZM117.629 140.98C118.856 141.027 120.047 141.12 121.11 141.26C125.829 141.891 132.965 145.627 132.778 147.413C132.591 149.199 129.87 153.717 122.885 152.62C120.479 152.246 118.143 151.149 116.111 149.794C112.245 147.249 109.442 143.805 109.161 142.685C108.846 141.354 113.378 140.852 117.629 140.98Z" fill="white"/>
<path d="M102.644 164.761C102.644 164.761 93.405 187.024 91.5595 205.505L116.438 208.68C116.438 208.68 127.616 178.607 129.917 169.197C129.917 169.185 110.037 167.201 102.644 164.761Z" fill="#407BFF"/>
<path opacity="0.4" d="M125.058 170.049L128.515 170.4L125.98 172.361L125.058 170.049Z" fill="white"/>
<path d="M111.509 142.72C113.389 148.09 120.386 150.541 124.053 150.857C129.204 151.289 130.711 147.249 130.711 147.249C130.711 147.249 126.529 145.171 126.938 142.813C127.184 141.447 127.826 140.105 128.667 138.82C129.099 138.143 129.59 137.478 130.104 136.847L123.388 122.465C121.881 128.734 117.291 140.712 111.509 142.72Z" fill="#B97964"/>
<path opacity="0.2" d="M123.107 129.142C119.907 136.112 124.427 140.968 126.927 142.813C127.172 141.447 127.814 140.105 128.655 138.82L123.107 129.142Z" fill="black"/>
<path d="M145.626 110.452C145.626 110.452 147.775 122.313 141.585 127.064C135.395 131.827 134.764 109.658 134.764 109.658L145.626 110.452Z" fill="#B97964"/>
<path opacity="0.4" d="M145.626 110.452C145.626 110.452 147.775 122.313 141.585 127.064C135.395 131.827 134.764 109.658 134.764 109.658L145.626 110.452Z" fill="black"/>
<path d="M123.493 137.046C126.681 141.365 131.727 142.381 136.025 140.887C138.793 139.929 141.258 137.921 142.741 135.096C142.94 134.723 143.115 134.337 143.279 133.94C146.187 126.574 146.841 108.595 138.98 109.261C132.545 109.809 126.226 107.813 122.944 113.393C121.998 114.97 121.449 116.756 121.332 118.6C120.631 127.134 119.813 132.119 123.493 137.046Z" fill="#B97964"/>
<path d="M133.864 122.791C133.724 123.469 134.051 124.087 134.507 124.157C134.962 124.227 135.406 123.702 135.5 123.025C135.605 122.336 135.301 121.729 134.857 121.659C134.413 121.589 133.97 122.091 133.864 122.791Z" fill="#263238"/>
<path d="M141.678 123.9C141.538 124.578 141.877 125.196 142.321 125.266C142.765 125.325 143.22 124.811 143.314 124.134C143.419 123.445 143.115 122.838 142.671 122.768C142.227 122.698 141.772 123.235 141.678 123.9Z" fill="#263238"/>
<path d="M139.144 123.889C139.669 126.119 140.499 128.267 141.608 130.263C140.545 130.812 139.307 130.87 138.198 130.415L139.144 123.889Z" fill="#A24E3F"/>
<path d="M131.809 119.919C131.961 119.966 132.112 119.919 132.229 119.814C132.953 119.067 133.981 118.694 135.021 118.822C135.243 118.869 135.453 118.729 135.5 118.507C135.546 118.285 135.406 118.075 135.184 118.028C133.876 117.83 132.568 118.285 131.657 119.231C131.493 119.382 131.482 119.639 131.634 119.803C131.634 119.803 131.634 119.803 131.645 119.814C131.692 119.861 131.75 119.896 131.809 119.919Z" fill="#263238"/>
<path d="M145.416 121.682C145.486 121.729 145.568 121.741 145.65 121.729C145.86 121.659 145.988 121.437 145.918 121.227C145.918 121.227 145.918 121.227 145.918 121.215C145.544 119.955 144.575 118.951 143.325 118.519C143.103 118.46 142.881 118.589 142.823 118.799C142.765 119.021 142.893 119.231 143.115 119.301C144.096 119.663 144.844 120.468 145.136 121.461C145.194 121.577 145.299 121.659 145.416 121.682Z" fill="#263238"/>
<path d="M132.778 130.718C132.778 130.718 134.215 133.8 137.135 133.684" stroke="#263238" stroke-width="0.5" stroke-miterlimit="10" stroke-linecap="round" stroke-linejoin="round"/>
<path d="M129.052 108.899L129.157 112.705C127.861 113.242 126.985 114.573 127.417 116.102C128.34 119.371 126.086 124.111 123.469 125.838C123.469 125.838 123.528 124.461 122.336 124.683C121.145 124.904 120.806 132.061 122.733 135.668C122.733 135.668 118.599 131.874 117.372 124.204C116.239 117.118 116.438 112.623 117.442 109.226L129.052 108.899Z" fill="#B97964"/>
<path opacity="0.4" d="M129.052 108.899L129.157 112.705C127.861 113.242 126.985 114.573 127.417 116.102C128.34 119.371 126.086 124.111 123.469 125.838C123.469 125.838 123.528 124.461 122.336 124.683C121.145 124.904 120.806 132.061 122.733 135.668C122.733 135.668 118.599 131.874 117.372 124.204C116.239 117.118 116.438 112.623 117.442 109.226L129.052 108.899Z" fill="black"/>
<path d="M116.707 113.464C116.707 113.464 121.565 114.211 129.169 112.705C140.943 110.358 145.942 114.689 145.942 114.689C145.942 114.689 148.733 112.284 148.394 108.899C148.044 105.513 143.349 104.93 143.349 104.93C143.349 104.93 141.935 101.124 138.805 99.9679C135.687 98.8122 132.556 101.696 132.556 101.696C132.556 101.696 128.667 97.9483 124.135 99.0106C118.575 100.318 118.704 105.618 118.704 105.618C118.704 105.618 113.389 106.167 113.506 108.887C113.611 111.631 116.707 113.464 116.707 113.464Z" fill="#263238"/>
<path d="M134.776 127.753C136.885 127.753 138.595 125.783 138.595 123.352C138.595 120.921 136.885 118.951 134.776 118.951C132.666 118.951 130.956 120.921 130.956 123.352C130.956 125.783 132.666 127.753 134.776 127.753Z" stroke="#263238" stroke-width="0.5" stroke-miterlimit="10" stroke-linecap="round" stroke-linejoin="round"/>
<path d="M148.196 124.006C148.196 126.434 146.491 128.407 144.376 128.407C142.274 128.407 140.557 126.434 140.557 124.006C140.557 121.577 142.262 119.604 144.376 119.604C146.479 119.616 148.196 121.577 148.196 124.006Z" stroke="#263238" stroke-width="0.5" stroke-miterlimit="10" stroke-linecap="round" stroke-linejoin="round"/>
<path d="M138.583 123.889C138.583 123.889 139.81 123.118 140.557 124.018" stroke="#263238" stroke-width="0.5" stroke-miterlimit="10" stroke-linecap="round" stroke-linejoin="round"/>
<path d="M130.956 123.353L124.252 122.465C123.376 122.348 122.488 122.593 121.799 123.131L121.507 123.353" stroke="#263238" stroke-width="0.5" stroke-miterlimit="10" stroke-linecap="round" stroke-linejoin="round"/>
<path d="M116.636 125.021C117.302 127.076 118.762 128.78 120.689 129.761C123.247 131.045 125.069 128.885 124.824 126.189C124.579 123.795 122.979 120.165 120.187 120.036C117.384 119.896 115.854 122.488 116.636 125.021Z" fill="#B97964"/>
<path opacity="0.2" d="M73.9578 187.771C84.972 183.195 93.697 164.294 93.697 164.294L87.4365 160.511L78.9334 167.341C78.6765 168.263 78.4195 169.221 78.1626 170.178C77.0179 174.509 75.8966 179.12 74.8454 183.79C74.5418 185.109 74.2498 186.452 73.9578 187.771Z" fill="black"/>
<path d="M134.682 189.779L153.697 182.786L154.234 184.409L135.219 191.18L134.682 189.779Z" fill="#407BFF"/>
<path d="M85.3888 237.849L30.2696 229.099L24.8816 263.081L80.0007 271.831L85.3888 237.849Z" fill="#407BFF"/>
<path d="M49.7802 242.022L38.5907 247.824L47.4442 256.802" stroke="white" stroke-width="2" stroke-miterlimit="10" stroke-linecap="round" stroke-linejoin="round"/>
<path d="M60.4907 258.868L71.6802 253.066L62.8384 244.088" stroke="white" stroke-width="2" stroke-miterlimit="10" stroke-linecap="round" stroke-linejoin="round"/>
<path d="M51.3453 257.421L58.9373 243.47" stroke="white" stroke-width="2" stroke-miterlimit="10" stroke-linecap="round" stroke-linejoin="round"/>
<path d="M80.8373 149.923C80.8373 149.923 60.0702 170.762 57.232 174.824C54.3938 178.875 48.9859 223.787 48.9859 223.787C48.9859 223.787 47.8413 224.184 47.7478 225.153C47.6544 226.122 47.561 238.73 47.7478 239.314C47.9347 239.897 57.5006 245.793 58.9022 244.392C60.3038 242.991 62.2778 228.713 62.2778 228.713L57.2437 223.787C57.2437 223.787 63.107 190.713 66.7746 185.355C70.4421 180.008 85.5794 168.532 85.5794 168.532L80.8373 149.923Z" fill="#B97964"/>
<path d="M96.8038 141.54C99.829 147.95 97.528 161.445 91.9566 166.209C83.512 173.412 73.2803 179.599 73.2803 179.599L63.072 166.255C63.072 166.255 73.911 155.678 80.4752 149.584C88.4526 142.171 96.8038 141.54 96.8038 141.54Z" fill="#407BFF"/>
<path opacity="0.4" d="M96.8038 141.54C99.829 147.95 97.528 161.445 91.9566 166.209C83.512 173.412 73.2803 179.599 73.2803 179.599L63.072 166.255C63.072 166.255 73.911 155.678 80.4752 149.584C88.4526 142.171 96.8038 141.54 96.8038 141.54Z" fill="white"/>
<path d="M63.072 165.391L61.8106 167.119L72.451 181.023L73.9578 179.949L63.072 165.391Z" fill="#407BFF"/>
</g>
<defs>
<clipPath id="clip0_5_4">
<rect width="584" height="435" fill="white"/>
</clipPath>
</defs>
</svg>
