<svg width="228" height="40" viewBox="0 0 228 40" fill="none" xmlns="http://www.w3.org/2000/svg">
<g clip-path="url(#clip0_2248_2194)">
<path d="M46.8198 0.268971C46.8198 0.268971 51.0145 19.9894 40.2183 31.6999C29.4221 43.4105 11.974 38.0664 11.974 38.0664C11.974 38.0664 1.04065 20.9877 11.8369 9.27836C22.6331 -2.4311 46.8198 0.268971 46.8198 0.268971Z" fill="#33CA8F"/>
<path d="M0.543964 13.5146C0.543964 13.5146 -2.30072 26.9031 5.02047 34.8521C12.3416 42.8012 24.1721 39.1741 24.1721 39.1741C24.1721 39.1741 31.5864 27.5802 24.2652 19.6299C16.944 11.6796 0.543964 13.5146 0.543964 13.5146Z" fill="#DDDFE3"/>
<path fill-rule="evenodd" clip-rule="evenodd" d="M82.1214 15.8188C81.7535 15.8228 81.4002 15.6828 81.1451 15.432C80.88 15.1908 80.732 14.8566 80.7362 14.5087C80.7305 14.1635 80.879 13.8321 81.1451 13.5959C81.4034 13.3508 81.7556 13.2152 82.1214 13.2198C82.4873 13.2152 82.8394 13.3508 83.0977 13.5959C83.3638 13.8321 83.5124 14.1635 83.5066 14.5087C83.5116 14.8547 83.3682 15.1878 83.1091 15.432C82.8523 15.6871 82.4937 15.8279 82.1214 15.82V15.8188ZM78.5758 13.4128H76.6445L76.6458 28.7981H78.5758V13.4128ZM50.7234 13.4139H41.3174V28.8028H43.2299V22.1389H50V20.4194H43.2299V15.1549H50.7234V13.4139ZM54.041 28.3898C54.94 28.8964 55.9702 29.1568 57.0165 29.1418C58.1091 29.1713 59.1873 28.9006 60.1204 28.3624C60.9816 27.8409 61.6827 27.1146 62.1536 26.2561L60.518 25.504C59.8708 26.7317 58.5372 27.4999 57.087 27.4806C56.4494 27.4804 55.8214 27.3329 55.2576 27.051C54.6617 26.7535 54.1628 26.3079 53.8145 25.7623C53.4152 25.1233 53.1959 24.398 53.1779 23.656H62.3335C62.382 23.4736 62.4048 23.2859 62.4014 23.0979C62.4214 22.0945 62.1918 21.1007 61.7309 20.1968C61.3055 19.3739 60.6391 18.6841 59.8109 18.2095C58.916 17.7163 57.8934 17.469 56.858 17.4955C55.8118 17.4753 54.7833 17.7522 53.9052 18.2904C53.0587 18.8185 52.3795 19.5538 51.9399 20.418C51.4725 21.3283 51.2352 22.3288 51.2466 23.3407C51.2297 24.3748 51.4834 25.3967 51.9852 26.3156C52.4543 27.1737 53.166 27.8917 54.041 28.3898ZM60.3556 22.1579C60.3192 21.678 60.18 21.21 59.9467 20.7824C59.6842 20.3033 59.2872 19.9018 58.7993 19.6221C58.2063 19.2879 57.5239 19.1227 56.8341 19.1461C55.9798 19.1283 55.1521 19.4272 54.5279 19.9791C53.8804 20.5632 53.4468 21.3273 53.2898 22.1604L60.3556 22.1579ZM66.4897 28.3898C67.3887 28.8964 68.4189 29.1568 69.4653 29.1418H69.4665C70.5574 29.173 71.6346 28.9047 72.5679 28.3695C73.4291 27.8481 74.1302 27.1217 74.6011 26.2632L72.9654 25.5112C72.3183 26.7387 70.9846 27.507 69.5344 27.4878C68.8968 27.4876 68.2688 27.34 67.7051 27.0581C67.1092 26.7606 66.6103 26.315 66.262 25.7694C65.8626 25.1305 65.6434 24.4052 65.6254 23.6631H74.7835C74.832 23.4808 74.8548 23.2931 74.8514 23.105C74.8714 22.1017 74.6417 21.1078 74.1808 20.2038C73.7564 19.3783 73.0894 18.6858 72.2596 18.2095C71.3647 17.7163 70.3421 17.469 69.3067 17.4955C68.2605 17.4753 67.232 17.7522 66.3539 18.2904C65.5074 18.8185 64.8283 19.5538 64.3886 20.418C63.9213 21.3283 63.6839 22.3288 63.6954 23.3407C63.6784 24.3748 63.9322 25.3967 64.4339 26.3156C64.903 27.1737 65.6147 27.8917 66.4897 28.3898ZM72.8044 22.1579C72.7679 21.678 72.6287 21.21 72.3954 20.7824C72.1329 20.3033 71.7359 19.9018 71.248 19.6221C70.655 19.2879 69.9726 19.1227 69.2828 19.1461C68.4285 19.1283 67.6008 19.4272 66.9766 19.9791C66.3292 20.5632 65.8955 21.3273 65.7385 22.1604L72.8044 22.1579ZM83.0748 17.8418H81.1662V28.8003H83.0748V17.8418ZM85.6629 17.8418H87.5036V19.453H87.5942C87.9571 18.8672 88.4839 18.3875 89.1165 18.0667C89.7919 17.6923 90.5607 17.4955 91.3436 17.4967C92.5336 17.4211 93.7 17.841 94.5354 18.6462C95.3091 19.518 95.7036 20.6357 95.6373 21.7723V28.7932H93.7064V22.046C93.7845 21.2388 93.5045 20.437 92.9336 19.8327C92.3518 19.3511 91.5936 19.1042 90.8214 19.1448C90.2235 19.1379 89.6389 19.3108 89.1518 19.6387C88.6571 19.9708 88.2617 20.4185 88.0044 20.9381C87.7346 21.4636 87.5948 22.0402 87.5954 22.6243V28.7908H85.6629V17.8418ZM99.5545 32.8855C100.55 33.5173 101.731 33.8332 102.928 33.7875L102.929 33.7839C104.426 33.8506 105.891 33.3528 107.001 32.4C108.094 31.3231 108.655 29.8598 108.545 28.3707V17.8418H106.705V19.4101H106.615C106.219 18.8225 105.666 18.3442 105.013 18.0238C104.288 17.6648 103.479 17.4839 102.662 17.4978C101.694 17.4892 100.744 17.7428 99.9236 18.2285C99.0836 18.7307 98.4036 19.4399 97.9582 20.28C97.4636 21.2009 97.2145 22.2221 97.2309 23.2549C97.2109 24.2919 97.4609 25.3176 97.9582 26.2418C98.4036 27.0765 99.08 27.7817 99.9145 28.2827C100.735 28.7684 101.685 29.0218 102.653 29.0133C103.471 29.0272 104.279 28.8463 105.004 28.4873C105.654 28.1718 106.206 27.7028 106.608 27.126H106.699V28.3505C106.767 29.3677 106.413 30.3698 105.711 31.1434C104.974 31.8317 103.962 32.1912 102.928 32.1322C102.172 32.1484 101.429 31.9404 100.805 31.5372C100.221 31.1609 99.7727 30.6248 99.5209 30.0009L97.7718 30.7149C98.1064 31.5998 98.7309 32.3605 99.5545 32.8855ZM102.927 27.3616C103.595 27.369 104.254 27.1978 104.825 26.8678C105.407 26.5222 105.879 26.0315 106.186 25.4493C106.543 24.7688 106.718 24.0164 106.697 23.2573C106.72 22.4912 106.545 21.7316 106.186 21.0439C105.881 20.4634 105.408 19.9757 104.825 19.6362C104.251 19.3126 103.595 19.1454 102.927 19.153C102.255 19.1466 101.594 19.3176 101.018 19.6469C100.43 19.9898 99.9545 20.481 99.6445 21.0654C99.2882 21.7458 99.1127 22.4982 99.1336 23.2573C99.1136 24.0198 99.2891 24.7754 99.6445 25.4599C99.95 26.0471 100.426 26.5393 101.018 26.8784C101.596 27.2006 102.257 27.3668 102.928 27.3592L102.927 27.3616ZM117.3 13.4139H111.19V28.798H117.567C118.453 28.8064 119.327 28.6189 120.123 28.2506C120.877 27.907 121.521 27.3781 121.985 26.7191C122.452 26.0486 122.694 25.2606 122.679 24.4581C122.697 23.6611 122.431 22.8815 121.925 22.2448C121.419 21.6158 120.727 21.1442 119.936 20.8906V20.762C120.575 20.485 121.122 20.0465 121.515 19.4948C121.925 18.9097 122.135 18.2198 122.118 17.5182C122.124 16.7765 121.894 16.0503 121.458 15.4333C121.018 14.8022 120.411 14.291 119.697 13.9506C118.955 13.5913 118.134 13.4071 117.3 13.4139ZM117.19 19.8599C117.846 19.8864 118.485 19.6526 118.951 19.215C119.379 18.8278 119.621 18.2923 119.622 17.7323C119.625 17.1791 119.391 16.6484 118.974 16.2603C118.53 15.8326 117.915 15.6022 117.282 15.626H113.731V19.8588L117.19 19.8599ZM119.428 25.8763C118.943 26.3442 118.269 26.5944 117.576 26.5641H113.731V22.0089H117.485C118.196 21.9758 118.891 22.2207 119.405 22.686C119.867 23.1032 120.126 23.6824 120.122 24.2865C120.124 24.8827 119.874 25.455 119.428 25.8763ZM129.89 29.143C128.818 29.1589 127.762 28.899 126.834 28.3909C125.941 27.8973 125.209 27.1794 124.721 26.3168C124.207 25.4016 123.947 24.3779 123.966 23.3418C123.958 22.3288 124.212 21.3292 124.705 20.4299C125.175 19.555 125.885 18.8154 126.761 18.288C127.657 17.7529 128.7 17.4767 129.76 17.4931C130.823 17.4676 131.873 17.7205 132.794 18.2238C133.635 18.6968 134.315 19.3908 134.747 20.2218C135.205 21.1108 135.435 22.0891 135.418 23.0777C135.414 23.3296 135.391 23.5808 135.35 23.8298H126.454C126.485 24.7282 126.899 25.5767 127.601 26.1823C128.248 26.7268 129.086 27.0238 129.953 27.0153C130.604 27.0309 131.246 26.8708 131.805 26.5536C132.329 26.242 132.763 25.8097 133.063 25.2969L135.175 26.243C134.664 27.1117 133.928 27.8437 133.036 28.3707C132.084 28.9037 130.991 29.171 129.885 29.1418L129.89 29.143ZM132.478 20.8809C132.695 21.2321 132.827 21.6248 132.865 22.0304L126.571 22.0352C126.746 21.3327 127.147 20.6985 127.718 20.2193C128.285 19.7634 129.008 19.5221 129.752 19.5422C130.342 19.5241 130.927 19.6578 131.444 19.9289C131.872 20.1541 132.228 20.4827 132.478 20.8809ZM141.63 28.9707C141.135 28.9729 140.644 28.8924 140.179 28.7326C139.766 28.5988 139.387 28.3867 139.065 28.109C138.39 27.4328 138.036 26.5238 138.089 25.5947V19.922H136.062V17.8371H138.084V14.7432H140.583V17.8371H145.467V14.7432H147.966V17.8371H150.784V19.922H147.966V25.0794C147.921 25.5229 148.05 25.9668 148.33 26.3253C148.628 26.6404 149.068 26.8004 149.512 26.7548C149.744 26.7588 149.974 26.7262 150.194 26.6585C150.419 26.5803 150.633 26.4756 150.83 26.3467V28.6458C150.255 28.8718 149.635 28.9817 149.013 28.9682C148.516 28.9709 148.024 28.8903 147.558 28.7302C147.145 28.5965 146.766 28.3843 146.445 28.1067C145.768 27.4304 145.415 26.5215 145.468 25.5923V19.9196H140.584V25.077C140.538 25.5206 140.667 25.9645 140.947 26.3229C141.237 26.635 141.669 26.795 142.106 26.7525C142.536 26.7418 142.954 26.6151 143.31 26.3872V28.6862C143.074 28.7849 142.826 28.8572 142.572 28.9016C142.261 28.9506 141.945 28.9737 141.63 28.9707ZM141.63 28.9707L141.634 28.9706H141.628L141.63 28.9707ZM154.5 28.3898C155.427 28.8974 156.482 29.1573 157.553 29.1419C158.664 29.1729 159.761 28.9051 160.716 28.3696C161.608 27.8426 162.344 27.1106 162.855 26.2419L160.743 25.2958C160.443 25.8086 160.01 26.2408 159.485 26.5525C158.926 26.8697 158.285 27.0298 157.633 27.0142C156.767 27.0227 155.928 26.7257 155.282 26.1812C154.579 25.5756 154.165 24.7271 154.134 23.8287H163.016C163.057 23.5797 163.08 23.3284 163.085 23.0766C163.101 22.088 162.871 21.1097 162.414 20.2206C161.981 19.3897 161.302 18.6957 160.46 18.2227C159.539 17.7194 158.49 17.4665 157.426 17.4919C156.366 17.4756 155.325 17.7518 154.427 18.2868C153.552 18.8143 152.842 19.5539 152.372 20.4288C151.878 21.328 151.625 22.3277 151.633 23.3408C151.615 24.3768 151.874 25.4005 152.388 26.3157C152.876 27.1783 153.607 27.8961 154.5 28.3898ZM160.535 22.0293C160.497 21.6238 160.365 21.231 160.148 20.8798C159.898 20.4816 159.542 20.153 159.114 19.9278C158.597 19.6567 158.013 19.523 157.422 19.541C156.679 19.5211 155.955 19.7624 155.388 20.2181C154.817 20.6974 154.417 21.3315 154.241 22.034L160.535 22.0293ZM167.289 17.8395H164.898L164.902 28.7968H167.401V22.9957C167.395 22.4477 167.527 21.9063 167.787 21.4165C168.029 20.9538 168.393 20.5578 168.844 20.267C169.296 19.9788 169.832 19.8289 170.377 19.8374C170.993 19.853 171.6 19.9694 172.173 20.1813V17.7323C171.722 17.5772 171.244 17.5042 170.764 17.5169C170.049 17.5176 169.349 17.7072 168.742 18.0643C168.152 18.3816 167.684 18.8667 167.402 19.4507H167.289V17.8395ZM173.835 13.4128H176.198L184.354 25.6613H184.444L184.354 22.6959V13.414H186.285V28.7993H184.285L175.744 15.9713H175.653L175.744 18.9368V28.7993H173.831L173.835 13.4128ZM191.345 28.3684C192.273 28.8889 193.335 29.1567 194.413 29.1418C195.491 29.1567 196.553 28.8889 197.48 28.3684C198.378 27.863 199.113 27.1346 199.604 26.2621C200.114 25.3566 200.374 24.3439 200.359 23.3181C200.374 22.2923 200.114 21.2797 199.604 20.3741C199.113 19.5017 198.378 18.7732 197.48 18.2678C196.553 17.7473 195.491 17.4797 194.413 17.4944C193.335 17.4797 192.273 17.7473 191.345 18.2678C190.447 18.7732 189.713 19.5017 189.222 20.3741C188.712 21.2797 188.453 22.2923 188.466 23.3181C188.453 24.3439 188.712 25.3566 189.222 26.2621C189.713 27.1346 190.447 27.863 191.345 28.3684ZM194.415 27.4878C195.113 27.491 195.799 27.3168 196.402 26.9833C197.025 26.6378 197.535 26.1372 197.878 25.5363C198.262 24.8561 198.454 24.0937 198.434 23.3229C198.454 22.5521 198.262 21.7898 197.878 21.1096C197.535 20.5071 197.025 20.0053 196.401 19.6589C195.798 19.3255 195.112 19.1512 194.413 19.1544C193.711 19.1517 193.021 19.3259 192.414 19.6589C191.785 20.0027 191.27 20.505 190.925 21.1096C190.542 21.7898 190.35 22.5521 190.369 23.3229C190.35 24.0937 190.542 24.8561 190.925 25.5363C191.27 26.1408 191.785 26.643 192.414 26.9868C193.022 27.3188 193.712 27.4918 194.415 27.4878ZM202.639 17.8393H200.663L204.386 28.7978H206.318L209.294 20.0527L212.293 28.7978H214.245L217.993 17.8393H216.038L213.289 26.4774H213.266L210.336 17.8393H208.337L205.43 26.4988H205.407L202.639 17.8393Z" fill="#151852"/>
<path fill-rule="evenodd" clip-rule="evenodd" d="M223.633 15.6308C225.308 15.6308 226.666 14.2735 226.666 12.5992C226.666 10.925 225.308 9.56777 223.633 9.56777C221.957 9.56777 220.6 10.925 220.6 12.5992C220.6 14.2735 221.957 15.6308 223.633 15.6308ZM223.633 16.237C225.644 16.237 227.273 14.6084 227.273 12.5992C227.273 10.5901 225.644 8.96143 223.633 8.96143C221.623 8.96143 219.993 10.5901 219.993 12.5992C219.993 14.6084 221.623 16.237 223.633 16.237Z" fill="#151852"/>
<path d="M224.235 14.267L223.484 13.0165H223.202V14.267H222.56V11.0566H223.785C224.157 11.0566 224.441 11.1476 224.635 11.3295C224.833 11.5114 224.931 11.7509 224.931 12.0479C224.931 12.2905 224.863 12.4935 224.726 12.6573C224.593 12.821 224.398 12.9301 224.144 12.9847L224.945 14.267H224.235ZM223.202 12.5755H223.73C224.096 12.5755 224.28 12.4133 224.28 12.0889C224.28 11.9343 224.235 11.8145 224.144 11.7296C224.055 11.6417 223.918 11.5977 223.73 11.5977H223.202V12.5755Z" fill="#151852"/>
</g>
<defs>
<clipPath id="clip0_2248_2194">
<rect width="227.273" height="40" fill="white"/>
</clipPath>
</defs>
</svg>
