<svg width="114" height="40" viewBox="0 0 114 40" fill="none" xmlns="http://www.w3.org/2000/svg">
<g clip-path="url(#clip0_2251_2245)">
<path d="M54.5141 11.99C54.5141 11.0069 54.2946 10.2232 53.8557 9.63896C53.4167 9.0405 52.7651 8.74126 51.9013 8.74126C51.6179 8.74126 51.3562 8.7555 51.1153 8.78401C50.8745 8.79825 50.6763 8.81962 50.5206 8.84813V14.5976C50.7189 14.7258 50.9738 14.8328 51.2853 14.9182C51.611 15.0037 51.9366 15.0465 52.2625 15.0465C53.7635 15.0465 54.5141 14.0277 54.5141 11.99ZM57.743 11.9045C57.743 12.7737 57.6367 13.5645 57.4243 14.277C57.2119 14.9894 56.9005 15.6021 56.4897 16.1152C56.0789 16.6281 55.5691 17.027 54.9602 17.3121C54.3514 17.597 53.6503 17.7396 52.8573 17.7396C52.4183 17.7396 52.0075 17.6968 51.6251 17.6113C51.2427 17.5258 50.8745 17.4046 50.5206 17.248V21.4798H47.3554V6.66804C47.6387 6.58254 47.9643 6.50418 48.3326 6.43293C48.7009 6.34744 49.0833 6.27618 49.4797 6.2192C49.8905 6.16221 50.301 6.11946 50.7117 6.09096C51.1366 6.04821 51.5402 6.02684 51.9226 6.02684C52.8431 6.02684 53.6645 6.16932 54.3867 6.4543C55.1089 6.72502 55.7178 7.11688 56.2135 7.62985C56.7093 8.12857 57.0845 8.74126 57.3394 9.46797C57.6083 10.1947 57.743 11.0069 57.743 11.9045ZM63.8079 15.3029C64.1197 15.3029 64.4171 15.2958 64.7002 15.2816C64.9834 15.2673 65.2099 15.246 65.3799 15.2174V12.8022C65.2525 12.7737 65.0613 12.7452 64.8063 12.7167C64.5514 12.6882 64.3178 12.674 64.1054 12.674C63.8079 12.674 63.5249 12.6954 63.2557 12.7381C63.0007 12.7666 62.7742 12.8307 62.5759 12.9305C62.3778 13.0302 62.2219 13.1656 62.1086 13.3366C61.9954 13.5076 61.9386 13.7213 61.9386 13.9778C61.9386 14.4765 62.1017 14.8256 62.4271 15.025C62.7671 15.2104 63.2275 15.3029 63.8079 15.3029ZM63.553 5.98409C64.4877 5.98409 65.2667 6.09096 65.8897 6.30469C66.5129 6.51842 67.0086 6.82478 67.3767 7.22374C67.7591 7.62272 68.0283 8.1072 68.1839 8.67714C68.3398 9.2471 68.4175 9.8812 68.4175 10.5794V17.2052C67.9646 17.3049 67.3342 17.4189 66.527 17.5472C65.7198 17.6896 64.7426 17.7609 63.5955 17.7609C62.8733 17.7609 62.2147 17.6968 61.6199 17.5685C61.0395 17.4402 60.5366 17.2337 60.1118 16.9486C59.6869 16.6494 59.3614 16.2648 59.1346 15.7945C58.9081 15.3244 58.7947 14.7472 58.7947 14.0633C58.7947 13.4078 58.9222 12.8521 59.1771 12.3961C59.4463 11.9402 59.8003 11.5768 60.2393 11.3061C60.6783 11.0354 61.181 10.843 61.7474 10.729C62.3141 10.6008 62.9017 10.5366 63.5106 10.5366C63.9214 10.5366 64.2825 10.558 64.5939 10.6008C64.9198 10.6293 65.1818 10.672 65.3799 10.729V10.4298C65.3799 9.8883 65.2171 9.45373 64.8914 9.126C64.5658 8.79825 63.9991 8.6344 63.1919 8.6344C62.6539 8.6344 62.1229 8.67714 61.5987 8.76264C61.0749 8.83389 60.6215 8.94076 60.2393 9.08325L59.8357 6.51842C60.0199 6.46144 60.2463 6.40442 60.5154 6.34744C60.7987 6.27618 61.1033 6.2192 61.4289 6.17645C61.7546 6.11946 62.0945 6.07672 62.4485 6.04821C62.8167 6.00546 63.185 5.98409 63.553 5.98409ZM80.2931 6.28332C79.6558 8.44917 78.9902 10.4796 78.2963 12.3748C77.6022 14.2698 76.8447 16.108 76.0234 17.8892C75.7259 18.5304 75.4286 19.0718 75.1313 19.5136C74.8338 19.9694 74.5081 20.34 74.1541 20.6249C73.7998 20.9241 73.3962 21.1378 72.9433 21.2661C72.5041 21.4086 71.9873 21.4798 71.3925 21.4798C70.8967 21.4798 70.4366 21.43 70.0118 21.3302C69.601 21.2448 69.2611 21.145 68.9921 21.031L69.5445 18.4876C69.8699 18.6016 70.1605 18.68 70.4154 18.7226C70.6703 18.7654 70.9393 18.7868 71.2226 18.7868C71.789 18.7868 72.221 18.6301 72.5183 18.3166C72.8298 18.0173 73.0919 17.597 73.3043 17.0556C72.5821 15.6306 71.8598 14.0348 71.1377 12.2679C70.4154 10.4868 69.7357 8.49192 69.0983 6.28332H72.4546C72.5962 6.83902 72.759 7.44462 72.9433 8.10006C73.1413 8.74126 73.3469 9.39672 73.5593 10.0664C73.7717 10.7219 73.9841 11.3631 74.1966 11.99C74.423 12.617 74.6354 13.187 74.8338 13.7C75.0178 13.187 75.209 12.617 75.4074 11.99C75.6054 11.3631 75.7966 10.7219 75.9809 10.0664C76.179 9.39672 76.3633 8.74126 76.5333 8.10006C76.7173 7.44462 76.8801 6.83902 77.0218 6.28332H80.2931ZM83.7598 11.8191C83.7598 12.8022 83.9794 13.593 84.4183 14.1916C84.8575 14.79 85.5089 15.0892 86.3727 15.0892C86.6559 15.0892 86.9181 15.0821 87.1586 15.0678C87.3995 15.0393 87.5978 15.0108 87.7534 14.9824V9.19012C87.5554 9.06188 87.2933 8.955 86.9675 8.8695C86.6561 8.78401 86.3374 8.74126 86.0115 8.74126C84.5105 8.74126 83.7598 9.7672 83.7598 11.8191ZM90.9186 17.1624C90.6355 17.248 90.3097 17.3334 89.9414 17.4189C89.5734 17.4901 89.1838 17.5542 88.7731 17.6113C88.3766 17.6682 87.9659 17.711 87.541 17.7396C87.1305 17.7822 86.7338 17.8036 86.3514 17.8036C85.4311 17.8036 84.6095 17.6682 83.8873 17.3976C83.1651 17.1268 82.5562 16.7421 82.0605 16.2433C81.565 15.7304 81.1823 15.1177 80.9134 14.4053C80.6585 13.6785 80.531 12.8664 80.531 11.9687C80.531 11.0567 80.6443 10.2374 80.8709 9.51072C81.0977 8.76977 81.4231 8.14281 81.8481 7.62985C82.2729 7.11688 82.7899 6.72502 83.3987 6.4543C84.0219 6.18358 84.7301 6.04821 85.523 6.04821C85.9622 6.04821 86.3514 6.09096 86.6913 6.17645C87.0455 6.26194 87.3995 6.38305 87.7534 6.5398V1.4529L90.9186 0.939941V17.1624ZM97.5149 15.3029C97.8263 15.3029 98.1238 15.2958 98.407 15.2816C98.6901 15.2673 98.9169 15.246 99.0869 15.2174V12.8022C98.9594 12.7737 98.7682 12.7452 98.5133 12.7167C98.2583 12.6882 98.0247 12.674 97.8123 12.674C97.5149 12.674 97.2315 12.6954 96.9626 12.7381C96.7077 12.7666 96.4809 12.8307 96.2829 12.9305C96.0845 13.0302 95.9286 13.1656 95.8155 13.3366C95.7021 13.5076 95.6455 13.7213 95.6455 13.9778C95.6455 14.4765 95.8083 14.8256 96.1341 15.025C96.4739 15.2104 96.9342 15.3029 97.5149 15.3029ZM97.2599 5.98409C98.1946 5.98409 98.9734 6.09096 99.5966 6.30469C100.22 6.51842 100.715 6.82478 101.084 7.22374C101.466 7.62272 101.735 8.1072 101.891 8.67714C102.046 9.2471 102.124 9.8812 102.124 10.5794V17.2052C101.671 17.3049 101.041 17.4189 100.234 17.5472C99.4267 17.6896 98.4495 17.7609 97.3025 17.7609C96.5802 17.7609 95.9217 17.6968 95.3269 17.5685C94.7462 17.4402 94.2435 17.2337 93.8187 16.9486C93.3938 16.6494 93.0681 16.2648 92.8415 15.7945C92.6147 15.3244 92.5017 14.7472 92.5017 14.0633C92.5017 13.4078 92.6291 12.8521 92.8841 12.3961C93.153 11.9402 93.507 11.5768 93.9461 11.3061C94.385 11.0354 94.8877 10.843 95.4543 10.729C96.0207 10.6008 96.6083 10.5366 97.2175 10.5366C97.6279 10.5366 97.9891 10.558 98.3009 10.6008C98.6265 10.6293 98.8885 10.672 99.0869 10.729V10.4298C99.0869 9.8883 98.9238 9.45373 98.5982 9.126C98.2725 8.79825 97.7061 8.6344 96.8989 8.6344C96.3606 8.6344 95.8295 8.67714 95.3057 8.76264C94.7815 8.83389 94.3285 8.94076 93.9461 9.08325L93.5425 6.51842C93.7266 6.46144 93.953 6.40442 94.2223 6.34744C94.5054 6.27618 94.8099 6.2192 95.1357 6.17645C95.4613 6.11946 95.8011 6.07672 96.1554 6.04821C96.5234 6.00546 96.8917 5.98409 97.2599 5.98409ZM114 6.28332C113.362 8.44917 112.697 10.4796 112.003 12.3748C111.309 14.2698 110.551 16.108 109.73 17.8892C109.433 18.5304 109.135 19.0718 108.838 19.5136C108.54 19.9694 108.215 20.34 107.861 20.6249C107.507 20.9241 107.103 21.1378 106.65 21.2661C106.211 21.4086 105.694 21.4798 105.099 21.4798C104.603 21.4798 104.143 21.43 103.718 21.3302C103.308 21.2448 102.968 21.145 102.699 21.031L103.251 18.4876C103.577 18.6016 103.867 18.68 104.122 18.7226C104.377 18.7654 104.646 18.7868 104.929 18.7868C105.496 18.7868 105.928 18.6301 106.225 18.3166C106.536 18.0173 106.799 17.597 107.011 17.0556C106.289 15.6306 105.566 14.0348 104.844 12.2679C104.122 10.4868 103.442 8.49192 102.805 6.28332H106.161C106.303 6.83902 106.466 7.44462 106.65 8.10006C106.848 8.74126 107.054 9.39672 107.266 10.0664C107.478 10.7219 107.691 11.3631 107.903 11.99C108.13 12.617 108.342 13.187 108.54 13.7C108.724 13.187 108.916 12.617 109.114 11.99C109.312 11.3631 109.504 10.7219 109.688 10.0664C109.886 9.39672 110.07 8.74126 110.24 8.10006C110.424 7.44462 110.587 6.83902 110.728 6.28332H114Z" fill="#262626"/>
<path d="M50.0534 29.9626C50.0534 30.9458 50.2729 31.7366 50.7118 32.3351C51.1507 32.9335 51.8023 33.2327 52.6662 33.2327C52.9495 33.2327 53.2113 33.2255 53.4522 33.2114C53.693 33.1828 53.8911 33.1544 54.0469 33.1259V27.3336C53.8486 27.2054 53.5867 27.0986 53.261 27.0131C52.9495 26.9276 52.6309 26.8848 52.305 26.8848C50.8039 26.8848 50.0534 27.9107 50.0534 29.9626ZM57.2121 35.306C56.9287 35.3915 56.6031 35.477 56.2349 35.5624C55.8666 35.6338 55.4774 35.6979 55.0666 35.7548C54.6701 35.8118 54.2594 35.8544 53.8345 35.8831C53.4238 35.9258 53.0273 35.9472 52.6449 35.9472C51.7243 35.9472 50.903 35.8118 50.1807 35.5411C49.4586 35.2704 48.8497 34.8858 48.3539 34.387C47.8582 33.8739 47.4758 33.2614 47.2069 32.5488C46.9519 31.8222 46.8245 31.0099 46.8245 30.1122C46.8245 29.2004 46.9378 28.381 47.1643 27.6543C47.3909 26.9134 47.7166 26.2864 48.1415 25.7734C48.5663 25.2604 49.0834 24.8686 49.6922 24.5979C50.3154 24.3271 51.0233 24.1918 51.8165 24.1918C52.2554 24.1918 52.6449 24.2346 52.9849 24.32C53.3387 24.4055 53.693 24.5266 54.0469 24.6834V19.5964L57.2121 19.0835V35.306ZM59.0073 30.1336C59.0073 29.1363 59.1559 28.2668 59.4534 27.526C59.7651 26.7707 60.1687 26.1439 60.6642 25.6451C61.1599 25.1464 61.7263 24.7688 62.3637 24.5124C63.0153 24.2559 63.6806 24.1276 64.3605 24.1276C65.9467 24.1276 67.1999 24.6192 68.1203 25.6024C69.0409 26.5714 69.5011 28.0035 69.5011 29.8984C69.5011 30.0836 69.4942 30.2904 69.4798 30.5183C69.4658 30.732 69.4517 30.9244 69.4374 31.0954H62.2574C62.3283 31.7508 62.6329 32.271 63.1709 32.6556C63.709 33.0404 64.4313 33.2327 65.3375 33.2327C65.9183 33.2327 66.4846 33.1828 67.037 33.0831C67.6037 32.9691 68.0638 32.8339 68.4177 32.6771L68.8426 35.2632C68.6726 35.3487 68.4462 35.4342 68.1629 35.5198C67.8798 35.6052 67.5611 35.6766 67.2069 35.7335C66.867 35.8048 66.499 35.8616 66.1023 35.9044C65.7058 35.9472 65.3094 35.9686 64.9127 35.9686C63.9074 35.9686 63.0293 35.819 62.2786 35.5198C61.5423 35.2204 60.9263 34.8144 60.4306 34.3014C59.9491 33.7743 59.5881 33.1544 59.3471 32.4419C59.1207 31.7294 59.0073 30.9599 59.0073 30.1336ZM66.4422 28.9154C66.4281 28.6447 66.3785 28.381 66.2935 28.1244C66.2229 27.868 66.1023 27.6402 65.9323 27.4406C65.7767 27.241 65.5713 27.0772 65.3163 26.949C65.0758 26.8207 64.7711 26.7566 64.4029 26.7566C64.049 26.7566 63.7443 26.8207 63.4895 26.949C63.2346 27.063 63.0221 27.2196 62.8522 27.4191C62.6822 27.6187 62.5479 27.8539 62.4486 28.1244C62.3637 28.381 62.2999 28.6447 62.2574 28.9154H66.4422ZM78.4651 30.1336C78.4651 29.1504 78.2455 28.3668 77.8067 27.7826C77.3678 27.184 76.7162 26.8848 75.8523 26.8848C75.569 26.8848 75.3073 26.899 75.0663 26.9276C74.8255 26.9418 74.6274 26.9631 74.4715 26.9916V32.7411C74.6699 32.8694 74.9249 32.9763 75.2363 33.0618C75.5621 33.1472 75.8877 33.19 76.2135 33.19C77.7146 33.19 78.4651 32.1712 78.4651 30.1336ZM81.6941 30.0482C81.6941 30.9172 81.5878 31.708 81.3754 32.4206C81.163 33.1331 80.8515 33.7458 80.4407 34.2587C80.0299 34.7716 79.5202 35.1706 78.9113 35.4556C78.3025 35.7407 77.6014 35.8831 76.8083 35.8831C76.3694 35.8831 75.9586 35.8403 75.5762 35.7548C75.1938 35.6694 74.8255 35.5483 74.4715 35.3915V39.6234H71.3065V24.8116C71.5898 24.7262 71.9154 24.6478 72.2837 24.5764C72.6519 24.491 73.0342 24.4198 73.4307 24.3627C73.8415 24.3058 74.2521 24.263 74.6627 24.2346C75.0877 24.1918 75.4913 24.1704 75.8737 24.1704C76.7942 24.1704 77.6155 24.3128 78.3377 24.5979C79.0599 24.8686 79.6689 25.2604 80.1646 25.7734C80.6603 26.2722 81.0355 26.8848 81.2905 27.6115C81.5594 28.3382 81.6941 29.1504 81.6941 30.0482ZM93.9406 30.0267C93.9406 30.9103 93.8131 31.7224 93.5582 32.4634C93.3033 33.19 92.9353 33.8171 92.4537 34.3442C91.9722 34.8571 91.3915 35.256 90.7118 35.5411C90.0463 35.8262 89.2957 35.9686 88.4601 35.9686C87.6387 35.9686 86.8881 35.8262 86.2083 35.5411C85.5429 35.256 84.9694 34.8571 84.4877 34.3442C84.0063 33.8171 83.631 33.19 83.3618 32.4634C83.0929 31.7224 82.9582 30.9103 82.9582 30.0267C82.9582 29.1432 83.0929 28.3382 83.3618 27.6115C83.6451 26.8848 84.0275 26.265 84.5089 25.752C85.0046 25.2391 85.5854 24.8402 86.2509 24.5551C86.9306 24.2702 87.6671 24.1276 88.4601 24.1276C89.2673 24.1276 90.0038 24.2702 90.6693 24.5551C91.349 24.8402 91.9297 25.2391 92.4111 25.752C92.8927 26.265 93.2679 26.8848 93.537 27.6115C93.8062 28.3382 93.9406 29.1432 93.9406 30.0267ZM90.7118 30.0267C90.7118 29.0435 90.5137 28.2742 90.117 27.7184C89.7346 27.1486 89.1823 26.8635 88.4601 26.8635C87.7378 26.8635 87.1786 27.1486 86.7819 27.7184C86.3854 28.2742 86.1871 29.0435 86.1871 30.0267C86.1871 31.0099 86.3854 31.7935 86.7819 32.3778C87.1786 32.9476 87.7378 33.2327 88.4601 33.2327C89.1823 33.2327 89.7346 32.9476 90.117 32.3778C90.5137 31.7935 90.7118 31.0099 90.7118 30.0267ZM95.6491 21.627L98.8143 21.114V24.4268H102.617V27.0772H98.8143V31.0312C98.8143 31.7011 98.9274 32.2354 99.1542 32.6343C99.3947 33.0332 99.8693 33.2327 100.577 33.2327C100.917 33.2327 101.264 33.2042 101.618 33.1472C101.986 33.0759 102.319 32.9835 102.617 32.8694L103.063 35.3487C102.68 35.5055 102.256 35.6407 101.788 35.7548C101.321 35.8688 100.747 35.9258 100.068 35.9258C99.2035 35.9258 98.4885 35.8118 97.9221 35.5839C97.3554 35.3415 96.9025 35.0139 96.5626 34.6007C96.2227 34.1732 95.9818 33.6602 95.8403 33.0618C95.7129 32.4634 95.6491 31.8007 95.6491 31.074V21.627Z" fill="#262626"/>
<path d="M37.9646 12.8039C37.9646 19.6668 32.4351 25.2304 25.6142 25.2304H13.2639V0.377441H25.6142C32.4351 0.377441 37.9646 5.94096 37.9646 12.8039Z" fill="#25319E"/>
<path d="M0.666626 25.4787C0.666626 18.6158 6.19605 13.0522 13.0169 13.0522H25.3672V37.9051H13.0169C6.19605 37.9051 0.666626 32.3416 0.666626 25.4787Z" fill="#25319E"/>
<path d="M25.3673 13.0522H13.2639V25.2302H25.3673V13.0522Z" fill="#D7FCEB"/>
</g>
<defs>
<clipPath id="clip0_2251_2245">
<rect width="113.333" height="40" fill="white" transform="translate(0.666626)"/>
</clipPath>
</defs>
</svg>
