<svg width="114" height="40" viewBox="0 0 114 40" fill="none" xmlns="http://www.w3.org/2000/svg">
<g clip-path="url(#clip0_2251_2245)">
<path d="M54.5142 11.99C54.5142 11.0069 54.2947 10.2232 53.8558 9.63896C53.4169 9.0405 52.7653 8.74126 51.9014 8.74126C51.6181 8.74126 51.3563 8.7555 51.1154 8.78401C50.8746 8.79825 50.6765 8.81962 50.5207 8.84813V14.5976C50.719 14.7258 50.9739 14.8328 51.2854 14.9182C51.6111 15.0037 51.9367 15.0465 52.2626 15.0465C53.7637 15.0465 54.5142 14.0277 54.5142 11.99ZM57.7431 11.9045C57.7431 12.7737 57.6369 13.5645 57.4245 14.277C57.2121 14.9894 56.9006 15.6021 56.4898 16.1152C56.079 16.6281 55.5693 17.027 54.9603 17.3121C54.3515 17.597 53.6505 17.7396 52.8574 17.7396C52.4185 17.7396 52.0077 17.6968 51.6253 17.6113C51.2429 17.5258 50.8746 17.4046 50.5207 17.248V21.4798H47.3555V6.66804C47.6389 6.58254 47.9645 6.50418 48.3327 6.43293C48.701 6.34744 49.0834 6.27618 49.4798 6.2192C49.8906 6.16221 50.3011 6.11946 50.7118 6.09096C51.1367 6.04821 51.5403 6.02684 51.9227 6.02684C52.8433 6.02684 53.6646 6.16932 54.3869 6.4543C55.109 6.72502 55.7179 7.11688 56.2137 7.62985C56.7094 8.12857 57.0846 8.74126 57.3395 9.46797C57.6085 10.1947 57.7431 11.0069 57.7431 11.9045ZM63.8081 15.3029C64.1198 15.3029 64.4173 15.2958 64.7003 15.2816C64.9835 15.2673 65.2101 15.246 65.3801 15.2174V12.8022C65.2526 12.7737 65.0614 12.7452 64.8065 12.7167C64.5515 12.6882 64.3179 12.674 64.1055 12.674C63.8081 12.674 63.525 12.6954 63.2558 12.7381C63.0009 12.7666 62.7743 12.8307 62.5761 12.9305C62.3779 13.0302 62.2221 13.1656 62.1087 13.3366C61.9955 13.5076 61.9387 13.7213 61.9387 13.9778C61.9387 14.4765 62.1018 14.8256 62.4273 15.025C62.7673 15.2104 63.2277 15.3029 63.8081 15.3029ZM63.5531 5.98409C64.4878 5.98409 65.2669 6.09096 65.8898 6.30469C66.513 6.51842 67.0087 6.82478 67.3769 7.22374C67.7593 7.62272 68.0285 8.1072 68.1841 8.67714C68.3399 9.2471 68.4177 9.8812 68.4177 10.5794V17.2052C67.9647 17.3049 67.3343 17.4189 66.5271 17.5472C65.7199 17.6896 64.7427 17.7609 63.5957 17.7609C62.8734 17.7609 62.2149 17.6968 61.6201 17.5685C61.0397 17.4402 60.5367 17.2337 60.1119 16.9486C59.687 16.6494 59.3615 16.2648 59.1347 15.7945C58.9082 15.3244 58.7949 14.7472 58.7949 14.0633C58.7949 13.4078 58.9223 12.8521 59.1773 12.3961C59.4465 11.9402 59.8005 11.5768 60.2394 11.3061C60.6785 11.0354 61.1811 10.843 61.7475 10.729C62.3142 10.6008 62.9018 10.5366 63.5107 10.5366C63.9215 10.5366 64.2826 10.558 64.5941 10.6008C64.9199 10.6293 65.1819 10.672 65.3801 10.729V10.4298C65.3801 9.8883 65.2173 9.45373 64.8915 9.126C64.5659 8.79825 63.9993 8.6344 63.1921 8.6344C62.6541 8.6344 62.123 8.67714 61.5989 8.76264C61.075 8.83389 60.6217 8.94076 60.2394 9.08325L59.8358 6.51842C60.0201 6.46144 60.2465 6.40442 60.5155 6.34744C60.7989 6.27618 61.1034 6.2192 61.429 6.17645C61.7547 6.11946 62.0946 6.07672 62.4486 6.04821C62.8169 6.00546 63.1851 5.98409 63.5531 5.98409ZM80.2933 6.28332C79.6559 8.44917 78.9903 10.4796 78.2965 12.3748C77.6023 14.2698 76.8449 16.108 76.0235 17.8892C75.7261 18.5304 75.4287 19.0718 75.1314 19.5136C74.8339 19.9694 74.5082 20.34 74.1542 20.6249C73.7999 20.9241 73.3963 21.1378 72.9434 21.2661C72.5042 21.4086 71.9874 21.4798 71.3926 21.4798C70.8969 21.4798 70.4367 21.43 70.0119 21.3302C69.6011 21.2448 69.2613 21.145 68.9922 21.031L69.5446 18.4876C69.8701 18.6016 70.1606 18.68 70.4155 18.7226C70.6705 18.7654 70.9394 18.7868 71.2227 18.7868C71.7891 18.7868 72.2211 18.6301 72.5185 18.3166C72.8299 18.0173 73.0921 17.597 73.3045 17.0556C72.5822 15.6306 71.8599 14.0348 71.1378 12.2679C70.4155 10.4868 69.7358 8.49192 69.0985 6.28332H72.4547C72.5963 6.83902 72.7591 7.44462 72.9434 8.10006C73.1414 8.74126 73.347 9.39672 73.5594 10.0664C73.7718 10.7219 73.9842 11.3631 74.1967 11.99C74.4231 12.617 74.6355 13.187 74.8339 13.7C75.0179 13.187 75.2091 12.617 75.4075 11.99C75.6055 11.3631 75.7967 10.7219 75.981 10.0664C76.1791 9.39672 76.3634 8.74126 76.5334 8.10006C76.7174 7.44462 76.8802 6.83902 77.0219 6.28332H80.2933ZM83.7599 11.8191C83.7599 12.8022 83.9795 13.593 84.4185 14.1916C84.8577 14.79 85.509 15.0892 86.3729 15.0892C86.6561 15.0892 86.9182 15.0821 87.1587 15.0678C87.3997 15.0393 87.5979 15.0108 87.7535 14.9824V9.19012C87.5555 9.06188 87.2934 8.955 86.9677 8.8695C86.6562 8.78401 86.3375 8.74126 86.0117 8.74126C84.5106 8.74126 83.7599 9.7672 83.7599 11.8191ZM90.9187 17.1624C90.6357 17.248 90.3098 17.3334 89.9415 17.4189C89.5735 17.4901 89.1839 17.5542 88.7733 17.6113C88.3767 17.6682 87.9661 17.711 87.5411 17.7396C87.1306 17.7822 86.7339 17.8036 86.3515 17.8036C85.4313 17.8036 84.6097 17.6682 83.8874 17.3976C83.1653 17.1268 82.5563 16.7421 82.0606 16.2433C81.5651 15.7304 81.1825 15.1177 80.9135 14.4053C80.6586 13.6785 80.5311 12.8664 80.5311 11.9687C80.5311 11.0567 80.6445 10.2374 80.871 9.51072C81.0978 8.76977 81.4233 8.14281 81.8482 7.62985C82.273 7.11688 82.7901 6.72502 83.3989 6.4543C84.0221 6.18358 84.7302 6.04821 85.5231 6.04821C85.9623 6.04821 86.3515 6.09096 86.6914 6.17645C87.0457 6.26194 87.3997 6.38305 87.7535 6.5398V1.4529L90.9187 0.939941V17.1624ZM97.515 15.3029C97.8265 15.3029 98.1239 15.2958 98.4071 15.2816C98.6902 15.2673 98.917 15.246 99.087 15.2174V12.8022C98.9595 12.7737 98.7683 12.7452 98.5134 12.7167C98.2585 12.6882 98.0249 12.674 97.8125 12.674C97.515 12.674 97.2317 12.6954 96.9627 12.7381C96.7078 12.7666 96.481 12.8307 96.283 12.9305C96.0846 13.0302 95.9287 13.1656 95.8157 13.3366C95.7022 13.5076 95.6457 13.7213 95.6457 13.9778C95.6457 14.4765 95.8085 14.8256 96.1342 15.025C96.4741 15.2104 96.9343 15.3029 97.515 15.3029ZM97.2601 5.98409C98.1947 5.98409 98.9735 6.09096 99.5967 6.30469C100.22 6.51842 100.715 6.82478 101.084 7.22374C101.466 7.62272 101.735 8.1072 101.891 8.67714C102.047 9.2471 102.125 9.8812 102.125 10.5794V17.2052C101.671 17.3049 101.041 17.4189 100.234 17.5472C99.4269 17.6896 98.4497 17.7609 97.3026 17.7609C96.5803 17.7609 95.9218 17.6968 95.327 17.5685C94.7463 17.4402 94.2437 17.2337 93.8189 16.9486C93.3939 16.6494 93.0682 16.2648 92.8417 15.7945C92.6149 15.3244 92.5018 14.7472 92.5018 14.0633C92.5018 13.4078 92.6293 12.8521 92.8842 12.3961C93.1531 11.9402 93.5071 11.5768 93.9462 11.3061C94.3851 11.0354 94.8878 10.843 95.4545 10.729C96.0209 10.6008 96.6085 10.5366 97.2177 10.5366C97.6281 10.5366 97.9893 10.558 98.301 10.6008C98.6266 10.6293 98.8886 10.672 99.087 10.729V10.4298C99.087 9.8883 98.9239 9.45373 98.5983 9.126C98.2726 8.79825 97.7062 8.6344 96.899 8.6344C96.3607 8.6344 95.8297 8.67714 95.3058 8.76264C94.7817 8.83389 94.3286 8.94076 93.9462 9.08325L93.5426 6.51842C93.7267 6.46144 93.9531 6.40442 94.2225 6.34744C94.5055 6.27618 94.8101 6.2192 95.1358 6.17645C95.4614 6.11946 95.8013 6.07672 96.1555 6.04821C96.5235 6.00546 96.8918 5.98409 97.2601 5.98409ZM114 6.28332C113.363 8.44917 112.697 10.4796 112.003 12.3748C111.309 14.2698 110.552 16.108 109.73 17.8892C109.433 18.5304 109.135 19.0718 108.838 19.5136C108.541 19.9694 108.215 20.34 107.861 20.6249C107.507 20.9241 107.103 21.1378 106.65 21.2661C106.211 21.4086 105.694 21.4798 105.099 21.4798C104.604 21.4798 104.143 21.43 103.719 21.3302C103.308 21.2448 102.968 21.145 102.699 21.031L103.251 18.4876C103.577 18.6016 103.867 18.68 104.122 18.7226C104.377 18.7654 104.646 18.7868 104.929 18.7868C105.496 18.7868 105.928 18.6301 106.225 18.3166C106.537 18.0173 106.799 17.597 107.011 17.0556C106.289 15.6306 105.567 14.0348 104.844 12.2679C104.122 10.4868 103.442 8.49192 102.805 6.28332H106.161C106.303 6.83902 106.466 7.44462 106.65 8.10006C106.848 8.74126 107.054 9.39672 107.266 10.0664C107.478 10.7219 107.691 11.3631 107.903 11.99C108.13 12.617 108.342 13.187 108.541 13.7C108.725 13.187 108.916 12.617 109.114 11.99C109.312 11.3631 109.504 10.7219 109.688 10.0664C109.886 9.39672 110.07 8.74126 110.24 8.10006C110.424 7.44462 110.587 6.83902 110.729 6.28332H114Z" fill="#262626"/>
<path d="M50.0535 29.9626C50.0535 30.9458 50.273 31.7366 50.7119 32.3351C51.1509 32.9335 51.8024 33.2327 52.6663 33.2327C52.9496 33.2327 53.2114 33.2255 53.4523 33.2114C53.6931 33.1828 53.8912 33.1544 54.047 33.1259V27.3336C53.8487 27.2054 53.5869 27.0986 53.2611 27.0131C52.9497 26.9276 52.631 26.8848 52.3051 26.8848C50.8041 26.8848 50.0535 27.9107 50.0535 29.9626ZM57.2122 35.306C56.9289 35.3915 56.6033 35.477 56.235 35.5624C55.8667 35.6338 55.4775 35.6979 55.0667 35.7548C54.6702 35.8118 54.2595 35.8544 53.8346 35.8831C53.4239 35.9258 53.0274 35.9472 52.645 35.9472C51.7245 35.9472 50.9031 35.8118 50.1809 35.5411C49.4587 35.2704 48.8498 34.8858 48.354 34.387C47.8583 33.8739 47.4759 33.2614 47.207 32.5488C46.9521 31.8222 46.8246 31.0099 46.8246 30.1122C46.8246 29.2004 46.9379 28.381 47.1644 27.6543C47.391 26.9134 47.7167 26.2864 48.1417 25.7734C48.5665 25.2604 49.0835 24.8686 49.6923 24.5979C50.3155 24.3271 51.0234 24.1918 51.8166 24.1918C52.2555 24.1918 52.645 24.2346 52.985 24.32C53.3389 24.4055 53.6931 24.5266 54.047 24.6834V19.5964L57.2122 19.0835V35.306ZM59.0074 30.1336C59.0074 29.1363 59.1561 28.2668 59.4535 27.526C59.7653 26.7707 60.1689 26.1439 60.6643 25.6451C61.1601 25.1464 61.7265 24.7688 62.3638 24.5124C63.0154 24.2559 63.6807 24.1276 64.3606 24.1276C65.9469 24.1276 67.2001 24.6192 68.1205 25.6024C69.041 26.5714 69.5013 28.0035 69.5013 29.8984C69.5013 30.0836 69.4943 30.2904 69.4799 30.5183C69.4659 30.732 69.4518 30.9244 69.4375 31.0954H62.2575C62.3285 31.7508 62.633 32.271 63.171 32.6556C63.7091 33.0404 64.4314 33.2327 65.3377 33.2327C65.9185 33.2327 66.4847 33.1828 67.0371 33.0831C67.6038 32.9691 68.0639 32.8339 68.4178 32.6771L68.8427 35.2632C68.6727 35.3487 68.4463 35.4342 68.163 35.5198C67.8799 35.6052 67.5613 35.6766 67.207 35.7335C66.8671 35.8048 66.4991 35.8616 66.1025 35.9044C65.7059 35.9472 65.3095 35.9686 64.9129 35.9686C63.9075 35.9686 63.0294 35.819 62.2787 35.5198C61.5425 35.2204 60.9265 34.8144 60.4307 34.3014C59.9493 33.7743 59.5882 33.1544 59.3472 32.4419C59.1208 31.7294 59.0074 30.9599 59.0074 30.1336ZM66.4423 28.9154C66.4282 28.6447 66.3786 28.381 66.2937 28.1244C66.223 27.868 66.1024 27.6402 65.9324 27.4406C65.7768 27.241 65.5714 27.0772 65.3165 26.949C65.0759 26.8207 64.7713 26.7566 64.403 26.7566C64.0491 26.7566 63.7444 26.8207 63.4897 26.949C63.2347 27.063 63.0222 27.2196 62.8523 27.4191C62.6823 27.6187 62.548 27.8539 62.4487 28.1244C62.3638 28.381 62.3001 28.6447 62.2575 28.9154H66.4423ZM78.4653 30.1336C78.4653 29.1504 78.2456 28.3668 77.8069 27.7826C77.3679 27.184 76.7163 26.8848 75.8525 26.8848C75.5691 26.8848 75.3074 26.899 75.0665 26.9276C74.8257 26.9418 74.6275 26.9631 74.4716 26.9916V32.7411C74.67 32.8694 74.925 32.9763 75.2365 33.0618C75.5622 33.1472 75.8878 33.19 76.2136 33.19C77.7147 33.19 78.4653 32.1712 78.4653 30.1336ZM81.6942 30.0482C81.6942 30.9172 81.5879 31.708 81.3755 32.4206C81.1631 33.1331 80.8517 33.7458 80.4409 34.2587C80.0301 34.7716 79.5203 35.1706 78.9114 35.4556C78.3026 35.7407 77.6015 35.8831 76.8085 35.8831C76.3695 35.8831 75.9587 35.8403 75.5763 35.7548C75.1939 35.6694 74.8256 35.5483 74.4716 35.3915V39.6234H71.3066V24.8116C71.5899 24.7262 71.9155 24.6478 72.2838 24.5764C72.6521 24.491 73.0343 24.4198 73.4309 24.3627C73.8417 24.3058 74.2522 24.263 74.6629 24.2346C75.0878 24.1918 75.4914 24.1704 75.8738 24.1704C76.7943 24.1704 77.6157 24.3128 78.3378 24.5979C79.0601 24.8686 79.669 25.2604 80.1647 25.7734C80.6605 26.2722 81.0357 26.8848 81.2906 27.6115C81.5595 28.3382 81.6942 29.1504 81.6942 30.0482ZM93.9407 30.0267C93.9407 30.9103 93.8133 31.7224 93.5583 32.4634C93.3034 33.19 92.9354 33.8171 92.4538 34.3442C91.9723 34.8571 91.3916 35.256 90.7119 35.5411C90.0464 35.8262 89.2958 35.9686 88.4602 35.9686C87.6389 35.9686 86.8882 35.8262 86.2085 35.5411C85.543 35.256 84.9695 34.8571 84.4878 34.3442C84.0065 33.8171 83.6311 33.19 83.3619 32.4634C83.093 31.7224 82.9583 30.9103 82.9583 30.0267C82.9583 29.1432 83.093 28.3382 83.3619 27.6115C83.6453 26.8848 84.0276 26.265 84.509 25.752C85.0047 25.2391 85.5855 24.8402 86.251 24.5551C86.9307 24.2702 87.6673 24.1276 88.4602 24.1276C89.2674 24.1276 90.0039 24.2702 90.6694 24.5551C91.3491 24.8402 91.9298 25.2391 92.4113 25.752C92.8929 26.265 93.2681 26.8848 93.5371 27.6115C93.8063 28.3382 93.9407 29.1432 93.9407 30.0267ZM90.7119 30.0267C90.7119 29.0435 90.5138 28.2742 90.1171 27.7184C89.7347 27.1486 89.1825 26.8635 88.4602 26.8635C87.7379 26.8635 87.1787 27.1486 86.7821 27.7184C86.3855 28.2742 86.1873 29.0435 86.1873 30.0267C86.1873 31.0099 86.3855 31.7935 86.7821 32.3778C87.1787 32.9476 87.7379 33.2327 88.4602 33.2327C89.1825 33.2327 89.7347 32.9476 90.1171 32.3778C90.5138 31.7935 90.7119 31.0099 90.7119 30.0267ZM95.6493 21.627L98.8145 21.114V24.4268H102.617V27.0772H98.8145V31.0312C98.8145 31.7011 98.9275 32.2354 99.1543 32.6343C99.3949 33.0332 99.8694 33.2327 100.578 33.2327C100.917 33.2327 101.264 33.2042 101.618 33.1472C101.986 33.0759 102.319 32.9835 102.617 32.8694L103.063 35.3487C102.681 35.5055 102.256 35.6407 101.788 35.7548C101.321 35.8688 100.748 35.9258 100.068 35.9258C99.2036 35.9258 98.4886 35.8118 97.9222 35.5839C97.3555 35.3415 96.9026 35.0139 96.5627 34.6007C96.2228 34.1732 95.9819 33.6602 95.8405 33.0618C95.713 32.4634 95.6493 31.8007 95.6493 31.074V21.627Z" fill="#262626"/>
<path d="M37.9647 12.8039C37.9647 19.6668 32.4353 25.2304 25.6143 25.2304H13.2641V0.377441H25.6143C32.4353 0.377441 37.9647 5.94096 37.9647 12.8039Z" fill="#25319E"/>
<path d="M0.666748 25.4787C0.666748 18.6158 6.19617 13.0522 13.017 13.0522H25.3673V37.9051H13.017C6.19617 37.9051 0.666748 32.3416 0.666748 25.4787Z" fill="#25319E"/>
<path d="M25.3674 13.0522H13.2641V25.2302H25.3674V13.0522Z" fill="#D7FCEB"/>
</g>
<defs>
<clipPath id="clip0_2251_2245">
<rect width="113.333" height="40" fill="white" transform="translate(0.666748)"/>
</clipPath>
</defs>
</svg>
