<svg width="165" height="40" viewBox="0 0 165 40" fill="none" xmlns="http://www.w3.org/2000/svg">
<g clip-path="url(#clip0_2249_2201)">
<path d="M164.375 13.106V32.49L153.305 30.0728V12.142C153.305 10.924 152.76 9.8048 151.805 9.05709C150.846 8.31879 149.633 8.06015 148.462 8.35641L131.147 12.711V5.38439L148.781 0.935764C152.548 -0.0141533 156.48 0.8182 159.55 3.2118C162.621 5.60541 164.375 9.20757 164.375 13.106Z" fill="url(#paint0_linear_2249_2201)"/>
<path d="M153.31 12.142V30.0682L135.064 26.0898C132.797 25.596 131.152 23.5598 131.152 21.2462V12.711L148.466 8.35643C149.637 8.06017 150.851 8.31881 151.81 9.05711C152.764 9.80482 153.31 10.924 153.31 12.142Z" fill="#16072D"/>
<path d="M153.31 30.0681V39.4497L132.609 34.9353C127.23 33.7596 123.326 28.9113 123.326 23.414V14.686L131.152 12.7109V21.2461C131.152 23.5598 132.797 25.596 135.064 26.0897L153.31 30.0681Z" fill="url(#paint1_linear_2249_2201)"/>
<path d="M114.448 11.1216C114.448 10.9429 114.373 10.7642 114.302 10.4444C113.602 10.8018 113.028 11.1921 112.398 11.399C111.208 11.794 110.888 12.5417 110.926 13.7644C111.015 16.8916 110.987 20.0235 110.93 23.1554C110.883 25.8265 109.473 27.4583 106.966 27.8157C106.171 27.9285 105.358 27.858 104.549 27.858C100.575 27.8533 98.9107 26.2074 98.8919 22.2196C98.8825 19.3275 98.8919 16.4449 98.8872 13.5528C98.8872 13.139 98.8449 12.7251 98.8026 12.142C97.9185 12.6029 97.2319 13.0214 96.503 13.3224C95.6801 13.6609 95.3885 14.1688 95.4073 15.0717C95.4684 17.6769 95.459 20.2869 95.4167 22.8968C95.3744 25.676 94.1611 27.3313 91.6641 27.7263C90.2157 27.9567 88.6826 27.9426 87.2248 27.7404C85.0429 27.4348 83.9472 26.2215 83.5992 23.9972C83.4393 22.9767 83.4158 21.9233 83.4017 20.8841C83.3782 18.6127 83.397 16.3414 83.397 13.8679C82.4941 14.3193 81.8075 14.719 81.0786 15.0106C80.218 15.3586 79.8841 15.8759 79.9265 16.8399C80.0111 18.8008 79.9735 20.7712 79.9406 22.7369C79.8841 26.1274 78.1395 27.8345 74.7631 27.8533C73.3946 27.858 72.0215 27.8674 70.653 27.8439C68.1654 27.8063 66.5665 26.4425 66.1809 24.0066C66.0586 23.2542 65.9975 22.4924 65.9928 21.7305C65.974 18.4011 65.9881 15.067 65.9834 11.7376C65.9834 11.3614 65.941 10.9758 65.9128 10.4303C65.0617 10.8535 64.3751 11.2579 63.6368 11.5401C62.7527 11.8787 62.4894 12.4242 62.5082 13.3694C62.5693 16.5389 62.5599 19.7131 62.5223 22.8827C62.4847 26.1086 60.6742 27.8439 57.4529 27.8533C56.5265 27.8533 55.6048 27.858 54.6784 27.8486C51.9791 27.8204 50.2063 26.4284 50.0558 23.7903C49.8348 19.8683 49.8912 15.9323 49.8348 12.0056C49.8301 11.5448 49.8348 11.0792 49.8348 10.4068C48.9084 10.8676 48.2218 11.272 47.4882 11.5542C46.6041 11.8928 46.3408 12.443 46.3596 13.3882C46.4207 16.6 46.4113 19.8072 46.369 23.019C46.3314 26.1133 44.5303 27.8392 41.436 27.8533C40.5049 27.858 39.5832 27.858 38.6568 27.8486C35.7083 27.8298 33.9025 26.2215 33.8696 23.2965C33.7755 16.1533 33.8037 9.00541 33.7802 1.86222V0C33.0983 0.343287 32.6986 0.616036 32.2613 0.75241C30.5825 1.27439 30.1498 2.35128 30.1828 4.09593C30.3003 10.3974 30.2392 16.6988 30.1969 23.0002C30.1781 25.7277 28.7767 27.4018 26.2185 27.7827C25.0758 27.952 23.8907 27.8533 22.7245 27.8486C19.7101 27.8392 17.9514 26.2215 17.8903 23.2071C17.8009 18.5093 17.8432 13.8114 17.8197 9.11827C17.8197 8.65272 17.7727 8.18716 17.7257 7.45356C16.0939 8.61039 13.578 8.53045 14.3163 11.5871C13.9119 11.3379 13.752 11.2391 13.5874 11.1451C9.42094 8.77028 4.45503 10.0212 2.06143 14.1594C0.199215 17.3854 0.161594 20.823 1.41718 24.2605C2.71979 27.8392 5.74824 29.7437 9.54791 29.6591C11.7863 29.6073 13.658 28.7609 15.365 27.2937C16.4419 29.0665 17.8197 30.482 19.7854 30.7124C22.2401 30.9993 24.7466 30.9993 27.2295 30.9005C29.1388 30.8253 30.6624 29.7061 31.9697 28.2953C33.5686 30.1528 35.5108 30.9946 37.7915 31.0604C38.8825 31.0933 39.9688 31.0228 41.0551 31.0745C43.8014 31.2109 46.2373 30.5431 48.1701 28.3565C49.9523 30.3974 52.1908 31.1686 54.7819 31.0698C55.5437 31.0416 56.3102 31.0369 57.0767 31.0745C59.8512 31.2156 62.3436 30.5996 64.2952 28.3376C65.8517 30.1434 67.7797 31.004 70.0652 31.0604C71.2691 31.0886 72.4823 31.0275 73.6862 31.0745C76.7522 31.2015 79.6678 30.9429 81.6805 28.1166C83.7214 30.8582 86.5006 31.0933 89.4586 31.1028C92.4635 31.1075 95.2709 30.8347 97.2225 28.126C98.9248 30.3833 101.163 31.1404 103.764 31.0698C104.732 31.0463 105.701 31.0745 106.665 31.0651C111.062 31.0134 114.265 28.0179 114.401 23.6351C114.523 19.4639 114.457 15.288 114.467 11.1122L114.448 11.1216ZM14.2928 23.4141C14.2787 23.7762 14.1611 24.2041 13.9401 24.4815C11.2173 27.8862 6.11504 27.1714 4.61492 23.1131C3.60857 20.3903 3.74965 17.6534 5.48019 15.2034C7.68099 12.0903 12.045 12.965 14.0295 15.4291C14.2223 15.6689 14.227 16.1016 14.2317 16.4449C14.2552 17.6064 14.2411 18.7679 14.2411 19.9295H14.3069C14.3069 21.091 14.3351 22.2525 14.2928 23.4094V23.4141Z" fill="#1D1546"/>
<path d="M65.7294 2.27609C65.7388 3.61162 64.9629 4.41106 63.6744 4.39695C62.3718 4.38754 61.5912 3.58811 61.5912 2.28079C61.5959 0.992292 62.4047 0.211666 63.7261 0.225774C64.9817 0.239882 65.72 0.996994 65.7247 2.27609H65.7294Z" fill="#1D1546"/>
<path d="M49.6138 37.9307C49.595 39.3462 48.9319 40.0187 47.5682 39.9999C46.2373 39.9857 45.5272 39.238 45.5413 37.8837C45.5555 36.5952 46.3784 35.8099 47.681 35.8428C48.946 35.8757 49.6279 36.614 49.6138 37.9307Z" fill="#1D1546"/>
<path d="M47.6857 35.8428C48.9507 35.8757 49.6326 36.614 49.6185 37.9307C49.5997 39.3462 48.9366 40.0187 47.5728 39.9999C46.242 39.9857 45.5319 39.238 45.546 37.8837C45.5602 36.5952 46.3831 35.8099 47.6857 35.8428Z" fill="#1D1546"/>
<path d="M61.5959 2.28079C61.6006 0.992292 62.4094 0.211666 63.7309 0.225774C64.9864 0.239882 65.7247 0.996994 65.7294 2.27609C65.7388 3.61162 64.9629 4.41106 63.6744 4.39695C62.3718 4.38754 61.5912 3.58811 61.5912 2.28079H61.5959Z" fill="#1D1546"/>
<path d="M114.448 11.1216C114.448 10.9429 114.373 10.7642 114.302 10.4444C113.602 10.8018 113.028 11.1921 112.398 11.399C111.208 11.794 110.888 12.5417 110.926 13.7644C111.015 16.8916 110.987 20.0235 110.93 23.1554C110.883 25.8265 109.473 27.4583 106.966 27.8157C106.171 27.9285 105.358 27.858 104.549 27.858C100.575 27.8533 98.9107 26.2074 98.8919 22.2196C98.8825 19.3275 98.8919 16.4449 98.8872 13.5528C98.8872 13.139 98.8449 12.7251 98.8026 12.142C97.9185 12.6029 97.2319 13.0214 96.503 13.3224C95.6801 13.6609 95.3885 14.1688 95.4073 15.0717C95.4684 17.6769 95.459 20.2869 95.4167 22.8968C95.3744 25.676 94.1611 27.3313 91.6641 27.7263C90.2157 27.9567 88.6826 27.9426 87.2248 27.7404C85.0429 27.4348 83.9472 26.2215 83.5992 23.9972C83.4393 22.9767 83.4158 21.9233 83.4017 20.8841C83.3782 18.6127 83.397 16.3414 83.397 13.8679C82.4941 14.3193 81.8075 14.719 81.0786 15.0106C80.218 15.3586 79.8841 15.8759 79.9265 16.8399C80.0111 18.8008 79.9735 20.7712 79.9406 22.7369C79.8841 26.1274 78.1395 27.8345 74.7631 27.8533C73.3946 27.858 72.0215 27.8674 70.653 27.8439C68.1654 27.8063 66.5665 26.4425 66.1809 24.0066C66.0586 23.2542 65.9975 22.4924 65.9928 21.7305C65.974 18.4011 65.9881 15.067 65.9834 11.7376C65.9834 11.3614 65.941 10.9758 65.9128 10.4303C65.0617 10.8535 64.3751 11.2579 63.6368 11.5401C62.7527 11.8787 62.4894 12.4242 62.5082 13.3694C62.5693 16.5389 62.5599 19.7131 62.5223 22.8827C62.4847 26.1086 60.6742 27.8439 57.4529 27.8533C56.5265 27.8533 55.6048 27.858 54.6784 27.8486C51.9791 27.8204 50.2063 26.4284 50.0558 23.7903C49.8348 19.8683 49.8912 15.9323 49.8348 12.0056C49.8301 11.5448 49.8348 11.0792 49.8348 10.4068C48.9084 10.8676 48.2218 11.272 47.4882 11.5542C46.6041 11.8928 46.3408 12.443 46.3596 13.3882C46.4207 16.6 46.4113 19.8072 46.369 23.019C46.3314 26.1133 44.5303 27.8392 41.436 27.8533C40.5049 27.858 39.5832 27.858 38.6568 27.8486C35.7083 27.8298 33.9025 26.2215 33.8696 23.2965C33.7755 16.1533 33.8037 9.00541 33.7802 1.86222V0C33.0983 0.343287 32.6986 0.616036 32.2613 0.75241C30.5825 1.27439 30.1498 2.35128 30.1828 4.09593C30.3003 10.3974 30.2392 16.6988 30.1969 23.0002C30.1781 25.7277 28.7767 27.4018 26.2185 27.7827C25.0758 27.952 23.8907 27.8533 22.7245 27.8486C19.7101 27.8392 17.9514 26.2215 17.8903 23.2071C17.8009 18.5093 17.8432 13.8114 17.8197 9.11827C17.8197 8.65272 17.7727 8.18716 17.7257 7.45356C16.0939 8.61039 13.578 8.53045 14.3163 11.5871C13.9119 11.3379 13.752 11.2391 13.5874 11.1451C9.42094 8.77028 4.45503 10.0212 2.06143 14.1594C0.199215 17.3854 0.161594 20.823 1.41718 24.2605C2.71979 27.8392 5.74824 29.7437 9.54791 29.6591C11.7863 29.6073 13.658 28.7609 15.365 27.2937C16.4419 29.0665 17.8197 30.482 19.7854 30.7124C22.2401 30.9993 24.7466 30.9993 27.2295 30.9005C29.1388 30.8253 30.6624 29.7061 31.9697 28.2953C33.5686 30.1528 35.5108 30.9946 37.7915 31.0604C38.8825 31.0933 39.9688 31.0228 41.0551 31.0745C43.8014 31.2109 46.2373 30.5431 48.1701 28.3565C49.9523 30.3974 52.1908 31.1686 54.7819 31.0698C55.5437 31.0416 56.3102 31.0369 57.0767 31.0745C59.8512 31.2156 62.3436 30.5996 64.2952 28.3376C65.8517 30.1434 67.7797 31.004 70.0652 31.0604C71.2691 31.0886 72.4823 31.0275 73.6862 31.0745C76.7522 31.2015 79.6678 30.9429 81.6805 28.1166C83.7214 30.8582 86.5006 31.0933 89.4586 31.1028C92.4635 31.1075 95.2709 30.8347 97.2225 28.126C98.9248 30.3833 101.163 31.1404 103.764 31.0698C104.732 31.0463 105.701 31.0745 106.665 31.0651C111.062 31.0134 114.265 28.0179 114.401 23.6351C114.523 19.4639 114.457 15.288 114.467 11.1122L114.448 11.1216ZM14.2928 23.4141C14.2787 23.7762 14.1611 24.2041 13.9401 24.4815C11.2173 27.8862 6.11504 27.1714 4.61492 23.1131C3.60857 20.3903 3.74965 17.6534 5.48019 15.2034C7.68099 12.0903 12.045 12.965 14.0295 15.4291C14.2223 15.6689 14.227 16.1016 14.2317 16.4449C14.2552 17.6064 14.2411 18.7679 14.2411 19.9295H14.3069C14.3069 21.091 14.3351 22.2525 14.2928 23.4094V23.4141Z" fill="#1D1546"/>
</g>
<defs>
<linearGradient id="paint0_linear_2249_2201" x1="131.133" y1="33.6468" x2="160.448" y2="7.71686" gradientUnits="userSpaceOnUse">
<stop stop-color="#FF89B7"/>
<stop offset="0.26" stop-color="#CF87D1"/>
<stop offset="0.55" stop-color="#9A8FDD"/>
<stop offset="1" stop-color="#40F5A4"/>
</linearGradient>
<linearGradient id="paint1_linear_2249_2201" x1="131.02" y1="33.5198" x2="160.34" y2="7.58984" gradientUnits="userSpaceOnUse">
<stop stop-color="#FF89B7"/>
<stop offset="0.26" stop-color="#CF87D1"/>
<stop offset="0.55" stop-color="#9A8FDD"/>
<stop offset="1" stop-color="#40F5A4"/>
</linearGradient>
<clipPath id="clip0_2249_2201">
<rect width="163.837" height="40" fill="white" transform="translate(0.537811)"/>
</clipPath>
</defs>
</svg>
