<?xml version="1.0" encoding="utf-8"?>
<!-- Generator: Adobe Illustrator 24.0.1, SVG Export Plug-In . SVG Version: 6.00 Build 0)  -->
<svg version="1.1" id="Layer_1" xmlns="http://www.w3.org/2000/svg" xmlns:xlink="http://www.w3.org/1999/xlink" x="0px" y="0px"
	 width="787.2px" height="167.1px" viewBox="0 0 787.2 167.1" style="enable-background:new 0 0 787.2 167.1;" xml:space="preserve"
	>
<style type="text/css">
	.st0{fill:#7A8389;}
	.st1{fill:#909BA5;}
	.st2{fill:#9EAAB7;}
	.st3{fill:#F2F2F2;}
	.st4{fill:#E5E5E5;}
	.st5{fill:#B3B3B3;}
	.st6{fill:#A6120D;}
	.st7{fill:#DD1B16;}
	.st8{fill:#61DAFB;}
	.st9{fill:#41B883;}
	.st10{fill:#34495E;}
	.st11{fill:#74B042;}
	.st12{fill:#929CA5;}
	.st13{fill:#EBEBEB;}
	.st14{fill:#FFFFFF;}
	.st15{fill:#E44D26;}
	.st16{fill:#F16529;}
	.st17{fill:#264DE4;}
	.st18{fill:#2965F1;}
	.st19{fill:#D4B830;}
	.st20{opacity:0.986;fill:#EBEBEB;fill-opacity:0;enable-background:new    ;}
	.st21{opacity:0.986;fill:#EBEBEB;fill-opacity:0.9216;enable-background:new    ;}
	.st22{fill:#FDD83C;}
	.st23{opacity:0.986;fill:#9EAAB7;fill-opacity:0;enable-background:new    ;}
	.st24{fill:#08007F;}
	.st25{fill:#FEC00F;}
	.st26{fill:#FEBC00;}
</style>
<g>
	<g id="angular">
		<polygon id="polygon50_1_" class="st0" points="4.9,51.6 31.1,66 57.4,51.4 62.3,10.7 31.1,0 0,10.9 		"/>
		<polygon id="polygon52_1_" class="st1" points="31,62.6 54.6,49.5 59.2,13.1 31,3.5 		"/>
		<polygon id="polygon54_1_" class="st2" points="31,62.6 31,3.5 3.5,13.3 7.7,49.6 		"/>
		<path id="path56_1_" class="st3" d="M38.7,34.9L31,38.6h-8.2l-3.9,9.6l-7.2,0.1L31,5.6L38.7,34.9z M38,33.1l-7-13.8l-5.7,13.6H31
			L38,33.1z"/>
		<polygon id="polygon58_1_" class="st4" points="37.5,32.9 31,32.9 31,38.5 40,38.6 44.2,48.3 51.1,48.4 31,5.6 31,19.3 		"/>
	</g>
	<g id="angular-hover">
		<polygon id="polygon50" class="st5" points="4.9,152.7 31.1,167.1 57.4,152.5 62.3,111.8 31.1,101.1 0,112 		"/>
		<polygon id="polygon52" class="st6" points="31,163.7 54.6,150.6 59.2,114.2 31,104.6 		"/>
		<polygon id="polygon54" class="st7" points="31,163.7 31,104.6 3.5,114.4 7.7,150.8 		"/>
		<path id="path56" class="st3" d="M38.7,136l-7.8,3.6h-8.2l-3.9,9.6l-7.2,0.1L31,106.7L38.7,136z M38,134.2l-7-13.8L25.3,134H31
			L38,134.2z"/>
		<polygon id="polygon58" class="st5" points="37.5,134 31,134 31,139.7 40,139.7 44.2,149.4 51.1,149.6 31,106.7 31,120.4 		"/>
	</g>
	<g id="react">
		<path class="st2" d="M176.9,33c0-4.9-6.1-9.6-15.6-12.4c2.2-9.6,1.2-17.3-3.1-19.7c-1-0.6-2.1-0.8-3.4-0.8v3.4
			c0.7,0,1.3,0.1,1.7,0.4c2.1,1.2,2.9,5.7,2.3,11.4c-0.2,1.4-0.4,2.9-0.8,4.4c-3-0.7-6.2-1.3-9.6-1.6c-2-2.8-4.2-5.3-6.3-7.6
			c4.9-4.6,9.5-7.1,12.7-7.1V0l0,0c-4.2,0-9.6,3-15.1,8.1c-5.5-5.1-10.9-8-15.1-8v3.4c3.1,0,7.8,2.5,12.7,7
			c-2.1,2.2-4.2,4.7-6.2,7.5c-3.4,0.4-6.6,0.9-9.6,1.7c-0.3-1.5-0.6-3-0.8-4.4C120,9.5,120.9,5,122.9,3.8c0.5-0.3,1-0.4,1.7-0.4V0.1
			l0,0c-1.3,0-2.4,0.3-3.4,0.8c-4.2,2.4-5.2,10.1-3,19.7c-9.4,2.9-15.5,7.5-15.5,12.4s6.1,9.6,15.6,12.4c-2.2,9.6-1.2,17.3,3.1,19.7
			c1,0.6,2.1,0.8,3.4,0.8c4.2,0,9.6-3,15.1-8.1c5.5,5.1,10.9,8,15.1,8c1.3,0,2.4-0.3,3.4-0.8c4.2-2.4,5.2-10.1,3-19.7
			C170.7,42.6,176.9,37.9,176.9,33z M157.2,22.9c-0.6,1.9-1.3,4-2,6c-0.6-1.2-1.3-2.4-2-3.6s-1.4-2.4-2.2-3.5
			C153.1,22.1,155.2,22.4,157.2,22.9z M150.3,39c-1.2,2-2.4,4-3.6,5.8c-2.3,0.2-4.5,0.3-6.8,0.3s-4.6-0.1-6.8-0.3
			c-1.3-1.8-2.5-3.7-3.7-5.7c-1.1-2-2.2-4-3.1-6c0.9-2,2-4,3.1-6c1.2-2,2.4-4,3.6-5.8c2.3-0.2,4.5-0.3,6.8-0.3s4.6,0.1,6.8,0.3
			c1.3,1.8,2.5,3.7,3.7,5.7c1.1,2,2.2,4,3.1,6C152.4,35,151.4,37,150.3,39z M155.2,37.1c0.8,2,1.5,4,2.1,6c-2,0.5-4.1,0.9-6.2,1.2
			c0.7-1.2,1.5-2.4,2.2-3.6C153.9,39.5,154.5,38.3,155.2,37.1z M139.8,53.2c-1.4-1.5-2.8-3.1-4.2-4.8c1.4,0.1,2.8,0.1,4.2,0.1
			s2.8,0,4.2-0.1C142.6,50.1,141.2,51.7,139.8,53.2z M128.6,44.3c-2.1-0.3-4.2-0.7-6.2-1.2c0.6-1.9,1.3-4,2-6c0.6,1.2,1.3,2.4,2,3.6
			C127.1,42,127.9,43.1,128.6,44.3z M139.8,12.8c1.4,1.4,2.8,3.1,4.2,4.8c-1.4-0.1-2.8-0.1-4.2-0.1s-2.8,0-4.2,0.1
			C137,15.9,138.4,14.3,139.8,12.8z M128.6,21.7c-0.7,1.2-1.5,2.4-2.2,3.6s-1.3,2.4-2,3.6c-0.8-2-1.5-4-2.1-6
			C124.3,22.5,126.4,22.1,128.6,21.7z M114.9,40.7c-5.3-2.3-8.8-5.3-8.8-7.6s3.5-5.4,8.8-7.6c1.3-0.6,2.7-1.1,4.2-1.5
			c0.9,3,2,6,3.4,9.2c-1.4,3.1-2.5,6.2-3.4,9.2C117.6,41.7,116.2,41.2,114.9,40.7z M123,62.2c-2.1-1.2-2.9-5.7-2.3-11.4
			c0.2-1.4,0.4-2.9,0.8-4.4c3,0.7,6.2,1.3,9.6,1.6c2,2.8,4.2,5.3,6.3,7.6c-4.9,4.6-9.5,7.1-12.7,7.1C124.1,62.6,123.5,62.5,123,62.2
			z M158.9,50.7c0.7,5.8-0.2,10.3-2.2,11.5c-0.5,0.3-1,0.4-1.7,0.4c-3.1,0-7.8-2.5-12.7-7c2.1-2.2,4.2-4.7,6.2-7.5
			c3.4-0.4,6.6-0.9,9.6-1.7C158.4,47.9,158.7,49.3,158.9,50.7z M164.7,40.7c-1.3,0.6-2.7,1.1-4.2,1.5c-0.9-3-2-6-3.4-9.2
			c1.4-3.1,2.5-6.2,3.4-9.2c1.5,0.5,2.9,1,4.2,1.5c5.3,2.3,8.8,5.3,8.8,7.6C173.5,35.4,170,38.4,164.7,40.7z"/>
		<path class="st2" d="M124.7,0.1L124.7,0.1L124.7,0.1z"/>
		<circle class="st2" cx="139.8" cy="33" r="6.9"/>
		<path class="st2" d="M154.8,0L154.8,0L154.8,0z"/>
	</g>
	<g id="vue" transform="matrix(1.3333 0 0 -1.3333 -76.311 313.34)">
		<g transform="translate(178.06 235.01)">
			<path class="st2" d="M76.5-0.4L70-11.6L63.5-0.4H41.9L70-49.1L98.2-0.4H76.5z"/>
		</g>
		<g transform="translate(178.06 235.01)">
			<path class="st0" d="M76.5-0.4L70-11.6L63.5-0.4H53.1L70-29.6L86.9-0.4H76.5z"/>
		</g>
	</g>
	<g id="react-hover">
		<path class="st8" d="M176.9,134.1c0-4.9-6.1-9.6-15.6-12.4c2.2-9.6,1.2-17.3-3.1-19.7c-1-0.6-2.1-0.8-3.4-0.8v3.4
			c0.7,0,1.3,0.1,1.7,0.4c2.1,1.2,2.9,5.7,2.3,11.4c-0.2,1.4-0.4,2.9-0.8,4.4c-3-0.7-6.2-1.3-9.6-1.6c-2-2.8-4.2-5.3-6.3-7.6
			c4.9-4.6,9.5-7.1,12.7-7.1v-3.4l0,0c-4.2,0-9.6,3-15.1,8.1c-5.5-5.1-10.9-8-15.1-8v3.4c3.1,0,7.8,2.5,12.7,7
			c-2.1,2.2-4.2,4.7-6.2,7.5c-3.4,0.4-6.6,0.9-9.6,1.7c-0.3-1.5-0.6-3-0.8-4.4c-0.7-5.8,0.2-10.3,2.2-11.5c0.5-0.3,1-0.4,1.7-0.4
			v-3.4l0,0c-1.3,0-2.4,0.3-3.4,0.8c-4.2,2.4-5.2,10.1-3,19.7c-9.4,2.9-15.5,7.5-15.5,12.4s6.1,9.6,15.6,12.4
			c-2.2,9.6-1.2,17.3,3.1,19.7c1,0.6,2.1,0.8,3.4,0.8c4.2,0,9.6-3,15.1-8.1c5.5,5.1,10.9,8,15.1,8c1.3,0,2.4-0.3,3.4-0.8
			c4.2-2.4,5.2-10.1,3-19.7C170.7,143.7,176.9,139,176.9,134.1z M157.2,124c-0.6,1.9-1.3,4-2,6c-0.6-1.2-1.3-2.4-2-3.6
			s-1.4-2.4-2.2-3.5C153.1,123.2,155.2,123.6,157.2,124z M150.3,140.1c-1.2,2-2.4,4-3.6,5.8c-2.3,0.2-4.5,0.3-6.8,0.3
			s-4.6-0.1-6.8-0.3c-1.3-1.8-2.5-3.7-3.7-5.7c-1.1-2-2.2-4-3.1-6c0.9-2,2-4,3.1-6c1.2-2,2.4-4,3.6-5.8c2.3-0.2,4.5-0.3,6.8-0.3
			s4.6,0.1,6.8,0.3c1.3,1.8,2.5,3.7,3.7,5.7c1.1,2,2.2,4,3.1,6C152.4,136.1,151.4,138.1,150.3,140.1z M155.2,138.2
			c0.8,2,1.5,4,2.1,6c-2,0.5-4.1,0.9-6.2,1.2c0.7-1.2,1.5-2.4,2.2-3.6C153.9,140.6,154.5,139.4,155.2,138.2z M139.8,154.3
			c-1.4-1.4-2.8-3.1-4.2-4.8c1.4,0.1,2.8,0.1,4.2,0.1s2.8,0,4.2-0.1C142.6,151.2,141.2,152.8,139.8,154.3z M128.6,145.4
			c-2.1-0.3-4.2-0.7-6.2-1.2c0.6-1.9,1.3-4,2-6c0.6,1.2,1.3,2.4,2,3.6C127.1,143.1,127.9,144.2,128.6,145.4z M139.8,113.9
			c1.4,1.4,2.8,3.1,4.2,4.8c-1.4-0.1-2.8-0.1-4.2-0.1s-2.8,0-4.2,0.1C137,117,138.4,115.4,139.8,113.9z M128.6,122.8
			c-0.7,1.2-1.5,2.4-2.2,3.6s-1.3,2.4-2,3.6c-0.8-2-1.5-4-2.1-6C124.3,123.6,126.4,123.2,128.6,122.8z M114.9,141.8
			c-5.3-2.3-8.8-5.3-8.8-7.6s3.5-5.4,8.8-7.6c1.3-0.6,2.7-1.1,4.2-1.5c0.9,3,2,6,3.4,9.2c-1.4,3.1-2.5,6.2-3.4,9.2
			C117.6,142.8,116.2,142.3,114.9,141.8z M123,163.3c-2.1-1.2-2.9-5.7-2.3-11.4c0.2-1.4,0.4-2.9,0.8-4.4c3,0.7,6.2,1.3,9.6,1.6
			c2,2.8,4.2,5.3,6.3,7.6c-4.9,4.6-9.5,7.1-12.7,7.1C124.1,163.7,123.5,163.6,123,163.3z M158.9,151.8c0.7,5.8-0.2,10.3-2.2,11.5
			c-0.5,0.3-1,0.4-1.7,0.4c-3.1,0-7.8-2.5-12.7-7c2.1-2.2,4.2-4.7,6.2-7.5c3.4-0.4,6.6-0.9,9.6-1.7
			C158.4,149,158.7,150.4,158.9,151.8z M164.7,141.8c-1.3,0.6-2.7,1.1-4.2,1.5c-0.9-3-2-6-3.4-9.2c1.4-3.1,2.5-6.2,3.4-9.2
			c1.5,0.5,2.9,1,4.2,1.5c5.3,2.3,8.8,5.3,8.8,7.6C173.5,136.5,170,139.5,164.7,141.8z"/>
		<path class="st8" d="M124.7,101.2L124.7,101.2L124.7,101.2z"/>
		<circle class="st8" cx="139.8" cy="134.1" r="6.9"/>
		<path class="st8" d="M154.8,101.1L154.8,101.1L154.8,101.1z"/>
	</g>
	<g id="vue-hover" transform="matrix(1.3333 0 0 -1.3333 -76.311 313.34)">
		<g transform="translate(178.06 235.01)">
			<path class="st9" d="M76.5-76.2L70-87.5l-6.5,11.3H41.9L70-125l28.1,48.8H76.5z"/>
		</g>
		<g transform="translate(178.06 235.01)">
			<path class="st10" d="M76.5-76.2L70-87.5l-6.5,11.3H53.1L70-105.5l16.9,29.3H76.5z"/>
		</g>
	</g>
	<g id="jquery-hover" transform="translate(-10.101525,233.99825)">
		<path id="path4228_1_" class="st11" d="M374-67.8c-8.6-1.1-18.4-7-23.9-14.3c-5.3-7-7.7-13.8-7.7-21.7c0-7,2-12.2,7.2-18.3
			l1.4-1.6l-1.1,3.2c-0.9,2.5-1.2,4.5-1.2,8.7c0,6.9,1.7,12.5,5.6,18.3c7,10.5,18.1,16.9,30.3,17.5c9.3,0.4,16.2-1.8,22-7l3.1-2.8
			l-1.3,2.3C401.6-71.5,389.2-65.8,374-67.8L374-67.8z M382.9-89.4c-3.3-0.9-6.7-2.5-10.1-5.1c-3.9-2.9-6.1-5.6-8.5-10.6
			c-1.6-3.3-1.7-3.9-1.7-9.5c0-5.7,0.1-6.1,1.8-9.2c1-1.8,2.4-4,3.1-4.9l1.3-1.6l-1.1,3c-0.9,2.4-1.1,3.8-0.9,7.7
			c0.2,4.1,0.5,5.2,2.3,8.9c6.4,13,22.2,19.4,34.1,13.9c1.9-0.9,4.4-2.6,5.6-3.8c2.5-2.5,2.4-1.7-0.3,2.5c-2.1,3.3-6,6.3-10,7.9
			C395.3-89.1,386.2-88.6,382.9-89.4L382.9-89.4z M389.4-109.2c-3.7-1.7-6.7-4.5-8.6-8.1s-2-9.2-0.2-12.5c1.5-2.9,2.4-3.5,1.7-1.1
			c-1.3,4.5,0.5,9.6,4.8,14c3.6,3.6,7.6,5.3,12.5,5.3c3.8,0,5.7-0.6,7.8-2.6c1.7-1.6,1.5-0.9-0.6,2
			C403.6-107.9,395.3-106.4,389.4-109.2L389.4-109.2z"/>
	</g>
	<g id="jquery" transform="translate(-10.101525,233.99825)">
		<path id="path4228" class="st2" d="M374-168.9c-8.6-1.1-18.4-7-23.9-14.3c-5.3-7-7.7-13.8-7.7-21.7c0-7,2-12.2,7.2-18.3l1.4-1.6
			l-1.1,3.2c-0.9,2.5-1.2,4.5-1.2,8.7c0,6.9,1.7,12.5,5.6,18.3c7,10.5,18.1,16.9,30.3,17.5c9.3,0.4,16.2-1.8,22-7l3.1-2.8l-1.3,2.3
			C401.6-172.6,389.2-166.9,374-168.9L374-168.9z M382.9-190.5c-3.3-0.9-6.7-2.5-10.1-5.1c-3.9-2.9-6.1-5.6-8.5-10.6
			c-1.6-3.3-1.7-3.9-1.7-9.5c0-5.7,0.1-6.1,1.8-9.2c1-1.8,2.4-4,3.1-4.9l1.3-1.6l-1.1,3c-0.9,2.4-1.1,3.8-0.9,7.7
			c0.2,4.1,0.5,5.2,2.3,8.9c6.4,13,22.2,19.4,34.1,13.9c1.9-0.9,4.4-2.6,5.6-3.8c2.5-2.5,2.4-1.6-0.3,2.5c-2.1,3.3-6,6.3-10,7.9
			C395.3-190.2,386.2-189.7,382.9-190.5L382.9-190.5z M389.4-210.3c-3.7-1.7-6.7-4.5-8.6-8.1s-2-9.2-0.2-12.5
			c1.5-2.9,2.4-3.5,1.7-1.1c-1.3,4.5,0.5,9.6,4.8,14c3.6,3.6,7.6,5.4,12.5,5.4c3.8,0,5.7-0.6,7.8-2.6c1.7-1.6,1.5-0.9-0.6,2
			C403.6-209,395.3-207.5,389.4-210.3L389.4-210.3z"/>
	</g>
	<g id="html" transform="translate(524,270.18109)">
		<polygon id="polygon3028" class="st2" points="-37.3,-256.9 -41.5,-209.9 -60.3,-204.7 -79.1,-209.9 -83.3,-256.9 		"/>
		<polygon id="polygon3030" class="st12" points="-60.3,-208.7 -45.1,-212.9 -41.5,-253.1 -60.3,-253.1 		"/>
		<polygon id="polygon3032" class="st13" points="-68.5,-241.5 -60.3,-241.5 -60.3,-247.3 -60.3,-247.3 -74.8,-247.3 -74.6,-245.8 
			-73.2,-229.9 -60.3,-229.9 -60.3,-235.6 -67.9,-235.6 		"/>
		<polygon id="polygon3034" class="st13" points="-67.2,-227 -70.3,-227 -72.9,-227 -72.1,-217.9 -60.3,-214.7 -60.3,-214.7 
			-60.3,-220.7 -60.3,-220.7 -66.8,-222.4 		"/>
		<path id="path3036" class="st2" d="M-79-269.7h2.9v2.9h2.7v-2.9h2.9v8.8h-2.9v-2.9h-2.7v2.9H-79V-269.7L-79-269.7z"/>
		<path id="path3038" class="st2" d="M-66.7-266.8h-2.6v-2.9h8.1v2.9h-2.6v5.9h-2.9V-266.8L-66.7-266.8z"/>
		<path id="path3040" class="st2" d="M-59.9-269.7h3.1l1.9,3.1l1.9-3.1h3.1v8.8h-2.9v-4.3l-2,3.1H-55l-2-3.1v4.3h-2.9
			C-59.9-260.9-59.9-269.7-59.9-269.7z"/>
		<path id="path3042" class="st2" d="M-48.5-269.7h2.9v5.9h4.1v2.9h-7.1L-48.5-269.7L-48.5-269.7z"/>
		<polygon id="polygon3044" class="st14" points="-60.3,-229.9 -53.2,-229.9 -53.9,-222.4 -60.3,-220.7 -60.3,-214.7 -48.5,-217.9 
			-48.4,-218.9 -47.1,-234.1 -46.9,-235.6 -48.5,-235.6 -60.3,-235.6 		"/>
		<polygon id="polygon3046" class="st14" points="-60.3,-241.5 -60.3,-241.5 -46.4,-241.5 -46.4,-241.5 -46.4,-241.5 -46.3,-242.8 
			-46,-245.8 -45.9,-247.3 -60.3,-247.3 -60.3,-243.7 		"/>
	</g>
	<g id="html-hover" transform="translate(524,270.18109)">
		<polygon id="polygon3028_1_" class="st15" points="-37.3,-155.8 -41.5,-108.8 -60.3,-103.6 -79.1,-108.8 -83.3,-155.8 		"/>
		<polygon id="polygon3030_1_" class="st16" points="-60.3,-107.6 -45.1,-111.8 -41.5,-152 -60.3,-152 		"/>
		<polygon id="polygon3032_1_" class="st13" points="-68.5,-140.4 -60.3,-140.4 -60.3,-146.2 -60.3,-146.2 -74.8,-146.2 
			-74.6,-144.6 -73.2,-128.8 -60.3,-128.8 -60.3,-134.5 -67.9,-134.5 		"/>
		<polygon id="polygon3034_1_" class="st13" points="-67.2,-125.9 -70.3,-125.9 -72.9,-125.9 -72.1,-116.8 -60.3,-113.5 
			-60.3,-113.6 -60.3,-119.6 -60.3,-119.5 -66.8,-121.3 		"/>
		<path id="path3036_1_" d="M-79-168.6h2.9v2.9h2.7v-2.9h2.9v8.8h-2.9v-2.9h-2.7v2.9H-79V-168.6L-79-168.6z"/>
		<path id="path3038_1_" d="M-66.7-165.7h-2.6v-2.9h8.1v2.9h-2.6v5.9h-2.9V-165.7L-66.7-165.7z"/>
		<path id="path3040_1_" d="M-59.9-168.6h3.1l1.9,3.1l1.9-3.1h3.1v8.8h-2.9v-4.3l-2,3.1H-55l-2-3.1v4.3h-2.9V-168.6z"/>
		<path id="path3042_1_" d="M-48.5-168.6h2.9v5.9h4.1v2.9h-7.1L-48.5-168.6L-48.5-168.6z"/>
		<polygon id="polygon3044_1_" class="st14" points="-60.3,-128.8 -53.2,-128.8 -53.9,-121.3 -60.3,-119.5 -60.3,-113.6 
			-48.5,-116.8 -48.4,-117.8 -47.1,-133 -46.9,-134.5 -48.5,-134.5 -60.3,-134.5 		"/>
		<polygon id="polygon3046_1_" class="st14" points="-60.3,-140.4 -60.3,-140.4 -46.4,-140.4 -46.4,-140.4 -46.4,-140.4 
			-46.3,-141.7 -46,-144.6 -45.9,-146.2 -60.3,-146.2 -60.3,-142.6 		"/>
	</g>
	<g id="css" transform="translate(95.428571,270.18109)">
		<polygon id="polygon2989" class="st2" points="455.2,-204.7 436.4,-209.9 432.2,-256.9 478.2,-256.9 474,-209.9 		"/>
		<polygon id="polygon2991" class="st12" points="470.4,-212.9 474,-253.1 455.2,-253.1 455.2,-208.7 		"/>
		<polygon id="polygon2993" class="st13" points="441.8,-235.6 442.3,-229.9 455.2,-229.9 455.2,-235.6 		"/>
		<polygon id="polygon2995" class="st13" points="440.7,-247.3 441.3,-241.5 455.2,-241.5 455.2,-247.3 455.2,-247.3 		"/>
		<polygon id="polygon2997" class="st13" points="455.2,-220.7 455.2,-220.7 448.8,-222.4 448.3,-227 445.2,-227 442.6,-227 
			443.4,-217.9 455.2,-214.7 455.2,-214.7 		"/>
		<path id="path2999" class="st2" d="M443-269.7h7v2.9h-4.1v2.9h4.1v2.9h-7V-269.7z"/>
		<path id="path3001" class="st2" d="M451.4-269.7h7v2.5h-4.1v0.5h4.1v5.8h-7v-2.7h4.1v-0.5h-4.1V-269.7z"/>
		<path id="path3003" class="st2" d="M459.8-269.7h7v2.5h-4.1v0.5h4.1v5.8h-7v-2.7h4.1v-0.5h-4.1V-269.7z"/>
		<polygon id="polygon3005" class="st14" points="468.6,-235.6 469.6,-247.3 455.2,-247.3 455.2,-241.5 463.3,-241.5 462.8,-235.6 
			455.2,-235.6 455.2,-229.9 462.3,-229.9 461.6,-222.4 455.2,-220.7 455.2,-214.7 467,-217.9 467.1,-218.9 468.4,-234.1 		"/>
	</g>
	<g id="css-hover" transform="translate(95.428571,270.18109)">
		<polygon id="polygon2989_1_" class="st17" points="455.2,-103.6 436.4,-108.8 432.2,-155.8 478.2,-155.8 474,-108.8 		"/>
		<polygon id="polygon2991_1_" class="st18" points="470.4,-111.8 474,-152 455.2,-152 455.2,-107.6 		"/>
		<polygon id="polygon2993_1_" class="st13" points="441.8,-134.5 442.3,-128.8 455.2,-128.8 455.2,-134.5 		"/>
		<polygon id="polygon2995_1_" class="st13" points="440.7,-146.2 441.3,-140.4 455.2,-140.4 455.2,-146.2 455.2,-146.2 		"/>
		<polygon id="polygon2997_1_" class="st13" points="455.2,-119.6 455.2,-119.5 448.8,-121.3 448.3,-125.9 445.2,-125.9 
			442.6,-125.9 443.4,-116.8 455.2,-113.5 455.2,-113.6 		"/>
		<path id="path2999_1_" d="M443-168.6h7v2.9h-4.1v2.9h4.1v2.9h-7V-168.6z"/>
		<path id="path3001_1_" d="M451.4-168.6h7v2.5h-4.1v0.5h4.1v5.8h-7v-2.7h4.1v-0.5h-4.1V-168.6z"/>
		<path id="path3003_1_" d="M459.8-168.6h7v2.5h-4.1v0.5h4.1v5.8h-7v-2.7h4.1v-0.5h-4.1V-168.6z"/>
		<polygon id="polygon3005_1_" class="st14" points="468.6,-134.5 469.6,-146.2 455.2,-146.2 455.2,-140.4 463.3,-140.4 
			462.8,-134.5 455.2,-134.5 455.2,-128.8 462.3,-128.8 461.6,-121.3 455.2,-119.5 455.2,-113.5 467,-116.8 467.1,-117.8 
			468.4,-133 		"/>
	</g>
</g>
<g id="g5193" transform="translate(4.988 -113.385)">
	<path id="path5113" class="st19" d="M613.3,274.8l-4.6-51h49.9l-4.6,51l-20.4,5.8L613.3,274.8z M650.2,272l3.9-43.7h-20.4l0.2,48.2
		L650.2,272z M631.8,234.7h-5l-0.1,26.2l-9.6-2.6v6l14.6,4L631.8,234.7L631.8,234.7z"/>
	<path id="path5159" class="st20" d="M630.1,267.7c-0.6-0.2-3.8-1.1-7-1.9l-5.9-1.6v-2.9c0-2.9,0-2.9,0.3-2.8
		c0.2,0.1,2.3,0.6,4.8,1.3l4.5,1.2v-13v-13h4.9v16.6c0,13.2,0,16.6-0.2,16.6C631.4,268,630.8,267.8,630.1,267.7L630.1,267.7z"/>
	<path id="path5157" class="st21" d="M617.1,264.2v-6c0,0,6.2,1.7,9.6,2.6l0.1-26.1h5v33.4L617.1,264.2L617.1,264.2z"/>
	<path id="path5117" class="st22" d="M633.7,228.3h20.4l-3.9,43.7l-16.6,4.5L633.7,228.3L633.7,228.3z M649.2,264.6l1.3-16.3
		l-9.9,1.1v-8.7h10.6l0.4-6l-16,0.1l0.2,21.7l9.7-1.7l-0.1,4.8l-9.7,2.6l0.1,5.9L649.2,264.6L649.2,264.6z"/>
</g>
<g id="g5193_1_" transform="translate(4.988 -113.385)">
	<path id="path5113_1_" class="st2" d="M613.3,164.4l-4.6-51h49.9l-4.6,51l-20.4,5.8L613.3,164.4z M650.2,161.6l3.9-43.7h-20.4
		l0.2,48.2L650.2,161.6z M631.8,124.3h-5l-0.1,26.2l-9.6-2.6v6l14.6,4L631.8,124.3L631.8,124.3z"/>
	<path id="path5159_1_" class="st23" d="M630.1,157.3c-0.6-0.2-3.8-1.1-7-1.9l-5.9-1.6v-2.9c0-2.9,0-2.9,0.3-2.8
		c0.2,0.1,2.3,0.6,4.8,1.3l4.5,1.2v-13v-13h4.9v16.6c0,13.2,0,16.6-0.2,16.6C631.4,157.6,630.8,157.5,630.1,157.3L630.1,157.3z"/>
	<path id="path5157_1_" class="st13" d="M617.1,153.8v-6c0,0,6.2,1.7,9.6,2.6l0.1-26.1h5v33.4L617.1,153.8L617.1,153.8z"/>
	<path id="path5117_1_" class="st12" d="M633.7,117.9h20.4l-3.9,43.7l-16.6,4.5L633.7,117.9L633.7,117.9z M649.2,154.3l1.3-16.3
		l-9.9,1.1v-8.7h10.6l0.4-6l-16,0.1l0.2,21.7l9.7-1.7l-0.1,4.8l-9.7,2.6l0.1,5.9L649.2,154.3L649.2,154.3z"/>
</g>
<g>
	<path class="st24" d="M715.9,109.6v38.8c0,1.8,0.4,3.3,1.2,4.3c0.8,1.1,2.1,1.6,3.9,1.6c1.8,0,3.1-0.5,4-1.6
		c0.9-1.1,1.3-2.5,1.3-4.3v-22.2h12.3v22.2c0,3.7-0.8,6.9-2.3,9.6c-1.6,2.7-3.7,4.6-6.4,6c-2.7,1.3-5.7,2-9.1,2
		c-3.3,0-6.3-0.7-8.9-2c-2.6-1.3-4.6-3.3-6-6c-1.4-2.6-2.2-5.8-2.2-9.6v-38.8H715.9z"/>
</g>
<g>
	<path class="st24" d="M756.3,109.6v38.8c0,1.8,0.4,3.3,1.2,4.3c0.8,1.1,2.1,1.6,3.9,1.6c1.8,0,3.1-0.5,4-1.6
		c0.9-1.1,1.3-2.5,1.3-4.3v-7.4h12.3v7.4c0,3.7-0.8,6.9-2.3,9.6c-1.6,2.7-3.7,4.6-6.4,6c-2.7,1.3-5.7,2-9.1,2c-3.3,0-6.3-0.7-8.9-2
		c-2.6-1.3-4.6-3.3-6-6c-1.4-2.6-2.2-5.8-2.2-9.6v-38.8H756.3z"/>
</g>
<g>
	<g>
		<path class="st25" d="M777.1,137.3l-5-7.1l-4.2,7.1h-9.8l9-14.1l-9.4-13.2h10.2l4.8,6.8l4-6.8h9.8l-8.8,13.8l9.6,13.5H777.1z"/>
	</g>
</g>
<rect x="726.1" y="109.5" class="st26" width="12.4" height="12.4"/>
<g>
	<path class="st2" d="M715.9,0.5v38.8c0,1.8,0.4,3.3,1.2,4.3c0.8,1.1,2.1,1.6,3.9,1.6c1.8,0,3.1-0.5,4-1.6c0.9-1.1,1.3-2.5,1.3-4.3
		V17.2h12.3v22.2c0,3.7-0.8,6.9-2.3,9.6c-1.6,2.7-3.7,4.6-6.4,6c-2.7,1.3-5.7,2-9.1,2c-3.3,0-6.3-0.7-8.9-2c-2.6-1.3-4.6-3.3-6-6
		c-1.4-2.6-2.2-5.8-2.2-9.6V0.5H715.9z"/>
</g>
<g>
	<path class="st2" d="M756.3,0.5v38.8c0,1.8,0.4,3.3,1.2,4.3c0.8,1.1,2.1,1.6,3.9,1.6c1.8,0,3.1-0.5,4-1.6c0.9-1.1,1.3-2.5,1.3-4.3
		v-7.4h12.3v7.4c0,3.7-0.8,6.9-2.3,9.6c-1.6,2.7-3.7,4.6-6.4,6c-2.7,1.3-5.7,2-9.1,2c-3.3,0-6.3-0.7-8.9-2c-2.6-1.3-4.6-3.3-6-6
		c-1.4-2.6-2.2-5.8-2.2-9.6V0.5H756.3z"/>
</g>
<g>
	<path class="st0" d="M777.1,28.1l-5-7.1l-4.2,7.1h-9.8l9-14.1l-9.4-13.2h10.2l4.8,6.8l4-6.8h9.8l-8.8,13.8l9.6,13.5H777.1z"/>
</g>
<rect x="726.1" y="0.4" class="st0" width="12.4" height="12.4"/>
</svg>
