<?xml version="1.0" encoding="utf-8"?>
 
<!DOCTYPE svg PUBLIC "-//W3C//DTD SVG 1.1//EN" "http://www.w3.org/Graphics/SVG/1.1/DTD/svg11.dtd">
<svg version="1.1" id="Layer_1" xmlns="http://www.w3.org/2000/svg" xmlns:xlink="http://www.w3.org/1999/xlink" x="0px" y="0px"
	 width="433.439px" height="564.889px" viewBox="0 0 433.439 564.889" enable-background="new 0 0 433.439 564.889"
	 xml:space="preserve">
<g>
	<polygon opacity="0.39" fill="#FFFFFF" points="85.374,25.224 42.688,0 0,25.224 0,75.673 42.688,100.897 85.374,75.673 	"/>
	
		<linearGradient id="SVGID_1_" gradientUnits="userSpaceOnUse" x1="348.8408" y1="50.4482" x2="432.6641" y2="50.4482" gradientTransform="matrix(-1 0 0 1 433.4395 0)">
		<stop  offset="0" style="stop-color:#FBFBFB"/>
		<stop  offset="1" style="stop-color:#E4E3E4"/>
	</linearGradient>
	<polygon opacity="0.39" fill="url(#SVGID_1_)" points="84.599,75.229 84.599,25.667 42.688,0.901 0.775,25.667 0.775,75.229 
		42.688,99.995 	"/>
	<polygon opacity="0.39" fill="#FFFFFF" points="172.301,25.224 129.614,0 86.927,25.224 86.927,75.673 129.614,100.897 
		172.301,75.673 	"/>
	
		<linearGradient id="SVGID_2_" gradientUnits="userSpaceOnUse" x1="261.915" y1="50.4482" x2="345.7373" y2="50.4482" gradientTransform="matrix(-1 0 0 1 433.4395 0)">
		<stop  offset="0" style="stop-color:#FBFBFB"/>
		<stop  offset="1" style="stop-color:#E4E3E4"/>
	</linearGradient>
	<polygon opacity="0.39" fill="url(#SVGID_2_)" points="171.524,75.229 171.524,25.667 129.614,0.901 87.702,25.667 87.702,75.229 
		129.614,99.995 	"/>
	<polygon opacity="0.39" fill="#FFFFFF" points="346.154,25.224 303.467,0 260.779,25.224 260.779,75.673 303.467,100.897 
		346.154,75.673 	"/>
	
		<linearGradient id="SVGID_3_" gradientUnits="userSpaceOnUse" x1="88.0615" y1="50.4482" x2="171.8838" y2="50.4482" gradientTransform="matrix(-1 0 0 1 433.4395 0)">
		<stop  offset="0" style="stop-color:#FBFBFB"/>
		<stop  offset="1" style="stop-color:#E4E3E4"/>
	</linearGradient>
	<polygon opacity="0.39" fill="url(#SVGID_3_)" points="345.378,75.229 345.378,25.667 303.467,0.901 261.556,25.667 
		261.556,75.229 303.467,99.995 	"/>
	<polygon opacity="0.39" fill="#FFFFFF" points="128.838,102.255 86.15,77.031 43.463,102.255 43.463,152.704 86.15,177.928 
		128.838,152.704 	"/>
	
		<linearGradient id="SVGID_4_" gradientUnits="userSpaceOnUse" x1="305.3779" y1="127.4795" x2="389.2002" y2="127.4795" gradientTransform="matrix(-1 0 0 1 433.4395 0)">
		<stop  offset="0" style="stop-color:#FBFBFB"/>
		<stop  offset="1" style="stop-color:#E4E3E4"/>
	</linearGradient>
	<polygon opacity="0.39" fill="url(#SVGID_4_)" points="128.062,152.261 128.062,102.698 86.15,77.933 44.239,102.698 
		44.239,152.261 86.15,177.027 	"/>
	<polygon opacity="0.39" fill="#FFFFFF" points="215.765,102.255 173.077,77.031 130.39,102.255 130.39,152.704 173.077,177.928 
		215.765,152.704 	"/>
	
		<linearGradient id="SVGID_5_" gradientUnits="userSpaceOnUse" x1="218.4512" y1="127.4795" x2="302.2734" y2="127.4795" gradientTransform="matrix(-1 0 0 1 433.4395 0)">
		<stop  offset="0" style="stop-color:#FBFBFB"/>
		<stop  offset="1" style="stop-color:#E4E3E4"/>
	</linearGradient>
	<polygon opacity="0.39" fill="url(#SVGID_5_)" points="214.988,152.261 214.988,102.698 173.077,77.933 131.166,102.698 
		131.166,152.261 173.077,177.027 	"/>
	<polygon opacity="0.39" fill="#FFFFFF" points="302.69,102.255 260.004,77.031 217.316,102.255 217.316,152.704 260.004,177.928 
		302.69,152.704 	"/>
	
		<linearGradient id="SVGID_6_" gradientUnits="userSpaceOnUse" x1="131.5254" y1="127.4795" x2="215.3477" y2="127.4795" gradientTransform="matrix(-1 0 0 1 433.4395 0)">
		<stop  offset="0" style="stop-color:#FBFBFB"/>
		<stop  offset="1" style="stop-color:#E4E3E4"/>
	</linearGradient>
	<polygon opacity="0.39" fill="url(#SVGID_6_)" points="301.914,152.261 301.914,102.698 260.004,77.933 218.092,102.698 
		218.092,152.261 260.004,177.027 	"/>
	<polygon opacity="0.39" fill="#FFFFFF" points="389.617,102.255 346.93,77.031 304.243,102.255 304.243,152.704 346.93,177.928 
		389.617,152.704 	"/>
	
		<linearGradient id="SVGID_7_" gradientUnits="userSpaceOnUse" x1="44.5977" y1="127.4795" x2="128.4199" y2="127.4795" gradientTransform="matrix(-1 0 0 1 433.4395 0)">
		<stop  offset="0" style="stop-color:#FBFBFB"/>
		<stop  offset="1" style="stop-color:#E4E3E4"/>
	</linearGradient>
	<polygon opacity="0.39" fill="url(#SVGID_7_)" points="388.842,152.261 388.842,102.698 346.93,77.933 305.02,102.698 
		305.02,152.261 346.93,177.027 	"/>
	<polygon opacity="0.39" fill="#FFFFFF" points="346.514,489.217 303.826,463.992 261.139,489.217 261.139,539.665 303.826,564.889 
		346.514,539.665 	"/>
	
		<linearGradient id="SVGID_8_" gradientUnits="userSpaceOnUse" x1="87.7021" y1="514.4404" x2="171.5244" y2="514.4404" gradientTransform="matrix(-1 0 0 1 433.4395 0)">
		<stop  offset="0" style="stop-color:#FBFBFB"/>
		<stop  offset="1" style="stop-color:#E4E3E4"/>
	</linearGradient>
	<polygon opacity="0.39" fill="url(#SVGID_8_)" points="345.737,539.222 345.737,489.659 303.826,464.893 261.915,489.659 
		261.915,539.222 303.826,563.988 	"/>
	<polygon opacity="0.39" fill="#FFFFFF" points="433.439,489.217 390.753,463.992 348.065,489.217 348.065,539.665 390.753,564.889 
		433.439,539.665 	"/>
	
		<linearGradient id="SVGID_9_" gradientUnits="userSpaceOnUse" x1="0.7754" y1="514.4404" x2="84.5977" y2="514.4404" gradientTransform="matrix(-1 0 0 1 433.4395 0)">
		<stop  offset="0" style="stop-color:#FBFBFB"/>
		<stop  offset="1" style="stop-color:#E4E3E4"/>
	</linearGradient>
	<polygon opacity="0.39" fill="url(#SVGID_9_)" points="432.664,539.222 432.664,489.659 390.753,464.893 348.842,489.659 
		348.842,539.222 390.753,563.988 	"/>
	<polygon opacity="0.39" fill="#FFFFFF" points="85.374,179.286 42.688,154.062 0,179.286 0,229.734 42.688,254.959 85.374,229.734 
			"/>
	
		<linearGradient id="SVGID_10_" gradientUnits="userSpaceOnUse" x1="348.8408" y1="204.5103" x2="432.6641" y2="204.5103" gradientTransform="matrix(-1 0 0 1 433.4395 0)">
		<stop  offset="0" style="stop-color:#FBFBFB"/>
		<stop  offset="1" style="stop-color:#E4E3E4"/>
	</linearGradient>
	<polygon opacity="0.39" fill="url(#SVGID_10_)" points="84.599,229.292 84.599,179.729 42.688,154.963 0.775,179.729 
		0.775,229.292 42.688,254.057 	"/>
	<polygon opacity="0.39" fill="#FFFFFF" points="172.301,179.286 129.614,154.062 86.927,179.286 86.927,229.734 129.614,254.959 
		172.301,229.734 	"/>
	
		<linearGradient id="SVGID_11_" gradientUnits="userSpaceOnUse" x1="261.915" y1="204.5103" x2="345.7373" y2="204.5103" gradientTransform="matrix(-1 0 0 1 433.4395 0)">
		<stop  offset="0" style="stop-color:#FBFBFB"/>
		<stop  offset="1" style="stop-color:#E4E3E4"/>
	</linearGradient>
	<polygon opacity="0.39" fill="url(#SVGID_11_)" points="171.524,229.292 171.524,179.729 129.614,154.963 87.702,179.729 
		87.702,229.292 129.614,254.057 	"/>
	<polygon opacity="0.39" fill="#FFFFFF" points="259.228,179.286 216.54,154.062 173.853,179.286 173.853,229.734 216.54,254.959 
		259.228,229.734 	"/>
	
		<linearGradient id="SVGID_12_" gradientUnits="userSpaceOnUse" x1="174.9883" y1="204.5103" x2="258.8096" y2="204.5103" gradientTransform="matrix(-1 0 0 1 433.4395 0)">
		<stop  offset="0" style="stop-color:#FBFBFB"/>
		<stop  offset="1" style="stop-color:#E4E3E4"/>
	</linearGradient>
	<polygon opacity="0.39" fill="url(#SVGID_12_)" points="258.451,229.292 258.451,179.729 216.54,154.963 174.63,179.729 
		174.63,229.292 216.54,254.057 	"/>
	<polygon opacity="0.39" fill="#FFFFFF" points="346.154,179.286 303.467,154.062 260.779,179.286 260.779,229.734 303.467,254.959 
		346.154,229.734 	"/>
	
		<linearGradient id="SVGID_13_" gradientUnits="userSpaceOnUse" x1="88.0615" y1="204.5103" x2="171.8838" y2="204.5103" gradientTransform="matrix(-1 0 0 1 433.4395 0)">
		<stop  offset="0" style="stop-color:#FBFBFB"/>
		<stop  offset="1" style="stop-color:#E4E3E4"/>
	</linearGradient>
	<polygon opacity="0.39" fill="url(#SVGID_13_)" points="345.378,229.292 345.378,179.729 303.467,154.963 261.556,179.729 
		261.556,229.292 303.467,254.057 	"/>
	<polygon opacity="0.39" fill="#FFFFFF" points="128.838,256.316 86.15,231.093 43.463,256.316 43.463,306.766 86.15,331.99 
		128.838,306.766 	"/>
	
		<linearGradient id="SVGID_14_" gradientUnits="userSpaceOnUse" x1="305.3779" y1="281.541" x2="389.2002" y2="281.541" gradientTransform="matrix(-1 0 0 1 433.4395 0)">
		<stop  offset="0" style="stop-color:#FBFBFB"/>
		<stop  offset="1" style="stop-color:#E4E3E4"/>
	</linearGradient>
	<polygon opacity="0.39" fill="url(#SVGID_14_)" points="128.062,306.322 128.062,256.759 86.15,231.994 44.239,256.759 
		44.239,306.322 86.15,331.088 	"/>
	<polygon opacity="0.39" fill="#FFFFFF" points="302.69,256.316 260.004,231.093 217.316,256.316 217.316,306.766 260.004,331.99 
		302.69,306.766 	"/>
	
		<linearGradient id="SVGID_15_" gradientUnits="userSpaceOnUse" x1="131.5254" y1="281.541" x2="215.3477" y2="281.541" gradientTransform="matrix(-1 0 0 1 433.4395 0)">
		<stop  offset="0" style="stop-color:#FBFBFB"/>
		<stop  offset="1" style="stop-color:#E4E3E4"/>
	</linearGradient>
	<polygon opacity="0.39" fill="url(#SVGID_15_)" points="301.914,306.322 301.914,256.759 260.004,231.994 218.092,256.759 
		218.092,306.322 260.004,331.088 	"/>
	<polygon opacity="0.39" fill="#FFFFFF" points="85.374,333.348 42.688,308.124 0,333.348 0,383.797 42.688,409.021 85.374,383.797 
			"/>
	
		<linearGradient id="SVGID_16_" gradientUnits="userSpaceOnUse" x1="348.8408" y1="358.5723" x2="432.6641" y2="358.5723" gradientTransform="matrix(-1 0 0 1 433.4395 0)">
		<stop  offset="0" style="stop-color:#FBFBFB"/>
		<stop  offset="1" style="stop-color:#E4E3E4"/>
	</linearGradient>
	<polygon opacity="0.39" fill="url(#SVGID_16_)" points="84.599,383.354 84.599,333.791 42.688,309.025 0.775,333.791 
		0.775,383.354 42.688,408.119 	"/>
	<polygon opacity="0.39" fill="#FFFFFF" points="172.301,333.348 129.614,308.124 86.927,333.348 86.927,383.797 129.614,409.021 
		172.301,383.797 	"/>
	
		<linearGradient id="SVGID_17_" gradientUnits="userSpaceOnUse" x1="261.915" y1="358.5723" x2="345.7373" y2="358.5723" gradientTransform="matrix(-1 0 0 1 433.4395 0)">
		<stop  offset="0" style="stop-color:#FBFBFB"/>
		<stop  offset="1" style="stop-color:#E4E3E4"/>
	</linearGradient>
	<polygon opacity="0.39" fill="url(#SVGID_17_)" points="171.524,383.354 171.524,333.791 129.614,309.025 87.702,333.791 
		87.702,383.354 129.614,408.119 	"/>
	<polygon opacity="0.39" fill="#FFFFFF" points="259.228,333.348 216.54,308.124 173.853,333.348 173.853,383.797 216.54,409.021 
		259.228,383.797 	"/>
	
		<linearGradient id="SVGID_18_" gradientUnits="userSpaceOnUse" x1="174.9883" y1="358.5723" x2="258.8096" y2="358.5723" gradientTransform="matrix(-1 0 0 1 433.4395 0)">
		<stop  offset="0" style="stop-color:#FBFBFB"/>
		<stop  offset="1" style="stop-color:#E4E3E4"/>
	</linearGradient>
	<polygon opacity="0.39" fill="url(#SVGID_18_)" points="258.451,383.354 258.451,333.791 216.54,309.025 174.63,333.791 
		174.63,383.354 216.54,408.119 	"/>
	<polygon opacity="0.39" fill="#FFFFFF" points="346.154,333.348 303.467,308.124 260.779,333.348 260.779,383.797 303.467,409.021 
		346.154,383.797 	"/>
	
		<linearGradient id="SVGID_19_" gradientUnits="userSpaceOnUse" x1="88.0615" y1="358.5723" x2="171.8838" y2="358.5723" gradientTransform="matrix(-1 0 0 1 433.4395 0)">
		<stop  offset="0" style="stop-color:#FBFBFB"/>
		<stop  offset="1" style="stop-color:#E4E3E4"/>
	</linearGradient>
	<polygon opacity="0.39" fill="url(#SVGID_19_)" points="345.378,383.354 345.378,333.791 303.467,309.025 261.556,333.791 
		261.556,383.354 303.467,408.119 	"/>
	<polygon opacity="0.39" fill="#FFFFFF" points="433.081,333.348 390.394,308.124 347.706,333.348 347.706,383.797 390.394,409.021 
		433.081,383.797 	"/>
	
		<linearGradient id="SVGID_20_" gradientUnits="userSpaceOnUse" x1="1.1348" y1="358.5723" x2="84.957" y2="358.5723" gradientTransform="matrix(-1 0 0 1 433.4395 0)">
		<stop  offset="0" style="stop-color:#FBFBFB"/>
		<stop  offset="1" style="stop-color:#E4E3E4"/>
	</linearGradient>
	<polygon opacity="0.39" fill="url(#SVGID_20_)" points="432.305,383.354 432.305,333.791 390.394,309.025 348.482,333.791 
		348.482,383.354 390.394,408.119 	"/>
	<polygon opacity="0.39" fill="#FFFFFF" points="389.617,410.379 346.93,385.153 304.243,410.379 304.243,460.827 346.93,486.051 
		389.617,460.827 	"/>
	
		<linearGradient id="SVGID_21_" gradientUnits="userSpaceOnUse" x1="44.5977" y1="435.6025" x2="128.4199" y2="435.6025" gradientTransform="matrix(-1 0 0 1 433.4395 0)">
		<stop  offset="0" style="stop-color:#FBFBFB"/>
		<stop  offset="1" style="stop-color:#E4E3E4"/>
	</linearGradient>
	<polygon opacity="0.39" fill="url(#SVGID_21_)" points="388.842,460.384 388.842,410.822 346.93,386.056 305.02,410.822 
		305.02,460.384 346.93,485.15 	"/>
	<polygon opacity="0.39" fill="#FFFFFF" points="215.765,256.316 173.077,231.093 130.39,256.316 130.39,306.766 173.077,331.99 
		215.765,306.766 	"/>
	
		<linearGradient id="SVGID_22_" gradientUnits="userSpaceOnUse" x1="218.4512" y1="281.541" x2="302.2734" y2="281.541" gradientTransform="matrix(-1 0 0 1 433.4395 0)">
		<stop  offset="0" style="stop-color:#FBFBFB"/>
		<stop  offset="1" style="stop-color:#E4E3E4"/>
	</linearGradient>
	<polygon opacity="0.39" fill="url(#SVGID_22_)" points="214.988,306.322 214.988,256.759 173.077,231.994 131.166,256.759 
		131.166,306.322 173.077,331.088 	"/>
	<polygon opacity="0.39" fill="#FFFFFF" points="433.081,179.286 390.394,154.062 347.706,179.286 347.706,229.734 390.394,254.959 
		433.081,229.734 	"/>
	
		<linearGradient id="SVGID_23_" gradientUnits="userSpaceOnUse" x1="1.1348" y1="204.5103" x2="84.957" y2="204.5103" gradientTransform="matrix(-1 0 0 1 433.4395 0)">
		<stop  offset="0" style="stop-color:#FBFBFB"/>
		<stop  offset="1" style="stop-color:#E4E3E4"/>
	</linearGradient>
	<polygon opacity="0.39" fill="url(#SVGID_23_)" points="432.305,229.292 432.305,179.729 390.394,154.963 348.482,179.729 
		348.482,229.292 390.394,254.057 	"/>
	<polygon opacity="0.39" fill="#FFFFFF" points="389.617,256.316 346.93,231.093 304.243,256.316 304.243,306.766 346.93,331.99 
		389.617,306.766 	"/>
	
		<linearGradient id="SVGID_24_" gradientUnits="userSpaceOnUse" x1="44.5977" y1="281.541" x2="128.4199" y2="281.541" gradientTransform="matrix(-1 0 0 1 433.4395 0)">
		<stop  offset="0" style="stop-color:#FBFBFB"/>
		<stop  offset="1" style="stop-color:#E4E3E4"/>
	</linearGradient>
	<polygon opacity="0.39" fill="url(#SVGID_24_)" points="388.842,306.322 388.842,256.759 346.93,231.994 305.02,256.759 
		305.02,306.322 346.93,331.088 	"/>
</g>
</svg>
