<svg width="89" height="89" viewBox="0 0 89 89" fill="none" xmlns="http://www.w3.org/2000/svg">
<g clip-path="url(#clip0_816_1069)">
<path d="M4.33398 13.4487C4.33398 9.03046 7.91571 5.44873 12.334 5.44873H77.0011C81.4194 5.44873 85.0011 9.03045 85.0011 13.4487V75.9158C85.0011 80.3341 81.4194 83.9159 77.0011 83.9159H12.334C7.91569 83.9159 4.33398 80.3341 4.33398 75.9159V13.4487Z" fill="#261300"/>
<path d="M8.66699 1.78174C4.24871 1.78174 0.666992 5.36346 0.666992 9.78174V79.5817C0.666992 84 4.24871 87.5817 8.66699 87.5817H80.667C85.0853 87.5817 88.667 84 88.667 79.5817V9.78173C88.667 5.36345 85.0853 1.78174 80.667 1.78174H8.66699ZM4.33412 13.4489C4.33412 9.03059 7.91584 5.44886 12.3341 5.44886H77.0013C81.4195 5.44886 85.0012 9.03058 85.0012 13.4489V75.916C85.0012 80.3343 81.4195 83.916 77.0012 83.916H12.3341C7.91583 83.916 4.33412 80.3343 4.33412 75.916V13.4489ZM31.2099 50.3646L28.3127 61.3646C28.2399 61.6575 28.1299 61.7317 27.7627 61.7317H22.3727C22.0056 61.7317 21.9327 61.6217 22.0056 61.1817L32.4185 24.7346C32.6014 24.0746 32.7114 23.4875 32.7856 21.6917C32.7856 21.4346 32.8956 21.3246 33.0785 21.3246H40.7785C41.0356 21.3246 41.1456 21.3975 41.2185 21.6917L52.8785 61.2546C52.9514 61.5475 52.8785 61.7317 52.5856 61.7317H46.4985C46.2056 61.7317 46.0214 61.6589 45.9485 61.4017L42.9056 50.3646H31.2099ZM41.4027 44.4246L37.0399 27.1917H36.967C36.197 31.4817 34.2541 38.7417 32.7141 44.4246H41.4027ZM57.9027 24.0375C57.9027 21.6904 59.5527 20.2975 61.6427 20.2975C63.8799 20.2975 65.3827 21.8004 65.3827 24.0375C65.3827 26.4575 63.8056 27.7775 61.5699 27.7775C59.4427 27.7775 57.9027 26.4575 57.9027 24.0375ZM58.3427 32.3604C58.3427 32.0675 58.4527 31.9204 58.7827 31.9204H64.5399C64.8327 31.9204 64.9799 32.0304 64.9799 32.3604V61.2904C64.9799 61.5832 64.907 61.7304 64.5399 61.7304H58.857C58.4899 61.7304 58.3799 61.5475 58.3799 61.2532V32.3617L58.3427 32.3604Z" fill="#FF7C00"/>
</g>
<defs>
<clipPath id="clip0_816_1069">
<rect x="0.666992" y="0.681641" width="88" height="88" rx="8" fill="white"/>
</clipPath>
</defs>
</svg>
