<svg width="88" height="88" viewBox="0 0 88 88" fill="none" xmlns="http://www.w3.org/2000/svg">
<path d="M73.8257 -0.106567H14.3366C6.496 -0.106567 0.139893 6.23946 0.139893 14.0677V73.8256C0.139893 81.6538 6.496 87.9998 14.3366 87.9998H73.8257C81.6663 87.9998 88.0224 81.6538 88.0224 73.8256V14.0677C88.0224 6.23946 81.6663 -0.106567 73.8257 -0.106567Z" fill="url(#paint0_linear_1_81)"/>
<path d="M44.7443 37.8232C46.9891 37.8232 48.6903 37.3435 49.8498 36.3613C51.0092 35.3791 51.5887 33.9486 51.5887 32.048C51.5887 30.1714 51.0092 28.7457 49.8498 27.771C48.6827 26.7717 46.9885 26.2721 44.7443 26.2721H36.8633V37.8239L44.7443 37.8232ZM45.2248 61.6946C48.0855 61.6946 50.2315 61.0983 51.6621 59.9036C53.1175 58.7097 53.8452 56.9063 53.8452 54.4937C53.8452 52.1291 53.1298 50.3628 51.6992 49.1935C50.2685 47.9995 48.1109 47.4025 45.2255 47.4025H36.864V61.696H45.2255M58.4701 42.0659C61.5284 42.9432 63.8962 44.5642 65.5733 46.9275C67.2504 49.2908 68.0886 52.1914 68.0893 55.6281C68.0893 60.892 66.2886 64.8159 62.6879 67.3992C59.0873 69.9825 53.6125 71.2738 46.2621 71.2738H22.6219V16.6956H44.0063C51.6765 16.6956 57.2262 17.8402 60.6538 20.1315C64.1069 22.4221 65.8335 26.0904 65.8335 31.135C65.8335 33.7917 65.2046 36.0576 63.947 37.9343C62.6893 39.7862 60.8577 41.1557 58.4715 42.0652" fill="white"/>
<defs>
<linearGradient id="paint0_linear_1_81" x1="5.20967" y1="83.4309" x2="82.4892" y2="4.67691" gradientUnits="userSpaceOnUse">
<stop stop-color="#070135"/>
<stop offset="1" stop-color="#612D50"/>
</linearGradient>
</defs>
</svg>
