<svg width="89" height="88" viewBox="0 0 89 88" fill="none" xmlns="http://www.w3.org/2000/svg">
<path d="M74.4162 44.2548C64.1642 44.456 66.2996 50.946 59.0744 52.5873C51.7347 54.2547 50.576 34.6614 43.2381 34.6614C35.8993 34.6614 34.2736 53.6941 25.0844 66.7603L24.8223 67.1302L44.5237 78.5028L74.4162 61.2461V44.2548Z" fill="#36A2EB"/>
<path d="M74.4162 43.6641C70.9842 39.2595 68.6563 34.1958 63.6481 34.1958C54.7853 34.1958 57.1173 48.6539 47.3223 48.6539C37.5263 48.6539 36.4965 33.1022 25.3993 47.7212C21.8633 52.3793 19.017 57.5731 16.7812 62.4878L44.5237 78.5033L74.4162 61.2466V43.6641Z" fill="#FFCE56"/>
<path opacity="0.8" d="M14.6299 49.6532C17.9931 40.3394 19.4447 32.7961 25.8655 32.7961C35.6605 32.7961 37.992 60.314 46.3892 57.5145C54.7849 54.7164 53.8518 39.7912 66.9129 39.7912C69.3989 39.7912 71.9371 41.3143 74.4163 43.7778V61.2463L44.5238 78.503L14.6303 61.2463L14.6299 49.6532Z" fill="#FE6184"/>
<path d="M44.5 80.6666L12.7412 62.3337V25.6666L44.5 7.33325L76.2589 25.6666V62.3333L44.5 80.6666ZM16.4725 60.1795L44.5 76.3592L72.5276 60.1795V27.8208L44.5 11.6411L16.4725 27.8208V60.1795Z" fill="#E7E9ED"/>
</svg>
