<svg width="84" height="88" viewBox="0 0 84 88" fill="none" xmlns="http://www.w3.org/2000/svg">
<g clip-path="url(#clip0_897_2123)">
<path fill-rule="evenodd" clip-rule="evenodd" d="M70.2857 57.695C70.6343 57.4948 70.924 57.2065 71.126 56.859C71.3279 56.5114 71.4348 56.1169 71.4361 55.715L71.4774 42.4531C71.4787 42.0512 71.5856 41.6566 71.7875 41.3091C71.9895 40.9616 72.2792 40.6733 72.6278 40.4731L79.8167 36.3435C80.1652 36.1434 80.5601 36.0385 80.9619 36.0391C81.3636 36.0398 81.7582 36.1461 82.1059 36.3474C82.4537 36.5486 82.7424 36.8378 82.9432 37.1859C83.1439 37.5339 83.2496 37.9286 83.2497 38.3304V62.441C83.2496 62.8441 83.1432 63.2401 82.9412 63.5889C82.7392 63.9378 82.4488 64.2272 82.0993 64.4279L54.9682 80.0112C54.6217 80.2102 54.2291 80.315 53.8296 80.3155C53.43 80.3159 53.0372 80.2118 52.6903 80.0135L31.3984 67.8356C31.0477 67.6353 30.7561 67.3457 30.5533 66.9964C30.3504 66.6471 30.2435 66.2504 30.2434 65.8464V53.6892C30.2434 53.6754 30.2595 53.6662 30.2732 53.6731C30.2847 53.68 30.3007 53.6731 30.3007 53.6571V53.6433C30.3007 53.6341 30.3053 53.625 30.3145 53.6204L47.8503 43.5462C47.8663 43.5371 47.8595 43.5119 47.8411 43.5119C47.8363 43.5119 47.8316 43.5099 47.8282 43.5065C47.8247 43.503 47.8228 43.4984 47.8228 43.4935L47.8572 31.5746C47.8588 31.1715 47.754 30.7752 47.5536 30.4255C47.3531 30.0759 47.0639 29.7853 46.7153 29.5831C46.3666 29.3809 45.9708 29.2742 45.5678 29.2738C45.1647 29.2734 44.7687 29.3793 44.4197 29.5808L31.387 37.0906C31.0391 37.2909 30.6448 37.3963 30.2434 37.3963C29.842 37.3963 29.4477 37.2909 29.0999 37.0906L16.0259 29.5625C15.6776 29.3619 15.2827 29.2565 14.8807 29.2568C14.4788 29.2571 14.084 29.3631 13.736 29.5641C13.388 29.7652 13.0989 30.0542 12.8979 30.4023C12.6969 30.7503 12.5909 31.1451 12.5907 31.5471V53.0887C12.591 53.4902 12.4858 53.8848 12.2856 54.2328C12.0854 54.5809 11.7973 54.8702 11.4501 55.0719C11.1029 55.2736 10.7089 55.3805 10.3074 55.3819C9.90585 55.3834 9.51101 55.2793 9.16237 55.0802L1.90696 50.9323C1.55553 50.7315 1.26354 50.4413 1.06066 50.0911C0.857791 49.7409 0.751278 49.3432 0.751956 48.9385L0.816123 11.2864C0.816996 10.885 0.923286 10.4909 1.12435 10.1435C1.32542 9.79608 1.61421 9.50758 1.96182 9.30686C2.30943 9.10613 2.70367 9.00023 3.10507 8.99976C3.50647 8.99928 3.90095 9.10425 4.24904 9.30415L29.1022 23.5789C29.4495 23.7784 29.8429 23.8833 30.2434 23.8833C30.6439 23.8833 31.0374 23.7784 31.3847 23.5789L56.2309 9.30415C56.5795 9.10396 56.9746 8.99898 57.3766 8.99976C57.7786 9.00054 58.1733 9.10704 58.5211 9.30858C58.8689 9.51012 59.1576 9.7996 59.3582 10.148C59.5588 10.4963 59.6642 10.8913 59.6638 11.2933V48.9546C59.664 49.3574 59.5579 49.7532 59.3564 50.1021C59.1548 50.4509 58.8648 50.7404 58.5157 50.9414L45.5036 58.4352C45.1541 58.6367 44.864 58.9268 44.6626 59.2764C44.4611 59.6259 44.3556 60.0224 44.3565 60.4259C44.3574 60.8293 44.4648 61.2253 44.6679 61.5739C44.8709 61.9225 45.1624 62.2114 45.5128 62.4112L52.6903 66.4973C53.0372 66.6947 53.4296 66.7982 53.8287 66.7974C54.2278 66.7966 54.6199 66.6916 54.9659 66.4927L70.2857 57.695ZM71.7913 23.9112C71.7916 24.3165 71.8994 24.7144 72.1037 25.0645C72.308 25.4145 72.6014 25.7041 72.9541 25.9037C73.3068 26.1034 73.7061 26.2059 74.1114 26.2009C74.5166 26.1959 74.9133 26.0835 75.2609 25.8752L82.1359 21.7502C82.4753 21.5468 82.7563 21.259 82.9514 20.9149C83.1466 20.5707 83.2494 20.1819 83.2497 19.7862V11.3804C83.2489 10.9753 83.1409 10.5777 82.9364 10.228C82.732 9.87825 82.4385 9.58897 82.0859 9.3896C81.7333 9.19023 81.3341 9.0879 80.9291 9.09301C80.524 9.09813 80.1276 9.21052 79.7801 9.41873L72.9051 13.5437C72.5657 13.7471 72.2847 14.0349 72.0896 14.379C71.8944 14.7232 71.7916 15.112 71.7913 15.5077V23.9112Z" fill="#007FFF"/>
</g>
<defs>
<clipPath id="clip0_897_2123">
<rect width="82.5" height="88" fill="white" transform="translate(0.75)"/>
</clipPath>
</defs>
</svg>
