<svg width="89" height="88" viewBox="0 0 89 88" fill="none" xmlns="http://www.w3.org/2000/svg">
<g clip-path="url(#clip0_901_2185)">
<path fill-rule="evenodd" clip-rule="evenodd" d="M81.5582 68.5473C76.772 68.414 73.059 68.9046 69.9469 70.2137C69.0509 70.5736 67.6129 70.5736 67.4948 71.7014C67.9737 72.1747 68.0314 72.9492 68.4513 73.6051C69.1689 74.7955 70.4272 76.3993 71.5633 77.2311L75.3931 79.968C77.7271 81.3944 80.3603 82.2276 82.634 83.6553C83.9513 84.4885 85.2672 85.559 86.5845 86.4521C87.2552 86.9281 87.6616 87.7026 88.5 87.9985V87.8186C88.0815 87.2853 87.9608 86.5121 87.5436 85.9149L85.7461 84.1912C84.0116 81.8716 81.856 79.848 79.5219 78.1843C77.6064 76.8752 73.4185 75.0915 72.6405 72.8919L72.5224 72.7586C73.837 72.6253 75.3931 72.1627 76.6513 71.8054C78.6876 71.2722 80.5414 71.3895 82.634 70.8549L85.5087 70.0217V69.4885C84.4315 68.418 83.6535 66.9903 82.5173 65.9798C79.4656 63.3629 76.1121 60.8047 72.6405 58.6637C70.7853 57.4746 68.3909 56.7001 66.4163 55.6909C65.696 55.3337 64.5008 55.155 64.0823 54.5605C63.0025 53.254 62.4055 51.5277 61.6275 49.9799L56.7206 39.6311C55.6435 37.3115 54.9835 34.9919 53.6689 32.851C47.5038 22.7394 40.7994 16.6139 30.5054 10.6056C28.2921 9.35648 25.6589 8.81924 22.8593 8.16602L18.371 7.92606C17.4119 7.51014 16.4554 6.37967 15.6171 5.84377C12.2059 3.70281 3.40753 -0.936366 0.892384 5.17722C-0.724018 9.0432 3.2868 12.8492 4.64833 14.8128C5.66781 16.1806 6.98239 17.727 7.70273 19.2734C8.10515 20.2839 8.2393 21.3557 8.65916 22.4262C9.61559 25.043 10.5143 27.9585 11.7712 30.3981C12.4419 31.6472 13.1462 32.9576 13.9846 34.0868C14.4635 34.7533 15.3018 35.0386 15.4802 36.1091C14.6418 37.2995 14.5842 39.0819 14.1053 40.5709C11.9496 47.2924 12.788 55.6189 15.8397 60.5674C16.7988 62.0538 19.0591 65.3265 22.1256 64.0761C24.8192 63.0056 24.2182 59.6156 24.9962 56.6414C25.1773 55.9282 25.0566 55.4523 25.4147 54.9751V55.1084L27.8695 60.0448C29.7247 62.959 32.9575 65.9931 35.6497 68.0167C37.085 69.0872 38.2225 70.9322 40.0174 71.5854V71.4055H39.8993C39.5398 70.8722 39.0006 70.6323 38.5217 70.2164C37.4445 69.1459 36.248 67.8368 35.4096 66.6477C32.8971 63.3176 30.6838 59.6289 28.7079 55.8229C27.7488 53.9792 26.9104 51.9569 26.1351 50.1132C25.7729 49.3987 25.7729 48.3269 25.176 47.9723C24.2772 49.2787 22.9626 50.4119 22.3013 52.0169C21.1638 54.5738 21.0458 57.7266 20.6272 60.998C20.3858 61.058 20.4931 60.998 20.3858 61.1313C18.4729 60.6567 17.813 58.6917 17.0953 57.028C15.3005 52.8048 15 46.0246 16.556 41.1468C16.9746 39.8977 18.7721 35.9718 18.0544 34.7826C17.6922 33.6522 16.4984 32.999 15.8384 32.1058C15.0604 30.9753 14.2247 29.5489 13.6854 28.2998C12.2501 24.967 11.5325 21.281 9.97508 17.9496C9.25474 16.4032 7.99919 14.7968 6.98106 13.3704C5.84354 11.764 4.58931 10.6336 3.69057 8.73125C3.39143 8.06471 2.97291 7.00623 3.45179 6.29169C3.56984 5.81577 3.81129 5.62514 4.2875 5.51849C5.06552 4.85194 7.28152 5.69713 8.05954 6.05173C10.2729 6.94491 12.128 7.77676 13.9832 9.02454C14.8216 9.6191 15.7204 10.7496 16.7975 11.0482H18.0557C19.9713 11.4641 22.1243 11.1815 23.9177 11.7147C27.0902 12.7279 29.9621 14.2129 32.5376 15.8207C40.3768 20.7571 46.8425 27.7759 51.2101 36.1637C51.9277 37.5315 52.2269 38.7806 52.8869 40.2083C54.1451 43.1238 55.7011 46.0966 56.9554 48.9535C58.2136 51.749 59.4101 54.6058 61.205 56.9254C62.1037 58.1745 65.6933 58.8277 67.3084 59.4823C68.5063 60.0155 70.3601 60.4954 71.4399 61.1486C73.4735 62.3977 75.5084 63.8255 77.4226 65.1932C78.3791 65.9051 81.3731 67.3929 81.5515 68.5793L81.5582 68.5473ZM20.524 16.8605C19.6971 16.8532 18.8727 16.9531 18.0718 17.1578V17.2911H18.1899C18.6688 18.2429 19.5072 18.8975 20.1054 19.7306L21.4831 22.5861L21.6011 22.4528C22.4395 21.8583 22.8593 20.9064 22.8593 19.48C22.4999 19.0641 22.4408 18.6468 22.1417 18.2309C21.7822 17.6363 21.0042 17.3377 20.524 16.8631V16.8605Z" fill="#00678C"/>
</g>
<defs>
<clipPath id="clip0_901_2185">
<rect width="88" height="88" fill="white" transform="translate(0.5)"/>
</clipPath>
</defs>
</svg>
