<svg width="88" height="88" viewBox="0 0 88 88" fill="none" xmlns="http://www.w3.org/2000/svg">
<g clip-path="url(#clip0_897_2016)">
<path d="M44.0005 88.0011C68.3014 88.0011 88.0011 68.3014 88.0011 44.0005C88.0011 19.6997 68.3014 0 44.0005 0C19.6997 0 0 19.6997 0 44.0005C0 68.3014 19.6997 88.0011 44.0005 88.0011Z" fill="black"/>
<path d="M73.0938 77.0108L33.8032 26.4004H26.4004V61.5862H32.3229V33.9216L68.4449 80.592C70.0725 79.503 71.6256 78.3066 73.0938 77.0108Z" fill="url(#paint0_linear_897_2016)"/>
<path d="M56.2227 26.4004H62.0894V61.6008H56.2227V26.4004Z" fill="url(#paint1_linear_897_2016)"/>
</g>
<defs>
<linearGradient id="paint0_linear_897_2016" x1="53.2896" y1="56.9563" x2="70.6454" y2="78.4677" gradientUnits="userSpaceOnUse">
<stop stop-color="white"/>
<stop offset="1" stop-color="white" stop-opacity="0"/>
</linearGradient>
<linearGradient id="paint1_linear_897_2016" x1="59.156" y1="26.4004" x2="59.0578" y2="52.2507" gradientUnits="userSpaceOnUse">
<stop stop-color="white"/>
<stop offset="1" stop-color="white" stop-opacity="0"/>
</linearGradient>
<clipPath id="clip0_897_2016">
<rect width="88" height="88" fill="white"/>
</clipPath>
</defs>
</svg>
