<svg width="88" height="88" viewBox="0 0 88 88" fill="none" xmlns="http://www.w3.org/2000/svg">
<path d="M40.3044 1.17417C42.5044 -0.0715809 45.3094 -0.0770809 47.4544 1.17417L80.3004 19.6899C82.3546 20.8449 83.7296 23.1357 83.7104 25.5034V62.6284C83.7241 65.0952 82.2144 67.4354 80.0474 68.5684L47.3774 86.9989C46.2599 87.6164 44.9976 87.9235 43.7214 87.8882C42.4452 87.8529 41.2017 87.4765 40.1201 86.7982L30.3164 81.1332C29.6481 80.7344 28.8974 80.4182 28.4244 79.7719C28.8424 79.2109 29.5849 79.1394 30.1899 78.8919C31.5539 78.4574 32.8024 77.7919 34.0564 77.0879C34.3726 76.8679 34.7604 76.9504 35.0629 77.1484L43.4229 81.9829C44.0196 82.3267 44.6246 81.8729 45.1361 81.5842L77.2149 63.4809C77.6109 63.2884 77.8309 62.8704 77.7979 62.4359V25.6684C77.8419 25.1734 77.5586 24.7224 77.1104 24.5217L44.5229 6.17092C44.3351 6.04103 44.1123 5.97122 43.8839 5.97073C43.6556 5.97024 43.4325 6.03909 43.2441 6.16817L10.7034 24.5574C10.2634 24.7582 9.96085 25.2037 10.0159 25.6987V62.4662C9.97735 62.9007 10.2084 63.3104 10.6071 63.4974L19.3026 68.4062C20.9361 69.2862 22.9409 69.7812 24.7394 69.1349C25.5264 68.8383 26.2039 68.3082 26.6812 67.6157C27.1585 66.9231 27.4126 66.1012 27.4096 65.2602L27.4179 28.7127C27.3794 28.1709 27.8909 27.7227 28.4161 27.7777H32.5961C33.1461 27.7639 33.5779 28.3469 33.5036 28.8914L33.4954 65.6699C33.4981 68.9369 32.1561 72.4899 29.1339 74.0932C25.4104 76.0182 20.8069 75.6139 17.1274 73.7632L7.77735 68.5932C5.57735 67.4932 4.1006 65.1172 4.11435 62.6532V25.5282C4.1235 24.3215 4.45522 23.1393 5.07511 22.1041C5.69501 21.0688 6.58052 20.2182 7.63985 19.6404L40.3044 1.17417ZM49.7754 26.9087C54.5246 26.6337 59.6094 26.7272 63.8829 29.0674C67.1911 30.8604 69.0254 34.6224 69.0859 38.3019C68.9924 38.7969 68.4754 39.0719 68.0024 39.0362C66.6274 39.0334 65.2469 39.0554 63.8664 39.0279C63.2806 39.0499 62.9424 38.5109 62.8681 37.9939C62.4721 36.2339 61.5124 34.4932 59.8569 33.6434C57.3159 32.3702 54.3679 32.4334 51.5959 32.4609C49.5719 32.5709 47.3966 32.7442 45.6834 33.9322C44.3634 34.8342 43.9674 36.6822 44.4376 38.1177C44.8776 39.1709 46.0959 39.5092 47.0886 39.8227C52.8141 41.3187 58.8779 41.1977 64.4961 43.1419C66.8199 43.9449 69.0941 45.5069 69.8916 47.9407C70.9311 51.2022 70.4774 55.1017 68.1591 57.7197C66.2781 59.8757 63.5391 61.0197 60.8029 61.6852C57.1646 62.4964 53.3916 62.5157 49.6984 62.1527C46.2251 61.7567 42.6116 60.8437 39.9304 58.4787C37.6369 56.4877 36.5204 53.3857 36.6304 50.3937C36.6579 49.8877 37.1611 49.5357 37.6479 49.5769H41.7729C42.3284 49.5384 42.7354 50.0169 42.7629 50.5394C43.0186 52.1894 43.6484 53.9769 45.1114 54.9394C47.9329 56.7599 51.4721 56.6334 54.7006 56.6857C57.3764 56.5674 60.3794 56.5317 62.5656 54.7607C63.7206 53.7514 64.0589 52.0657 63.7481 50.6137C63.4099 49.3872 62.0981 48.8179 60.9981 48.4137C55.3469 46.6262 49.2144 47.2752 43.6181 45.2512C41.3466 44.4482 39.1494 42.9302 38.2776 40.5954C37.0594 37.2954 37.6176 33.2062 40.1834 30.6762C42.6584 28.1599 46.2884 27.1892 49.7259 26.8427L49.7754 26.9087Z" fill="#8CC84B"/>
</svg>
