<svg width="98" height="88" viewBox="0 0 98 88" fill="none" xmlns="http://www.w3.org/2000/svg">
<g clip-path="url(#clip0_901_2148)">
<path d="M49.1277 51.8585C53.4016 51.8585 56.8665 48.3935 56.8665 44.1197C56.8665 39.8458 53.4009 36.3809 49.1277 36.3809C44.8546 36.3809 41.3896 39.8458 41.3896 44.1197C41.3896 48.3935 44.8531 51.8585 49.1277 51.8585Z" fill="#087EA4"/>
<path d="M49.1279 61.5315C70.4972 61.5315 87.8204 53.7361 87.8204 44.1198C87.8204 34.5034 70.4972 26.708 49.1279 26.708C27.7585 26.708 10.4346 34.5034 10.4346 44.1198C10.4346 53.7361 27.7585 61.5315 49.1279 61.5315Z" stroke="#087EA4" stroke-width="5.333"/>
<path d="M34.0482 52.8256C44.7332 71.3322 60.1455 82.4365 68.4734 77.6287C76.8021 72.8201 74.8911 53.9197 64.2061 35.4139C53.5218 16.9066 38.1088 5.80227 29.7816 10.6108C21.453 15.4186 23.3639 34.3191 34.0482 52.8256Z" stroke="#087EA4" stroke-width="5.333"/>
<path d="M34.048 35.4138C23.3637 53.9204 21.4535 72.8201 29.7807 77.6287C38.1093 82.4365 53.5216 71.3314 64.2059 52.8256C74.8909 34.3183 76.8019 15.4193 68.474 10.6108C60.1454 5.80222 44.7331 16.9073 34.048 35.4138Z" stroke="#087EA4" stroke-width="5.333"/>
</g>
<defs>
<clipPath id="clip0_901_2148">
<rect width="81.2549" height="74" fill="white" transform="translate(8.5 7)"/>
</clipPath>
</defs>
</svg>
