<svg width="89" height="88" viewBox="0 0 89 88" fill="none" xmlns="http://www.w3.org/2000/svg">
<g clip-path="url(#clip0_168_3411)">
<path d="M58.1281 57.552C60.6801 57.288 62.6161 55.088 62.5281 52.448C62.4401 49.808 60.2401 47.696 57.6001 47.696H57.4241C54.6961 47.784 52.5841 50.072 52.6721 52.8C52.7601 54.12 53.2881 55.264 54.0801 56.056C51.0881 61.952 46.5121 66.264 39.6481 69.872C34.9841 72.336 30.1441 73.216 25.3041 72.6C21.3441 72.072 18.2641 70.312 16.3281 67.408C13.5121 63.096 13.2481 58.432 15.6241 53.768C17.2961 50.424 19.9361 47.96 21.6081 46.728C21.2561 45.584 20.7281 43.648 20.4641 42.24C7.70407 51.48 9.02407 63.976 12.8961 69.872C15.8001 74.272 21.6961 77 28.2081 77C29.9681 77 31.7281 76.824 33.4881 76.384C44.7521 74.184 53.2881 67.496 58.1281 57.552Z" fill="#764ABC"/>
<path d="M73.6161 46.64C66.9281 38.808 57.0721 34.496 45.8081 34.496H44.4001C43.6081 32.912 41.9361 31.856 40.0881 31.856H39.9121C37.1841 31.944 35.0721 34.232 35.1601 36.96C35.2481 39.6 37.4481 41.712 40.0881 41.712H40.2641C42.2001 41.624 43.8721 40.392 44.5761 38.72H46.1601C52.8481 38.72 59.1841 40.656 64.9041 44.44C69.3041 47.344 72.4721 51.128 74.2321 55.704C75.7281 59.4 75.6401 63.008 74.0561 66.088C71.5921 70.752 67.4561 73.304 62.0001 73.304C58.4801 73.304 55.1361 72.248 53.3761 71.456C52.4081 72.336 50.6481 73.744 49.4161 74.624C53.2001 76.384 57.0721 77.352 60.7681 77.352C69.2161 77.352 75.4641 72.688 77.8401 68.024C80.3921 62.92 80.2161 54.12 73.6161 46.64Z" fill="#764ABC"/>
<path d="M28.912 59.048C29 61.688 31.2 63.8 33.84 63.8H34.016C36.744 63.712 38.856 61.424 38.768 58.696C38.68 56.056 36.48 53.944 33.84 53.944H33.664C33.488 53.944 33.224 53.944 33.048 54.032C29.44 48.048 27.944 41.536 28.472 34.496C28.824 29.216 30.584 24.64 33.664 20.856C36.216 17.6 41.144 16.016 44.488 15.928C53.816 15.752 57.776 27.368 58.04 32.032C59.184 32.296 61.12 32.912 62.44 33.352C61.384 19.096 52.584 11.704 44.136 11.704C36.216 11.704 28.912 17.424 26.008 25.872C21.96 37.136 24.6 47.96 29.528 56.496C29.088 57.112 28.824 58.08 28.912 59.048Z" fill="#764ABC"/>
</g>
<defs>
<clipPath id="clip0_168_3411">
<rect width="88" height="88" fill="white" transform="translate(0.400024)"/>
</clipPath>
</defs>
</svg>
