<svg width="88" height="88" viewBox="0 0 88 88" fill="none" xmlns="http://www.w3.org/2000/svg">
<g clip-path="url(#clip0_897_2021)">
<path d="M60.9121 60.6375C64.2121 60.3625 66.6871 57.4751 66.5496 54.1751C66.4121 50.8751 63.6621 48.125 60.2246 48.125H59.9496C56.5121 48.2625 53.7621 51.1501 53.8996 54.5876C54.0371 56.2376 54.7246 57.75 55.6871 58.7126C51.8371 66.2751 46.0621 71.6375 37.2621 76.3125C31.3496 79.475 25.1621 80.5751 18.9746 79.75C13.8871 79.0625 10.0371 76.8625 7.56207 73.1501C3.98707 67.6501 3.57457 61.7375 6.59957 55.825C8.66207 51.5625 12.0996 48.4 14.1621 46.8875C13.7496 45.375 13.0621 42.9 12.6496 41.1125C-3.16293 52.8 -1.51293 68.75 3.43707 76.3125C7.14957 81.9501 14.5746 85.3875 22.9621 85.3875C25.1621 85.3875 27.4996 85.1125 29.6996 84.5625C43.9996 81.675 54.8621 73.2875 60.9121 60.6375Z" fill="#764ABC"/>
<path d="M80.7128 46.75C72.1878 36.85 59.6753 31.35 45.3753 31.35H43.5878C42.6253 29.2875 40.4253 28.05 38.0878 28.05H37.8128C34.3753 28.05 31.6253 30.9375 31.7628 34.375C31.9003 37.675 34.6503 40.425 38.0878 40.425H38.3628C40.8378 40.2875 42.9003 38.7751 43.8628 36.5751H45.9253C54.4503 36.5751 62.5628 39.05 69.7128 43.8625C75.3503 47.575 79.3377 52.3875 81.5378 58.1625C83.4627 62.8375 83.3252 67.5126 81.2627 71.3626C78.1002 77.2751 72.8753 80.575 65.8628 80.575C61.3253 80.575 57.0628 79.2001 54.8628 78.2375C53.6253 79.3375 51.4253 81.125 49.7753 82.2251C54.5878 84.4251 59.5378 85.6626 64.2128 85.6626C74.9378 85.6626 82.9128 79.7501 85.9378 73.8376C89.3753 67.3751 89.1003 56.2375 80.7128 46.75Z" fill="#764ABC"/>
<path d="M23.7879 62.425C23.9254 65.725 26.6754 68.475 30.1129 68.475H30.2504C33.6879 68.3375 36.4379 65.45 36.3004 62.0125C36.1629 58.7125 33.4129 55.9625 29.9754 55.9625H29.7004C29.4254 55.9625 29.1504 55.9625 28.8754 56.1C24.3379 48.5375 22.4129 40.15 23.1004 31.2125C23.5129 24.475 25.8504 18.7 29.7004 13.8875C33.0004 9.76245 39.1879 7.69995 43.4504 7.56245C55.5504 7.42495 60.5004 22.1374 60.9129 28.0499C62.4254 28.3249 64.9004 29.15 66.5504 29.7C65.1754 11.55 54.0379 2.19995 43.3129 2.19995C33.2754 2.19995 23.9254 9.48745 20.2129 20.2125C15.1254 34.5125 18.4254 48.2625 24.7504 59.125C24.0629 59.95 23.6504 61.1875 23.7879 62.425Z" fill="#764ABC"/>
</g>
<defs>
<clipPath id="clip0_897_2021">
<rect width="88" height="88" fill="white"/>
</clipPath>
</defs>
</svg>
