<svg width="86" height="88" viewBox="0 0 86 88" fill="none" xmlns="http://www.w3.org/2000/svg">
<path d="M81.4722 86.711H39.251C37.3524 86.711 35.8135 85.172 35.8135 83.2735V31.3856C35.8135 29.4871 37.3524 27.9481 39.251 27.9481H81.4722C83.3708 27.9481 84.9097 29.4871 84.9097 31.3856V83.2735C84.9097 85.172 83.3708 86.711 81.4722 86.711Z" fill="#1ED760"/>
<path d="M81.4722 27.9481H79.7812V78.1848C79.7812 80.0833 78.2422 81.6223 76.3437 81.6223H35.8135V83.2735C35.8135 85.172 37.3524 86.711 39.251 86.711H81.4722C83.3708 86.711 84.9097 85.172 84.9097 83.2735V31.3856C84.9097 29.4873 83.3708 27.9481 81.4722 27.9481Z" fill="#11B84D"/>
<path d="M60.3618 61.8036C67.1255 61.8036 72.6086 56.3205 72.6086 49.5568C72.6086 42.7931 67.1255 37.3101 60.3618 37.3101C53.5981 37.3101 48.115 42.7931 48.115 49.5568C48.115 56.3205 53.5981 61.8036 60.3618 61.8036Z" fill="white"/>
<path d="M63.0474 37.6091C65.763 39.8554 67.4935 43.2506 67.4935 47.0501C67.4935 53.8139 62.0105 59.2968 55.2467 59.2968C54.3431 59.2963 53.4424 59.196 52.5608 58.9978C54.6793 60.7502 57.3974 61.8036 60.3615 61.8036C67.1253 61.8036 72.6083 56.3206 72.6083 49.5568C72.6085 43.7162 68.5187 38.8339 63.0474 37.6091Z" fill="#F8F6F6"/>
<path d="M71.5544 77.8075H49.1686C46.9206 77.8075 45.0984 75.9852 45.0984 73.7373C45.0984 71.4893 46.9206 69.6671 49.1686 69.6671H71.5544C73.8024 69.6671 75.6246 71.4893 75.6246 73.7373C75.6246 75.9852 73.8024 77.8075 71.5544 77.8075Z" fill="#FFD15B"/>
<path d="M71.5544 69.6671H70.4928C70.4971 69.7436 70.4997 69.8206 70.4997 69.8983C70.4997 72.1462 68.6774 73.9685 66.4295 73.9685H45.1055C45.2253 76.1088 46.9983 77.8075 49.1688 77.8075H71.5546C73.8026 77.8075 75.6248 75.9852 75.6248 73.7373C75.6246 71.4895 73.8024 69.6671 71.5544 69.6671Z" fill="#FFC344"/>
<path d="M24.363 86.7109H4.52759C2.62906 86.7109 1.09009 85.1719 1.09009 83.2734V70.2355C1.09009 68.3369 2.62906 66.798 4.52759 66.798H24.363C26.2615 66.798 27.8005 68.3369 27.8005 70.2355V83.2734C27.8005 85.1719 26.2614 86.7109 24.363 86.7109Z" fill="#0586E3"/>
<path d="M24.363 66.798H21.8593V78.1785C21.8593 80.077 20.3203 81.616 18.4218 81.616H1.09009V83.2734C1.09009 85.1719 2.62906 86.7109 4.52759 86.7109H24.363C26.2615 86.7109 27.8005 85.1719 27.8005 83.2734V70.2355C27.8005 68.3369 26.2614 66.798 24.363 66.798Z" fill="#0867AC"/>
<path d="M24.363 57.913H4.52759C2.62906 57.913 1.09009 56.374 1.09009 54.4755V31.3856C1.09009 29.4871 2.62906 27.9481 4.52759 27.9481H24.363C26.2615 27.9481 27.8005 29.4871 27.8005 31.3856V54.4755C27.8005 56.374 26.2614 57.913 24.363 57.913Z" fill="#FF4444"/>
<path d="M24.363 27.9481H21.8593V49.3282C21.8593 51.2267 20.3203 52.7657 18.4218 52.7657H1.09009V54.4755C1.09009 56.374 2.62906 57.913 4.52759 57.913H24.363C26.2615 57.913 27.8005 56.374 27.8005 54.4755V31.3856C27.8005 29.4873 26.2614 27.9481 24.363 27.9481Z" fill="#E00505"/>
<path d="M20.1689 76.7544H8.72168M14.4243 36.0621H21.4408M14.4243 42.9306H21.4408M14.4243 49.7989H21.4408M7.44964 36.0621H8.18612M7.44964 42.9306H8.18612M7.44964 49.7989H8.18612M13.4957 1.28906V11.3883M1.09009 1.28906V8.23848C1.09009 9.42202 1.67721 10.2188 2.67443 10.856C3.16015 11.1664 3.77357 11.3874 4.53601 11.3884C5.19618 11.3893 5.74807 11.2365 6.20423 11.0067C7.36645 10.4215 8.10757 9.53253 8.10757 8.23127V1.28906M40.7606 1.28906L47.8652 11.3883M47.3652 1.28906L40.2506 11.3883M29.1492 1.28906V8.23848C29.1492 9.42202 29.7363 10.2188 30.7335 10.856C31.2193 11.1664 31.8327 11.3874 32.5951 11.3884C33.2553 11.3893 33.8072 11.2365 34.2633 11.0067C35.4256 10.4215 36.1667 9.53253 36.1667 8.23127V1.28906M23.6581 1.28906L19.3874 11.3883M1.09009 19.6524H84.9097M75.9233 1.32344H84.9097M84.9097 6.33858H75.9233M84.9097 11.3539H75.9233M8.10929 66.798H4.52759C2.62906 66.798 1.09009 68.337 1.09009 70.2355V83.2734C1.09009 85.172 2.62906 86.7109 4.52759 86.7109H24.363C26.2615 86.7109 27.8005 85.172 27.8005 83.2734V70.2355C27.8005 68.337 26.2615 66.798 24.363 66.798H14.1249M1.09009 43.005V54.4754C1.09009 56.374 2.62906 57.9129 4.52759 57.9129H24.363C26.2615 57.9129 27.8005 56.374 27.8005 54.4754V31.3856C27.8005 29.487 26.2615 27.9481 24.363 27.9481H4.52759C2.62906 27.9481 1.09009 29.487 1.09009 31.3856V36.9894M81.4722 86.7109H39.251C37.3525 86.7109 35.8135 85.172 35.8135 83.2734V31.3856C35.8135 29.487 37.3525 27.9481 39.251 27.9481H81.4722C83.3708 27.9481 84.9097 29.487 84.9097 31.3856V83.2734C84.9097 85.172 83.3708 86.7109 81.4722 86.7109Z" stroke="black" stroke-width="2" stroke-miterlimit="10" stroke-linecap="round" stroke-linejoin="round"/>
<path d="M48.4881 52.5647C49.8289 57.8739 54.6357 61.8036 60.3616 61.8036C67.1254 61.8036 72.6084 56.3206 72.6084 49.5568C72.6084 42.793 67.1254 37.3101 60.3616 37.3101C54.6359 37.3101 49.8291 41.2398 48.4881 46.549M71.5544 77.8074H49.1686C46.9206 77.8074 45.0984 75.9852 45.0984 73.7372C45.0984 71.4893 46.9206 69.6671 49.1686 69.6671H71.5544C73.8024 69.6671 75.6246 71.4893 75.6246 73.7372C75.6246 75.9852 73.8024 77.8074 71.5544 77.8074Z" stroke="black" stroke-width="2" stroke-miterlimit="10" stroke-linecap="round" stroke-linejoin="round"/>
</svg>
