<svg width="101" height="100" viewBox="0 0 101 100" fill="none" xmlns="http://www.w3.org/2000/svg">
<rect x="0.5" width="100" height="100" rx="50" fill="#EBF5E8"/>
<g clip-path="url(#clip0_742_4313)">
<path d="M66.9603 35.3955C67.794 35.3955 68.4685 34.721 68.4685 33.8873C68.4685 33.0537 67.794 32.3792 66.9603 32.3792C66.1267 32.3792 65.4521 33.0537 65.4521 33.8873C65.4521 34.721 66.1331 35.3955 66.9603 35.3955ZM66.9603 33.4546C67.2022 33.4546 67.3994 33.6519 67.3994 33.8937C67.3994 34.1355 67.2022 34.3328 66.9603 34.3328C66.7122 34.3328 66.5212 34.1419 66.5212 33.8937C66.5212 33.6455 66.7185 33.4546 66.9603 33.4546Z" fill="#719C63"/>
<path d="M68.634 29.9419H37.6303C36.4531 29.9419 35.4922 30.9028 35.4922 32.0801V35.3446H33.3667C32.1894 35.3446 31.2285 36.3055 31.2285 37.4828V64.2928C31.2285 65.4701 32.1894 66.431 33.3667 66.431H47.5767V69.5237C47.5767 69.8164 47.8185 70.0583 48.1112 70.0583H58.1531C58.4458 70.0583 58.6876 69.8164 58.6876 69.5237V66.431H64.3703C65.5476 66.431 66.5085 65.4701 66.5085 64.2928V61.0283H68.634C69.8112 61.0283 70.7722 60.0674 70.7722 58.8901V32.0801C70.7722 30.9028 69.8112 29.9419 68.634 29.9419ZM36.5612 32.0801C36.5612 31.4883 37.0449 31.011 37.6303 31.011H68.634C69.2258 31.011 69.7031 31.4946 69.7031 32.0801V36.7701H49.4158L47.0294 34.2946C46.8449 34.1037 46.5903 33.9955 46.3294 33.9955H41.0731C40.5385 33.9955 40.0994 34.4346 40.0994 34.9692V36.7701H36.5612V32.0801ZM33.3667 65.3683C32.7749 65.3683 32.2976 64.8846 32.2976 64.2992V37.4828C32.2976 36.891 32.7812 36.4137 33.3667 36.4137H35.4922V58.8964C35.4922 60.0737 36.4531 61.0346 37.6303 61.0346H49.2376C49.4476 61.4419 49.5431 61.9001 49.5049 62.371H48.6776C48.0667 62.371 47.5767 62.8674 47.5767 63.4719V65.3683H33.3667ZM52.604 54.1746C52.7122 53.9837 52.9094 53.8628 53.1322 53.8628C53.4631 53.8628 53.7303 54.1301 53.7303 54.461C53.7303 54.6774 53.6158 54.8746 53.4312 54.9828C53.2276 55.1037 52.9858 55.091 52.7376 54.951C52.7048 54.9341 52.6781 54.9074 52.6612 54.8746C52.4576 54.5501 52.5403 54.2955 52.604 54.1746ZM52.5976 52.8955C52.2055 53.0259 51.8763 53.2983 51.6749 53.6592C51.3694 54.2064 51.4076 54.8746 51.764 55.4474C51.8785 55.6255 52.0312 55.7719 52.2158 55.8801C52.5085 56.0455 52.8267 56.1346 53.1385 56.1346C53.4312 56.1346 53.7176 56.0583 53.9722 55.9119C54.4812 55.6128 54.7994 55.0592 54.7994 54.4674C54.7994 53.7355 54.3222 53.1183 53.6667 52.8955V50.1464L58.3949 58.6801C58.3885 58.6864 58.3822 58.6992 58.3631 58.7055C56.6894 59.1383 55.5949 60.7037 55.684 62.371H50.5867C50.6821 60.6974 49.5812 59.1319 47.8758 58.6546L52.5976 50.1464V52.8955ZM57.6185 68.9892H48.6458L48.6776 63.4337H57.5867C57.6058 63.4337 57.6185 63.4464 57.6185 63.4655V68.9892ZM65.4394 64.2928C65.4394 64.8846 64.9558 65.3619 64.3703 65.3619H58.6876V63.4655C58.6876 62.8546 58.1912 62.3646 57.5867 62.3646H56.7594C56.7212 61.8937 56.8231 61.4355 57.0267 61.0283H65.4394V64.2928ZM68.634 59.9655H58.064C58.2358 59.8701 58.4203 59.7874 58.624 59.7364C58.9612 59.6474 59.2349 59.4119 59.3749 59.0937C59.5085 58.7819 59.4894 58.4319 59.324 58.1328L53.8512 48.2755C53.7112 48.0146 53.4376 47.8492 53.1385 47.8492C52.8331 47.8555 52.5594 48.0083 52.4131 48.2692L46.934 58.1328C46.7685 58.4319 46.7558 58.7883 46.8894 59.1001C47.0231 59.4183 47.2967 59.6474 47.634 59.7364C47.8376 59.7874 48.0158 59.8701 48.194 59.9655H37.6303C37.0385 59.9655 36.5612 59.4819 36.5612 58.8964V37.8392H40.1885C40.7231 37.8392 41.1622 37.4001 41.1622 36.8655V35.0646H46.2849L48.6712 37.5401C48.8558 37.731 49.1103 37.8392 49.3712 37.8392H69.7031V58.8901C69.7031 59.4819 69.2258 59.9655 68.634 59.9655Z" fill="#719C63"/>
<path d="M63.3207 35.3955C64.1544 35.3955 64.8289 34.721 64.8289 33.8873C64.8289 33.0537 64.1544 32.3792 63.3207 32.3792C62.4871 32.3792 61.8126 33.0537 61.8126 33.8873C61.8126 34.721 62.4871 35.3955 63.3207 35.3955ZM63.3207 33.4546C63.5626 33.4546 63.7598 33.6519 63.7598 33.8937C63.7598 34.1355 63.5626 34.3328 63.3207 34.3328C63.0726 34.3328 62.8816 34.1419 62.8816 33.8937C62.8816 33.6455 63.0789 33.4546 63.3207 33.4546ZM59.6744 35.3955C60.508 35.3955 61.1826 34.721 61.1826 33.8873C61.1826 33.0537 60.508 32.3792 59.6744 32.3792C58.8407 32.3792 58.1662 33.0537 58.1662 33.8873C58.1662 34.721 58.8407 35.3955 59.6744 35.3955ZM59.6744 33.4546C59.9162 33.4546 60.1135 33.6519 60.1135 33.8937C60.1135 34.1355 59.9162 34.3328 59.6744 34.3328C59.4262 34.3328 59.2353 34.1419 59.2353 33.8937C59.2353 33.6455 59.4326 33.4546 59.6744 33.4546ZM63.4353 42.4973C63.1235 42.8091 62.9262 43.2037 62.8498 43.6237H55.3726V42.7837C55.3726 42.211 54.908 41.7464 54.3353 41.7464H51.9235C51.3507 41.7464 50.8862 42.211 50.8862 42.7837V43.6237H43.4153C43.3453 43.2101 43.148 42.8155 42.8298 42.491C42.0216 41.6955 40.6407 41.7082 39.8516 42.4973C39.4507 42.8982 39.2344 43.4264 39.2344 43.9864C39.2344 44.5528 39.4571 45.0873 39.8516 45.4755C40.2526 45.8891 40.7871 46.0992 41.3407 46.0992C41.6907 46.0992 42.0471 46.0164 42.3844 45.8446C42.7519 45.6564 43.0472 45.3522 43.2244 44.9792C43.2689 44.8837 43.3071 44.7882 43.3389 44.6928H48.5253C45.7062 46.0673 43.5807 48.651 42.8426 51.7691H42.0153C41.4426 51.7691 40.978 52.2337 40.978 52.8064V55.2182C40.978 55.791 41.4426 56.2555 42.0153 56.2555H44.4271C44.9998 56.2555 45.4644 55.791 45.4644 55.2182V52.8064C45.4644 52.2337 44.9998 51.7691 44.4271 51.7691H43.9435C44.8344 48.4091 47.5262 45.7746 50.9053 44.9601V45.1892C50.9053 45.7619 51.3698 46.2264 51.9426 46.2264H54.3544C54.9271 46.2264 55.3916 45.7619 55.3916 45.1892V44.9601C58.7644 45.7746 61.4562 48.4091 62.3535 51.7691H61.9144C61.3416 51.7691 60.8771 52.2337 60.8771 52.8064V55.2182C60.8771 55.791 61.3416 56.2555 61.9144 56.2555H64.3262C64.8989 56.2555 65.3635 55.791 65.3635 55.2182V52.8064C65.3635 52.2337 64.8989 51.7691 64.3262 51.7691H63.4544C62.7098 48.651 60.5844 46.061 57.7716 44.6928H62.9707C63.0726 44.9855 63.238 45.2528 63.4607 45.4755C63.8616 45.8891 64.3962 46.0992 64.9498 46.0992C65.2998 46.0992 65.6562 46.0164 65.9935 45.8446C66.361 45.6564 66.6563 45.3522 66.8335 44.9792C67.2471 44.1073 67.1007 43.1592 66.4453 42.491C65.6117 41.7019 64.2307 41.7082 63.4353 42.4973ZM42.2507 44.5273C42.1744 44.6801 42.0471 44.8137 41.8944 44.8901C41.3407 45.1701 40.8635 44.9919 40.6026 44.7182C40.4053 44.5273 40.2971 44.2664 40.2971 43.9864C40.2971 43.7128 40.4053 43.4519 40.6026 43.2482C40.7998 43.051 41.0607 42.9428 41.3407 42.9428C41.6144 42.9428 41.8816 43.051 42.0726 43.2419C42.4035 43.5855 42.4671 44.0628 42.2507 44.5273ZM44.4144 55.1864L42.0344 55.2182L42.0026 52.8382H44.3826L44.4144 55.1864ZM64.3071 55.1864L61.9271 55.2182L61.8953 52.8382H64.2753L64.3071 55.1864ZM51.9616 45.1955L51.9489 44.3937C51.9616 44.3364 51.9616 44.2792 51.9553 44.2155V44.2092C51.9553 44.1901 51.968 44.1773 51.968 44.1582C51.968 44.1264 51.9553 44.101 51.9489 44.0755L51.9298 42.8219H54.3098L54.3289 44.0755C54.3226 44.1073 54.3098 44.1328 54.3098 44.1646C54.3098 44.1837 54.3162 44.1964 54.3226 44.2155V44.2219C54.3098 44.3046 54.3162 44.381 54.3353 44.451L54.348 45.1701L51.9616 45.1955ZM65.8407 44.5273C65.7644 44.6801 65.6371 44.8137 65.4844 44.8901C64.9307 45.1701 64.4535 44.9919 64.1926 44.7182C63.9953 44.5273 63.8871 44.2664 63.8871 43.9864C63.8871 43.7128 63.9953 43.4519 64.1926 43.2482C64.3898 43.051 64.6507 42.9428 64.9307 42.9428C65.2044 42.9428 65.4716 43.051 65.6626 43.2419C65.9935 43.5855 66.0571 44.0628 65.8407 44.5273Z" fill="#719C63"/>
</g>
<defs>
<clipPath id="clip0_742_4313">
<rect width="42" height="42" fill="white" transform="translate(29.5 29)"/>
</clipPath>
</defs>
</svg>
