<svg width="101" height="100" viewBox="0 0 101 100" fill="none" xmlns="http://www.w3.org/2000/svg">
<rect x="0.5" width="100" height="100" rx="50" fill="#F5E8E8"/>
<g clip-path="url(#clip0_742_4326)">
<g clip-path="url(#clip1_742_4326)">
<path d="M61.8497 29H33.8496C31.9176 29.0023 30.3519 30.568 30.3496 32.5V54.9001C30.3494 56.4966 31.4295 57.8907 32.9753 58.2895L33.3253 56.9343C32.8743 56.818 32.4747 56.5551 32.1894 56.1868C31.9042 55.8186 31.7495 55.3659 31.7496 54.9001V32.5C31.7496 31.3402 32.6898 30.4 33.8496 30.4H61.8497C63.0096 30.4 63.9497 31.3402 63.9497 32.5V33.2H65.3498V32.5C65.3475 30.568 63.7817 29.0023 61.8497 29Z" fill="#9C6363"/>
<path d="M33.1494 31.8H34.5494V33.2001H33.1494V31.8ZM35.9494 31.8H37.3494V33.2001H35.9494V31.8ZM38.7494 31.8H40.1494V33.2001H38.7494V31.8ZM71.4445 67.7053L64.8049 61.0658C65.1537 60.4432 65.4326 59.784 65.6365 59.1002H66.7496V57.7002H65.9375C66.2012 56.0057 65.9979 54.2715 65.3495 52.6839V45.8001H63.9495V50.2577C63.5338 49.7267 63.0647 49.2397 62.5495 48.8045V43.0001H61.1495V47.8259C60.7014 47.5662 60.2332 47.3427 59.7495 47.1574V40.2001H58.3495V46.7325C57.8883 46.633 57.4203 46.5672 56.9495 46.5358V41.6001H55.5495V46.5358C55.0787 46.5672 54.6108 46.633 54.1495 46.7325V44.4001H52.7495V47.1574C52.2658 47.3427 51.7976 47.5662 51.3495 47.8259V43.7001H49.9495V48.8045C49.4343 49.2397 48.9652 49.7267 48.5495 50.2577V45.1001H47.1495V52.6839C46.5011 54.2715 46.2978 56.0057 46.5615 57.7002H37.3494V59.1002H46.8625C48.3978 64.2786 53.8403 67.2319 59.0186 65.6966C60.0391 65.3941 61.0033 64.927 61.8733 64.3138L68.3547 70.7951C68.4859 70.9263 68.6639 71.0001 68.8496 71.0001C69.0352 71.0001 69.2132 70.9263 69.3445 70.7951L71.4445 68.6951C71.5757 68.5638 71.6494 68.3858 71.6494 68.2002C71.6494 68.0146 71.5757 67.8366 71.4445 67.7053ZM56.2495 64.7002C51.6123 64.6952 47.8545 60.9373 47.8495 56.3002C47.8495 51.661 51.6103 47.9001 56.2495 47.9001C60.8887 47.9001 64.6495 51.661 64.6495 56.3002C64.6495 60.9393 60.8887 64.7002 56.2495 64.7002ZM68.8496 69.3104L62.9611 63.422C63.3426 63.0615 63.6949 62.6713 64.0146 62.2551L69.9598 68.2002L68.8496 69.3104Z" fill="#9C6363"/>
<path d="M56.25 49.3C52.384 49.3 49.25 52.434 49.25 56.3001C49.25 60.1661 52.384 63.3001 56.25 63.3001C60.1161 63.3001 63.2501 60.1661 63.2501 56.3001C63.2459 52.4358 60.1143 49.3042 56.25 49.3ZM56.25 61.9001C55.2682 61.8988 54.304 61.6395 53.4541 61.1481C52.6041 60.6566 51.8983 59.9504 51.4074 59.1001H61.0926C60.6018 59.9504 59.8959 60.6566 59.046 61.1481C58.196 61.6395 57.2318 61.8988 56.25 61.9001ZM50.8341 57.7001C50.2709 55.5686 51.0229 53.3058 52.75 51.9356V56.3001H54.15V51.1124C54.5989 50.9307 55.0695 50.8084 55.55 50.7484V56.3001H56.95V50.7484C57.4305 50.8084 57.9012 50.9307 58.35 51.1124V56.3001H59.75V51.9356C61.4771 53.3058 62.2292 55.5686 61.666 57.7001H50.8341Z" fill="#9C6363"/>
<path d="M66.0499 34.6001H38.0498C36.1178 34.6024 34.5521 36.1681 34.5498 38.1001V60.5002C34.5521 62.4322 36.1178 63.9979 38.0498 64.0002H47.1499V62.6002H38.0498C36.89 62.6002 35.9498 61.66 35.9498 60.5002V38.1001C35.9498 36.9403 36.89 36.0001 38.0498 36.0001H66.0499C67.2098 36.0001 68.1499 36.9403 68.1499 38.1001V60.5002C68.1499 61.0116 67.9632 61.5054 67.6249 61.889L68.6749 62.8151C69.2391 62.176 69.5503 61.3527 69.5499 60.5002V38.1001C69.5477 36.1681 67.9819 34.6024 66.0499 34.6001Z" fill="#9C6363"/>
<path d="M37.3496 37.4001H38.7496V38.8002H37.3496V37.4001ZM40.1496 37.4001H41.5496V38.8002H40.1496V37.4001ZM42.9496 37.4001H44.3496V38.8002H42.9496V37.4001ZM38.7496 52.1002H40.1496V56.3002H38.7496V52.1002ZM41.5496 47.9002H42.9496V56.3002H41.5496V47.9002ZM44.3496 50.0002H45.7496V56.3002H44.3496V50.0002Z" fill="#9C6363"/>
</g>
</g>
<defs>
<clipPath id="clip0_742_4326">
<rect width="42" height="42" fill="white" transform="translate(29.5 29)"/>
</clipPath>
<clipPath id="clip1_742_4326">
<rect width="42" height="42" fill="white" transform="translate(30 29)"/>
</clipPath>
</defs>
</svg>
