<svg width="201" height="200" viewBox="0 0 201 200" fill="none" xmlns="http://www.w3.org/2000/svg">
<rect x="0.5" width="200" height="200" rx="100" fill="#EAF3FC"/>
<path d="M89.9182 90.9595H82.6262V83.6675C82.6262 83.3912 82.5164 83.1262 82.3211 82.9308C82.1257 82.7355 81.8607 82.6257 81.5845 82.6257C79.7302 82.6257 77.9175 83.1756 76.3757 84.2058C74.8339 85.236 73.6323 86.7002 72.9227 88.4134C72.213 90.1265 72.0274 92.0116 72.3891 93.8303C72.7509 95.6489 73.6438 97.3195 74.955 98.6307C76.2662 99.9418 77.9367 100.835 79.7554 101.197C81.5741 101.558 83.4592 101.373 85.1723 100.663C86.8854 99.9534 88.3497 98.7517 89.3799 97.2099C90.4101 95.6681 90.9599 93.8555 90.9599 92.0012C90.9599 91.7249 90.8502 91.46 90.6548 91.2646C90.4595 91.0692 90.1945 90.9595 89.9182 90.9595ZM80.5427 84.7831V91.5699L75.7508 96.3618C74.9902 95.3508 74.5064 94.159 74.347 92.9039C74.1876 91.6488 74.3583 90.3738 74.8421 89.2048C75.3259 88.0358 76.1061 87.0131 77.1058 86.2377C78.1055 85.4623 79.2901 84.961 80.5427 84.7831ZM81.5845 99.2932C80.0118 99.2932 78.4819 98.7812 77.2259 97.8348L82.0178 93.0429H88.8046C88.5518 94.7779 87.6832 96.3641 86.3576 97.5116C85.032 98.6592 83.3378 99.2915 81.5845 99.2932Z" fill="#367FC9"/>
<path d="M85.7517 88.8762H94.0854C94.3617 88.8762 94.6267 88.7664 94.822 88.5711C95.0174 88.3757 95.1271 88.1107 95.1271 87.8345C95.1241 85.3489 94.1354 82.9659 92.3778 81.2083C90.6202 79.4508 88.2373 78.462 85.7517 78.459C85.4754 78.459 85.2104 78.5687 85.0151 78.7641C84.8197 78.9595 84.71 79.2244 84.71 79.5007V87.8345C84.71 88.1107 84.8197 88.3757 85.0151 88.5711C85.2104 88.7664 85.4754 88.8762 85.7517 88.8762ZM86.7934 80.6164C88.3505 80.844 89.7926 81.568 90.9054 82.6808C92.0181 83.7935 92.7421 85.2356 92.9697 86.7927H86.7934V80.6164ZM107.628 94.0848C104.949 94.0848 102.331 94.879 100.104 96.3671C97.877 97.8551 96.1413 99.9701 95.1163 102.445C94.0913 104.919 93.8231 107.642 94.3456 110.269C94.8682 112.896 96.158 115.309 98.0519 117.203C99.9458 119.097 102.359 120.387 104.986 120.909C107.613 121.432 110.336 121.164 112.81 120.139C115.285 119.114 117.4 117.378 118.888 115.151C120.376 112.924 121.17 110.306 121.17 107.627C121.166 104.037 119.738 100.595 117.199 98.0558C114.66 95.517 111.218 94.0889 107.628 94.0848ZM102.419 103.46V97.4328C103.085 97.0917 103.783 96.8168 104.503 96.612V103.46H102.419ZM114.92 105.544V107.627H100.336V105.544H114.92ZM110.753 103.46V96.612C111.473 96.8168 112.17 97.0917 112.836 97.4328V103.46H110.753ZM108.669 96.2213V103.46H106.586V96.2213C106.93 96.1901 107.276 96.1682 107.628 96.1682C107.98 96.1682 108.326 96.1901 108.669 96.2213ZM100.336 98.7944V103.46H99.294C99.0177 103.46 98.7528 103.57 98.5574 103.765C98.3621 103.961 98.2523 104.226 98.2523 104.502V108.669C98.2523 108.945 98.3621 109.21 98.5574 109.405C98.7528 109.601 99.0177 109.711 99.294 109.711H115.962C116.238 109.711 116.503 109.601 116.698 109.405C116.893 109.21 117.003 108.945 117.003 108.669V104.502C117.003 104.226 116.893 103.961 116.698 103.765C116.503 103.57 116.238 103.46 115.962 103.46H114.92V98.7944C116.785 100.326 118.116 102.409 118.722 104.745C119.327 107.081 119.177 109.549 118.291 111.794H96.9647C96.079 109.549 95.9282 107.081 96.5339 104.745C97.1397 102.409 98.4708 100.326 100.336 98.7944ZM107.628 119.086C105.722 119.084 103.847 118.607 102.172 117.697C100.497 116.788 99.0752 115.475 98.0356 113.877H117.22C116.18 115.475 114.759 116.788 113.084 117.697C111.409 118.607 109.534 119.084 107.628 119.086Z" fill="#367FC9"/>
<path d="M131.244 124.562L126.738 120.056C126.946 119.663 127.023 119.215 126.959 118.775C126.894 118.336 126.691 117.929 126.378 117.613L123.727 114.962C125.004 112.186 125.536 109.126 125.27 106.082C125.004 103.038 123.95 100.116 122.211 97.6036V71.1669C122.211 70.3381 121.882 69.5432 121.296 68.9571C120.71 68.371 119.915 68.0417 119.086 68.0417H71.1671C70.3383 68.0417 69.5434 68.371 68.9573 68.9571C68.3712 69.5432 68.042 70.3381 68.042 71.1669V110.752C68.042 111.581 68.3712 112.376 68.9573 112.962C69.5434 113.548 70.3383 113.877 71.1671 113.877H91.0786C91.928 116.148 93.2364 118.219 94.9219 119.961C96.6074 121.703 98.634 123.08 100.875 124.004C103.116 124.928 105.524 125.381 107.947 125.333C110.371 125.285 112.759 124.738 114.962 123.727L117.613 126.378C117.926 126.695 118.334 126.901 118.775 126.966C119.215 127.03 119.665 126.95 120.056 126.737L124.563 131.244C125.449 132.13 126.65 132.628 127.903 132.628C129.156 132.628 130.358 132.13 131.244 131.244C132.13 130.358 132.628 129.156 132.628 127.903C132.628 126.65 132.13 125.448 131.244 124.562ZM71.1671 70.1252H119.086C119.362 70.1252 119.627 70.2349 119.823 70.4303C120.018 70.6257 120.128 70.8906 120.128 71.1669V74.2921H70.1254V71.1669C70.1254 70.8906 70.2352 70.6257 70.4305 70.4303C70.6259 70.2349 70.8909 70.1252 71.1671 70.1252ZM71.1671 111.794C70.8909 111.794 70.6259 111.684 70.4305 111.489C70.2352 111.293 70.1254 111.028 70.1254 110.752V76.3755H120.128V95.0962C118.62 93.5981 116.856 92.3826 114.919 91.5075V79.5007C114.919 79.2244 114.81 78.9594 114.614 78.764C114.419 78.5687 114.154 78.4589 113.878 78.4589H109.711C109.434 78.4589 109.169 78.5687 108.974 78.764C108.779 78.9594 108.669 79.2244 108.669 79.5007V89.971C108.322 89.9501 107.979 89.9178 107.627 89.9178C107.275 89.9178 106.932 89.9501 106.586 89.971V85.751C106.586 85.4747 106.476 85.2097 106.28 85.0144C106.085 84.819 105.82 84.7092 105.544 84.7092H101.377C101.101 84.7092 100.836 84.819 100.64 85.0144C100.445 85.2097 100.335 85.4747 100.335 85.751V91.5075C96.5679 93.1907 93.5123 96.145 91.7031 99.8536C89.894 103.562 89.4465 107.789 90.4389 111.794H71.1671ZM112.836 90.7023C112.152 90.496 111.456 90.3318 110.752 90.2106V80.5424H112.836V90.7023ZM104.502 90.2106C103.798 90.3318 103.103 90.496 102.419 90.7023V86.7927H104.502V90.2106ZM92.0015 107.627C92.0015 104.537 92.918 101.515 94.6349 98.9458C96.3519 96.3762 98.7923 94.3734 101.648 93.1907C104.503 92.008 107.645 91.6986 110.676 92.3015C113.707 92.9044 116.491 94.3927 118.676 96.578C120.862 98.7633 122.35 101.548 122.953 104.579C123.556 107.61 123.246 110.752 122.064 113.607C120.881 116.462 118.878 118.902 116.309 120.619C113.739 122.336 110.718 123.253 107.627 123.253C103.485 123.248 99.5128 121.6 96.5834 118.671C93.654 115.742 92.0062 111.77 92.0015 107.627ZM116.88 122.699C119.247 121.24 121.24 119.247 122.699 116.88L124.905 119.086L119.086 124.905L116.88 122.699ZM127.903 130.545C127.556 130.546 127.213 130.478 126.892 130.345C126.571 130.212 126.28 130.017 126.036 129.771L121.601 125.336L125.337 121.601L129.771 126.035C130.14 126.405 130.392 126.875 130.494 127.388C130.596 127.9 130.543 128.431 130.344 128.914C130.144 129.397 129.805 129.809 129.371 130.099C128.936 130.39 128.426 130.545 127.903 130.545Z" fill="#367FC9"/>
<path d="M85.7513 103.46H73.2507C72.9744 103.46 72.7095 103.57 72.5141 103.765C72.3187 103.961 72.209 104.226 72.209 104.502V108.669C72.209 108.945 72.3187 109.21 72.5141 109.405C72.7095 109.601 72.9744 109.711 73.2507 109.711H85.7513C86.0276 109.711 86.2926 109.601 86.4879 109.405C86.6833 109.21 86.793 108.945 86.793 108.669V104.502C86.793 104.226 86.6833 103.961 86.4879 103.765C86.2926 103.57 86.0276 103.46 85.7513 103.46ZM84.7096 107.627H74.2924V105.544H84.7096V107.627Z" fill="#367FC9"/>
</svg>
