<svg width="101" height="100" viewBox="0 0 101 100" fill="none" xmlns="http://www.w3.org/2000/svg">
<rect x="0.5" width="100" height="100" rx="50" fill="#FEE9D4"/>
<g clip-path="url(#clip0_742_4291)">
<path d="M70.9987 31.1877C70.9987 29.9816 70.0407 29.0002 68.8634 29.0002H32.1354C30.958 29.0002 30 29.9816 30 31.1877V68.8122C30 70.0183 30.958 70.9997 32.1354 70.9997H68.8641C70.0415 70.9997 70.9994 70.0183 70.9994 68.8122C70.9995 68.4034 70.9988 36.0062 70.9987 31.1877ZM30.8542 31.1877C30.8542 30.4639 31.4289 29.8752 32.1354 29.8752H68.8633C69.5698 29.8752 70.1445 30.4639 70.1445 31.1877V36.3894H30.8542V31.1877ZM68.8642 70.1248H32.1354C31.4288 70.1248 30.8541 69.5361 30.8541 68.8123V37.2644H70.1453V68.8123C70.1454 69.5361 69.5707 70.1248 68.8642 70.1248Z" fill="#C27428"/>
<path d="M66.7288 39.4518H34.2709C33.5644 39.4518 32.9896 40.0406 32.9896 40.7643V48.8494C32.9896 49.5732 33.5644 50.1619 34.2709 50.1619H66.7289C67.4354 50.1619 68.0101 49.5732 68.0101 48.8494V40.7643C68.01 40.0406 67.4353 39.4518 66.7288 39.4518ZM67.1559 48.8494C67.1558 48.9654 67.1108 49.0766 67.0308 49.1587C66.9507 49.2407 66.8421 49.2868 66.7289 49.2869H34.2709C34.1577 49.2868 34.0491 49.2407 33.969 49.1587C33.8889 49.0766 33.8439 48.9654 33.8438 48.8494V40.7643C33.8439 40.6483 33.8889 40.5371 33.969 40.4551C34.0491 40.3731 34.1577 40.327 34.2709 40.3269H66.7289C66.8421 40.327 66.9507 40.3731 67.0308 40.4551C67.1108 40.5371 67.1558 40.6483 67.1559 40.7643V48.8494ZM48.0079 31.656H34.0039C33.209 31.656 32.5625 32.3182 32.5625 33.1326C32.5625 33.9469 33.209 34.6091 34.0039 34.6091H48.0078C48.8027 34.6091 49.4492 33.9469 49.4492 33.1326C49.4492 32.3182 48.8028 31.656 48.0079 31.656ZM48.0079 33.7341H34.0039C33.6802 33.7341 33.4167 33.4641 33.4167 33.1326C33.4167 32.8011 33.6803 32.531 34.0039 32.531H48.0078C48.3315 32.531 48.595 32.8011 48.595 33.1326C48.595 33.4641 48.3315 33.7341 48.0079 33.7341ZM66.9649 31.6252C66.1537 31.6252 65.4938 32.3016 65.4938 33.1326C65.4938 33.9635 66.1537 34.6395 66.9649 34.6395C67.7761 34.6395 68.4363 33.9636 68.4363 33.1326C68.4363 32.3015 67.7761 31.6252 66.9649 31.6252ZM66.9649 33.7644C66.6245 33.7644 66.348 33.4811 66.348 33.1325C66.348 32.7839 66.6245 32.5002 66.9649 32.5002C67.3052 32.5002 67.5821 32.7839 67.5821 33.1325C67.5821 33.4811 67.3052 33.7644 66.9649 33.7644ZM62.7692 31.6252C61.958 31.6252 61.2977 32.3016 61.2977 33.1326C61.2977 33.9635 61.958 34.6395 62.7692 34.6395C63.5804 34.6395 64.2402 33.9636 64.2402 33.1326C64.2402 32.3015 63.5804 31.6252 62.7692 31.6252ZM62.7692 33.7644C62.4288 33.7644 62.1519 33.4811 62.1519 33.1325C62.1519 32.7839 62.4288 32.5002 62.7692 32.5002C63.1095 32.5002 63.386 32.7839 63.386 33.1325C63.386 33.4811 63.1095 33.7644 62.7692 33.7644ZM58.5731 31.6252C57.7619 31.6252 57.1016 32.3016 57.1016 33.1326C57.1016 33.9635 57.7619 34.6395 58.5731 34.6395C59.3843 34.6395 60.0441 33.9636 60.0441 33.1326C60.0441 32.3015 59.3843 31.6252 58.5731 31.6252ZM58.5731 33.7644C58.2327 33.7644 57.9558 33.4811 57.9558 33.1325C57.9558 32.7839 58.2327 32.5002 58.5731 32.5002C58.9134 32.5002 59.1899 32.7839 59.1899 33.1325C59.1899 33.4811 58.9133 33.7644 58.5731 33.7644ZM42.8124 62.7792H33.4167C33.1806 62.7792 32.9896 62.9749 32.9896 63.2167C32.9896 63.4585 33.1806 63.6542 33.4167 63.6542H42.8124C43.0485 63.6542 43.2395 63.4585 43.2395 63.2167C43.2395 62.9749 43.0485 62.7792 42.8124 62.7792ZM42.8124 67.0623H33.4167C33.1806 67.0623 32.9896 67.258 32.9896 67.4998C32.9896 67.7416 33.1806 67.9373 33.4167 67.9373H42.8124C43.0485 67.9373 43.2395 67.7416 43.2395 67.4998C43.2395 67.258 43.0485 67.0623 42.8124 67.0623ZM42.8124 64.921H33.4167C33.1806 64.921 32.9896 65.1166 32.9896 65.3585C32.9896 65.6003 33.1806 65.7959 33.4167 65.7959H42.8124C43.0485 65.7959 43.2395 65.6003 43.2395 65.3585C43.2395 65.1166 43.0485 64.921 42.8124 64.921ZM55.1977 62.7792H45.802C45.5659 62.7792 45.3749 62.9749 45.3749 63.2167C45.3749 63.4585 45.5659 63.6542 45.802 63.6542H55.1977C55.4338 63.6542 55.6248 63.4585 55.6248 63.2167C55.6248 62.9749 55.4338 62.7792 55.1977 62.7792ZM55.1977 67.0623H45.802C45.5659 67.0623 45.3749 67.258 45.3749 67.4998C45.3749 67.7416 45.5659 67.9373 45.802 67.9373H55.1977C55.4338 67.9373 55.6248 67.7416 55.6248 67.4998C55.6248 67.258 55.4338 67.0623 55.1977 67.0623ZM55.1977 64.921H45.802C45.5659 64.921 45.3749 65.1166 45.3749 65.3585C45.3749 65.6003 45.5659 65.7959 45.802 65.7959H55.1977C55.4338 65.7959 55.6248 65.6003 55.6248 65.3585C55.6248 65.1166 55.4338 64.921 55.1977 64.921ZM67.583 62.7792H58.1873C57.9512 62.7792 57.7602 62.9749 57.7602 63.2167C57.7602 63.4585 57.9512 63.6542 58.1873 63.6542H67.583C67.8191 63.6542 68.01 63.4585 68.01 63.2167C68.01 62.9749 67.8191 62.7792 67.583 62.7792ZM67.583 67.0623H58.1873C57.9512 67.0623 57.7602 67.258 57.7602 67.4998C57.7602 67.7416 57.9512 67.9373 58.1873 67.9373H67.583C67.8191 67.9373 68.01 67.7416 68.01 67.4998C68.01 67.258 67.8191 67.0623 67.583 67.0623ZM67.583 64.921H58.1873C57.9512 64.921 57.7602 65.1166 57.7602 65.3585C57.7602 65.6003 57.9512 65.7959 58.1873 65.7959H67.583C67.8191 65.7959 68.01 65.6003 68.01 65.3585C68.01 65.1166 67.8191 64.921 67.583 64.921ZM54.3435 52.3494H46.6561C45.9496 52.3494 45.3748 52.9381 45.3748 53.6619V59.2797C45.3748 60.0035 45.9496 60.5922 46.6561 60.5922H54.3435C55.05 60.5922 55.6248 60.0035 55.6248 59.2797V53.6619C55.6248 52.9381 55.05 52.3494 54.3435 52.3494ZM54.7706 59.2797C54.7706 59.3957 54.7255 59.5069 54.6455 59.5889C54.5654 59.671 54.4568 59.7171 54.3436 59.7172H46.6562C46.5429 59.7171 46.4344 59.671 46.3543 59.5889C46.2742 59.5069 46.2292 59.3957 46.2291 59.2797V53.6619C46.2292 53.5459 46.2742 53.4347 46.3543 53.3526C46.4344 53.2706 46.5429 53.2245 46.6562 53.2244H54.3436C54.4568 53.2245 54.5654 53.2706 54.6455 53.3526C54.7255 53.4347 54.7706 53.5459 54.7706 53.6619V59.2797ZM41.9583 52.3494H34.2709C33.5644 52.3494 32.9896 52.9381 32.9896 53.6619V59.2797C32.9896 60.0035 33.5644 60.5922 34.2709 60.5922H41.9583C42.6648 60.5922 43.2396 60.0035 43.2396 59.2797V53.6619C43.2395 52.9381 42.6648 52.3494 41.9583 52.3494ZM42.3854 59.2797C42.3853 59.3957 42.3403 59.5069 42.2602 59.5889C42.1801 59.671 42.0715 59.7171 41.9583 59.7172H34.2709C34.1577 59.7171 34.0491 59.671 33.969 59.5889C33.8889 59.5069 33.8439 59.3957 33.8438 59.2797V53.6619C33.8439 53.5459 33.8889 53.4347 33.969 53.3526C34.0491 53.2706 34.1577 53.2245 34.2709 53.2244H41.9583C42.0715 53.2245 42.1801 53.2706 42.2602 53.3526C42.3403 53.4347 42.3853 53.5459 42.3854 53.6619V59.2797ZM66.7288 52.3494H59.0414C58.3348 52.3494 57.7601 52.9381 57.7601 53.6619V59.2797C57.7601 60.0035 58.3348 60.5922 59.0414 60.5922H66.7288C67.4353 60.5922 68.01 60.0035 68.01 59.2797V53.6619C68.01 52.9381 67.4353 52.3494 66.7288 52.3494ZM67.1559 59.2797C67.1558 59.3957 67.1108 59.5069 67.0308 59.5889C66.9507 59.671 66.8421 59.7171 66.7289 59.7172H59.0415C58.9282 59.7171 58.8196 59.671 58.7396 59.5889C58.6595 59.5069 58.6145 59.3957 58.6144 59.2797V53.6619C58.6145 53.5459 58.6595 53.4347 58.7396 53.3526C58.8196 53.2706 58.9282 53.2245 59.0415 53.2244H66.7289C66.8421 53.2245 66.9507 53.2706 67.0308 53.3526C67.1108 53.4347 67.1558 53.5459 67.1559 53.6619V59.2797Z" fill="#C27428"/>
</g>
<defs>
<clipPath id="clip0_742_4291">
<rect width="41" height="42" fill="white" transform="translate(30 29)"/>
</clipPath>
</defs>
</svg>
