<svg width="88" height="88" viewBox="0 0 88 88" fill="none" xmlns="http://www.w3.org/2000/svg">
<path d="M6.52906 33.9285C4.89563 34.7922 4 35.7274 4 36.7041V51.296C4 55.6688 21.9089 59.2144 44 59.2144C66.0911 59.2144 84 55.6689 84 51.296V36.7041C84 35.7274 83.1044 34.7924 81.4709 33.9285C75.7898 36.9325 61.1577 39.0711 44 39.0711C26.8423 39.0711 12.2102 36.9325 6.52906 33.9285Z" fill="#4DB6AC"/>
<path d="M6.52906 58.7141C4.89563 59.578 4 60.5131 4 61.4897V76.0817C4 80.4545 21.9089 84 44 84C66.0911 84 84 80.4545 84 76.0816V61.4895C84 60.513 83.1044 59.578 81.4709 58.7139C75.7898 61.718 61.1577 63.8569 44 63.8569C26.8423 63.8569 12.2102 61.718 6.52906 58.7141ZM44 4C21.9089 4 4 7.54516 4 11.9186V26.5103C4 30.8834 21.9089 34.4288 44 34.4288C66.0911 34.4288 84 30.8836 84 26.5103V11.9186C84 7.54516 66.0911 4 44 4Z" fill="#4DB6AC"/>
</svg>
