<svg width="337" height="338" viewBox="0 0 337 338" fill="none" xmlns="http://www.w3.org/2000/svg">
<rect y="0.681641" width="337" height="337" rx="168.5" fill="#1A1C30"/>
<path d="M105.252 157.878C107.684 157.878 109.785 158.336 111.556 159.254C113.348 160.15 114.713 161.44 115.652 163.126C116.612 164.811 117.092 166.795 117.092 169.078C117.092 171.36 116.612 173.344 115.652 175.03C114.713 176.694 113.348 177.974 111.556 178.87C109.785 179.744 107.684 180.182 105.252 180.182H98.3078V157.878H105.252ZM105.252 177.782C108.132 177.782 110.329 177.024 111.844 175.51C113.358 173.974 114.116 171.83 114.116 169.078C114.116 166.304 113.348 164.139 111.812 162.582C110.297 161.024 108.11 160.246 105.252 160.246H101.22V177.782H105.252ZM119.845 171.35C119.845 169.558 120.207 167.99 120.933 166.646C121.658 165.28 122.65 164.224 123.909 163.478C125.189 162.731 126.607 162.358 128.165 162.358C129.701 162.358 131.034 162.688 132.165 163.35C133.295 164.011 134.138 164.843 134.693 165.846V162.646H137.637V180.182H134.693V176.918C134.117 177.942 133.253 178.795 132.101 179.478C130.97 180.139 129.647 180.47 128.133 180.47C126.575 180.47 125.167 180.086 123.909 179.318C122.65 178.55 121.658 177.472 120.933 176.086C120.207 174.699 119.845 173.12 119.845 171.35ZM134.693 171.382C134.693 170.059 134.426 168.907 133.893 167.926C133.359 166.944 132.634 166.198 131.717 165.686C130.821 165.152 129.829 164.886 128.741 164.886C127.653 164.886 126.661 165.142 125.765 165.654C124.869 166.166 124.154 166.912 123.621 167.894C123.087 168.875 122.821 170.027 122.821 171.35C122.821 172.694 123.087 173.867 123.621 174.87C124.154 175.851 124.869 176.608 125.765 177.142C126.661 177.654 127.653 177.91 128.741 177.91C129.829 177.91 130.821 177.654 131.717 177.142C132.634 176.608 133.359 175.851 133.893 174.87C134.426 173.867 134.693 172.704 134.693 171.382ZM145.47 165.494C145.982 164.491 146.707 163.712 147.646 163.158C148.606 162.603 149.768 162.326 151.134 162.326V165.334H150.366C147.102 165.334 145.47 167.104 145.47 170.646V180.182H142.558V162.646H145.47V165.494ZM164.287 180.182L157.407 172.438V180.182H154.495V156.502H157.407V170.422L164.159 162.646H168.223L159.967 171.382L168.255 180.182H164.287ZM193.223 157.878V160.246H187.143V180.182H184.231V160.246H178.119V157.878H193.223ZM212.808 170.742C212.808 171.296 212.776 171.883 212.712 172.502H198.696C198.802 174.23 199.389 175.584 200.456 176.566C201.544 177.526 202.856 178.006 204.392 178.006C205.65 178.006 206.696 177.718 207.528 177.142C208.381 176.544 208.978 175.755 209.32 174.774H212.456C211.986 176.459 211.048 177.835 209.64 178.902C208.232 179.947 206.482 180.47 204.392 180.47C202.728 180.47 201.234 180.096 199.912 179.35C198.61 178.603 197.586 177.547 196.84 176.182C196.093 174.795 195.72 173.195 195.72 171.382C195.72 169.568 196.082 167.979 196.808 166.614C197.533 165.248 198.546 164.203 199.848 163.478C201.17 162.731 202.685 162.358 204.392 162.358C206.056 162.358 207.528 162.72 208.808 163.446C210.088 164.171 211.069 165.174 211.752 166.454C212.456 167.712 212.808 169.142 212.808 170.742ZM209.8 170.134C209.8 169.024 209.554 168.075 209.064 167.286C208.573 166.475 207.901 165.867 207.048 165.462C206.216 165.035 205.288 164.822 204.264 164.822C202.792 164.822 201.533 165.291 200.488 166.23C199.464 167.168 198.877 168.47 198.728 170.134H209.8ZM225.804 180.182L221.644 173.654L217.644 180.182H214.604L220.268 171.478L214.604 162.646H217.9L222.06 169.142L226.028 162.646H229.068L223.436 171.318L229.1 180.182H225.804ZM235.516 165.046V175.382C235.516 176.235 235.697 176.843 236.06 177.206C236.423 177.547 237.052 177.718 237.948 177.718H240.092V180.182H237.468C235.847 180.182 234.631 179.808 233.82 179.062C233.009 178.315 232.604 177.088 232.604 175.382V165.046H230.332V162.646H232.604V158.23H235.516V162.646H240.092V165.046H235.516Z" fill="white"/>
</svg>
