<svg width="497" height="498" viewBox="0 0 497 498" fill="none" xmlns="http://www.w3.org/2000/svg">
<circle cx="248.5" cy="249.182" r="248.5" fill="#AA9A48"/>
<path d="M85.2 243.2C84.4267 241.573 83.3067 240.32 81.84 239.44C80.3733 238.533 78.6667 238.08 76.72 238.08C74.7733 238.08 73.0133 238.533 71.44 239.44C69.8933 240.32 68.6667 241.6 67.76 243.28C66.88 244.933 66.44 246.853 66.44 249.04C66.44 251.227 66.88 253.147 67.76 254.8C68.6667 256.453 69.8933 257.733 71.44 258.64C73.0133 259.52 74.7733 259.96 76.72 259.96C79.44 259.96 81.68 259.147 83.44 257.52C85.2 255.893 86.2267 253.693 86.52 250.92H75.4V247.96H90.4V250.76C90.1867 253.053 89.4667 255.16 88.24 257.08C87.0133 258.973 85.4 260.48 83.4 261.6C81.4 262.693 79.1733 263.24 76.72 263.24C74.1333 263.24 71.7733 262.64 69.64 261.44C67.5067 260.213 65.8133 258.52 64.56 256.36C63.3333 254.2 62.72 251.76 62.72 249.04C62.72 246.32 63.3333 243.88 64.56 241.72C65.8133 239.533 67.5067 237.84 69.64 236.64C71.7733 235.413 74.1333 234.8 76.72 234.8C79.68 234.8 82.2933 235.533 84.56 237C86.8533 238.467 88.52 240.533 89.56 243.2H85.2ZM104.773 263.36C102.719 263.36 100.853 262.893 99.1728 261.96C97.5195 261.027 96.2128 259.707 95.2528 258C94.3195 256.267 93.8528 254.267 93.8528 252C93.8528 249.76 94.3328 247.787 95.2928 246.08C96.2795 244.347 97.6128 243.027 99.2928 242.12C100.973 241.187 102.853 240.72 104.933 240.72C107.013 240.72 108.893 241.187 110.573 242.12C112.253 243.027 113.573 244.333 114.533 246.04C115.519 247.747 116.013 249.733 116.013 252C116.013 254.267 115.506 256.267 114.493 258C113.506 259.707 112.159 261.027 110.453 261.96C108.746 262.893 106.853 263.36 104.773 263.36ZM104.773 260.16C106.079 260.16 107.306 259.853 108.453 259.24C109.599 258.627 110.519 257.707 111.213 256.48C111.933 255.253 112.293 253.76 112.293 252C112.293 250.24 111.946 248.747 111.253 247.52C110.559 246.293 109.653 245.387 108.533 244.8C107.413 244.187 106.199 243.88 104.893 243.88C103.559 243.88 102.333 244.187 101.213 244.8C100.119 245.387 99.2395 246.293 98.5728 247.52C97.9061 248.747 97.5728 250.24 97.5728 252C97.5728 253.787 97.8928 255.293 98.5328 256.52C99.1995 257.747 100.079 258.667 101.173 259.28C102.266 259.867 103.466 260.16 104.773 260.16ZM124.439 233.4V263H120.799V233.4H124.439ZM129.283 251.96C129.283 249.72 129.736 247.76 130.643 246.08C131.549 244.373 132.789 243.053 134.363 242.12C135.963 241.187 137.749 240.72 139.723 240.72C141.429 240.72 143.016 241.12 144.483 241.92C145.949 242.693 147.069 243.72 147.843 245V233.4H151.523V263H147.843V258.88C147.123 260.187 146.056 261.267 144.643 262.12C143.229 262.947 141.576 263.36 139.683 263.36C137.736 263.36 135.963 262.88 134.363 261.92C132.789 260.96 131.549 259.613 130.643 257.88C129.736 256.147 129.283 254.173 129.283 251.96ZM147.843 252C147.843 250.347 147.509 248.907 146.843 247.68C146.176 246.453 145.269 245.52 144.123 244.88C143.003 244.213 141.763 243.88 140.403 243.88C139.043 243.88 137.803 244.2 136.683 244.84C135.563 245.48 134.669 246.413 134.003 247.64C133.336 248.867 133.003 250.307 133.003 251.96C133.003 253.64 133.336 255.107 134.003 256.36C134.669 257.587 135.563 258.533 136.683 259.2C137.803 259.84 139.043 260.16 140.403 260.16C141.763 260.16 143.003 259.84 144.123 259.2C145.269 258.533 146.176 257.587 146.843 256.36C147.509 255.107 147.843 253.653 147.843 252ZM186.978 243.28C186.978 245.6 186.178 247.533 184.578 249.08C183.004 250.6 180.591 251.36 177.338 251.36H171.978V263H168.338V235.12H177.338C180.484 235.12 182.871 235.88 184.498 237.4C186.151 238.92 186.978 240.88 186.978 243.28ZM177.338 248.36C179.364 248.36 180.858 247.92 181.818 247.04C182.778 246.16 183.258 244.907 183.258 243.28C183.258 239.84 181.284 238.12 177.338 238.12H171.978V248.36H177.338ZM195.142 244.64C195.782 243.387 196.689 242.413 197.862 241.72C199.062 241.027 200.515 240.68 202.222 240.68V244.44H201.262C197.182 244.44 195.142 246.653 195.142 251.08V263H191.502V241.08H195.142V244.64ZM208.304 237.52C207.61 237.52 207.024 237.28 206.544 236.8C206.064 236.32 205.824 235.733 205.824 235.04C205.824 234.347 206.064 233.76 206.544 233.28C207.024 232.8 207.61 232.56 208.304 232.56C208.97 232.56 209.53 232.8 209.984 233.28C210.464 233.76 210.704 234.347 210.704 235.04C210.704 235.733 210.464 236.32 209.984 236.8C209.53 237.28 208.97 237.52 208.304 237.52ZM210.064 241.08V263H206.424V241.08H210.064ZM242.628 240.68C244.334 240.68 245.854 241.04 247.188 241.76C248.521 242.453 249.574 243.507 250.348 244.92C251.121 246.333 251.508 248.053 251.508 250.08V263H247.908V250.6C247.908 248.413 247.361 246.747 246.268 245.6C245.201 244.427 243.748 243.84 241.908 243.84C240.014 243.84 238.508 244.453 237.388 245.68C236.268 246.88 235.708 248.627 235.708 250.92V263H232.108V250.6C232.108 248.413 231.561 246.747 230.468 245.6C229.401 244.427 227.948 243.84 226.108 243.84C224.214 243.84 222.708 244.453 221.588 245.68C220.468 246.88 219.908 248.627 219.908 250.92V263H216.268V241.08H219.908V244.24C220.628 243.093 221.588 242.213 222.788 241.6C224.014 240.987 225.361 240.68 226.828 240.68C228.668 240.68 230.294 241.093 231.708 241.92C233.121 242.747 234.174 243.96 234.868 245.56C235.481 244.013 236.494 242.813 237.908 241.96C239.321 241.107 240.894 240.68 242.628 240.68ZM256.118 251.96C256.118 249.72 256.572 247.76 257.478 246.08C258.385 244.373 259.625 243.053 261.198 242.12C262.798 241.187 264.572 240.72 266.518 240.72C268.438 240.72 270.105 241.133 271.518 241.96C272.932 242.787 273.985 243.827 274.678 245.08V241.08H278.358V263H274.678V258.92C273.958 260.2 272.878 261.267 271.438 262.12C270.025 262.947 268.372 263.36 266.478 263.36C264.532 263.36 262.772 262.88 261.198 261.92C259.625 260.96 258.385 259.613 257.478 257.88C256.572 256.147 256.118 254.173 256.118 251.96ZM274.678 252C274.678 250.347 274.345 248.907 273.678 247.68C273.012 246.453 272.105 245.52 270.958 244.88C269.838 244.213 268.598 243.88 267.238 243.88C265.878 243.88 264.638 244.2 263.518 244.84C262.398 245.48 261.505 246.413 260.838 247.64C260.172 248.867 259.838 250.307 259.838 251.96C259.838 253.64 260.172 255.107 260.838 256.36C261.505 257.587 262.398 258.533 263.518 259.2C264.638 259.84 265.878 260.16 267.238 260.16C268.598 260.16 269.838 259.84 270.958 259.2C272.105 258.533 273.012 257.587 273.678 256.36C274.345 255.107 274.678 253.653 274.678 252ZM288.15 244.64C288.79 243.387 289.696 242.413 290.87 241.72C292.07 241.027 293.523 240.68 295.23 240.68V244.44H294.27C290.19 244.44 288.15 246.653 288.15 251.08V263H284.51V241.08H288.15V244.64ZM318.312 241.08L305.112 273.32H301.352L305.672 262.76L296.832 241.08H300.872L307.752 258.84L314.552 241.08H318.312ZM331.275 249.04C331.275 246.32 331.888 243.88 333.115 241.72C334.341 239.533 336.008 237.827 338.115 236.6C340.248 235.373 342.608 234.76 345.195 234.76C348.235 234.76 350.888 235.493 353.155 236.96C355.421 238.427 357.075 240.507 358.115 243.2H353.755C352.981 241.52 351.861 240.227 350.395 239.32C348.955 238.413 347.221 237.96 345.195 237.96C343.248 237.96 341.501 238.413 339.955 239.32C338.408 240.227 337.195 241.52 336.315 243.2C335.435 244.853 334.995 246.8 334.995 249.04C334.995 251.253 335.435 253.2 336.315 254.88C337.195 256.533 338.408 257.813 339.955 258.72C341.501 259.627 343.248 260.08 345.195 260.08C347.221 260.08 348.955 259.64 350.395 258.76C351.861 257.853 352.981 256.56 353.755 254.88H358.115C357.075 257.547 355.421 259.613 353.155 261.08C350.888 262.52 348.235 263.24 345.195 263.24C342.608 263.24 340.248 262.64 338.115 261.44C336.008 260.213 334.341 258.52 333.115 256.36C331.888 254.2 331.275 251.76 331.275 249.04ZM373.093 263.36C371.04 263.36 369.173 262.893 367.493 261.96C365.84 261.027 364.533 259.707 363.573 258C362.64 256.267 362.173 254.267 362.173 252C362.173 249.76 362.653 247.787 363.613 246.08C364.6 244.347 365.933 243.027 367.613 242.12C369.293 241.187 371.173 240.72 373.253 240.72C375.333 240.72 377.213 241.187 378.893 242.12C380.573 243.027 381.893 244.333 382.853 246.04C383.84 247.747 384.333 249.733 384.333 252C384.333 254.267 383.826 256.267 382.813 258C381.826 259.707 380.48 261.027 378.773 261.96C377.066 262.893 375.173 263.36 373.093 263.36ZM373.093 260.16C374.4 260.16 375.626 259.853 376.773 259.24C377.92 258.627 378.84 257.707 379.533 256.48C380.253 255.253 380.613 253.76 380.613 252C380.613 250.24 380.266 248.747 379.573 247.52C378.88 246.293 377.973 245.387 376.853 244.8C375.733 244.187 374.52 243.88 373.213 243.88C371.88 243.88 370.653 244.187 369.533 244.8C368.44 245.387 367.56 246.293 366.893 247.52C366.226 248.747 365.893 250.24 365.893 252C365.893 253.787 366.213 255.293 366.853 256.52C367.52 257.747 368.4 258.667 369.493 259.28C370.586 259.867 371.786 260.16 373.093 260.16ZM392.759 233.4V263H389.119V233.4H392.759ZM408.523 263.36C406.469 263.36 404.603 262.893 402.923 261.96C401.269 261.027 399.963 259.707 399.003 258C398.069 256.267 397.603 254.267 397.603 252C397.603 249.76 398.083 247.787 399.043 246.08C400.029 244.347 401.363 243.027 403.043 242.12C404.723 241.187 406.603 240.72 408.683 240.72C410.763 240.72 412.643 241.187 414.323 242.12C416.003 243.027 417.323 244.333 418.283 246.04C419.269 247.747 419.763 249.733 419.763 252C419.763 254.267 419.256 256.267 418.243 258C417.256 259.707 415.909 261.027 414.203 261.96C412.496 262.893 410.603 263.36 408.523 263.36ZM408.523 260.16C409.829 260.16 411.056 259.853 412.203 259.24C413.349 258.627 414.269 257.707 414.963 256.48C415.683 255.253 416.043 253.76 416.043 252C416.043 250.24 415.696 248.747 415.003 247.52C414.309 246.293 413.403 245.387 412.283 244.8C411.163 244.187 409.949 243.88 408.643 243.88C407.309 243.88 406.083 244.187 404.963 244.8C403.869 245.387 402.989 246.293 402.323 247.52C401.656 248.747 401.323 250.24 401.323 252C401.323 253.787 401.643 255.293 402.283 256.52C402.949 257.747 403.829 258.667 404.923 259.28C406.016 259.867 407.216 260.16 408.523 260.16ZM428.189 244.64C428.829 243.387 429.735 242.413 430.909 241.72C432.109 241.027 433.562 240.68 435.269 240.68V244.44H434.309C430.229 244.44 428.189 246.653 428.189 251.08V263H424.549V241.08H428.189V244.64Z" fill="white"/>
</svg>
