<svg width="101" height="100" viewBox="0 0 101 100" fill="none" xmlns="http://www.w3.org/2000/svg">
<rect x="0.5" width="100" height="100" rx="50" fill="#EBF5E8"/>
<path d="M45.5182 38.464C47.7354 34.488 48.8432 32.5 50.5004 32.5C52.1577 32.5 53.2654 34.488 55.4827 38.464L56.0567 39.493C56.6867 40.6235 57.0017 41.1887 57.4917 41.5615C57.9817 41.9342 58.5942 42.0725 59.8192 42.349L60.9322 42.601C65.2372 43.5757 67.3879 44.0623 67.9007 45.709C68.4117 47.354 66.9452 49.0708 64.0104 52.5025L63.2509 53.3898C62.4179 54.3645 61.9997 54.8527 61.8124 55.4547C61.6252 56.0585 61.6882 56.7095 61.8142 58.0097L61.9297 59.1945C62.3724 63.7742 62.5947 66.0633 61.2542 67.08C59.9137 68.0985 57.8977 67.1692 53.8692 65.3142L52.8244 64.8347C51.6799 64.3062 51.1077 64.0437 50.5004 64.0437C49.8932 64.0437 49.3209 64.3062 48.1764 64.8347L47.1334 65.3142C43.1032 67.1692 41.0872 68.0967 39.7484 67.0817C38.4062 66.0632 38.6284 63.7742 39.0712 59.1945L39.1867 58.0115C39.3127 56.7095 39.3757 56.0585 39.1867 55.4565C39.0012 54.8528 38.5829 54.3645 37.7499 53.3915L36.9904 52.5025C34.0557 49.0725 32.5892 47.3558 33.1002 45.709C33.6129 44.0623 35.7654 43.574 40.0704 42.601L41.1834 42.349C42.4067 42.0725 43.0174 41.9342 43.5092 41.5615C43.9992 41.1887 44.3142 40.6235 44.9442 39.493L45.5182 38.464Z" stroke="#719C63" stroke-width="1.5"/>
</svg>
