<svg width="36" height="36" viewBox="0 0 36 36" fill="none" xmlns="http://www.w3.org/2000/svg">
<g clip-path="url(#clip0_594_768)">
<path d="M0 18C0 8.05888 8.05888 0 18 0C27.9411 0 36 8.05888 36 18C36 27.9411 27.9411 36 18 36C8.05888 36 0 27.9411 0 18Z" fill="#E8E8EA" fill-opacity="0.5"/>
<path d="M23.5587 16.916C24.1447 17.5 24.1467 18.446 23.5647 19.034L16.6077 26.056C16.3147 26.352 15.9287 26.5 15.5427 26.5C15.1607 26.5 14.7787 26.355 14.4867 26.065C13.8977 25.482 13.8947 24.533 14.4777 23.944L20.3818 17.984L14.4408 12.062C13.8548 11.478 13.8528 10.5279 14.4378 9.941C15.0218 9.354 15.9738 9.353 16.5588 9.938L23.5587 16.916Z" fill="#16085E"/>
</g>
<defs>
<clipPath id="clip0_594_768">
<path d="M0 18C0 8.05888 8.05888 0 18 0C27.9411 0 36 8.05888 36 18C36 27.9411 27.9411 36 18 36C8.05888 36 0 27.9411 0 18Z" fill="white"/>
</clipPath>
</defs>
</svg>
