<svg width="155" height="146" viewBox="0 0 155 146" fill="none" xmlns="http://www.w3.org/2000/svg">
<g clip-path="url(#clip0_897_2117)">
<path d="M118.051 64.4461C113.354 66.8956 89.0292 76.8968 83.8502 79.5959C78.6712 82.2951 75.7947 82.2694 71.7028 80.3145C67.6109 78.3595 41.725 67.9034 37.0592 65.6732C34.7263 64.5581 33.5039 63.6202 33.5039 62.7337V53.8384C33.5039 53.8384 67.2073 46.5014 72.65 44.5488C78.0926 42.5961 79.9753 42.5262 84.6084 44.2222C89.2415 45.9182 116.926 50.9129 121.501 52.5903V61.362C121.501 62.2415 120.446 63.2283 118.055 64.4507L118.051 64.4461Z" fill="#A41E11"/>
<path d="M118.051 55.5484C113.355 57.998 89.0295 67.9991 83.8505 70.6983C78.6714 73.3974 75.795 73.3718 71.7031 71.4168C67.6112 69.4618 41.7253 59.0058 37.0595 56.7755C32.3937 54.5453 32.3004 53.0126 36.8799 51.2186L72.6479 37.3705C78.0882 35.4202 79.9732 35.3478 84.6063 37.0439C89.2395 38.7399 113.418 48.3631 117.99 50.0661C122.563 51.7691 122.742 53.1222 118.046 55.5717L118.051 55.5484Z" fill="#D82C20"/>
<path d="M118.051 49.94C113.354 52.3895 89.0292 62.3906 83.8502 65.0898C78.6712 67.789 75.7947 67.7633 71.7028 65.8084C67.6109 63.8534 41.725 53.3973 37.0592 51.1671C34.7263 50.0519 33.5039 49.1141 33.5039 48.2276V39.3323C33.5039 39.3323 67.2073 31.9953 72.65 30.0427C78.0926 28.09 79.9753 28.02 84.6084 29.7161C89.2415 31.4121 116.926 36.4068 121.501 38.0842V46.8559C121.501 47.7354 120.446 48.7222 118.055 49.9446L118.051 49.94Z" fill="#A41E11"/>
<path d="M118.051 41.0447C113.355 43.4942 89.0295 53.4954 83.8505 56.1946C78.6714 58.8937 75.795 58.8681 71.7031 56.9131C67.6112 54.9581 41.7253 44.5021 37.0595 42.2718C32.3937 40.0416 32.3004 38.5088 36.8799 36.7148L72.6479 22.8691C78.0882 20.9165 79.9732 20.8465 84.6063 22.5425C89.2395 24.2385 113.418 33.864 117.995 35.5367C122.572 37.2094 122.747 38.5928 118.051 41.0424V41.0447Z" fill="#D82C20"/>
<path d="M118.051 34.8974C113.354 37.3469 89.0292 47.3481 83.8502 50.0496C78.6712 52.7511 75.7947 52.7231 71.7028 50.7681C67.6109 48.8131 41.725 38.3571 37.0592 36.1268C34.7263 35.0117 33.5039 34.0739 33.5039 33.1874V24.2874C33.5039 24.2874 67.2073 16.9504 72.65 14.9978C78.0926 13.0451 79.9753 12.9751 84.6084 14.6711C89.2415 16.3672 116.926 21.3619 121.501 23.0393V31.811C121.501 32.6905 120.446 33.6773 118.055 34.8997L118.051 34.8974Z" fill="#A41E11"/>
<path d="M118.051 25.9998C113.355 28.4493 89.0295 38.4505 83.8505 41.1496C78.6714 43.8488 75.795 43.8231 71.7031 41.8682C67.6112 39.9132 41.7253 29.4571 37.0595 27.2269C32.3937 24.9966 32.3004 23.4639 36.8799 21.6699L72.6479 7.82417C78.0882 5.87153 79.9732 5.80154 84.6063 7.49756C89.2395 9.19358 113.418 18.8191 117.995 20.4918C122.572 22.1645 122.747 23.5479 118.051 25.9974V25.9998Z" fill="#D82C20"/>
<path d="M79.6977 22.3324L76.9402 17.7483L68.1359 16.9551L74.7053 14.5849L72.734 10.9456L78.8835 13.3484L84.6831 11.4495L83.1154 15.2101L89.027 17.4263L81.403 18.2195L79.6977 22.3324ZM65.0098 31.4587L85.3993 28.328L79.2405 37.361L65.0098 31.4587Z" fill="white"/>
<path d="M59.5136 28.167C65.5331 28.167 70.4129 26.2755 70.4129 23.9422C70.4129 21.6088 65.5331 19.7173 59.5136 19.7173C53.494 19.7173 48.6143 21.6088 48.6143 23.9422C48.6143 26.2755 53.494 28.167 59.5136 28.167Z" fill="white"/>
<path d="M110.109 23.3262L98.0484 28.09L98.0391 18.5554L110.109 23.3262Z" fill="#7A0C00"/>
<path d="M98.0506 28.0901L96.7441 28.6033L84.6924 23.8395L98.0436 18.5579L98.0506 28.0901Z" fill="#AD2115"/>
</g>
<path d="M56.0818 137L52.0978 130.16H49.4578V137H47.2738V120.272H52.6738C53.9378 120.272 55.0018 120.488 55.8658 120.92C56.7458 121.352 57.4018 121.936 57.8338 122.672C58.2658 123.408 58.4818 124.248 58.4818 125.192C58.4818 126.344 58.1458 127.36 57.4738 128.24C56.8178 129.12 55.8258 129.704 54.4978 129.992L58.6978 137H56.0818ZM49.4578 128.408H52.6738C53.8578 128.408 54.7458 128.12 55.3378 127.544C55.9298 126.952 56.2258 126.168 56.2258 125.192C56.2258 124.2 55.9298 123.432 55.3378 122.888C54.7618 122.344 53.8738 122.072 52.6738 122.072H49.4578V128.408ZM73.8753 129.92C73.8753 130.336 73.8513 130.776 73.8033 131.24H63.2913C63.3713 132.536 63.8113 133.552 64.6113 134.288C65.4273 135.008 66.4113 135.368 67.5633 135.368C68.5073 135.368 69.2913 135.152 69.9153 134.72C70.5553 134.272 71.0033 133.68 71.2593 132.944H73.6113C73.2593 134.208 72.5553 135.24 71.4993 136.04C70.4433 136.824 69.1313 137.216 67.5633 137.216C66.3153 137.216 65.1953 136.936 64.2033 136.376C63.2273 135.816 62.4593 135.024 61.8993 134C61.3393 132.96 61.0593 131.76 61.0593 130.4C61.0593 129.04 61.3313 127.848 61.8753 126.824C62.4193 125.8 63.1793 125.016 64.1553 124.472C65.1473 123.912 66.2833 123.632 67.5633 123.632C68.8113 123.632 69.9153 123.904 70.8753 124.448C71.8353 124.992 72.5713 125.744 73.0833 126.704C73.6113 127.648 73.8753 128.72 73.8753 129.92ZM71.6193 129.464C71.6193 128.632 71.4353 127.92 71.0673 127.328C70.6993 126.72 70.1953 126.264 69.5553 125.96C68.9313 125.64 68.2353 125.48 67.4673 125.48C66.3633 125.48 65.4193 125.832 64.6353 126.536C63.8673 127.24 63.4273 128.216 63.3153 129.464H71.6193ZM75.9422 130.376C75.9422 129.032 76.2142 127.856 76.7582 126.848C77.3022 125.824 78.0462 125.032 78.9902 124.472C79.9502 123.912 81.0222 123.632 82.2062 123.632C83.2302 123.632 84.1822 123.872 85.0622 124.352C85.9422 124.816 86.6142 125.432 87.0782 126.2V119.24H89.2862V137H87.0782V134.528C86.6462 135.312 86.0062 135.96 85.1582 136.472C84.3102 136.968 83.3182 137.216 82.1822 137.216C81.0142 137.216 79.9502 136.928 78.9902 136.352C78.0462 135.776 77.3022 134.968 76.7582 133.928C76.2142 132.888 75.9422 131.704 75.9422 130.376ZM87.0782 130.4C87.0782 129.408 86.8782 128.544 86.4782 127.808C86.0782 127.072 85.5342 126.512 84.8462 126.128C84.1742 125.728 83.4302 125.528 82.6142 125.528C81.7982 125.528 81.0542 125.72 80.3822 126.104C79.7102 126.488 79.1742 127.048 78.7742 127.784C78.3742 128.52 78.1742 129.384 78.1742 130.376C78.1742 131.384 78.3742 132.264 78.7742 133.016C79.1742 133.752 79.7102 134.32 80.3822 134.72C81.0542 135.104 81.7982 135.296 82.6142 135.296C83.4302 135.296 84.1742 135.104 84.8462 134.72C85.5342 134.32 86.0782 133.752 86.4782 133.016C86.8782 132.264 87.0782 131.392 87.0782 130.4ZM94.1049 121.712C93.6889 121.712 93.3369 121.568 93.0489 121.28C92.7609 120.992 92.6169 120.64 92.6169 120.224C92.6169 119.808 92.7609 119.456 93.0489 119.168C93.3369 118.88 93.6889 118.736 94.1049 118.736C94.5049 118.736 94.8409 118.88 95.1129 119.168C95.4009 119.456 95.5449 119.808 95.5449 120.224C95.5449 120.64 95.4009 120.992 95.1129 121.28C94.8409 121.568 94.5049 121.712 94.1049 121.712ZM95.1609 123.848V137H92.9769V123.848H95.1609ZM103.539 137.216C102.531 137.216 101.627 137.048 100.827 136.712C100.027 136.36 99.3952 135.88 98.9312 135.272C98.4672 134.648 98.2112 133.936 98.1632 133.136H100.419C100.483 133.792 100.787 134.328 101.331 134.744C101.891 135.16 102.619 135.368 103.515 135.368C104.347 135.368 105.003 135.184 105.483 134.816C105.963 134.448 106.203 133.984 106.203 133.424C106.203 132.848 105.947 132.424 105.435 132.152C104.923 131.864 104.131 131.584 103.059 131.312C102.083 131.056 101.283 130.8 100.659 130.544C100.051 130.272 99.5232 129.88 99.0752 129.368C98.6432 128.84 98.4272 128.152 98.4272 127.304C98.4272 126.632 98.6272 126.016 99.0272 125.456C99.4272 124.896 99.9952 124.456 100.731 124.136C101.467 123.8 102.307 123.632 103.251 123.632C104.707 123.632 105.883 124 106.779 124.736C107.675 125.472 108.155 126.48 108.219 127.76H106.035C105.987 127.072 105.707 126.52 105.195 126.104C104.699 125.688 104.027 125.48 103.179 125.48C102.395 125.48 101.771 125.648 101.307 125.984C100.843 126.32 100.611 126.76 100.611 127.304C100.611 127.736 100.747 128.096 101.019 128.384C101.307 128.656 101.659 128.88 102.075 129.056C102.507 129.216 103.099 129.4 103.851 129.608C104.795 129.864 105.563 130.12 106.155 130.376C106.747 130.616 107.251 130.984 107.667 131.48C108.099 131.976 108.323 132.624 108.339 133.424C108.339 134.144 108.139 134.792 107.739 135.368C107.339 135.944 106.771 136.4 106.035 136.736C105.315 137.056 104.483 137.216 103.539 137.216Z" fill="#212529"/>
<defs>
<clipPath id="clip0_897_2117">
<rect width="88" height="88" fill="white" transform="translate(33.5)"/>
</clipPath>
</defs>
</svg>
