<svg width="154" height="146" viewBox="0 0 154 146" fill="none" xmlns="http://www.w3.org/2000/svg">
<g clip-path="url(#clip0_879_1131)">
<path d="M93.9121 60.6375C97.2121 60.3625 99.6871 57.4751 99.5496 54.1751C99.4121 50.8751 96.6621 48.125 93.2246 48.125H92.9496C89.5121 48.2625 86.7621 51.1501 86.8996 54.5876C87.0371 56.2376 87.7246 57.75 88.6871 58.7126C84.8371 66.2751 79.0621 71.6375 70.2621 76.3125C64.3496 79.475 58.1621 80.5751 51.9746 79.75C46.8871 79.0625 43.0371 76.8625 40.5621 73.1501C36.9871 67.6501 36.5746 61.7375 39.5996 55.825C41.6621 51.5625 45.0996 48.4 47.1621 46.8875C46.7496 45.375 46.0621 42.9 45.6496 41.1125C29.8371 52.8 31.4871 68.75 36.4371 76.3125C40.1496 81.9501 47.5746 85.3875 55.9621 85.3875C58.1621 85.3875 60.4996 85.1125 62.6996 84.5625C76.9996 81.675 87.8621 73.2875 93.9121 60.6375Z" fill="#764ABC"/>
<path d="M113.713 46.75C105.188 36.85 92.6753 31.35 78.3753 31.35H76.5878C75.6253 29.2875 73.4253 28.05 71.0878 28.05H70.8128C67.3753 28.05 64.6253 30.9375 64.7628 34.375C64.9003 37.675 67.6503 40.425 71.0878 40.425H71.3628C73.8378 40.2875 75.9003 38.7751 76.8628 36.5751H78.9253C87.4503 36.5751 95.5628 39.05 102.713 43.8625C108.35 47.575 112.338 52.3875 114.538 58.1625C116.463 62.8375 116.325 67.5126 114.263 71.3626C111.1 77.2751 105.875 80.575 98.8628 80.575C94.3253 80.575 90.0628 79.2001 87.8628 78.2375C86.6253 79.3375 84.4253 81.125 82.7753 82.2251C87.5878 84.4251 92.5378 85.6626 97.2128 85.6626C107.938 85.6626 115.913 79.7501 118.938 73.8376C122.375 67.3751 122.1 56.2375 113.713 46.75Z" fill="#764ABC"/>
<path d="M56.7879 62.425C56.9254 65.725 59.6754 68.475 63.1129 68.475H63.2504C66.6879 68.3375 69.4379 65.45 69.3004 62.0125C69.1629 58.7125 66.4129 55.9625 62.9754 55.9625H62.7004C62.4254 55.9625 62.1504 55.9625 61.8754 56.1C57.3379 48.5375 55.4129 40.15 56.1004 31.2125C56.5129 24.475 58.8504 18.7 62.7004 13.8875C66.0004 9.76245 72.1879 7.69995 76.4504 7.56245C88.5504 7.42495 93.5004 22.1374 93.9129 28.0499C95.4254 28.3249 97.9004 29.15 99.5504 29.7C98.1754 11.55 87.0379 2.19995 76.3129 2.19995C66.2754 2.19995 56.9254 9.48745 53.2129 20.2125C48.1254 34.5125 51.4254 48.2625 57.7504 59.125C57.0629 59.95 56.6504 61.1875 56.7879 62.425Z" fill="#764ABC"/>
</g>
<path d="M51.3865 137L47.4025 130.16H44.7625V137H42.5785V120.272H47.9785C49.2425 120.272 50.3065 120.488 51.1705 120.92C52.0505 121.352 52.7065 121.936 53.1385 122.672C53.5705 123.408 53.7865 124.248 53.7865 125.192C53.7865 126.344 53.4505 127.36 52.7785 128.24C52.1225 129.12 51.1305 129.704 49.8025 129.992L54.0025 137H51.3865ZM44.7625 128.408H47.9785C49.1625 128.408 50.0505 128.12 50.6425 127.544C51.2345 126.952 51.5305 126.168 51.5305 125.192C51.5305 124.2 51.2345 123.432 50.6425 122.888C50.0665 122.344 49.1785 122.072 47.9785 122.072H44.7625V128.408ZM69.18 129.92C69.18 130.336 69.156 130.776 69.108 131.24H58.596C58.676 132.536 59.116 133.552 59.916 134.288C60.732 135.008 61.716 135.368 62.868 135.368C63.812 135.368 64.596 135.152 65.22 134.72C65.86 134.272 66.308 133.68 66.564 132.944H68.916C68.564 134.208 67.86 135.24 66.804 136.04C65.748 136.824 64.436 137.216 62.868 137.216C61.62 137.216 60.5 136.936 59.508 136.376C58.532 135.816 57.764 135.024 57.204 134C56.644 132.96 56.364 131.76 56.364 130.4C56.364 129.04 56.636 127.848 57.18 126.824C57.724 125.8 58.484 125.016 59.46 124.472C60.452 123.912 61.588 123.632 62.868 123.632C64.116 123.632 65.22 123.904 66.18 124.448C67.14 124.992 67.876 125.744 68.388 126.704C68.916 127.648 69.18 128.72 69.18 129.92ZM66.924 129.464C66.924 128.632 66.74 127.92 66.372 127.328C66.004 126.72 65.5 126.264 64.86 125.96C64.236 125.64 63.54 125.48 62.772 125.48C61.668 125.48 60.724 125.832 59.94 126.536C59.172 127.24 58.732 128.216 58.62 129.464H66.924ZM71.2468 130.376C71.2468 129.032 71.5188 127.856 72.0628 126.848C72.6068 125.824 73.3508 125.032 74.2948 124.472C75.2548 123.912 76.3268 123.632 77.5108 123.632C78.5348 123.632 79.4868 123.872 80.3668 124.352C81.2468 124.816 81.9188 125.432 82.3828 126.2V119.24H84.5908V137H82.3828V134.528C81.9508 135.312 81.3108 135.96 80.4628 136.472C79.6148 136.968 78.6228 137.216 77.4868 137.216C76.3188 137.216 75.2548 136.928 74.2948 136.352C73.3508 135.776 72.6068 134.968 72.0628 133.928C71.5188 132.888 71.2468 131.704 71.2468 130.376ZM82.3828 130.4C82.3828 129.408 82.1828 128.544 81.7828 127.808C81.3828 127.072 80.8388 126.512 80.1508 126.128C79.4788 125.728 78.7348 125.528 77.9188 125.528C77.1028 125.528 76.3588 125.72 75.6868 126.104C75.0148 126.488 74.4788 127.048 74.0788 127.784C73.6788 128.52 73.4788 129.384 73.4788 130.376C73.4788 131.384 73.6788 132.264 74.0788 133.016C74.4788 133.752 75.0148 134.32 75.6868 134.72C76.3588 135.104 77.1028 135.296 77.9188 135.296C78.7348 135.296 79.4788 135.104 80.1508 134.72C80.8388 134.32 81.3828 133.752 81.7828 133.016C82.1828 132.264 82.3828 131.392 82.3828 130.4ZM99.9456 123.848V137H97.7616V135.056C97.3456 135.728 96.7616 136.256 96.0096 136.64C95.2736 137.008 94.4576 137.192 93.5616 137.192C92.5376 137.192 91.6176 136.984 90.8016 136.568C89.9856 136.136 89.3376 135.496 88.8576 134.648C88.3936 133.8 88.1616 132.768 88.1616 131.552V123.848H90.3216V131.264C90.3216 132.56 90.6496 133.56 91.3056 134.264C91.9616 134.952 92.8576 135.296 93.9936 135.296C95.1616 135.296 96.0816 134.936 96.7536 134.216C97.4256 133.496 97.7616 132.448 97.7616 131.072V123.848H99.9456ZM110.497 137L107.377 132.104L104.377 137H102.097L106.345 130.472L102.097 123.848H104.569L107.689 128.72L110.665 123.848H112.945L108.721 130.352L112.969 137H110.497Z" fill="#212529"/>
<defs>
<clipPath id="clip0_879_1131">
<rect width="88" height="88" fill="white" transform="translate(33)"/>
</clipPath>
</defs>
</svg>
