<svg width="154" height="146" viewBox="0 0 154 146" fill="none" xmlns="http://www.w3.org/2000/svg">
<path fill-rule="evenodd" clip-rule="evenodd" d="M55.55 0H84.9713L109.907 25.991V76.5438C109.907 82.8766 104.783 88 98.4725 88H55.55C49.2172 88 44.0938 82.8766 44.0938 76.5438V11.4562C44.0936 5.12342 49.2171 0 55.55 0Z" fill="#E5252A"/>
<path fill-rule="evenodd" clip-rule="evenodd" d="M84.9492 0V25.7931H109.907L84.9492 0Z" fill="black"/>
<path d="M56.8252 65.6592V49.5852H63.6638C65.357 49.5852 66.6983 50.047 67.7098 50.9925C68.7213 51.916 69.2271 53.1695 69.2271 54.7306C69.2271 56.2918 68.7213 57.5452 67.7098 58.4688C66.6983 59.4143 65.357 59.8761 63.6638 59.8761H60.9371V65.6592H56.8252ZM60.9371 56.3799H63.202C63.8177 56.3799 64.3015 56.2479 64.6314 55.9401C64.9611 55.6543 65.1371 55.2584 65.1371 54.7308C65.1371 54.2031 64.9612 53.8072 64.6314 53.5214C64.3016 53.2135 63.8178 53.0816 63.202 53.0816H60.9371V56.3799ZM70.9201 65.6592V49.5852H76.6153C77.7367 49.5852 78.7922 49.7391 79.7817 50.069C80.7711 50.3988 81.6728 50.8606 82.4643 51.4983C83.256 52.1139 83.8936 52.9495 84.3554 54.005C84.7951 55.0605 85.0371 56.2699 85.0371 57.6332C85.0371 58.9746 84.7953 60.184 84.3554 61.2393C83.8936 62.2949 83.256 63.1304 82.4643 63.7461C81.6727 64.3837 80.7711 64.8455 79.7817 65.1754C78.7922 65.5052 77.7367 65.6592 76.6153 65.6592H70.9201ZM74.9441 62.163H76.1315C76.7692 62.163 77.3629 62.0971 77.9126 61.9431C78.4403 61.7892 78.9461 61.5472 79.4299 61.2174C79.8916 60.8877 80.2655 60.4258 80.5293 59.8101C80.7932 59.1945 80.9251 58.4688 80.9251 57.6332C80.9251 56.7756 80.7932 56.05 80.5293 55.4343C80.2655 54.8187 79.8916 54.3569 79.4299 54.027C78.9461 53.6973 78.4404 53.4553 77.9126 53.3014C77.3629 53.1475 76.7692 53.0815 76.1315 53.0815H74.9441V62.163ZM87.1041 65.6592V49.5852H98.5384V53.0815H91.216V55.6542H97.065V59.1284H91.216V65.6592H87.1041Z" fill="white"/>
<path d="M36.9343 125.168C36.9343 126.56 36.4543 127.72 35.4943 128.648C34.5503 129.56 33.1023 130.016 31.1503 130.016H27.9343V137H25.7503V120.272H31.1503C33.0383 120.272 34.4703 120.728 35.4463 121.64C36.4383 122.552 36.9343 123.728 36.9343 125.168ZM31.1503 128.216C32.3663 128.216 33.2623 127.952 33.8383 127.424C34.4143 126.896 34.7023 126.144 34.7023 125.168C34.7023 123.104 33.5183 122.072 31.1503 122.072H27.9343V128.216H31.1503ZM38.8328 130.376C38.8328 129.032 39.1048 127.856 39.6488 126.848C40.1928 125.824 40.9368 125.032 41.8808 124.472C42.8408 123.912 43.9128 123.632 45.0968 123.632C46.1208 123.632 47.0728 123.872 47.9528 124.352C48.8328 124.816 49.5048 125.432 49.9688 126.2V119.24H52.1768V137H49.9688V134.528C49.5368 135.312 48.8968 135.96 48.0488 136.472C47.2008 136.968 46.2088 137.216 45.0728 137.216C43.9048 137.216 42.8408 136.928 41.8808 136.352C40.9368 135.776 40.1928 134.968 39.6488 133.928C39.1048 132.888 38.8328 131.704 38.8328 130.376ZM49.9688 130.4C49.9688 129.408 49.7688 128.544 49.3688 127.808C48.9688 127.072 48.4248 126.512 47.7368 126.128C47.0648 125.728 46.3208 125.528 45.5048 125.528C44.6888 125.528 43.9448 125.72 43.2728 126.104C42.6008 126.488 42.0648 127.048 41.6648 127.784C41.2648 128.52 41.0648 129.384 41.0648 130.376C41.0648 131.384 41.2648 132.264 41.6648 133.016C42.0648 133.752 42.6008 134.32 43.2728 134.72C43.9448 135.104 44.6888 135.296 45.5048 135.296C46.3208 135.296 47.0648 135.104 47.7368 134.72C48.4248 134.32 48.9688 133.752 49.3688 133.016C49.7688 132.264 49.9688 131.392 49.9688 130.4ZM61.2195 125.648H58.4595V137H56.2755V125.648H54.5715V123.848H56.2755V122.912C56.2755 121.44 56.6515 120.368 57.4035 119.696C58.1715 119.008 59.3955 118.664 61.0755 118.664V120.488C60.1155 120.488 59.4355 120.68 59.0355 121.064C58.6515 121.432 58.4595 122.048 58.4595 122.912V123.848H61.2195V125.648ZM79.582 123.608C80.606 123.608 81.518 123.824 82.318 124.256C83.118 124.672 83.75 125.304 84.214 126.152C84.678 127 84.91 128.032 84.91 129.248V137H82.75V129.56C82.75 128.248 82.422 127.248 81.766 126.56C81.126 125.856 80.254 125.504 79.15 125.504C78.014 125.504 77.11 125.872 76.438 126.608C75.766 127.328 75.43 128.376 75.43 129.752V137H73.27V129.56C73.27 128.248 72.942 127.248 72.286 126.56C71.646 125.856 70.774 125.504 69.67 125.504C68.534 125.504 67.63 125.872 66.958 126.608C66.286 127.328 65.95 128.376 65.95 129.752V137H63.766V123.848H65.95V125.744C66.382 125.056 66.958 124.528 67.678 124.16C68.414 123.792 69.222 123.608 70.102 123.608C71.206 123.608 72.182 123.856 73.03 124.352C73.878 124.848 74.51 125.576 74.926 126.536C75.294 125.608 75.902 124.888 76.75 124.376C77.598 123.864 78.542 123.608 79.582 123.608ZM87.6765 130.376C87.6765 129.032 87.9485 127.856 88.4925 126.848C89.0365 125.824 89.7805 125.032 90.7245 124.472C91.6845 123.912 92.7485 123.632 93.9165 123.632C95.0685 123.632 96.0685 123.88 96.9165 124.376C97.7645 124.872 98.3965 125.496 98.8125 126.248V123.848H101.021V137H98.8125V134.552C98.3805 135.32 97.7325 135.96 96.8685 136.472C96.0205 136.968 95.0285 137.216 93.8925 137.216C92.7245 137.216 91.6685 136.928 90.7245 136.352C89.7805 135.776 89.0365 134.968 88.4925 133.928C87.9485 132.888 87.6765 131.704 87.6765 130.376ZM98.8125 130.4C98.8125 129.408 98.6125 128.544 98.2125 127.808C97.8125 127.072 97.2685 126.512 96.5805 126.128C95.9085 125.728 95.1645 125.528 94.3485 125.528C93.5325 125.528 92.7885 125.72 92.1165 126.104C91.4445 126.488 90.9085 127.048 90.5085 127.784C90.1085 128.52 89.9085 129.384 89.9085 130.376C89.9085 131.384 90.1085 132.264 90.5085 133.016C90.9085 133.752 91.4445 134.32 92.1165 134.72C92.7885 135.104 93.5325 135.296 94.3485 135.296C95.1645 135.296 95.9085 135.104 96.5805 134.72C97.2685 134.32 97.8125 133.752 98.2125 133.016C98.6125 132.264 98.8125 131.392 98.8125 130.4ZM112.055 137L106.895 131.192V137H104.711V119.24H106.895V129.68L111.959 123.848H115.007L108.815 130.4L115.031 137H112.055ZM129.063 129.92C129.063 130.336 129.039 130.776 128.991 131.24H118.479C118.559 132.536 118.999 133.552 119.799 134.288C120.615 135.008 121.599 135.368 122.751 135.368C123.695 135.368 124.479 135.152 125.103 134.72C125.743 134.272 126.191 133.68 126.447 132.944H128.799C128.447 134.208 127.743 135.24 126.687 136.04C125.631 136.824 124.319 137.216 122.751 137.216C121.503 137.216 120.383 136.936 119.391 136.376C118.415 135.816 117.647 135.024 117.087 134C116.527 132.96 116.247 131.76 116.247 130.4C116.247 129.04 116.519 127.848 117.063 126.824C117.607 125.8 118.367 125.016 119.343 124.472C120.335 123.912 121.471 123.632 122.751 123.632C123.999 123.632 125.103 123.904 126.063 124.448C127.023 124.992 127.759 125.744 128.271 126.704C128.799 127.648 129.063 128.72 129.063 129.92ZM126.807 129.464C126.807 128.632 126.623 127.92 126.255 127.328C125.887 126.72 125.383 126.264 124.743 125.96C124.119 125.64 123.423 125.48 122.655 125.48C121.551 125.48 120.607 125.832 119.823 126.536C119.055 127.24 118.615 128.216 118.503 129.464H126.807Z" fill="#212529"/>
</svg>
