<svg width="154" height="146" viewBox="0 0 154 146" fill="none" xmlns="http://www.w3.org/2000/svg">
<path d="M104.133 28.0693V59.7946L77.1928 75.5893L76.9453 75.8148V87.7731L77.1928 87.9986L115.124 66.0894V21.9106H114.762L104.067 27.8919V28.1394" fill="#2F406A"/>
<path d="M50.1603 60.0188L77.2368 75.7006V88L38.9912 66V22H39.3762L50.049 28.2054L50.1617 28.567V60.1562" fill="#2379BD"/>
<path d="M50.1598 28.4982L38.8779 22L77.1029 0L115.122 21.9093L104.133 28.0693L77.0548 12.6583L50.1144 28.4529" fill="#03AFEF"/>
<path d="M76.7177 56.3887L76.4248 56.0959V44.2049L76.7177 44.0467V43.7539L86.9161 37.7974H87.2323V50.072L76.6503 56.3447" fill="#2F406A"/>
<path d="M65.9546 50.5216V37.7712H66.2475L76.6287 43.8185V56.4094L65.8652 50.5202" fill="#2379BD"/>
<path d="M76.5381 31.522L65.9561 37.7947L76.7182 44.0001L87.3002 37.8181L76.5367 31.4546" fill="#03AFEF"/>
<path d="M63.539 64.1711L63.2461 63.8783V51.9639L63.539 51.8058V51.5129L73.7373 45.5564H74.0536V57.831L63.4716 64.1038" fill="#2F406A"/>
<path d="M52.7783 58.2834V45.5344H53.0712L63.4524 51.5817V64.1726L52.7797 58.2834" fill="#2379BD"/>
<path d="M63.3817 39.2837L52.7764 45.5345L63.5399 51.8072L74.1219 45.6252L63.3584 39.2617" fill="#03AFEF"/>
<path d="M90.8437 64.4656L90.5508 64.1727V52.2583L90.8437 52.1002V51.8073L101.042 45.8508H101.358V58.1255L90.7763 64.3982" fill="#2F406A"/>
<path d="M80.0796 58.5751V45.8289H80.4178L90.7991 51.8761V64.467L80.0342 58.5751" fill="#2379BD"/>
<path d="M90.6621 39.4873L80.0801 45.7601L90.8436 52.0328L101.426 45.8508L90.6621 39.4873Z" fill="#03AFEF"/>
<path d="M77.6659 72.2288L77.373 71.936V60.0188L77.6659 59.8607V59.5678L87.8643 53.6113H88.1805V65.886L77.5985 72.1587" fill="#2F406A"/>
<path d="M66.8799 66.3383V53.6113H67.1728L77.554 59.6586V72.2494L66.8813 66.3369" fill="#2379BD"/>
<path d="M77.4853 47.3411L66.8799 53.6111L77.6654 59.7931L88.2474 53.6111L77.4839 47.3384" fill="#03AFEF"/>
<path d="M76.7177 39.4873L76.4248 39.1945V27.3255L76.7177 27.1673V26.8745L86.9161 20.918H87.2323V33.1926L76.7177 39.4873Z" fill="#2F406A"/>
<path d="M65.9546 33.6435V20.8945H66.2475L76.6287 26.9418V39.4873L65.8652 33.5982" fill="#2379BD"/>
<path d="M76.5381 14.6672L65.9561 20.94L76.7196 27.2127L87.3016 21.0307L76.5381 14.6672Z" fill="#03AFEF"/>
<path d="M63.539 47.2725L63.2461 46.9796V34.9759L63.539 34.8177V34.5249L73.7373 28.5684H74.0536V40.843L63.4716 47.1157" fill="#2F406A"/>
<path d="M52.7783 41.4054V28.655H53.0712L63.4524 34.7023V47.2932L52.7797 41.404" fill="#2379BD"/>
<path d="M63.3817 22.4055L52.7764 28.6563L63.5399 34.9744L74.1219 28.7924L63.3584 22.4289" fill="#03AFEF"/>
<path d="M90.8437 47.5653L90.5508 47.2724V35.3787L90.8437 35.2206V34.9277L101.042 28.9712H101.358V41.2458L90.7763 47.5186" fill="#2F406A"/>
<path d="M80.0801 41.7451V28.9507H80.4183L90.7528 34.9759V47.5668L80.0801 41.7451Z" fill="#2379BD"/>
<path d="M90.6621 22.7012L80.0801 28.9712L90.8436 35.244L101.426 29.062L90.6621 22.6985" fill="#03AFEF"/>
<path d="M77.6659 55.2818L77.373 54.989V43.1433L77.6659 42.9852V42.6923L87.8643 36.7358H88.1805V49.0105L77.6659 55.2818Z" fill="#2F406A"/>
<path d="M66.8799 49.4587V36.7124H67.1728L77.554 42.7597V55.2832L66.8799 49.4587Z" fill="#2379BD"/>
<path d="M77.4853 30.4617L66.8799 36.7124L77.6434 42.9852L88.2254 36.8032L77.4866 30.4644" fill="#03AFEF"/>
<path d="M27.6325 137.168C26.5285 137.168 25.5365 136.976 24.6565 136.592C23.7925 136.192 23.1125 135.648 22.6165 134.96C22.1205 134.256 21.8645 133.448 21.8485 132.536H24.1765C24.2565 133.32 24.5765 133.984 25.1365 134.528C25.7125 135.056 26.5445 135.32 27.6325 135.32C28.6725 135.32 29.4885 135.064 30.0805 134.552C30.6885 134.024 30.9925 133.352 30.9925 132.536C30.9925 131.896 30.8165 131.376 30.4645 130.976C30.1125 130.576 29.6725 130.272 29.1445 130.064C28.6165 129.856 27.9045 129.632 27.0085 129.392C25.9045 129.104 25.0165 128.816 24.3445 128.528C23.6885 128.24 23.1205 127.792 22.6405 127.184C22.1765 126.56 21.9445 125.728 21.9445 124.688C21.9445 123.776 22.1765 122.968 22.6405 122.264C23.1045 121.56 23.7525 121.016 24.5845 120.632C25.4325 120.248 26.4005 120.056 27.4885 120.056C29.0565 120.056 30.3365 120.448 31.3285 121.232C32.3365 122.016 32.9045 123.056 33.0325 124.352H30.6325C30.5525 123.712 30.2165 123.152 29.6245 122.672C29.0325 122.176 28.2485 121.928 27.2725 121.928C26.3605 121.928 25.6165 122.168 25.0405 122.648C24.4645 123.112 24.1765 123.768 24.1765 124.616C24.1765 125.224 24.3445 125.72 24.6805 126.104C25.0325 126.488 25.4565 126.784 25.9525 126.992C26.4645 127.184 27.1765 127.408 28.0885 127.664C29.1925 127.968 30.0805 128.272 30.7525 128.576C31.4245 128.864 32.0005 129.32 32.4805 129.944C32.9605 130.552 33.2005 131.384 33.2005 132.44C33.2005 133.256 32.9845 134.024 32.5525 134.744C32.1205 135.464 31.4805 136.048 30.6325 136.496C29.7845 136.944 28.7845 137.168 27.6325 137.168ZM48.4144 129.92C48.4144 130.336 48.3904 130.776 48.3424 131.24H37.8304C37.9104 132.536 38.3504 133.552 39.1504 134.288C39.9664 135.008 40.9504 135.368 42.1024 135.368C43.0464 135.368 43.8304 135.152 44.4544 134.72C45.0944 134.272 45.5424 133.68 45.7984 132.944H48.1504C47.7984 134.208 47.0944 135.24 46.0384 136.04C44.9824 136.824 43.6704 137.216 42.1024 137.216C40.8544 137.216 39.7344 136.936 38.7424 136.376C37.7664 135.816 36.9984 135.024 36.4384 134C35.8784 132.96 35.5984 131.76 35.5984 130.4C35.5984 129.04 35.8704 127.848 36.4144 126.824C36.9584 125.8 37.7184 125.016 38.6944 124.472C39.6864 123.912 40.8224 123.632 42.1024 123.632C43.3504 123.632 44.4544 123.904 45.4144 124.448C46.3744 124.992 47.1104 125.744 47.6224 126.704C48.1504 127.648 48.4144 128.72 48.4144 129.92ZM46.1584 129.464C46.1584 128.632 45.9744 127.92 45.6064 127.328C45.2384 126.72 44.7344 126.264 44.0944 125.96C43.4704 125.64 42.7744 125.48 42.0064 125.48C40.9024 125.48 39.9584 125.832 39.1744 126.536C38.4064 127.24 37.9664 128.216 37.8544 129.464H46.1584ZM50.4812 130.376C50.4812 129.032 50.7532 127.856 51.2972 126.848C51.8412 125.824 52.5852 125.032 53.5292 124.472C54.4892 123.912 55.5612 123.632 56.7452 123.632C57.8812 123.632 58.8732 123.888 59.7212 124.4C60.5852 124.896 61.2172 125.512 61.6172 126.248V123.848H63.8252V143.24H61.6172V134.576C61.2012 135.312 60.5612 135.936 59.6972 136.448C58.8332 136.96 57.8252 137.216 56.6732 137.216C55.5212 137.216 54.4732 136.928 53.5292 136.352C52.5852 135.776 51.8412 134.968 51.2972 133.928C50.7532 132.888 50.4812 131.704 50.4812 130.376ZM61.6172 130.4C61.6172 129.408 61.4172 128.544 61.0172 127.808C60.6172 127.072 60.0732 126.512 59.3852 126.128C58.7132 125.728 57.9692 125.528 57.1532 125.528C56.3372 125.528 55.5932 125.72 54.9212 126.104C54.2492 126.488 53.7132 127.048 53.3132 127.784C52.9132 128.52 52.7132 129.384 52.7132 130.376C52.7132 131.384 52.9132 132.264 53.3132 133.016C53.7132 133.752 54.2492 134.32 54.9212 134.72C55.5932 135.104 56.3372 135.296 57.1532 135.296C57.9692 135.296 58.7132 135.104 59.3852 134.72C60.0732 134.32 60.6172 133.752 61.0172 133.016C61.4172 132.264 61.6172 131.392 61.6172 130.4ZM79.18 123.848V137H76.996V135.056C76.58 135.728 75.996 136.256 75.244 136.64C74.508 137.008 73.692 137.192 72.796 137.192C71.772 137.192 70.852 136.984 70.036 136.568C69.22 136.136 68.572 135.496 68.092 134.648C67.628 133.8 67.396 132.768 67.396 131.552V123.848H69.556V131.264C69.556 132.56 69.884 133.56 70.54 134.264C71.196 134.952 72.092 135.296 73.228 135.296C74.396 135.296 75.316 134.936 75.988 134.216C76.66 133.496 76.996 132.448 76.996 131.072V123.848H79.18ZM94.8675 129.92C94.8675 130.336 94.8435 130.776 94.7955 131.24H84.2835C84.3635 132.536 84.8035 133.552 85.6035 134.288C86.4195 135.008 87.4035 135.368 88.5555 135.368C89.4995 135.368 90.2835 135.152 90.9075 134.72C91.5475 134.272 91.9955 133.68 92.2515 132.944H94.6035C94.2515 134.208 93.5475 135.24 92.4915 136.04C91.4355 136.824 90.1235 137.216 88.5555 137.216C87.3075 137.216 86.1875 136.936 85.1955 136.376C84.2195 135.816 83.4515 135.024 82.8915 134C82.3315 132.96 82.0515 131.76 82.0515 130.4C82.0515 129.04 82.3235 127.848 82.8675 126.824C83.4115 125.8 84.1715 125.016 85.1475 124.472C86.1395 123.912 87.2755 123.632 88.5555 123.632C89.8035 123.632 90.9075 123.904 91.8675 124.448C92.8275 124.992 93.5635 125.744 94.0755 126.704C94.6035 127.648 94.8675 128.72 94.8675 129.92ZM92.6115 129.464C92.6115 128.632 92.4275 127.92 92.0595 127.328C91.6915 126.72 91.1875 126.264 90.5475 125.96C89.9235 125.64 89.2275 125.48 88.4595 125.48C87.3555 125.48 86.4115 125.832 85.6275 126.536C84.8595 127.24 84.4195 128.216 84.3075 129.464H92.6115ZM99.9343 119.24V137H97.7503V119.24H99.9343ZM104.785 121.712C104.369 121.712 104.017 121.568 103.729 121.28C103.441 120.992 103.297 120.64 103.297 120.224C103.297 119.808 103.441 119.456 103.729 119.168C104.017 118.88 104.369 118.736 104.785 118.736C105.185 118.736 105.521 118.88 105.793 119.168C106.081 119.456 106.225 119.808 106.225 120.224C106.225 120.64 106.081 120.992 105.793 121.28C105.521 121.568 105.185 121.712 104.785 121.712ZM105.841 123.848V137H103.657V123.848H105.841ZM111.195 135.2H117.651V137H108.699V135.2L115.083 125.624H108.747V123.848H117.603V125.624L111.195 135.2ZM132.485 129.92C132.485 130.336 132.461 130.776 132.413 131.24H121.901C121.981 132.536 122.421 133.552 123.221 134.288C124.037 135.008 125.021 135.368 126.173 135.368C127.117 135.368 127.901 135.152 128.525 134.72C129.165 134.272 129.613 133.68 129.869 132.944H132.221C131.869 134.208 131.165 135.24 130.109 136.04C129.053 136.824 127.741 137.216 126.173 137.216C124.925 137.216 123.805 136.936 122.813 136.376C121.837 135.816 121.069 135.024 120.509 134C119.949 132.96 119.669 131.76 119.669 130.4C119.669 129.04 119.941 127.848 120.485 126.824C121.029 125.8 121.789 125.016 122.765 124.472C123.757 123.912 124.893 123.632 126.173 123.632C127.421 123.632 128.525 123.904 129.485 124.448C130.445 124.992 131.181 125.744 131.693 126.704C132.221 127.648 132.485 128.72 132.485 129.92ZM130.229 129.464C130.229 128.632 130.045 127.92 129.677 127.328C129.309 126.72 128.805 126.264 128.165 125.96C127.541 125.64 126.845 125.48 126.077 125.48C124.973 125.48 124.029 125.832 123.245 126.536C122.477 127.24 122.037 128.216 121.925 129.464H130.229Z" fill="#212529"/>
</svg>
