<svg width="154" height="146" viewBox="0 0 154 146" fill="none" xmlns="http://www.w3.org/2000/svg">
<path d="M76.9998 51.7854C81.3397 51.7854 84.8579 48.2672 84.8579 43.9273C84.8579 39.5873 81.3397 36.0691 76.9998 36.0691C72.6598 36.0691 69.1416 39.5873 69.1416 43.9273C69.1416 48.2672 72.6598 51.7854 76.9998 51.7854Z" fill="#00D8FF"/>
<path fill-rule="evenodd" clip-rule="evenodd" d="M77 27.9502C87.5506 27.9502 97.3519 29.4641 104.742 32.0083C113.646 35.0737 119.121 39.7201 119.121 43.9275C119.121 48.3118 113.319 53.248 103.757 56.4161C96.528 58.8111 87.0152 60.0614 77 60.0614C66.7316 60.0614 57.008 58.8878 49.6976 56.3898C40.4487 53.2284 34.8779 48.2283 34.8779 43.9275C34.8779 39.7543 40.105 35.1437 48.8839 32.083C56.3016 29.4969 66.3449 27.9502 76.9986 27.9502H77Z" stroke="#00D8FF" stroke-width="2.73408"/>
<path fill-rule="evenodd" clip-rule="evenodd" d="M63.0912 35.9848C68.3621 26.8451 74.5697 19.1109 80.4657 13.98C87.5693 7.79802 94.3294 5.37699 97.9739 7.47863C101.772 9.66893 103.15 17.1612 101.117 27.0267C99.5822 34.4856 95.9115 43.3504 90.9081 52.0264C85.7781 60.9217 79.9041 68.7587 74.0885 73.842C66.7296 80.2749 59.615 82.6029 55.8893 80.4542C52.2741 78.3709 50.8916 71.5383 52.6259 62.4041C54.0912 54.6865 57.7687 45.2137 63.0894 35.9846L63.0912 35.9848Z" stroke="#00D8FF" stroke-width="2.73408"/>
<path fill-rule="evenodd" clip-rule="evenodd" d="M63.1048 52.0497C57.819 42.9204 54.2201 33.6778 52.718 26.0075C50.9097 16.7657 52.1882 9.69971 55.8295 7.59196C59.6239 5.39524 66.8029 7.94346 74.3349 14.6314C80.0297 19.6877 85.8774 27.2937 90.8954 35.9615C96.04 44.8482 99.8959 53.8513 101.396 61.4283C103.294 71.0167 101.758 78.343 98.0355 80.4977C94.4238 82.5885 87.8147 80.3749 80.7675 74.3104C74.8131 69.1867 68.4427 61.2697 63.1048 52.0495V52.0497Z" stroke="#00D8FF" stroke-width="2.73408"/>
<path d="M53.1443 137L49.1603 130.16H46.5203V137H44.3363V120.272H49.7363C51.0003 120.272 52.0643 120.488 52.9283 120.92C53.8083 121.352 54.4643 121.936 54.8963 122.672C55.3283 123.408 55.5443 124.248 55.5443 125.192C55.5443 126.344 55.2083 127.36 54.5363 128.24C53.8803 129.12 52.8883 129.704 51.5603 129.992L55.7603 137H53.1443ZM46.5203 128.408H49.7363C50.9203 128.408 51.8083 128.12 52.4003 127.544C52.9923 126.952 53.2883 126.168 53.2883 125.192C53.2883 124.2 52.9923 123.432 52.4003 122.888C51.8243 122.344 50.9363 122.072 49.7363 122.072H46.5203V128.408ZM70.9378 129.92C70.9378 130.336 70.9138 130.776 70.8658 131.24H60.3538C60.4338 132.536 60.8738 133.552 61.6738 134.288C62.4898 135.008 63.4738 135.368 64.6258 135.368C65.5698 135.368 66.3538 135.152 66.9778 134.72C67.6178 134.272 68.0658 133.68 68.3218 132.944H70.6738C70.3218 134.208 69.6178 135.24 68.5618 136.04C67.5058 136.824 66.1938 137.216 64.6258 137.216C63.3778 137.216 62.2578 136.936 61.2658 136.376C60.2898 135.816 59.5218 135.024 58.9618 134C58.4018 132.96 58.1218 131.76 58.1218 130.4C58.1218 129.04 58.3938 127.848 58.9378 126.824C59.4818 125.8 60.2418 125.016 61.2178 124.472C62.2098 123.912 63.3458 123.632 64.6258 123.632C65.8738 123.632 66.9778 123.904 67.9378 124.448C68.8978 124.992 69.6338 125.744 70.1458 126.704C70.6738 127.648 70.9378 128.72 70.9378 129.92ZM68.6818 129.464C68.6818 128.632 68.4978 127.92 68.1298 127.328C67.7618 126.72 67.2578 126.264 66.6178 125.96C65.9938 125.64 65.2978 125.48 64.5298 125.48C63.4258 125.48 62.4818 125.832 61.6978 126.536C60.9298 127.24 60.4898 128.216 60.3778 129.464H68.6818ZM73.0047 130.376C73.0047 129.032 73.2767 127.856 73.8207 126.848C74.3647 125.824 75.1087 125.032 76.0527 124.472C77.0127 123.912 78.0767 123.632 79.2447 123.632C80.3967 123.632 81.3967 123.88 82.2447 124.376C83.0927 124.872 83.7247 125.496 84.1407 126.248V123.848H86.3487V137H84.1407V134.552C83.7087 135.32 83.0607 135.96 82.1967 136.472C81.3487 136.968 80.3567 137.216 79.2207 137.216C78.0527 137.216 76.9967 136.928 76.0527 136.352C75.1087 135.776 74.3647 134.968 73.8207 133.928C73.2767 132.888 73.0047 131.704 73.0047 130.376ZM84.1407 130.4C84.1407 129.408 83.9407 128.544 83.5407 127.808C83.1407 127.072 82.5967 126.512 81.9087 126.128C81.2367 125.728 80.4927 125.528 79.6767 125.528C78.8607 125.528 78.1167 125.72 77.4447 126.104C76.7727 126.488 76.2367 127.048 75.8367 127.784C75.4367 128.52 75.2367 129.384 75.2367 130.376C75.2367 131.384 75.4367 132.264 75.8367 133.016C76.2367 133.752 76.7727 134.32 77.4447 134.72C78.1167 135.104 78.8607 135.296 79.6767 135.296C80.4927 135.296 81.2367 135.104 81.9087 134.72C82.5967 134.32 83.1407 133.752 83.5407 133.016C83.9407 132.264 84.1407 131.392 84.1407 130.4ZM89.2234 130.4C89.2234 129.04 89.4954 127.856 90.0394 126.848C90.5834 125.824 91.3354 125.032 92.2954 124.472C93.2714 123.912 94.3834 123.632 95.6314 123.632C97.2474 123.632 98.5754 124.024 99.6154 124.808C100.671 125.592 101.367 126.68 101.703 128.072H99.3514C99.1274 127.272 98.6874 126.64 98.0314 126.176C97.3914 125.712 96.5914 125.48 95.6314 125.48C94.3834 125.48 93.3754 125.912 92.6074 126.776C91.8394 127.624 91.4554 128.832 91.4554 130.4C91.4554 131.984 91.8394 133.208 92.6074 134.072C93.3754 134.936 94.3834 135.368 95.6314 135.368C96.5914 135.368 97.3914 135.144 98.0314 134.696C98.6714 134.248 99.1114 133.608 99.3514 132.776H101.703C101.351 134.12 100.647 135.2 99.5914 136.016C98.5354 136.816 97.2154 137.216 95.6314 137.216C94.3834 137.216 93.2714 136.936 92.2954 136.376C91.3354 135.816 90.5834 135.024 90.0394 134C89.4954 132.976 89.2234 131.776 89.2234 130.4ZM107.282 125.648V133.4C107.282 134.04 107.418 134.496 107.69 134.768C107.962 135.024 108.434 135.152 109.106 135.152H110.714V137H108.746C107.53 137 106.618 136.72 106.01 136.16C105.402 135.6 105.098 134.68 105.098 133.4V125.648H103.394V123.848H105.098V120.536H107.282V123.848H110.714V125.648H107.282Z" fill="#212529"/>
</svg>
