<svg width="238" height="146" viewBox="0 0 238 146" fill="none" xmlns="http://www.w3.org/2000/svg">
<path d="M157.819 0L150.75 79.1908L118.974 88L87.2861 79.2032L80.2246 0H157.819Z" fill="#264DE4"/>
<path d="M119.021 81.2667L144.698 74.1482L150.739 6.47607H119.021V81.2667Z" fill="#2965F1"/>
<path d="M119.022 35.8513H96.4131L97.2837 45.5652H119.022V35.8513Z" fill="#EBEBEB"/>
<path d="M119.022 16.1902H118.988H94.6641L95.5471 25.9042H119.022V16.1902Z" fill="#EBEBEB"/>
<path d="M97.7178 50.4224L99.0787 65.6747L118.977 71.1986L119.022 71.1861V61.0796L118.979 61.0909L108.161 58.1697L107.469 50.4224H102.212H97.7178Z" fill="#EBEBEB"/>
<path d="M130.95 45.5653L129.822 58.1636L118.988 61.0878V71.1939L138.902 65.6747L139.049 64.0336L141.331 38.4599L141.568 35.8515L143.322 16.1902H118.988V25.9042H132.676L131.792 35.8515H118.988V45.5653H130.95Z" fill="white"/>
<path d="M7.74575 137.168C6.64175 137.168 5.64975 136.976 4.76975 136.592C3.90575 136.192 3.22575 135.648 2.72975 134.96C2.23375 134.256 1.97775 133.448 1.96175 132.536H4.28975C4.36975 133.32 4.68975 133.984 5.24975 134.528C5.82575 135.056 6.65775 135.32 7.74575 135.32C8.78575 135.32 9.60175 135.064 10.1938 134.552C10.8018 134.024 11.1058 133.352 11.1058 132.536C11.1058 131.896 10.9298 131.376 10.5778 130.976C10.2258 130.576 9.78575 130.272 9.25775 130.064C8.72975 129.856 8.01775 129.632 7.12175 129.392C6.01775 129.104 5.12975 128.816 4.45775 128.528C3.80175 128.24 3.23375 127.792 2.75375 127.184C2.28975 126.56 2.05775 125.728 2.05775 124.688C2.05775 123.776 2.28975 122.968 2.75375 122.264C3.21775 121.56 3.86575 121.016 4.69775 120.632C5.54575 120.248 6.51375 120.056 7.60175 120.056C9.16975 120.056 10.4498 120.448 11.4418 121.232C12.4498 122.016 13.0178 123.056 13.1458 124.352H10.7458C10.6658 123.712 10.3298 123.152 9.73775 122.672C9.14575 122.176 8.36175 121.928 7.38575 121.928C6.47375 121.928 5.72975 122.168 5.15375 122.648C4.57775 123.112 4.28975 123.768 4.28975 124.616C4.28975 125.224 4.45775 125.72 4.79375 126.104C5.14575 126.488 5.56975 126.784 6.06575 126.992C6.57775 127.184 7.28975 127.408 8.20175 127.664C9.30575 127.968 10.1938 128.272 10.8658 128.576C11.5378 128.864 12.1138 129.32 12.5938 129.944C13.0738 130.552 13.3138 131.384 13.3138 132.44C13.3138 133.256 13.0978 134.024 12.6658 134.744C12.2338 135.464 11.5938 136.048 10.7458 136.496C9.89775 136.944 8.89775 137.168 7.74575 137.168ZM19.1917 125.648V133.4C19.1917 134.04 19.3277 134.496 19.5997 134.768C19.8717 135.024 20.3437 135.152 21.0157 135.152H22.6237V137H20.6557C19.4397 137 18.5277 136.72 17.9197 136.16C17.3117 135.6 17.0077 134.68 17.0077 133.4V125.648H15.3037V123.848H17.0077V120.536H19.1917V123.848H22.6237V125.648H19.1917ZM36.5979 123.848L28.6779 143.192H26.4219L29.0139 136.856L23.7099 123.848H26.1339L30.2619 134.504L34.3419 123.848H36.5979ZM40.9773 119.24V137H38.7933V119.24H40.9773ZM56.6996 129.92C56.6996 130.336 56.6756 130.776 56.6276 131.24H46.1156C46.1956 132.536 46.6356 133.552 47.4356 134.288C48.2516 135.008 49.2356 135.368 50.3876 135.368C51.3316 135.368 52.1156 135.152 52.7396 134.72C53.3796 134.272 53.8276 133.68 54.0836 132.944H56.4356C56.0836 134.208 55.3796 135.24 54.3236 136.04C53.2676 136.824 51.9556 137.216 50.3876 137.216C49.1396 137.216 48.0196 136.936 47.0276 136.376C46.0516 135.816 45.2836 135.024 44.7236 134C44.1636 132.96 43.8836 131.76 43.8836 130.4C43.8836 129.04 44.1556 127.848 44.6996 126.824C45.2436 125.8 46.0036 125.016 46.9796 124.472C47.9716 123.912 49.1076 123.632 50.3876 123.632C51.6356 123.632 52.7396 123.904 53.6996 124.448C54.6596 124.992 55.3956 125.744 55.9076 126.704C56.4356 127.648 56.6996 128.72 56.6996 129.92ZM54.4436 129.464C54.4436 128.632 54.2596 127.92 53.8916 127.328C53.5236 126.72 53.0196 126.264 52.3796 125.96C51.7556 125.64 51.0596 125.48 50.2916 125.48C49.1876 125.48 48.2436 125.832 47.4596 126.536C46.6916 127.24 46.2516 128.216 46.1396 129.464H54.4436ZM58.7664 130.376C58.7664 129.032 59.0384 127.856 59.5824 126.848C60.1264 125.824 60.8704 125.032 61.8144 124.472C62.7744 123.912 63.8464 123.632 65.0304 123.632C66.0544 123.632 67.0064 123.872 67.8864 124.352C68.7664 124.816 69.4384 125.432 69.9024 126.2V119.24H72.1104V137H69.9024V134.528C69.4704 135.312 68.8304 135.96 67.9824 136.472C67.1344 136.968 66.1424 137.216 65.0064 137.216C63.8384 137.216 62.7744 136.928 61.8144 136.352C60.8704 135.776 60.1264 134.968 59.5824 133.928C59.0384 132.888 58.7664 131.704 58.7664 130.376ZM69.9024 130.4C69.9024 129.408 69.7024 128.544 69.3024 127.808C68.9024 127.072 68.3584 126.512 67.6704 126.128C66.9984 125.728 66.2544 125.528 65.4384 125.528C64.6224 125.528 63.8784 125.72 63.2064 126.104C62.5344 126.488 61.9984 127.048 61.5984 127.784C61.1984 128.52 60.9984 129.384 60.9984 130.376C60.9984 131.384 61.1984 132.264 61.5984 133.016C61.9984 133.752 62.5344 134.32 63.2064 134.72C63.8784 135.104 64.6224 135.296 65.4384 135.296C66.2544 135.296 66.9984 135.104 67.6704 134.72C68.3584 134.32 68.9024 133.752 69.3024 133.016C69.7024 132.264 69.9024 131.392 69.9024 130.4ZM81.3836 128.624C81.3836 126.992 81.7516 125.528 82.4876 124.232C83.2236 122.92 84.2236 121.896 85.4876 121.16C86.7676 120.424 88.1836 120.056 89.7356 120.056C91.5596 120.056 93.1516 120.496 94.5116 121.376C95.8716 122.256 96.8636 123.504 97.4876 125.12H94.8716C94.4076 124.112 93.7356 123.336 92.8556 122.792C91.9916 122.248 90.9516 121.976 89.7356 121.976C88.5676 121.976 87.5196 122.248 86.5916 122.792C85.6636 123.336 84.9356 124.112 84.4076 125.12C83.8796 126.112 83.6156 127.28 83.6156 128.624C83.6156 129.952 83.8796 131.12 84.4076 132.128C84.9356 133.12 85.6636 133.888 86.5916 134.432C87.5196 134.976 88.5676 135.248 89.7356 135.248C90.9516 135.248 91.9916 134.984 92.8556 134.456C93.7356 133.912 94.4076 133.136 94.8716 132.128H97.4876C96.8636 133.728 95.8716 134.968 94.5116 135.848C93.1516 136.712 91.5596 137.144 89.7356 137.144C88.1836 137.144 86.7676 136.784 85.4876 136.064C84.2236 135.328 83.2236 134.312 82.4876 133.016C81.7516 131.72 81.3836 130.256 81.3836 128.624ZM106.475 137.216C105.243 137.216 104.123 136.936 103.115 136.376C102.123 135.816 101.339 135.024 100.763 134C100.203 132.96 99.9226 131.76 99.9226 130.4C99.9226 129.056 100.211 127.872 100.787 126.848C101.379 125.808 102.179 125.016 103.187 124.472C104.195 123.912 105.323 123.632 106.571 123.632C107.819 123.632 108.947 123.912 109.955 124.472C110.963 125.016 111.755 125.8 112.331 126.824C112.923 127.848 113.219 129.04 113.219 130.4C113.219 131.76 112.915 132.96 112.307 134C111.715 135.024 110.907 135.816 109.883 136.376C108.859 136.936 107.723 137.216 106.475 137.216ZM106.475 135.296C107.259 135.296 107.995 135.112 108.683 134.744C109.371 134.376 109.923 133.824 110.339 133.088C110.771 132.352 110.987 131.456 110.987 130.4C110.987 129.344 110.779 128.448 110.363 127.712C109.947 126.976 109.403 126.432 108.731 126.08C108.059 125.712 107.331 125.528 106.547 125.528C105.747 125.528 105.011 125.712 104.339 126.08C103.683 126.432 103.155 126.976 102.755 127.712C102.355 128.448 102.155 129.344 102.155 130.4C102.155 131.472 102.347 132.376 102.731 133.112C103.131 133.848 103.659 134.4 104.315 134.768C104.971 135.12 105.691 135.296 106.475 135.296ZM131.906 123.608C132.93 123.608 133.842 123.824 134.642 124.256C135.442 124.672 136.074 125.304 136.538 126.152C137.002 127 137.234 128.032 137.234 129.248V137H135.074V129.56C135.074 128.248 134.746 127.248 134.09 126.56C133.45 125.856 132.578 125.504 131.474 125.504C130.338 125.504 129.434 125.872 128.762 126.608C128.09 127.328 127.754 128.376 127.754 129.752V137H125.594V129.56C125.594 128.248 125.266 127.248 124.61 126.56C123.97 125.856 123.098 125.504 121.994 125.504C120.858 125.504 119.954 125.872 119.282 126.608C118.61 127.328 118.274 128.376 118.274 129.752V137H116.09V123.848H118.274V125.744C118.706 125.056 119.282 124.528 120.002 124.16C120.738 123.792 121.546 123.608 122.426 123.608C123.53 123.608 124.506 123.856 125.354 124.352C126.202 124.848 126.834 125.576 127.25 126.536C127.618 125.608 128.226 124.888 129.074 124.376C129.922 123.864 130.866 123.608 131.906 123.608ZM143.001 126.272C143.433 125.52 144.073 124.896 144.921 124.4C145.785 123.888 146.785 123.632 147.921 123.632C149.089 123.632 150.145 123.912 151.089 124.472C152.049 125.032 152.801 125.824 153.345 126.848C153.889 127.856 154.161 129.032 154.161 130.376C154.161 131.704 153.889 132.888 153.345 133.928C152.801 134.968 152.049 135.776 151.089 136.352C150.145 136.928 149.089 137.216 147.921 137.216C146.801 137.216 145.809 136.968 144.945 136.472C144.097 135.96 143.449 135.328 143.001 134.576V143.24H140.817V123.848H143.001V126.272ZM151.929 130.376C151.929 129.384 151.729 128.52 151.329 127.784C150.929 127.048 150.385 126.488 149.697 126.104C149.025 125.72 148.281 125.528 147.465 125.528C146.665 125.528 145.921 125.728 145.233 126.128C144.561 126.512 144.017 127.08 143.601 127.832C143.201 128.568 143.001 129.424 143.001 130.4C143.001 131.392 143.201 132.264 143.601 133.016C144.017 133.752 144.561 134.32 145.233 134.72C145.921 135.104 146.665 135.296 147.465 135.296C148.281 135.296 149.025 135.104 149.697 134.72C150.385 134.32 150.929 133.752 151.329 133.016C151.729 132.264 151.929 131.384 151.929 130.376ZM162.772 137.216C161.54 137.216 160.42 136.936 159.412 136.376C158.42 135.816 157.636 135.024 157.06 134C156.5 132.96 156.22 131.76 156.22 130.4C156.22 129.056 156.508 127.872 157.084 126.848C157.676 125.808 158.476 125.016 159.484 124.472C160.492 123.912 161.62 123.632 162.868 123.632C164.116 123.632 165.244 123.912 166.252 124.472C167.26 125.016 168.052 125.8 168.628 126.824C169.22 127.848 169.516 129.04 169.516 130.4C169.516 131.76 169.212 132.96 168.604 134C168.012 135.024 167.204 135.816 166.18 136.376C165.156 136.936 164.02 137.216 162.772 137.216ZM162.772 135.296C163.556 135.296 164.292 135.112 164.98 134.744C165.668 134.376 166.22 133.824 166.636 133.088C167.068 132.352 167.284 131.456 167.284 130.4C167.284 129.344 167.076 128.448 166.66 127.712C166.244 126.976 165.7 126.432 165.028 126.08C164.356 125.712 163.628 125.528 162.844 125.528C162.044 125.528 161.308 125.712 160.636 126.08C159.98 126.432 159.452 126.976 159.052 127.712C158.652 128.448 158.452 129.344 158.452 130.4C158.452 131.472 158.644 132.376 159.028 133.112C159.428 133.848 159.956 134.4 160.612 134.768C161.268 135.12 161.988 135.296 162.772 135.296ZM178.795 123.608C180.395 123.608 181.691 124.096 182.683 125.072C183.675 126.032 184.171 127.424 184.171 129.248V137H182.011V129.56C182.011 128.248 181.683 127.248 181.027 126.56C180.371 125.856 179.475 125.504 178.339 125.504C177.187 125.504 176.267 125.864 175.579 126.584C174.907 127.304 174.571 128.352 174.571 129.728V137H172.387V123.848H174.571V125.72C175.003 125.048 175.587 124.528 176.323 124.16C177.075 123.792 177.899 123.608 178.795 123.608ZM199.739 129.92C199.739 130.336 199.715 130.776 199.667 131.24H189.155C189.235 132.536 189.675 133.552 190.475 134.288C191.291 135.008 192.275 135.368 193.427 135.368C194.371 135.368 195.155 135.152 195.779 134.72C196.419 134.272 196.867 133.68 197.123 132.944H199.475C199.123 134.208 198.419 135.24 197.363 136.04C196.307 136.824 194.995 137.216 193.427 137.216C192.179 137.216 191.059 136.936 190.067 136.376C189.091 135.816 188.323 135.024 187.763 134C187.203 132.96 186.923 131.76 186.923 130.4C186.923 129.04 187.195 127.848 187.739 126.824C188.283 125.8 189.043 125.016 190.019 124.472C191.011 123.912 192.147 123.632 193.427 123.632C194.675 123.632 195.779 123.904 196.739 124.448C197.699 124.992 198.435 125.744 198.947 126.704C199.475 127.648 199.739 128.72 199.739 129.92ZM197.483 129.464C197.483 128.632 197.299 127.92 196.931 127.328C196.563 126.72 196.059 126.264 195.419 125.96C194.795 125.64 194.099 125.48 193.331 125.48C192.227 125.48 191.283 125.832 190.499 126.536C189.731 127.24 189.291 128.216 189.179 129.464H197.483ZM209.029 123.608C210.629 123.608 211.925 124.096 212.917 125.072C213.909 126.032 214.405 127.424 214.405 129.248V137H212.245V129.56C212.245 128.248 211.917 127.248 211.261 126.56C210.605 125.856 209.709 125.504 208.573 125.504C207.421 125.504 206.501 125.864 205.813 126.584C205.141 127.304 204.805 128.352 204.805 129.728V137H202.621V123.848H204.805V125.72C205.237 125.048 205.821 124.528 206.557 124.16C207.309 123.792 208.133 123.608 209.029 123.608ZM220.637 125.648V133.4C220.637 134.04 220.773 134.496 221.045 134.768C221.317 135.024 221.789 135.152 222.461 135.152H224.069V137H222.101C220.885 137 219.973 136.72 219.365 136.16C218.757 135.6 218.453 134.68 218.453 133.4V125.648H216.749V123.848H218.453V120.536H220.637V123.848H224.069V125.648H220.637ZM231.371 137.216C230.363 137.216 229.459 137.048 228.659 136.712C227.859 136.36 227.227 135.88 226.763 135.272C226.299 134.648 226.043 133.936 225.995 133.136H228.251C228.315 133.792 228.619 134.328 229.163 134.744C229.723 135.16 230.451 135.368 231.347 135.368C232.179 135.368 232.835 135.184 233.315 134.816C233.795 134.448 234.035 133.984 234.035 133.424C234.035 132.848 233.779 132.424 233.267 132.152C232.755 131.864 231.963 131.584 230.891 131.312C229.915 131.056 229.115 130.8 228.491 130.544C227.883 130.272 227.355 129.88 226.907 129.368C226.475 128.84 226.259 128.152 226.259 127.304C226.259 126.632 226.459 126.016 226.859 125.456C227.259 124.896 227.827 124.456 228.563 124.136C229.299 123.8 230.139 123.632 231.083 123.632C232.539 123.632 233.715 124 234.611 124.736C235.507 125.472 235.987 126.48 236.051 127.76H233.867C233.819 127.072 233.539 126.52 233.027 126.104C232.531 125.688 231.859 125.48 231.011 125.48C230.227 125.48 229.603 125.648 229.139 125.984C228.675 126.32 228.443 126.76 228.443 127.304C228.443 127.736 228.579 128.096 228.851 128.384C229.139 128.656 229.491 128.88 229.907 129.056C230.339 129.216 230.931 129.4 231.683 129.608C232.627 129.864 233.395 130.12 233.987 130.376C234.579 130.616 235.083 130.984 235.499 131.48C235.931 131.976 236.155 132.624 236.171 133.424C236.171 134.144 235.971 134.792 235.571 135.368C235.171 135.944 234.603 136.4 233.867 136.736C233.147 137.056 232.315 137.216 231.371 137.216Z" fill="#212529"/>
</svg>
