<svg width="273" height="274" viewBox="0 0 273 274" fill="none" xmlns="http://www.w3.org/2000/svg">
<rect y="0.681641" width="273" height="273" rx="136.5" fill="#FFFAF0"/>
<path d="M68.8651 136.848C69.5237 136.952 70.1217 137.22 70.6591 137.654C71.2137 138.087 71.6471 138.624 71.9591 139.266C72.2884 139.907 72.4531 140.592 72.4531 141.32C72.4531 142.238 72.2191 143.07 71.7511 143.816C71.2831 144.544 70.5984 145.124 69.6971 145.558C68.8131 145.974 67.7644 146.182 66.5511 146.182H59.7911V128.06H66.2911C67.5217 128.06 68.5704 128.268 69.4371 128.684C70.3037 129.082 70.9537 129.628 71.3871 130.322C71.8204 131.015 72.0371 131.795 72.0371 132.662C72.0371 133.736 71.7424 134.629 71.1531 135.34C70.5811 136.033 69.8184 136.536 68.8651 136.848ZM62.1571 135.886H66.1351C67.2444 135.886 68.1024 135.626 68.7091 135.106C69.3157 134.586 69.6191 133.866 69.6191 132.948C69.6191 132.029 69.3157 131.31 68.7091 130.79C68.1024 130.27 67.2271 130.01 66.0831 130.01H62.1571V135.886ZM66.3431 144.232C67.5217 144.232 68.4404 143.954 69.0991 143.4C69.7577 142.845 70.0871 142.074 70.0871 141.086C70.0871 140.08 69.7404 139.292 69.0471 138.72C68.3537 138.13 67.4264 137.836 66.2651 137.836H62.1571V144.232H66.3431ZM74.8524 139.006C74.8524 137.55 75.147 136.276 75.7364 135.184C76.3257 134.074 77.1317 133.216 78.1544 132.61C79.1944 132.003 80.347 131.7 81.6124 131.7C82.8604 131.7 83.9437 131.968 84.8624 132.506C85.781 133.043 86.4657 133.719 86.9164 134.534V131.934H89.3084V146.182H86.9164V143.53C86.4484 144.362 85.7464 145.055 84.8104 145.61C83.8917 146.147 82.817 146.416 81.5864 146.416C80.321 146.416 79.177 146.104 78.1544 145.48C77.1317 144.856 76.3257 143.98 75.7364 142.854C75.147 141.727 74.8524 140.444 74.8524 139.006ZM86.9164 139.032C86.9164 137.957 86.6997 137.021 86.2664 136.224C85.833 135.426 85.2437 134.82 84.4984 134.404C83.7704 133.97 82.9644 133.754 82.0804 133.754C81.1964 133.754 80.3904 133.962 79.6624 134.378C78.9344 134.794 78.3537 135.4 77.9204 136.198C77.487 136.995 77.2704 137.931 77.2704 139.006C77.2704 140.098 77.487 141.051 77.9204 141.866C78.3537 142.663 78.9344 143.278 79.6624 143.712C80.3904 144.128 81.1964 144.336 82.0804 144.336C82.9644 144.336 83.7704 144.128 84.4984 143.712C85.2437 143.278 85.833 142.663 86.2664 141.866C86.6997 141.051 86.9164 140.106 86.9164 139.032ZM92.4227 139.032C92.4227 137.558 92.7174 136.276 93.3067 135.184C93.896 134.074 94.7107 133.216 95.7507 132.61C96.808 132.003 98.0127 131.7 99.3647 131.7C101.115 131.7 102.554 132.124 103.681 132.974C104.825 133.823 105.579 135.002 105.943 136.51H103.395C103.152 135.643 102.675 134.958 101.965 134.456C101.271 133.953 100.405 133.702 99.3647 133.702C98.0127 133.702 96.9207 134.17 96.0887 135.106C95.2567 136.024 94.8407 137.333 94.8407 139.032C94.8407 140.748 95.2567 142.074 96.0887 143.01C96.9207 143.946 98.0127 144.414 99.3647 144.414C100.405 144.414 101.271 144.171 101.965 143.686C102.658 143.2 103.135 142.507 103.395 141.606H105.943C105.561 143.062 104.799 144.232 103.655 145.116C102.511 145.982 101.081 146.416 99.3647 146.416C98.0127 146.416 96.808 146.112 95.7507 145.506C94.7107 144.899 93.896 144.041 93.3067 142.932C92.7174 141.822 92.4227 140.522 92.4227 139.032ZM117.056 146.182L111.466 139.89V146.182H109.1V126.942H111.466V138.252L116.952 131.934H120.254L113.546 139.032L120.28 146.182H117.056ZM128.357 131.7C129.587 131.7 130.662 131.968 131.581 132.506C132.517 133.043 133.21 133.719 133.661 134.534V131.934H136.053V146.494C136.053 147.794 135.775 148.946 135.221 149.952C134.666 150.974 133.869 151.772 132.829 152.344C131.806 152.916 130.61 153.202 129.241 153.202C127.369 153.202 125.809 152.76 124.561 151.876C123.313 150.992 122.576 149.787 122.351 148.262H124.691C124.951 149.128 125.488 149.822 126.303 150.342C127.117 150.879 128.097 151.148 129.241 151.148C130.541 151.148 131.598 150.74 132.413 149.926C133.245 149.111 133.661 147.967 133.661 146.494V143.504C133.193 144.336 132.499 145.029 131.581 145.584C130.662 146.138 129.587 146.416 128.357 146.416C127.091 146.416 125.939 146.104 124.899 145.48C123.876 144.856 123.07 143.98 122.481 142.854C121.891 141.727 121.597 140.444 121.597 139.006C121.597 137.55 121.891 136.276 122.481 135.184C123.07 134.074 123.876 133.216 124.899 132.61C125.939 132.003 127.091 131.7 128.357 131.7ZM133.661 139.032C133.661 137.957 133.444 137.021 133.011 136.224C132.577 135.426 131.988 134.82 131.243 134.404C130.515 133.97 129.709 133.754 128.825 133.754C127.941 133.754 127.135 133.962 126.407 134.378C125.679 134.794 125.098 135.4 124.665 136.198C124.231 136.995 124.015 137.931 124.015 139.006C124.015 140.098 124.231 141.051 124.665 141.866C125.098 142.663 125.679 143.278 126.407 143.712C127.135 144.128 127.941 144.336 128.825 144.336C129.709 144.336 130.515 144.128 131.243 143.712C131.988 143.278 132.577 142.663 133.011 141.866C133.444 141.051 133.661 140.106 133.661 139.032ZM142.417 134.248C142.833 133.433 143.422 132.8 144.185 132.35C144.965 131.899 145.909 131.674 147.019 131.674V134.118H146.395C143.743 134.118 142.417 135.556 142.417 138.434V146.182H140.051V131.934H142.417V134.248ZM155.964 146.416C154.629 146.416 153.416 146.112 152.324 145.506C151.249 144.899 150.4 144.041 149.776 142.932C149.169 141.805 148.866 140.505 148.866 139.032C148.866 137.576 149.178 136.293 149.802 135.184C150.443 134.057 151.31 133.199 152.402 132.61C153.494 132.003 154.716 131.7 156.068 131.7C157.42 131.7 158.642 132.003 159.734 132.61C160.826 133.199 161.684 134.048 162.308 135.158C162.949 136.267 163.27 137.558 163.27 139.032C163.27 140.505 162.941 141.805 162.282 142.932C161.641 144.041 160.765 144.899 159.656 145.506C158.547 146.112 157.316 146.416 155.964 146.416ZM155.964 144.336C156.813 144.336 157.611 144.136 158.356 143.738C159.101 143.339 159.699 142.741 160.15 141.944C160.618 141.146 160.852 140.176 160.852 139.032C160.852 137.888 160.627 136.917 160.176 136.12C159.725 135.322 159.136 134.733 158.408 134.352C157.68 133.953 156.891 133.754 156.042 133.754C155.175 133.754 154.378 133.953 153.65 134.352C152.939 134.733 152.367 135.322 151.934 136.12C151.501 136.917 151.284 137.888 151.284 139.032C151.284 140.193 151.492 141.172 151.908 141.97C152.341 142.767 152.913 143.365 153.624 143.764C154.335 144.145 155.115 144.336 155.964 144.336ZM179.017 131.934V146.182H176.651V144.076C176.2 144.804 175.568 145.376 174.753 145.792C173.956 146.19 173.072 146.39 172.101 146.39C170.992 146.39 169.995 146.164 169.111 145.714C168.227 145.246 167.525 144.552 167.005 143.634C166.502 142.715 166.251 141.597 166.251 140.28V131.934H168.591V139.968C168.591 141.372 168.946 142.455 169.657 143.218C170.368 143.963 171.338 144.336 172.569 144.336C173.834 144.336 174.831 143.946 175.559 143.166C176.287 142.386 176.651 141.25 176.651 139.76V131.934H179.017ZM189.954 131.674C191.687 131.674 193.091 132.202 194.166 133.26C195.24 134.3 195.778 135.808 195.778 137.784V146.182H193.438V138.122C193.438 136.7 193.082 135.617 192.372 134.872C191.661 134.109 190.69 133.728 189.46 133.728C188.212 133.728 187.215 134.118 186.47 134.898C185.742 135.678 185.378 136.813 185.378 138.304V146.182H183.012V131.934H185.378V133.962C185.846 133.234 186.478 132.67 187.276 132.272C188.09 131.873 188.983 131.674 189.954 131.674ZM198.759 139.006C198.759 137.55 199.053 136.276 199.643 135.184C200.232 134.074 201.038 133.216 202.061 132.61C203.101 132.003 204.262 131.7 205.545 131.7C206.654 131.7 207.685 131.96 208.639 132.48C209.592 132.982 210.32 133.65 210.823 134.482V126.942H213.215V146.182H210.823V143.504C210.355 144.353 209.661 145.055 208.743 145.61C207.824 146.147 206.749 146.416 205.519 146.416C204.253 146.416 203.101 146.104 202.061 145.48C201.038 144.856 200.232 143.98 199.643 142.854C199.053 141.727 198.759 140.444 198.759 139.006ZM210.823 139.032C210.823 137.957 210.606 137.021 210.173 136.224C209.739 135.426 209.15 134.82 208.405 134.404C207.677 133.97 206.871 133.754 205.987 133.754C205.103 133.754 204.297 133.962 203.569 134.378C202.841 134.794 202.26 135.4 201.827 136.198C201.393 136.995 201.177 137.931 201.177 139.006C201.177 140.098 201.393 141.051 201.827 141.866C202.26 142.663 202.841 143.278 203.569 143.712C204.297 144.128 205.103 144.336 205.987 144.336C206.871 144.336 207.677 144.128 208.405 143.712C209.15 143.278 209.739 142.663 210.173 141.866C210.606 141.051 210.823 140.106 210.823 139.032Z" fill="#212529"/>
</svg>
