<svg width="360" height="361" viewBox="0 0 360 361" fill="none" xmlns="http://www.w3.org/2000/svg">
<rect y="0.681641" width="360" height="360" rx="180" fill="#7A7A7A"/>
<path d="M111.329 189.314H119.137V191.682H108.417V169.378H111.329V189.314ZM123.734 171.298C123.179 171.298 122.71 171.106 122.326 170.722C121.942 170.338 121.75 169.868 121.75 169.314C121.75 168.759 121.942 168.29 122.326 167.906C122.71 167.522 123.179 167.33 123.734 167.33C124.267 167.33 124.715 167.522 125.078 167.906C125.462 168.29 125.654 168.759 125.654 169.314C125.654 169.868 125.462 170.338 125.078 170.722C124.715 171.106 124.267 171.298 123.734 171.298ZM125.142 174.146V191.682H122.23V174.146H125.142ZM137.337 173.858C138.851 173.858 140.174 174.188 141.305 174.85C142.457 175.511 143.31 176.343 143.865 177.346V174.146H146.809V192.066C146.809 193.666 146.467 195.084 145.785 196.322C145.102 197.58 144.121 198.562 142.841 199.266C141.582 199.97 140.11 200.322 138.425 200.322C136.121 200.322 134.201 199.778 132.665 198.69C131.129 197.602 130.222 196.119 129.945 194.242H132.825C133.145 195.308 133.806 196.162 134.809 196.802C135.811 197.463 137.017 197.794 138.425 197.794C140.025 197.794 141.326 197.292 142.329 196.29C143.353 195.287 143.865 193.879 143.865 192.066V188.386C143.289 189.41 142.435 190.263 141.305 190.946C140.174 191.628 138.851 191.97 137.337 191.97C135.779 191.97 134.361 191.586 133.081 190.818C131.822 190.05 130.83 188.972 130.105 187.586C129.379 186.199 129.017 184.62 129.017 182.85C129.017 181.058 129.379 179.49 130.105 178.146C130.83 176.78 131.822 175.724 133.081 174.978C134.361 174.231 135.779 173.858 137.337 173.858ZM143.865 182.882C143.865 181.559 143.598 180.407 143.065 179.426C142.531 178.444 141.806 177.698 140.889 177.186C139.993 176.652 139.001 176.386 137.913 176.386C136.825 176.386 135.833 176.642 134.937 177.154C134.041 177.666 133.326 178.412 132.793 179.394C132.259 180.375 131.993 181.527 131.993 182.85C131.993 184.194 132.259 185.367 132.793 186.37C133.326 187.351 134.041 188.108 134.937 188.642C135.833 189.154 136.825 189.41 137.913 189.41C139.001 189.41 139.993 189.154 140.889 188.642C141.806 188.108 142.531 187.351 143.065 186.37C143.598 185.367 143.865 184.204 143.865 182.882ZM160.434 173.826C161.756 173.826 162.951 174.114 164.018 174.69C165.084 175.244 165.916 176.087 166.514 177.218C167.132 178.348 167.442 179.724 167.442 181.346V191.682H164.562V181.762C164.562 180.012 164.124 178.679 163.25 177.762C162.375 176.823 161.18 176.354 159.666 176.354C158.13 176.354 156.903 176.834 155.986 177.794C155.09 178.754 154.642 180.151 154.642 181.986V191.682H151.73V168.002H154.642V176.642C155.218 175.746 156.007 175.052 157.01 174.562C158.034 174.071 159.175 173.826 160.434 173.826ZM175.75 176.546V186.882C175.75 187.735 175.932 188.343 176.294 188.706C176.657 189.047 177.286 189.218 178.182 189.218H180.326V191.682H177.702C176.081 191.682 174.865 191.308 174.054 190.562C173.244 189.815 172.838 188.588 172.838 186.882V176.546H170.566V174.146H172.838V169.73H175.75V174.146H180.326V176.546H175.75ZM206.114 169.378V171.746H200.034V191.682H197.122V171.746H191.01V169.378H206.114ZM225.698 182.242C225.698 182.796 225.666 183.383 225.602 184.002H211.586C211.693 185.73 212.28 187.084 213.346 188.066C214.434 189.026 215.746 189.506 217.282 189.506C218.541 189.506 219.586 189.218 220.418 188.642C221.272 188.044 221.869 187.255 222.21 186.274H225.346C224.877 187.959 223.938 189.335 222.53 190.402C221.122 191.447 219.373 191.97 217.282 191.97C215.618 191.97 214.125 191.596 212.802 190.85C211.501 190.103 210.477 189.047 209.73 187.682C208.984 186.295 208.61 184.695 208.61 182.882C208.61 181.068 208.973 179.479 209.698 178.114C210.424 176.748 211.437 175.703 212.738 174.978C214.061 174.231 215.576 173.858 217.282 173.858C218.946 173.858 220.418 174.22 221.698 174.946C222.978 175.671 223.96 176.674 224.642 177.954C225.346 179.212 225.698 180.642 225.698 182.242ZM222.69 181.634C222.69 180.524 222.445 179.575 221.954 178.786C221.464 177.975 220.792 177.367 219.938 176.962C219.106 176.535 218.178 176.322 217.154 176.322C215.682 176.322 214.424 176.791 213.378 177.73C212.354 178.668 211.768 179.97 211.618 181.634H222.69ZM238.694 191.682L234.534 185.154L230.534 191.682H227.494L233.158 182.978L227.494 174.146H230.79L234.95 180.642L238.918 174.146H241.958L236.326 182.818L241.99 191.682H238.694ZM248.407 176.546V186.882C248.407 187.735 248.588 188.343 248.951 188.706C249.313 189.047 249.943 189.218 250.839 189.218H252.983V191.682H250.359C248.737 191.682 247.521 191.308 246.711 190.562C245.9 189.815 245.495 188.588 245.495 186.882V176.546H243.223V174.146H245.495V169.73H248.407V174.146H252.983V176.546H248.407Z" fill="white"/>
</svg>
