<svg width="101" height="100" viewBox="0 0 101 100" fill="none" xmlns="http://www.w3.org/2000/svg">
<rect x="0.5" width="100" height="100" rx="50" fill="#F5E8E8"/>
<path d="M34.3598 63.6202L35.4221 56.3367C35.4868 55.8607 35.7038 55.4179 36.0433 55.0767L56.6251 34.4669C56.892 34.1974 57.2237 34.0009 57.5884 33.8964C57.953 33.7919 58.3384 33.7829 58.7076 33.8702C60.5967 34.3933 62.3092 35.4177 63.6636 36.8347C65.0767 38.1984 66.094 39.9196 66.6071 41.8152C66.6944 42.1844 66.6853 42.5698 66.5808 42.9344C66.4763 43.2991 66.2799 43.6308 66.0103 43.8977L45.4058 64.4812C45.0637 64.8193 44.6208 65.0367 44.1441 65.1007L36.8623 66.1629C36.5184 66.2131 36.1674 66.1815 35.8379 66.0707C35.5084 65.9599 35.2097 65.773 34.966 65.5252C34.7222 65.2773 34.5403 64.9755 34.435 64.6442C34.3297 64.313 34.3039 63.9615 34.3598 63.6184M52.7313 38.3869L62.1166 47.7722" stroke="#9C6363" stroke-width="1.5" stroke-linecap="round" stroke-linejoin="round"/>
</svg>
