<svg width="151" height="48" viewBox="0 0 151 48" fill="none" xmlns="http://www.w3.org/2000/svg">
<g clip-path="url(#clip0_23_286)">
<path d="M19.2634 17.2705V22.2909H31.3792C31.0575 25.0682 30.0926 27.2045 28.5915 28.5932C26.876 30.3023 24.0883 32.225 19.2634 32.225C11.8653 32.225 6.07541 26.2432 6.07541 18.8727C6.07541 11.5023 11.758 5.52045 19.2634 5.52045C23.2305 5.52045 26.2327 7.12273 28.3771 9.15227L31.9153 5.62727C28.9132 2.74318 24.8388 0.5 19.2634 0.5C9.07756 0.5 0.5 8.725 0.5 18.8727C0.5 29.0205 9.07756 37.2455 19.2634 37.2455C24.7316 37.2455 28.9132 35.4295 32.1297 32.1182C35.4535 28.8068 36.5257 24.1068 36.5257 20.3682C36.5257 19.1932 36.4185 18.125 36.3113 17.2705H19.2634Z" fill="#4285F4"/>
<path d="M51.5365 13.1045C44.9961 13.1045 39.5279 18.1249 39.5279 24.9613C39.5279 31.7977 44.8889 36.8181 51.5365 36.8181C58.1841 36.8181 63.545 31.9045 63.545 25.0681C63.545 18.1249 58.1841 13.1045 51.5365 13.1045ZM51.5365 32.2249C47.891 32.2249 44.7816 29.234 44.7816 25.0681C44.7816 20.7954 47.891 17.9113 51.5365 17.9113C55.1819 17.9113 58.2913 20.7954 58.2913 25.0681C58.2913 29.234 55.1819 32.2249 51.5365 32.2249Z" fill="#EA4335"/>
<path d="M110.186 15.7749H109.971C108.792 14.3863 106.54 13.1045 103.645 13.1045C97.6408 13.1045 92.4943 18.2318 92.4943 24.9613C92.4943 31.584 97.6408 36.8181 103.645 36.8181C106.54 36.8181 108.792 35.5363 109.971 34.1477H110.186V35.8568C110.186 40.3431 107.719 42.7999 103.86 42.7999C100.643 42.7999 98.713 40.5568 97.8553 38.5272L93.352 40.4499C94.6387 43.5477 98.1769 47.4999 103.967 47.4999C110.078 47.4999 115.332 43.8681 115.332 35.109V13.7454H110.4V15.7749H110.186ZM104.181 32.2249C100.536 32.2249 97.8553 29.1272 97.8553 25.0681C97.8553 20.9022 100.643 17.9113 104.181 17.9113C107.719 17.9113 110.507 21.009 110.507 25.1749C110.614 29.234 107.827 32.2249 104.181 32.2249Z" fill="#4285F4"/>
<path d="M78.2341 13.1045C71.6937 13.1045 66.2255 18.1249 66.2255 24.9613C66.2255 31.7977 71.5865 36.8181 78.2341 36.8181C84.8817 36.8181 90.2427 31.9045 90.2427 25.0681C90.2427 18.1249 84.8817 13.1045 78.2341 13.1045ZM78.2341 32.2249C74.5886 32.2249 71.4793 29.234 71.4793 25.0681C71.4793 20.7954 74.5886 17.9113 78.2341 17.9113C81.8796 17.9113 84.9889 20.7954 84.9889 25.0681C84.9889 29.234 81.8796 32.2249 78.2341 32.2249Z" fill="#FBBC05"/>
<path d="M119.299 1.03418H124.446V36.9251H119.299V1.03418Z" fill="#34A853"/>
<path d="M140.314 32.2249C137.634 32.2249 135.811 31.0499 134.524 28.5931L150.5 22.0772L149.964 20.6886C148.999 18.0181 145.89 13.1045 139.778 13.1045C133.667 13.1045 128.52 17.9113 128.52 24.9613C128.52 31.584 133.559 36.8181 140.314 36.8181C145.782 36.8181 148.892 33.5068 150.286 31.584L146.211 28.9136C144.817 30.9431 142.995 32.2249 140.314 32.2249ZM139.993 17.5909C142.137 17.5909 143.96 18.659 144.496 20.1545L133.774 24.6409C133.667 19.7272 137.312 17.5909 139.993 17.5909Z" fill="#EA4335"/>
</g>
<defs>
<clipPath id="clip0_23_286">
<rect width="150" height="47" fill="white" transform="translate(0.5 0.5)"/>
</clipPath>
</defs>
</svg>
