<svg width="122" height="42" viewBox="0 0 122 42" fill="none" xmlns="http://www.w3.org/2000/svg">
<path d="M110.14 17.1191C111.607 17.1191 112.796 15.931 112.796 14.4653C112.796 12.9997 111.607 11.8115 110.14 11.8115C108.673 11.8115 107.483 12.9997 107.483 14.4653C107.483 15.931 108.673 17.1191 110.14 17.1191Z" fill="#222222"/>
<path d="M72.2011 25.7814C73.5042 25.7814 74.2559 24.805 74.2058 23.8537C74.1807 23.353 74.1306 23.0275 74.0805 22.7771C73.2786 19.3222 70.4721 16.7686 67.1393 16.7686C63.1801 16.7686 59.9726 20.3487 59.9726 24.755C59.9726 29.1613 63.1801 32.7414 67.1393 32.7414C69.6201 32.7414 71.3993 31.8401 72.6772 30.413C73.3037 29.712 73.1784 28.6355 72.4267 28.1098C71.8002 27.6841 71.0234 27.8344 70.447 28.31C69.8957 28.7857 68.8433 29.7371 67.1393 29.7371C65.1346 29.7371 63.4307 28.0096 63.0548 25.7314H72.2011V25.7814ZM67.1143 19.7979C68.9185 19.7979 70.4721 21.1999 71.0484 23.1276H63.1801C63.7564 21.1748 65.31 19.7979 67.1143 19.7979Z" fill="#222222"/>
<path d="M60.1229 18.3459C60.1229 17.5948 59.5717 16.994 58.87 16.8688C56.6899 16.5433 54.6351 17.3445 53.4574 18.8216V18.6213C53.4574 17.695 52.7056 17.1192 51.9539 17.1192C51.127 17.1192 50.4504 17.7951 50.4504 18.6213V30.8888C50.4504 31.69 51.0518 32.391 51.8536 32.4411C52.7307 32.4911 53.4574 31.8152 53.4574 30.9389V24.6049C53.4574 21.8009 55.5623 19.4976 58.4691 19.823C58.5693 19.823 58.6696 19.823 58.7698 19.823C59.5215 19.773 60.1229 19.122 60.1229 18.3459Z" fill="#222222"/>
<path d="M111.643 19.9484C111.643 19.1223 110.967 18.4463 110.14 18.4463C109.313 18.4463 108.636 19.1223 108.636 19.9484C108.636 19.9985 108.636 30.4635 108.636 30.9391C108.636 31.7653 109.313 32.4413 110.14 32.4413C110.967 32.4413 111.643 31.7653 111.643 30.9391C111.643 30.4885 111.643 20.0235 111.643 19.9484Z" fill="#222222"/>
<path d="M89.291 11.6364C89.291 10.8102 88.6144 10.1343 87.7875 10.1343C86.9606 10.1343 86.284 10.8102 86.284 11.6364V18.321C85.2566 17.2945 83.9786 16.7938 82.45 16.7938C78.4908 16.7938 75.2833 20.3739 75.2833 24.7802C75.2833 29.1865 78.4908 32.7666 82.45 32.7666C83.9786 32.7666 85.2817 32.2409 86.3091 31.2144C86.4343 31.9154 87.0608 32.4411 87.7875 32.4411C88.6144 32.4411 89.291 31.7652 89.291 30.939V11.6364ZM82.4751 29.7874C80.1697 29.7874 78.3154 27.5592 78.3154 24.7802C78.3154 22.0263 80.1697 19.773 82.4751 19.773C84.7805 19.773 86.6348 22.0012 86.6348 24.7802C86.6348 27.5592 84.7554 29.7874 82.4751 29.7874Z" fill="#222222"/>
<path d="M104.978 11.6364C104.978 10.8102 104.301 10.1343 103.474 10.1343C102.647 10.1343 101.971 10.8102 101.971 11.6364V18.321C100.943 17.2945 99.6652 16.7938 98.1366 16.7938C94.1774 16.7938 90.9699 20.3739 90.9699 24.7802C90.9699 29.1865 94.1774 32.7666 98.1366 32.7666C99.6652 32.7666 100.968 32.2409 101.996 31.2144C102.121 31.9154 102.747 32.4411 103.474 32.4411C104.301 32.4411 104.978 31.7652 104.978 30.939V11.6364ZM98.1366 29.7874C95.8313 29.7874 93.9769 27.5592 93.9769 24.7802C93.9769 22.0263 95.8313 19.773 98.1366 19.773C100.442 19.773 102.296 22.0012 102.296 24.7802C102.296 27.5592 100.442 29.7874 98.1366 29.7874Z" fill="#222222"/>
<path d="M119.261 30.964V19.7981H120.589C121.291 19.7981 121.917 19.2723 121.967 18.5463C122.017 17.7702 121.391 17.1193 120.639 17.1193H119.261V15.0163C119.261 14.2151 118.66 13.5141 117.858 13.464C116.981 13.414 116.254 14.0899 116.254 14.9662V17.1443H115.001C114.299 17.1443 113.673 17.67 113.623 18.3961C113.573 19.1722 114.199 19.8231 114.951 19.8231H116.229V30.9891C116.229 31.8153 116.905 32.4912 117.732 32.4912C118.609 32.4411 119.261 31.7902 119.261 30.964Z" fill="#222222"/>
<path d="M21.0317 41.98C32.6292 41.98 42.0307 32.5869 42.0307 21C42.0307 9.41307 32.6292 0.0200195 21.0317 0.0200195C9.43432 0.0200195 0.0327454 9.41307 0.0327454 21C0.0327454 32.5869 9.43432 41.98 21.0317 41.98Z" fill="#222222"/>
<path d="M35.0394 21.0001C35.0394 19.2977 33.6612 17.9458 31.9823 17.9458C31.1554 17.9458 30.4036 18.2712 29.8523 18.797C27.7474 17.2948 24.8657 16.3184 21.6582 16.1933L23.0615 9.63389L27.6221 10.6103C27.6723 11.7619 28.6245 12.6883 29.8022 12.6883C31.005 12.6883 31.9823 11.7119 31.9823 10.5101C31.9823 9.30843 31.005 8.33203 29.8022 8.33203C28.9502 8.33203 28.1985 8.83275 27.8477 9.55878L22.7608 8.48225C22.6104 8.45721 22.4601 8.48225 22.3599 8.55735C22.2346 8.63246 22.1594 8.75764 22.1343 8.90785L20.5807 16.2183C17.3231 16.3184 14.3913 17.2948 12.2613 18.822C11.71 18.2963 10.9583 17.9708 10.1313 17.9708C8.42735 17.9708 7.07419 19.3478 7.07419 21.0252C7.07419 22.277 7.82594 23.3285 8.8784 23.8041C8.82828 24.1046 8.80322 24.405 8.80322 24.7305C8.80322 29.4372 14.291 33.2677 21.0568 33.2677C27.8226 33.2677 33.3104 29.4622 33.3104 24.7305C33.3104 24.43 33.2854 24.1046 33.2352 23.8041C34.2877 23.3285 35.0394 22.2519 35.0394 21.0001ZM14.0404 23.1782C14.0404 21.9765 15.0177 21.0001 16.2205 21.0001C17.4233 21.0001 18.4006 21.9765 18.4006 23.1782C18.4006 24.38 17.4233 25.3563 16.2205 25.3563C15.0177 25.3814 14.0404 24.38 14.0404 23.1782ZM26.2439 28.9615C24.7404 30.4636 21.8837 30.5638 21.0568 30.5638C20.2048 30.5638 17.3482 30.4386 15.8697 28.9615C15.6442 28.7362 15.6442 28.3857 15.8697 28.1604C16.0952 27.935 16.4461 27.935 16.6716 28.1604C17.6238 29.1117 19.6285 29.4372 21.0568 29.4372C22.4851 29.4372 24.5149 29.1117 25.442 28.1604C25.6676 27.935 26.0184 27.935 26.2439 28.1604C26.4444 28.3857 26.4444 28.7362 26.2439 28.9615ZM25.843 25.3814C24.6402 25.3814 23.6629 24.405 23.6629 23.2033C23.6629 22.0016 24.6402 21.0252 25.843 21.0252C27.0458 21.0252 28.0231 22.0016 28.0231 23.2033C28.0231 24.38 27.0458 25.3814 25.843 25.3814Z" fill="white"/>
</svg>
