<svg width="148" height="46" viewBox="0 0 148 46" fill="none" xmlns="http://www.w3.org/2000/svg">
<path d="M35.3886 20.4828C28.2465 16.2367 16.4657 15.8462 9.64764 17.9178C8.55271 18.2503 7.39495 17.6315 7.06319 16.5354C6.73143 15.4389 7.34886 14.2806 8.4445 13.9473C16.2712 11.5687 29.2818 12.0283 37.504 16.9145C38.489 17.4996 38.8121 18.7729 38.2281 19.7574C37.644 20.7431 36.371 21.0681 35.3886 20.4828ZM35.1548 26.7721C34.6539 27.5861 33.5908 27.8412 32.7788 27.3417C26.8244 23.6775 17.7446 22.616 10.7001 24.7566C9.78654 25.033 8.82163 24.5174 8.54425 23.6045C8.26889 22.69 8.78422 21.7257 9.69611 21.4476C17.7436 19.003 27.7475 20.1871 34.5864 24.3946C35.3984 24.8952 35.654 25.9601 35.1548 26.7721ZM32.4436 32.8121C32.0456 33.4656 31.1953 33.6706 30.5449 33.2722C25.3417 30.0887 18.7928 29.3695 11.0802 31.1333C10.3369 31.304 9.59625 30.8375 9.42666 30.0937C9.25645 29.3497 9.7204 28.6083 10.4654 28.4385C18.9054 26.5069 26.1454 27.3382 31.9856 30.9109C32.6367 31.3089 32.8418 32.1606 32.4436 32.8121ZM22.2822 0.818439C10.0454 0.818439 0.125122 10.7492 0.125122 22.9996C0.125122 35.2511 10.0454 45.1816 22.2822 45.1816C34.5195 45.1816 44.4392 35.2511 44.4392 22.9996C44.4392 10.7492 34.5195 0.818439 22.2822 0.818439Z" fill="#1ED760"/>
<path d="M60.4068 21.2957C56.5812 20.3824 55.8999 19.7413 55.8999 18.3947C55.8999 17.122 57.0969 16.2659 58.8765 16.2659C60.6016 16.2659 62.3118 16.9162 64.1054 18.2549C64.1597 18.2954 64.2277 18.3116 64.2946 18.301C64.3615 18.2909 64.4205 18.2543 64.46 18.1987L66.3279 15.5627C66.4046 15.4543 66.3837 15.3044 66.2803 15.2215C64.1459 13.507 61.7424 12.6734 58.9331 12.6734C54.8024 12.6734 51.9171 15.1548 51.9171 18.7057C51.9171 22.5134 54.4061 23.8615 58.7071 24.9022C62.3679 25.7463 62.9857 26.4535 62.9857 27.7179C62.9857 29.1188 61.7363 29.9897 59.7258 29.9897C57.493 29.9897 55.6713 29.2367 53.6338 27.4702C53.5832 27.4268 53.5139 27.4067 53.4499 27.4103C53.3827 27.4159 53.321 27.4471 53.2782 27.4988L51.1837 29.9942C51.0959 30.0978 51.107 30.2525 51.2083 30.342C53.5793 32.4608 56.4947 33.5801 59.6411 33.5801C64.0922 33.5801 66.9685 31.1451 66.9685 27.3767C66.9685 24.1919 65.0677 22.4305 60.4068 21.2957Z" fill="#1ED760"/>
<path d="M80.2699 25.5644C80.2699 28.2537 78.6152 30.1303 76.2458 30.1303C73.9035 30.1303 72.1366 28.1685 72.1366 25.5644C72.1366 22.9607 73.9035 20.9986 76.2458 20.9986C78.5771 20.9986 80.2699 22.9183 80.2699 25.5644ZM77.0388 17.5188C75.1094 17.5188 73.527 18.2795 72.222 19.8383V18.0837C72.222 17.9452 72.1099 17.8324 71.9715 17.8324H68.5462C68.4078 17.8324 68.2959 17.9452 68.2959 18.0837V37.5793C68.2959 37.7178 68.4078 37.8306 68.5462 37.8306H71.9715C72.1099 37.8306 72.222 37.7178 72.222 37.5793V31.4256C73.5272 32.892 75.11 33.6082 77.0388 33.6082C80.6236 33.6082 84.2526 30.8455 84.2526 25.5644C84.2526 20.2821 80.6236 17.5188 77.0388 17.5188Z" fill="#1ED760"/>
<path d="M93.5548 30.1585C91.0992 30.1585 89.248 28.1833 89.248 25.5644C89.248 22.9346 91.0352 21.0261 93.4982 21.0261C95.9697 21.0261 97.8334 23.0012 97.8334 25.6218C97.8334 28.2514 96.034 30.1585 93.5548 30.1585ZM93.5548 17.5188C88.9381 17.5188 85.3213 21.0777 85.3213 25.6218C85.3213 30.1166 88.9133 33.6382 93.4982 33.6382C98.1313 33.6382 101.759 30.0912 101.759 25.5644C101.759 21.0528 98.1562 17.5188 93.5548 17.5188Z" fill="#1ED760"/>
<path d="M111.618 17.8323H107.849V13.9741C107.849 13.8356 107.737 13.723 107.599 13.723H104.174C104.035 13.723 103.922 13.8356 103.922 13.9741V17.8323H102.275C102.137 17.8323 102.026 17.9451 102.026 18.0837V21.0309C102.026 21.1693 102.137 21.2821 102.275 21.2821H103.922V28.9084C103.922 31.9903 105.454 33.5527 108.476 33.5527C109.705 33.5527 110.724 33.2987 111.685 32.7534C111.763 32.7097 111.812 32.6255 111.812 32.5359V29.7293C111.812 29.6426 111.767 29.5611 111.693 29.5155C111.618 29.4687 111.525 29.4663 111.449 29.5042C110.789 29.8365 110.151 29.9899 109.438 29.9899C108.339 29.9899 107.849 29.4906 107.849 28.371V21.2821H111.618C111.757 21.2821 111.868 21.1693 111.868 21.0309V18.0837C111.868 17.9451 111.757 17.8323 111.618 17.8323Z" fill="#1ED760"/>
<path d="M124.751 17.8473V17.3735C124.751 15.9794 125.285 15.3578 126.483 15.3578C127.197 15.3578 127.77 15.4997 128.413 15.7143C128.492 15.7392 128.574 15.7267 128.639 15.6793C128.705 15.6319 128.742 15.5559 128.742 15.4754V12.5856C128.742 12.4751 128.671 12.3774 128.565 12.3451C127.887 12.143 127.018 11.9353 125.718 11.9353C122.554 11.9353 120.882 13.719 120.882 17.0917V17.8174H119.236C119.098 17.8174 118.985 17.93 118.985 18.0685V21.0308C118.985 21.1693 119.098 21.282 119.236 21.282H120.882V33.0452C120.882 33.1837 120.993 33.2963 121.132 33.2963H124.557C124.695 33.2963 124.808 33.1837 124.808 33.0452V21.282H128.006L132.905 33.0421C132.349 34.2777 131.802 34.5235 131.056 34.5235C130.452 34.5235 129.817 34.3431 129.167 33.9871C129.106 33.9534 129.034 33.9479 128.967 33.9683C128.902 33.9916 128.847 34.0401 128.819 34.104L127.658 36.6539C127.603 36.7743 127.65 36.9159 127.766 36.9784C128.978 37.6355 130.072 37.916 131.424 37.916C133.954 37.916 135.352 36.7363 136.584 33.563L142.527 18.1896C142.557 18.1122 142.548 18.0251 142.501 17.9562C142.454 17.8884 142.378 17.8473 142.295 17.8473H138.729C138.622 17.8473 138.526 17.9152 138.491 18.0155L134.838 28.4618L130.837 18.0087C130.8 17.9114 130.707 17.8473 130.603 17.8473H124.751Z" fill="#1ED760"/>
<path d="M117.138 17.8323H113.712C113.574 17.8323 113.461 17.9452 113.461 18.0837V33.0453C113.461 33.1838 113.574 33.2964 113.712 33.2964H117.138C117.276 33.2964 117.388 33.1838 117.388 33.0453V18.0837C117.388 17.9452 117.276 17.8323 117.138 17.8323Z" fill="#1ED760"/>
<path d="M115.442 11.0197C114.085 11.0197 112.984 12.1197 112.984 13.478C112.984 14.8374 114.085 15.9385 115.442 15.9385C116.799 15.9385 117.899 14.8374 117.899 13.478C117.899 12.1197 116.799 11.0197 115.442 11.0197Z" fill="#1ED760"/>
<path d="M145.592 19.3204H144.964V20.1217H145.592C145.905 20.1217 146.092 19.9682 146.092 19.7209C146.092 19.4602 145.905 19.3204 145.592 19.3204ZM145.999 20.4634L146.681 21.4193H146.106L145.492 20.5426H144.964V21.4193H144.483V18.8859H145.611C146.199 18.8859 146.586 19.1871 146.586 19.6939C146.586 20.1092 146.346 20.363 145.999 20.4634ZM145.464 18.043C144.23 18.043 143.295 19.0254 143.295 20.229C143.295 21.4317 144.223 22.4012 145.452 22.4012C146.686 22.4012 147.622 21.4193 147.622 20.2152C147.622 19.0125 146.693 18.043 145.464 18.043ZM145.452 22.6426C144.096 22.6426 143.041 21.5525 143.041 20.229C143.041 18.9052 144.11 17.8028 145.464 17.8028C146.82 17.8028 147.875 18.8927 147.875 20.2152C147.875 21.539 146.807 22.6426 145.452 22.6426Z" fill="#1ED760"/>
</svg>
