<svg width="117" height="49" viewBox="0 0 117 49" fill="none" xmlns="http://www.w3.org/2000/svg">
<path fill-rule="evenodd" clip-rule="evenodd" d="M116.192 25.6909C116.192 17.4644 112.218 10.9731 104.622 10.9731C96.9936 10.9731 92.3782 17.4644 92.3782 25.6266C92.3782 35.2992 97.8269 40.1837 105.647 40.1837C109.462 40.1837 112.346 39.3161 114.526 38.0949V31.668C112.346 32.7606 109.846 33.4354 106.673 33.4354C103.564 33.4354 100.808 32.3428 100.455 28.5509H116.128C116.128 28.1331 116.192 26.4621 116.192 25.6909ZM100.359 22.6381C100.359 19.0069 102.571 17.4965 104.59 17.4965C106.545 17.4965 108.628 19.0069 108.628 22.6381H100.359Z" fill="#635BFF"/>
<path fill-rule="evenodd" clip-rule="evenodd" d="M80.0064 10.9731C76.8654 10.9731 74.8461 12.4513 73.7244 13.4797L73.3077 11.4873H66.2564V48.9565L74.2692 47.2534L74.3013 38.1592C75.4551 38.9947 77.1538 40.1837 79.9744 40.1837C85.7115 40.1837 90.9359 35.5563 90.9359 25.3695C90.9038 16.0504 85.6154 10.9731 80.0064 10.9731ZM78.0833 33.114C76.1923 33.114 75.0705 32.4392 74.3013 31.6037L74.2692 19.6817C75.1026 18.7498 76.2564 18.1071 78.0833 18.1071C81 18.1071 83.0192 21.3848 83.0192 25.5945C83.0192 29.9006 81.032 33.114 78.0833 33.114Z" fill="#635BFF"/>
<path fill-rule="evenodd" clip-rule="evenodd" d="M55.2308 9.07701L63.2756 7.34173V0.818359L55.2308 2.52151V9.07701Z" fill="#635BFF"/>
<path d="M63.2756 11.519H55.2308V39.637H63.2756V11.519Z" fill="#635BFF"/>
<path fill-rule="evenodd" clip-rule="evenodd" d="M46.609 13.8972L46.0962 11.5192H39.1731V39.6372H47.1859V20.5812C49.0769 18.1068 52.2821 18.5567 53.2756 18.9102V11.5192C52.25 11.1336 48.5 10.4266 46.609 13.8972Z" fill="#635BFF"/>
<path fill-rule="evenodd" clip-rule="evenodd" d="M30.5833 4.5459L22.7628 6.21691L22.7308 31.9569C22.7308 36.7129 26.2885 40.2156 31.0321 40.2156C33.6603 40.2156 35.5833 39.7335 36.641 39.1551V32.6317C35.6154 33.0495 30.5513 34.5277 30.5513 29.7717V18.3639H36.641V11.5192H30.5513L30.5833 4.5459Z" fill="#635BFF"/>
<path fill-rule="evenodd" clip-rule="evenodd" d="M8.91667 19.6817C8.91667 18.4284 9.94231 17.9464 11.641 17.9464C14.0769 17.9464 17.1538 18.6855 19.5897 20.003V12.4513C16.9295 11.3909 14.3013 10.9731 11.641 10.9731C5.13462 10.9731 0.807693 14.3794 0.807693 20.0673C0.807693 28.9365 12.9872 27.5226 12.9872 31.3466C12.9872 32.8248 11.7051 33.3069 9.91026 33.3069C7.25 33.3069 3.85256 32.2143 1.16026 30.7361V38.3842C4.14103 39.6695 7.15385 40.2158 9.91026 40.2158C16.5769 40.2158 21.1603 36.906 21.1603 31.1538C21.1282 21.5776 8.91667 23.2808 8.91667 19.6817Z" fill="#635BFF"/>
</svg>
