<svg width="154" height="146" viewBox="0 0 154 146" fill="none" xmlns="http://www.w3.org/2000/svg">
<g clip-path="url(#clip0_879_1115)">
<path d="M77.0005 88.0011C101.301 88.0011 121.001 68.3014 121.001 44.0005C121.001 19.6997 101.301 0 77.0005 0C52.6997 0 33 19.6997 33 44.0005C33 68.3014 52.6997 88.0011 77.0005 88.0011Z" fill="black"/>
<path d="M106.094 77.0108L66.8032 26.4004H59.4004V61.5862H65.3229V33.9216L101.445 80.592C103.072 79.503 104.626 78.3066 106.094 77.0108Z" fill="url(#paint0_linear_879_1115)"/>
<path d="M89.2227 26.4004H95.0894V61.6008H89.2227V26.4004Z" fill="url(#paint1_linear_879_1115)"/>
</g>
<path d="M49.4023 137H47.2183L38.4343 123.68V137H36.2503V120.248H38.4343L47.2183 133.544V120.248H49.4023V137ZM65.1253 129.92C65.1253 130.336 65.1013 130.776 65.0533 131.24H54.5413C54.6213 132.536 55.0613 133.552 55.8613 134.288C56.6773 135.008 57.6613 135.368 58.8133 135.368C59.7573 135.368 60.5413 135.152 61.1653 134.72C61.8053 134.272 62.2533 133.68 62.5093 132.944H64.8613C64.5093 134.208 63.8053 135.24 62.7493 136.04C61.6933 136.824 60.3813 137.216 58.8133 137.216C57.5653 137.216 56.4453 136.936 55.4533 136.376C54.4773 135.816 53.7093 135.024 53.1493 134C52.5893 132.96 52.3093 131.76 52.3093 130.4C52.3093 129.04 52.5813 127.848 53.1253 126.824C53.6693 125.8 54.4293 125.016 55.4053 124.472C56.3973 123.912 57.5333 123.632 58.8133 123.632C60.0613 123.632 61.1653 123.904 62.1253 124.448C63.0853 124.992 63.8213 125.744 64.3333 126.704C64.8613 127.648 65.1253 128.72 65.1253 129.92ZM62.8693 129.464C62.8693 128.632 62.6853 127.92 62.3173 127.328C61.9493 126.72 61.4453 126.264 60.8053 125.96C60.1813 125.64 59.4853 125.48 58.7173 125.48C57.6133 125.48 56.6693 125.832 55.8853 126.536C55.1173 127.24 54.6773 128.216 54.5653 129.464H62.8693ZM74.8722 137L71.7522 132.104L68.7522 137H66.4722L70.7202 130.472L66.4722 123.848H68.9442L72.0642 128.72L75.0402 123.848H77.3202L73.0962 130.352L77.3442 137H74.8722ZM82.1565 125.648V133.4C82.1565 134.04 82.2925 134.496 82.5645 134.768C82.8365 135.024 83.3085 135.152 83.9805 135.152H85.5885V137H83.6205C82.4045 137 81.4925 136.72 80.8845 136.16C80.2765 135.6 79.9725 134.68 79.9725 133.4V125.648H78.2685V123.848H79.9725V120.536H82.1565V123.848H85.5885V125.648H82.1565ZM103.057 120.272V132.632C103.057 134.008 102.633 135.112 101.785 135.944C100.937 136.76 99.8172 137.168 98.4252 137.168C97.0172 137.168 95.8892 136.752 95.0412 135.92C94.1932 135.072 93.7692 133.92 93.7692 132.464H95.9532C95.9692 133.28 96.1772 133.944 96.5772 134.456C96.9932 134.968 97.6092 135.224 98.4252 135.224C99.2412 135.224 99.8492 134.984 100.249 134.504C100.649 134.008 100.849 133.384 100.849 132.632V120.272H103.057ZM112.664 137.168C111.56 137.168 110.568 136.976 109.688 136.592C108.824 136.192 108.144 135.648 107.648 134.96C107.152 134.256 106.896 133.448 106.88 132.536H109.208C109.288 133.32 109.608 133.984 110.168 134.528C110.744 135.056 111.576 135.32 112.664 135.32C113.704 135.32 114.52 135.064 115.112 134.552C115.72 134.024 116.024 133.352 116.024 132.536C116.024 131.896 115.848 131.376 115.496 130.976C115.144 130.576 114.704 130.272 114.176 130.064C113.648 129.856 112.936 129.632 112.04 129.392C110.936 129.104 110.048 128.816 109.376 128.528C108.72 128.24 108.152 127.792 107.672 127.184C107.208 126.56 106.976 125.728 106.976 124.688C106.976 123.776 107.208 122.968 107.672 122.264C108.136 121.56 108.784 121.016 109.616 120.632C110.464 120.248 111.432 120.056 112.52 120.056C114.088 120.056 115.368 120.448 116.36 121.232C117.368 122.016 117.936 123.056 118.064 124.352H115.664C115.584 123.712 115.248 123.152 114.656 122.672C114.064 122.176 113.28 121.928 112.304 121.928C111.392 121.928 110.648 122.168 110.072 122.648C109.496 123.112 109.208 123.768 109.208 124.616C109.208 125.224 109.376 125.72 109.712 126.104C110.064 126.488 110.488 126.784 110.984 126.992C111.496 127.184 112.208 127.408 113.12 127.664C114.224 127.968 115.112 128.272 115.784 128.576C116.456 128.864 117.032 129.32 117.512 129.944C117.992 130.552 118.232 131.384 118.232 132.44C118.232 133.256 118.016 134.024 117.584 134.744C117.152 135.464 116.512 136.048 115.664 136.496C114.816 136.944 113.816 137.168 112.664 137.168Z" fill="#212529"/>
<defs>
<linearGradient id="paint0_linear_879_1115" x1="86.2896" y1="56.9563" x2="103.645" y2="78.4677" gradientUnits="userSpaceOnUse">
<stop stop-color="white"/>
<stop offset="1" stop-color="white" stop-opacity="0"/>
</linearGradient>
<linearGradient id="paint1_linear_879_1115" x1="92.156" y1="26.4004" x2="92.0578" y2="52.2507" gradientUnits="userSpaceOnUse">
<stop stop-color="white"/>
<stop offset="1" stop-color="white" stop-opacity="0"/>
</linearGradient>
<clipPath id="clip0_879_1115">
<rect width="88" height="88" fill="white" transform="translate(33)"/>
</clipPath>
</defs>
</svg>
