<svg width="154" height="146" viewBox="0 0 154 146" fill="none" xmlns="http://www.w3.org/2000/svg">
<g clip-path="url(#clip0_897_2084)">
<path d="M76.7252 0.239258L79.0737 4.65026C79.6017 5.46426 80.1737 6.18476 80.8475 6.85576C82.8137 8.82201 84.681 10.8818 86.3585 13.0873C90.3377 18.3123 93.0217 24.1148 94.9385 30.3903C96.088 34.2238 96.7122 38.1563 96.759 42.1328C96.9515 54.021 92.876 64.229 84.659 72.7128C83.317 74.0548 81.8815 75.2978 80.3415 76.4033C79.5275 76.4033 79.1425 75.779 78.807 75.2043C78.1827 74.151 77.8005 72.9493 77.608 71.753C77.3192 70.3148 77.1295 68.8765 77.223 67.3915V66.7205C77.157 66.5775 76.4392 0.577508 76.7252 0.239258Z" fill="#599636"/>
<path d="M76.7248 0.0933876C76.6286 -0.0991124 76.5323 0.0466376 76.4361 0.140138C76.4828 1.10264 76.1473 1.96064 75.6221 2.78014C75.0446 3.59414 74.2801 4.21839 73.5128 4.88939C69.2503 8.57989 65.8953 13.0376 63.2086 18.0234C59.6336 24.7334 57.7911 31.9246 57.2686 39.4954C57.0293 42.2261 58.1321 51.8621 58.9928 54.6424C61.3413 62.0234 65.5598 68.2081 71.0241 73.5761C72.3661 74.8686 73.8016 76.0676 75.2866 77.2199C75.7183 77.2199 75.7651 76.8349 75.8641 76.5489C76.0534 75.9369 76.1977 75.3119 76.2958 74.6789L77.2583 67.4904L76.7248 0.0933876Z" fill="#6CAC48"/>
<path d="M79.0739 79.3238C79.1701 78.2238 79.6981 77.3108 80.2729 76.4005C79.6954 76.1613 79.2664 75.6855 78.9309 75.1548C78.6421 74.6763 78.4029 74.1015 78.2159 73.5735C77.5449 71.5605 77.4019 69.4485 77.2094 67.3915V66.1458C76.9701 66.3383 76.9206 67.9663 76.9206 68.2083C76.7807 70.3823 76.4922 72.5443 76.0571 74.679C75.9141 75.5425 75.8179 76.4033 75.2871 77.1705C75.2871 77.2668 75.2871 77.363 75.3339 77.506C76.1974 80.047 76.4339 82.6348 76.5796 85.272V86.2345C76.5796 87.384 76.5329 87.142 77.4871 87.527C77.8721 87.67 78.3011 87.7195 78.6861 88.0055C78.9749 88.0055 79.0216 87.7663 79.0216 87.5738L78.8786 85.9925V81.5815C78.8319 80.8115 78.9749 80.047 79.0711 79.3265L79.0739 79.3238Z" fill="#C2BFBF"/>
</g>
<path d="M38.4996 120.392V137H36.3156V124.616L30.7956 137H29.2596L23.7156 124.592V137H21.5316V120.392H23.8836L30.0276 134.12L36.1716 120.392H38.4996ZM47.9395 137.216C46.7075 137.216 45.5875 136.936 44.5795 136.376C43.5875 135.816 42.8035 135.024 42.2275 134C41.6675 132.96 41.3875 131.76 41.3875 130.4C41.3875 129.056 41.6755 127.872 42.2515 126.848C42.8435 125.808 43.6435 125.016 44.6515 124.472C45.6595 123.912 46.7875 123.632 48.0355 123.632C49.2835 123.632 50.4115 123.912 51.4195 124.472C52.4275 125.016 53.2195 125.8 53.7955 126.824C54.3875 127.848 54.6835 129.04 54.6835 130.4C54.6835 131.76 54.3795 132.96 53.7715 134C53.1795 135.024 52.3715 135.816 51.3475 136.376C50.3235 136.936 49.1875 137.216 47.9395 137.216ZM47.9395 135.296C48.7235 135.296 49.4595 135.112 50.1475 134.744C50.8355 134.376 51.3875 133.824 51.8035 133.088C52.2355 132.352 52.4515 131.456 52.4515 130.4C52.4515 129.344 52.2435 128.448 51.8275 127.712C51.4115 126.976 50.8675 126.432 50.1955 126.08C49.5235 125.712 48.7955 125.528 48.0115 125.528C47.2115 125.528 46.4755 125.712 45.8035 126.08C45.1475 126.432 44.6195 126.976 44.2195 127.712C43.8195 128.448 43.6195 129.344 43.6195 130.4C43.6195 131.472 43.8115 132.376 44.1955 133.112C44.5955 133.848 45.1235 134.4 45.7795 134.768C46.4355 135.12 47.1555 135.296 47.9395 135.296ZM63.963 123.608C65.563 123.608 66.859 124.096 67.851 125.072C68.843 126.032 69.339 127.424 69.339 129.248V137H67.179V129.56C67.179 128.248 66.851 127.248 66.195 126.56C65.539 125.856 64.643 125.504 63.507 125.504C62.355 125.504 61.435 125.864 60.747 126.584C60.075 127.304 59.739 128.352 59.739 129.728V137H57.555V123.848H59.739V125.72C60.171 125.048 60.755 124.528 61.491 124.16C62.243 123.792 63.067 123.608 63.963 123.608ZM78.3306 123.632C79.4666 123.632 80.4586 123.88 81.3066 124.376C82.1706 124.872 82.8106 125.496 83.2266 126.248V123.848H85.4346V137.288C85.4346 138.488 85.1786 139.552 84.6666 140.48C84.1546 141.424 83.4186 142.16 82.4586 142.688C81.5146 143.216 80.4106 143.48 79.1466 143.48C77.4186 143.48 75.9786 143.072 74.8266 142.256C73.6746 141.44 72.9946 140.328 72.7866 138.92H74.9466C75.1866 139.72 75.6826 140.36 76.4346 140.84C77.1866 141.336 78.0906 141.584 79.1466 141.584C80.3466 141.584 81.3226 141.208 82.0746 140.456C82.8426 139.704 83.2266 138.648 83.2266 137.288V134.528C82.7946 135.296 82.1546 135.936 81.3066 136.448C80.4586 136.96 79.4666 137.216 78.3306 137.216C77.1626 137.216 76.0986 136.928 75.1386 136.352C74.1946 135.776 73.4506 134.968 72.9066 133.928C72.3626 132.888 72.0906 131.704 72.0906 130.376C72.0906 129.032 72.3626 127.856 72.9066 126.848C73.4506 125.824 74.1946 125.032 75.1386 124.472C76.0986 123.912 77.1626 123.632 78.3306 123.632ZM83.2266 130.4C83.2266 129.408 83.0266 128.544 82.6266 127.808C82.2266 127.072 81.6826 126.512 80.9946 126.128C80.3226 125.728 79.5786 125.528 78.7626 125.528C77.9466 125.528 77.2026 125.72 76.5306 126.104C75.8586 126.488 75.3226 127.048 74.9226 127.784C74.5226 128.52 74.3226 129.384 74.3226 130.376C74.3226 131.384 74.5226 132.264 74.9226 133.016C75.3226 133.752 75.8586 134.32 76.5306 134.72C77.2026 135.104 77.9466 135.296 78.7626 135.296C79.5786 135.296 80.3226 135.104 80.9946 134.72C81.6826 134.32 82.2266 133.752 82.6266 133.016C83.0266 132.264 83.2266 131.392 83.2266 130.4ZM94.8613 137.216C93.6293 137.216 92.5093 136.936 91.5013 136.376C90.5093 135.816 89.7253 135.024 89.1493 134C88.5893 132.96 88.3093 131.76 88.3093 130.4C88.3093 129.056 88.5973 127.872 89.1733 126.848C89.7653 125.808 90.5653 125.016 91.5733 124.472C92.5813 123.912 93.7093 123.632 94.9573 123.632C96.2053 123.632 97.3333 123.912 98.3413 124.472C99.3493 125.016 100.141 125.8 100.717 126.824C101.309 127.848 101.605 129.04 101.605 130.4C101.605 131.76 101.301 132.96 100.693 134C100.101 135.024 99.2933 135.816 98.2693 136.376C97.2453 136.936 96.1093 137.216 94.8613 137.216ZM94.8613 135.296C95.6453 135.296 96.3813 135.112 97.0693 134.744C97.7573 134.376 98.3093 133.824 98.7253 133.088C99.1573 132.352 99.3733 131.456 99.3733 130.4C99.3733 129.344 99.1653 128.448 98.7493 127.712C98.3333 126.976 97.7893 126.432 97.1173 126.08C96.4453 125.712 95.7173 125.528 94.9333 125.528C94.1333 125.528 93.3973 125.712 92.7253 126.08C92.0693 126.432 91.5413 126.976 91.1413 127.712C90.7413 128.448 90.5413 129.344 90.5413 130.4C90.5413 131.472 90.7333 132.376 91.1173 133.112C91.5173 133.848 92.0453 134.4 92.7013 134.768C93.3573 135.12 94.0773 135.296 94.8613 135.296ZM109.685 120.272C111.509 120.272 113.085 120.616 114.413 121.304C115.757 121.976 116.781 122.944 117.485 124.208C118.205 125.472 118.565 126.96 118.565 128.672C118.565 130.384 118.205 131.872 117.485 133.136C116.781 134.384 115.757 135.344 114.413 136.016C113.085 136.672 111.509 137 109.685 137H104.477V120.272H109.685ZM109.685 135.2C111.845 135.2 113.493 134.632 114.629 133.496C115.765 132.344 116.333 130.736 116.333 128.672C116.333 126.592 115.757 124.968 114.605 123.8C113.469 122.632 111.829 122.048 109.685 122.048H106.661V135.2H109.685ZM129.822 128.384C130.43 128.48 130.982 128.728 131.478 129.128C131.99 129.528 132.39 130.024 132.678 130.616C132.982 131.208 133.134 131.84 133.134 132.512C133.134 133.36 132.918 134.128 132.486 134.816C132.054 135.488 131.422 136.024 130.59 136.424C129.774 136.808 128.806 137 127.686 137H121.446V120.272H127.446C128.582 120.272 129.55 120.464 130.35 120.848C131.15 121.216 131.75 121.72 132.15 122.36C132.55 123 132.75 123.72 132.75 124.52C132.75 125.512 132.478 126.336 131.934 126.992C131.406 127.632 130.702 128.096 129.822 128.384ZM123.63 127.496H127.302C128.326 127.496 129.118 127.256 129.678 126.776C130.238 126.296 130.518 125.632 130.518 124.784C130.518 123.936 130.238 123.272 129.678 122.792C129.118 122.312 128.31 122.072 127.254 122.072H123.63V127.496ZM127.494 135.2C128.582 135.2 129.43 134.944 130.038 134.432C130.646 133.92 130.95 133.208 130.95 132.296C130.95 131.368 130.63 130.64 129.99 130.112C129.35 129.568 128.494 129.296 127.422 129.296H123.63V135.2H127.494Z" fill="#212529"/>
<defs>
<clipPath id="clip0_897_2084">
<rect width="88" height="88" fill="white" transform="translate(33)"/>
</clipPath>
</defs>
</svg>
