<svg width="154" height="146" viewBox="0 0 154 146" fill="none" xmlns="http://www.w3.org/2000/svg">
<path d="M121 68.1862C117.799 69.0002 115.819 68.222 114.042 65.5545L101.409 48.0755L99.583 45.6555L84.8293 65.6122C83.1435 68.013 81.3753 69.058 78.2293 68.2082L97.1217 42.8477L79.5327 19.9402C82.5577 19.3517 84.6477 19.6515 86.504 22.3602L99.6077 40.0565L112.808 22.4565C114.499 20.0557 116.317 19.1427 119.353 20.0282L112.533 29.0702L103.293 41.1015C102.193 42.4765 102.344 43.417 103.356 44.7452L121 68.1862ZM33.022 42.4242L34.5675 34.8232C38.775 19.7807 56.0175 13.53 67.9085 22.825C74.8577 28.292 76.5848 36.025 76.241 44.6875H37.07C36.4815 60.28 47.7043 69.6905 62.0125 64.889C67.0312 63.2032 69.9875 59.2735 71.467 54.3565C72.2178 51.8925 73.4608 51.5075 75.7763 52.2115C74.5938 58.3605 71.9263 63.4975 66.2887 66.7122C57.8655 71.5247 45.8425 69.9682 39.5175 63.2802C35.75 59.4 34.1935 54.483 33.495 49.225C33.385 48.356 33.165 47.5282 33 46.695C33.0147 45.2723 33.022 43.8497 33.022 42.427V42.4242ZM37.1415 41.3792H72.5395C72.3085 30.1042 65.2878 22.0962 55.693 22.0275C45.1605 21.945 37.598 29.7632 37.1415 41.3792Z" fill="black"/>
<path d="M19.9656 122.048V127.64H26.0616V129.44H19.9656V135.2H26.7816V137H17.7816V120.248H26.7816V122.048H19.9656ZM36.9503 137L33.8303 132.104L30.8303 137H28.5503L32.7983 130.472L28.5503 123.848H31.0223L34.1423 128.72L37.1183 123.848H39.3983L35.1743 130.352L39.4223 137H36.9503ZM43.7547 126.272C44.1867 125.52 44.8267 124.896 45.6747 124.4C46.5387 123.888 47.5387 123.632 48.6747 123.632C49.8427 123.632 50.8987 123.912 51.8427 124.472C52.8027 125.032 53.5547 125.824 54.0987 126.848C54.6427 127.856 54.9147 129.032 54.9147 130.376C54.9147 131.704 54.6427 132.888 54.0987 133.928C53.5547 134.968 52.8027 135.776 51.8427 136.352C50.8987 136.928 49.8427 137.216 48.6747 137.216C47.5547 137.216 46.5627 136.968 45.6987 136.472C44.8507 135.96 44.2027 135.328 43.7547 134.576V143.24H41.5707V123.848H43.7547V126.272ZM52.6827 130.376C52.6827 129.384 52.4827 128.52 52.0827 127.784C51.6827 127.048 51.1387 126.488 50.4507 126.104C49.7787 125.72 49.0347 125.528 48.2187 125.528C47.4187 125.528 46.6747 125.728 45.9867 126.128C45.3147 126.512 44.7707 127.08 44.3547 127.832C43.9547 128.568 43.7547 129.424 43.7547 130.4C43.7547 131.392 43.9547 132.264 44.3547 133.016C44.7707 133.752 45.3147 134.32 45.9867 134.72C46.6747 135.104 47.4187 135.296 48.2187 135.296C49.0347 135.296 49.7787 135.104 50.4507 134.72C51.1387 134.32 51.6827 133.752 52.0827 133.016C52.4827 132.264 52.6827 131.384 52.6827 130.376ZM59.9734 125.984C60.3574 125.232 60.9014 124.648 61.6054 124.232C62.3254 123.816 63.1974 123.608 64.2214 123.608V125.864H63.6454C61.1974 125.864 59.9734 127.192 59.9734 129.848V137H57.7894V123.848H59.9734V125.984ZM78.7425 129.92C78.7425 130.336 78.7185 130.776 78.6705 131.24H68.1585C68.2385 132.536 68.6785 133.552 69.4785 134.288C70.2945 135.008 71.2785 135.368 72.4305 135.368C73.3745 135.368 74.1585 135.152 74.7825 134.72C75.4225 134.272 75.8705 133.68 76.1265 132.944H78.4785C78.1265 134.208 77.4225 135.24 76.3665 136.04C75.3105 136.824 73.9985 137.216 72.4305 137.216C71.1825 137.216 70.0625 136.936 69.0705 136.376C68.0945 135.816 67.3265 135.024 66.7665 134C66.2065 132.96 65.9265 131.76 65.9265 130.4C65.9265 129.04 66.1985 127.848 66.7425 126.824C67.2865 125.8 68.0465 125.016 69.0225 124.472C70.0145 123.912 71.1505 123.632 72.4305 123.632C73.6785 123.632 74.7825 123.904 75.7425 124.448C76.7025 124.992 77.4385 125.744 77.9505 126.704C78.4785 127.648 78.7425 128.72 78.7425 129.92ZM76.4865 129.464C76.4865 128.632 76.3025 127.92 75.9345 127.328C75.5665 126.72 75.0625 126.264 74.4225 125.96C73.7985 125.64 73.1025 125.48 72.3345 125.48C71.2305 125.48 70.2865 125.832 69.5025 126.536C68.7345 127.24 68.2945 128.216 68.1825 129.464H76.4865ZM86.2813 137.216C85.2733 137.216 84.3693 137.048 83.5693 136.712C82.7693 136.36 82.1373 135.88 81.6733 135.272C81.2093 134.648 80.9533 133.936 80.9053 133.136H83.1613C83.2253 133.792 83.5293 134.328 84.0733 134.744C84.6333 135.16 85.3613 135.368 86.2573 135.368C87.0893 135.368 87.7453 135.184 88.2253 134.816C88.7053 134.448 88.9453 133.984 88.9453 133.424C88.9453 132.848 88.6893 132.424 88.1773 132.152C87.6653 131.864 86.8733 131.584 85.8013 131.312C84.8253 131.056 84.0253 130.8 83.4013 130.544C82.7933 130.272 82.2653 129.88 81.8173 129.368C81.3853 128.84 81.1693 128.152 81.1693 127.304C81.1693 126.632 81.3693 126.016 81.7693 125.456C82.1693 124.896 82.7373 124.456 83.4733 124.136C84.2093 123.8 85.0493 123.632 85.9933 123.632C87.4493 123.632 88.6253 124 89.5213 124.736C90.4173 125.472 90.8973 126.48 90.9613 127.76H88.7773C88.7293 127.072 88.4493 126.52 87.9373 126.104C87.4413 125.688 86.7693 125.48 85.9213 125.48C85.1373 125.48 84.5133 125.648 84.0493 125.984C83.5853 126.32 83.3533 126.76 83.3533 127.304C83.3533 127.736 83.4893 128.096 83.7613 128.384C84.0493 128.656 84.4013 128.88 84.8173 129.056C85.2493 129.216 85.8413 129.4 86.5933 129.608C87.5373 129.864 88.3053 130.12 88.8973 130.376C89.4893 130.616 89.9933 130.984 90.4093 131.48C90.8413 131.976 91.0653 132.624 91.0813 133.424C91.0813 134.144 90.8813 134.792 90.4813 135.368C90.0813 135.944 89.5133 136.4 88.7773 136.736C88.0573 137.056 87.2253 137.216 86.2813 137.216ZM98.8204 137.216C97.8124 137.216 96.9084 137.048 96.1084 136.712C95.3084 136.36 94.6764 135.88 94.2124 135.272C93.7484 134.648 93.4924 133.936 93.4444 133.136H95.7004C95.7644 133.792 96.0684 134.328 96.6124 134.744C97.1724 135.16 97.9004 135.368 98.7964 135.368C99.6284 135.368 100.284 135.184 100.764 134.816C101.244 134.448 101.484 133.984 101.484 133.424C101.484 132.848 101.228 132.424 100.716 132.152C100.204 131.864 99.4124 131.584 98.3404 131.312C97.3644 131.056 96.5644 130.8 95.9404 130.544C95.3324 130.272 94.8044 129.88 94.3564 129.368C93.9244 128.84 93.7084 128.152 93.7084 127.304C93.7084 126.632 93.9084 126.016 94.3084 125.456C94.7084 124.896 95.2764 124.456 96.0124 124.136C96.7484 123.8 97.5884 123.632 98.5324 123.632C99.9884 123.632 101.164 124 102.06 124.736C102.956 125.472 103.436 126.48 103.5 127.76H101.316C101.268 127.072 100.988 126.52 100.476 126.104C99.9804 125.688 99.3084 125.48 98.4604 125.48C97.6764 125.48 97.0524 125.648 96.5884 125.984C96.1244 126.32 95.8924 126.76 95.8924 127.304C95.8924 127.736 96.0284 128.096 96.3004 128.384C96.5884 128.656 96.9404 128.88 97.3564 129.056C97.7884 129.216 98.3804 129.4 99.1324 129.608C100.076 129.864 100.844 130.12 101.436 130.376C102.028 130.616 102.532 130.984 102.948 131.48C103.38 131.976 103.604 132.624 103.62 133.424C103.62 134.144 103.42 134.792 103.02 135.368C102.62 135.944 102.052 136.4 101.316 136.736C100.596 137.056 99.7644 137.216 98.8204 137.216ZM121.526 120.272V132.632C121.526 134.008 121.102 135.112 120.254 135.944C119.406 136.76 118.286 137.168 116.894 137.168C115.486 137.168 114.358 136.752 113.51 135.92C112.662 135.072 112.238 133.92 112.238 132.464H114.422C114.438 133.28 114.646 133.944 115.046 134.456C115.462 134.968 116.078 135.224 116.894 135.224C117.71 135.224 118.318 134.984 118.718 134.504C119.118 134.008 119.318 133.384 119.318 132.632V120.272H121.526ZM131.132 137.168C130.028 137.168 129.036 136.976 128.156 136.592C127.292 136.192 126.612 135.648 126.116 134.96C125.62 134.256 125.364 133.448 125.348 132.536H127.676C127.756 133.32 128.076 133.984 128.636 134.528C129.212 135.056 130.044 135.32 131.132 135.32C132.172 135.32 132.988 135.064 133.58 134.552C134.188 134.024 134.492 133.352 134.492 132.536C134.492 131.896 134.316 131.376 133.964 130.976C133.612 130.576 133.172 130.272 132.644 130.064C132.116 129.856 131.404 129.632 130.508 129.392C129.404 129.104 128.516 128.816 127.844 128.528C127.188 128.24 126.62 127.792 126.14 127.184C125.676 126.56 125.444 125.728 125.444 124.688C125.444 123.776 125.676 122.968 126.14 122.264C126.604 121.56 127.252 121.016 128.084 120.632C128.932 120.248 129.9 120.056 130.988 120.056C132.556 120.056 133.836 120.448 134.828 121.232C135.836 122.016 136.404 123.056 136.532 124.352H134.132C134.052 123.712 133.716 123.152 133.124 122.672C132.532 122.176 131.748 121.928 130.772 121.928C129.86 121.928 129.116 122.168 128.54 122.648C127.964 123.112 127.676 123.768 127.676 124.616C127.676 125.224 127.844 125.72 128.18 126.104C128.532 126.488 128.956 126.784 129.452 126.992C129.964 127.184 130.676 127.408 131.588 127.664C132.692 127.968 133.58 128.272 134.252 128.576C134.924 128.864 135.5 129.32 135.98 129.944C136.46 130.552 136.7 131.384 136.7 132.44C136.7 133.256 136.484 134.024 136.052 134.744C135.62 135.464 134.98 136.048 134.132 136.496C133.284 136.944 132.284 137.168 131.132 137.168Z" fill="#212529"/>
</svg>
