<svg width="154" height="146" viewBox="0 0 154 146" fill="none" xmlns="http://www.w3.org/2000/svg">
<g clip-path="url(#clip0_879_1140)">
<path d="M86.9549 31.7844L78.1466 39.9794L69.9736 23.4932L74.2031 14.0112C75.3031 12.0862 77.0191 12.1082 78.0916 14.0112L86.9549 31.7844Z" fill="#FFA000"/>
<path d="M69.974 23.4932L78.147 39.9794L45.2295 70.6007L69.974 23.4932Z" fill="#F57F17"/>
<path d="M96.5885 19.2582C98.1615 17.7457 99.7895 18.2627 100.205 20.405L108.774 70.1937L80.3717 87.2437C79.3817 87.7937 76.7417 88.0302 76.7417 88.0302C76.7417 88.0302 74.3382 87.7442 73.4225 87.2052L45.2295 70.6007L96.5885 19.2582Z" fill="#FFCA28"/>
<path d="M69.9742 23.4933L45.2324 70.6008L56.2517 1.75451C56.6587 -0.390493 57.8797 -0.596744 58.9687 1.29526L69.9742 23.4933Z" fill="#FFA000"/>
</g>
<path d="M37.4563 120.272V122.048H30.1843V127.688H36.0883V129.464H30.1843V137H28.0003V120.272H37.4563ZM41.2221 121.712C40.8061 121.712 40.4541 121.568 40.1661 121.28C39.8781 120.992 39.7341 120.64 39.7341 120.224C39.7341 119.808 39.8781 119.456 40.1661 119.168C40.4541 118.88 40.8061 118.736 41.2221 118.736C41.6221 118.736 41.9581 118.88 42.2301 119.168C42.5181 119.456 42.6621 119.808 42.6621 120.224C42.6621 120.64 42.5181 120.992 42.2301 121.28C41.9581 121.568 41.6221 121.712 41.2221 121.712ZM42.2781 123.848V137H40.0941V123.848H42.2781ZM48.1843 125.984C48.5683 125.232 49.1123 124.648 49.8163 124.232C50.5363 123.816 51.4083 123.608 52.4323 123.608V125.864H51.8563C49.4083 125.864 48.1843 127.192 48.1843 129.848V137H46.0003V123.848H48.1843V125.984ZM66.9535 129.92C66.9535 130.336 66.9295 130.776 66.8815 131.24H56.3695C56.4495 132.536 56.8895 133.552 57.6895 134.288C58.5055 135.008 59.4895 135.368 60.6415 135.368C61.5855 135.368 62.3695 135.152 62.9935 134.72C63.6335 134.272 64.0815 133.68 64.3375 132.944H66.6895C66.3375 134.208 65.6335 135.24 64.5775 136.04C63.5215 136.824 62.2095 137.216 60.6415 137.216C59.3935 137.216 58.2735 136.936 57.2815 136.376C56.3055 135.816 55.5375 135.024 54.9775 134C54.4175 132.96 54.1375 131.76 54.1375 130.4C54.1375 129.04 54.4095 127.848 54.9535 126.824C55.4975 125.8 56.2575 125.016 57.2335 124.472C58.2255 123.912 59.3615 123.632 60.6415 123.632C61.8895 123.632 62.9935 123.904 63.9535 124.448C64.9135 124.992 65.6495 125.744 66.1615 126.704C66.6895 127.648 66.9535 128.72 66.9535 129.92ZM64.6975 129.464C64.6975 128.632 64.5135 127.92 64.1455 127.328C63.7775 126.72 63.2735 126.264 62.6335 125.96C62.0095 125.64 61.3135 125.48 60.5455 125.48C59.4415 125.48 58.4975 125.832 57.7135 126.536C56.9455 127.24 56.5055 128.216 56.3935 129.464H64.6975ZM72.0203 126.296C72.4683 125.512 73.1243 124.872 73.9883 124.376C74.8523 123.88 75.8363 123.632 76.9403 123.632C78.1243 123.632 79.1883 123.912 80.1323 124.472C81.0763 125.032 81.8203 125.824 82.3643 126.848C82.9083 127.856 83.1803 129.032 83.1803 130.376C83.1803 131.704 82.9083 132.888 82.3643 133.928C81.8203 134.968 81.0683 135.776 80.1083 136.352C79.1643 136.928 78.1083 137.216 76.9403 137.216C75.8043 137.216 74.8043 136.968 73.9403 136.472C73.0923 135.976 72.4523 135.344 72.0203 134.576V137H69.8363V119.24H72.0203V126.296ZM80.9483 130.376C80.9483 129.384 80.7483 128.52 80.3483 127.784C79.9483 127.048 79.4043 126.488 78.7163 126.104C78.0443 125.72 77.3003 125.528 76.4843 125.528C75.6843 125.528 74.9403 125.728 74.2523 126.128C73.5803 126.512 73.0363 127.08 72.6203 127.832C72.2203 128.568 72.0203 129.424 72.0203 130.4C72.0203 131.392 72.2203 132.264 72.6203 133.016C73.0363 133.752 73.5803 134.32 74.2523 134.72C74.9403 135.104 75.6843 135.296 76.4843 135.296C77.3003 135.296 78.0443 135.104 78.7163 134.72C79.4043 134.32 79.9483 133.752 80.3483 133.016C80.7483 132.264 80.9483 131.384 80.9483 130.376ZM85.239 130.376C85.239 129.032 85.511 127.856 86.055 126.848C86.599 125.824 87.343 125.032 88.287 124.472C89.247 123.912 90.311 123.632 91.479 123.632C92.631 123.632 93.631 123.88 94.479 124.376C95.327 124.872 95.959 125.496 96.375 126.248V123.848H98.583V137H96.375V134.552C95.943 135.32 95.295 135.96 94.431 136.472C93.583 136.968 92.591 137.216 91.455 137.216C90.287 137.216 89.231 136.928 88.287 136.352C87.343 135.776 86.599 134.968 86.055 133.928C85.511 132.888 85.239 131.704 85.239 130.376ZM96.375 130.4C96.375 129.408 96.175 128.544 95.775 127.808C95.375 127.072 94.831 126.512 94.143 126.128C93.471 125.728 92.727 125.528 91.911 125.528C91.095 125.528 90.351 125.72 89.679 126.104C89.007 126.488 88.471 127.048 88.071 127.784C87.671 128.52 87.471 129.384 87.471 130.376C87.471 131.384 87.671 132.264 88.071 133.016C88.471 133.752 89.007 134.32 89.679 134.72C90.351 135.104 91.095 135.296 91.911 135.296C92.727 135.296 93.471 135.104 94.143 134.72C94.831 134.32 95.375 133.752 95.775 133.016C96.175 132.264 96.375 131.392 96.375 130.4ZM106.93 137.216C105.922 137.216 105.018 137.048 104.218 136.712C103.418 136.36 102.786 135.88 102.322 135.272C101.858 134.648 101.602 133.936 101.554 133.136H103.81C103.874 133.792 104.178 134.328 104.722 134.744C105.282 135.16 106.01 135.368 106.906 135.368C107.738 135.368 108.394 135.184 108.874 134.816C109.354 134.448 109.594 133.984 109.594 133.424C109.594 132.848 109.338 132.424 108.826 132.152C108.314 131.864 107.522 131.584 106.45 131.312C105.474 131.056 104.674 130.8 104.05 130.544C103.442 130.272 102.914 129.88 102.466 129.368C102.034 128.84 101.818 128.152 101.818 127.304C101.818 126.632 102.018 126.016 102.418 125.456C102.818 124.896 103.386 124.456 104.122 124.136C104.858 123.8 105.698 123.632 106.642 123.632C108.098 123.632 109.274 124 110.17 124.736C111.066 125.472 111.546 126.48 111.61 127.76H109.426C109.378 127.072 109.098 126.52 108.586 126.104C108.09 125.688 107.418 125.48 106.57 125.48C105.786 125.48 105.162 125.648 104.698 125.984C104.234 126.32 104.002 126.76 104.002 127.304C104.002 127.736 104.138 128.096 104.41 128.384C104.698 128.656 105.05 128.88 105.466 129.056C105.898 129.216 106.49 129.4 107.242 129.608C108.186 129.864 108.954 130.12 109.546 130.376C110.138 130.616 110.642 130.984 111.058 131.48C111.49 131.976 111.714 132.624 111.73 133.424C111.73 134.144 111.53 134.792 111.13 135.368C110.73 135.944 110.162 136.4 109.426 136.736C108.706 137.056 107.874 137.216 106.93 137.216ZM126.813 129.92C126.813 130.336 126.789 130.776 126.741 131.24H116.229C116.309 132.536 116.749 133.552 117.549 134.288C118.365 135.008 119.349 135.368 120.501 135.368C121.445 135.368 122.229 135.152 122.853 134.72C123.493 134.272 123.941 133.68 124.197 132.944H126.549C126.197 134.208 125.493 135.24 124.437 136.04C123.381 136.824 122.069 137.216 120.501 137.216C119.253 137.216 118.133 136.936 117.141 136.376C116.165 135.816 115.397 135.024 114.837 134C114.277 132.96 113.997 131.76 113.997 130.4C113.997 129.04 114.269 127.848 114.813 126.824C115.357 125.8 116.117 125.016 117.093 124.472C118.085 123.912 119.221 123.632 120.501 123.632C121.749 123.632 122.853 123.904 123.813 124.448C124.773 124.992 125.509 125.744 126.021 126.704C126.549 127.648 126.813 128.72 126.813 129.92ZM124.557 129.464C124.557 128.632 124.373 127.92 124.005 127.328C123.637 126.72 123.133 126.264 122.493 125.96C121.869 125.64 121.173 125.48 120.405 125.48C119.301 125.48 118.357 125.832 117.573 126.536C116.805 127.24 116.365 128.216 116.253 129.464H124.557Z" fill="#212529"/>
<defs>
<clipPath id="clip0_879_1140">
<rect width="88" height="88" fill="white" transform="translate(33)"/>
</clipPath>
</defs>
</svg>
