<svg width="154" height="146" viewBox="0 0 154 146" fill="none" xmlns="http://www.w3.org/2000/svg">
<g clip-path="url(#clip0_897_2072)">
<path d="M77.1277 51.8585C81.4016 51.8585 84.8665 48.3935 84.8665 44.1197C84.8665 39.8458 81.4009 36.3809 77.1277 36.3809C72.8546 36.3809 69.3896 39.8458 69.3896 44.1197C69.3896 48.3935 72.8531 51.8585 77.1277 51.8585Z" fill="#087EA4"/>
<path d="M77.1279 61.5315C98.4972 61.5315 115.82 53.7361 115.82 44.1198C115.82 34.5034 98.4972 26.708 77.1279 26.708C55.7585 26.708 38.4346 34.5034 38.4346 44.1198C38.4346 53.7361 55.7585 61.5315 77.1279 61.5315Z" stroke="#087EA4" stroke-width="5.333"/>
<path d="M62.0482 52.8256C72.7332 71.3322 88.1455 82.4365 96.4734 77.6287C104.802 72.8201 102.891 53.9197 92.2061 35.4139C81.5218 16.9066 66.1088 5.80227 57.7816 10.6108C49.453 15.4186 51.3639 34.3191 62.0482 52.8256Z" stroke="#087EA4" stroke-width="5.333"/>
<path d="M62.048 35.4138C51.3637 53.9204 49.4535 72.8201 57.7807 77.6287C66.1093 82.4365 81.5216 71.3314 92.2059 52.8256C102.891 34.3183 104.802 15.4193 96.474 10.6108C88.1454 5.80222 72.7331 16.9073 62.048 35.4138Z" stroke="#087EA4" stroke-width="5.333"/>
</g>
<path d="M11.906 137L7.922 130.16H5.282V137H3.098V120.272H8.498C9.762 120.272 10.826 120.488 11.69 120.92C12.57 121.352 13.226 121.936 13.658 122.672C14.09 123.408 14.306 124.248 14.306 125.192C14.306 126.344 13.97 127.36 13.298 128.24C12.642 129.12 11.65 129.704 10.322 129.992L14.522 137H11.906ZM5.282 128.408H8.498C9.682 128.408 10.57 128.12 11.162 127.544C11.754 126.952 12.05 126.168 12.05 125.192C12.05 124.2 11.754 123.432 11.162 122.888C10.586 122.344 9.698 122.072 8.498 122.072H5.282V128.408ZM29.6996 129.92C29.6996 130.336 29.6756 130.776 29.6276 131.24H19.1156C19.1956 132.536 19.6356 133.552 20.4356 134.288C21.2516 135.008 22.2356 135.368 23.3876 135.368C24.3316 135.368 25.1156 135.152 25.7396 134.72C26.3796 134.272 26.8276 133.68 27.0836 132.944H29.4356C29.0836 134.208 28.3796 135.24 27.3236 136.04C26.2676 136.824 24.9556 137.216 23.3876 137.216C22.1396 137.216 21.0196 136.936 20.0276 136.376C19.0516 135.816 18.2836 135.024 17.7236 134C17.1636 132.96 16.8836 131.76 16.8836 130.4C16.8836 129.04 17.1556 127.848 17.6996 126.824C18.2436 125.8 19.0036 125.016 19.9796 124.472C20.9716 123.912 22.1076 123.632 23.3876 123.632C24.6356 123.632 25.7396 123.904 26.6996 124.448C27.6596 124.992 28.3956 125.744 28.9076 126.704C29.4356 127.648 29.6996 128.72 29.6996 129.92ZM27.4436 129.464C27.4436 128.632 27.2596 127.92 26.8916 127.328C26.5236 126.72 26.0196 126.264 25.3796 125.96C24.7556 125.64 24.0596 125.48 23.2916 125.48C22.1876 125.48 21.2436 125.832 20.4596 126.536C19.6916 127.24 19.2516 128.216 19.1396 129.464H27.4436ZM31.7664 130.376C31.7664 129.032 32.0384 127.856 32.5824 126.848C33.1264 125.824 33.8704 125.032 34.8144 124.472C35.7744 123.912 36.8384 123.632 38.0064 123.632C39.1584 123.632 40.1584 123.88 41.0064 124.376C41.8544 124.872 42.4864 125.496 42.9024 126.248V123.848H45.1104V137H42.9024V134.552C42.4704 135.32 41.8224 135.96 40.9584 136.472C40.1104 136.968 39.1184 137.216 37.9824 137.216C36.8144 137.216 35.7584 136.928 34.8144 136.352C33.8704 135.776 33.1264 134.968 32.5824 133.928C32.0384 132.888 31.7664 131.704 31.7664 130.376ZM42.9024 130.4C42.9024 129.408 42.7024 128.544 42.3024 127.808C41.9024 127.072 41.3584 126.512 40.6704 126.128C39.9984 125.728 39.2544 125.528 38.4384 125.528C37.6224 125.528 36.8784 125.72 36.2064 126.104C35.5344 126.488 34.9984 127.048 34.5984 127.784C34.1984 128.52 33.9984 129.384 33.9984 130.376C33.9984 131.384 34.1984 132.264 34.5984 133.016C34.9984 133.752 35.5344 134.32 36.2064 134.72C36.8784 135.104 37.6224 135.296 38.4384 135.296C39.2544 135.296 39.9984 135.104 40.6704 134.72C41.3584 134.32 41.9024 133.752 42.3024 133.016C42.7024 132.264 42.9024 131.392 42.9024 130.4ZM47.9851 130.4C47.9851 129.04 48.2571 127.856 48.8011 126.848C49.3451 125.824 50.0971 125.032 51.0571 124.472C52.0331 123.912 53.1451 123.632 54.3931 123.632C56.0091 123.632 57.3371 124.024 58.3771 124.808C59.4331 125.592 60.1291 126.68 60.4651 128.072H58.1131C57.8891 127.272 57.4491 126.64 56.7931 126.176C56.1531 125.712 55.3531 125.48 54.3931 125.48C53.1451 125.48 52.1371 125.912 51.3691 126.776C50.6011 127.624 50.2171 128.832 50.2171 130.4C50.2171 131.984 50.6011 133.208 51.3691 134.072C52.1371 134.936 53.1451 135.368 54.3931 135.368C55.3531 135.368 56.1531 135.144 56.7931 134.696C57.4331 134.248 57.8731 133.608 58.1131 132.776H60.4651C60.1131 134.12 59.4091 135.2 58.3531 136.016C57.2971 136.816 55.9771 137.216 54.3931 137.216C53.1451 137.216 52.0331 136.936 51.0571 136.376C50.0971 135.816 49.3451 135.024 48.8011 134C48.2571 132.976 47.9851 131.776 47.9851 130.4ZM66.0433 125.648V133.4C66.0433 134.04 66.1793 134.496 66.4513 134.768C66.7233 135.024 67.1953 135.152 67.8672 135.152H69.4753V137H67.5073C66.2913 137 65.3793 136.72 64.7713 136.16C64.1633 135.6 63.8593 134.68 63.8593 133.4V125.648H62.1553V123.848H63.8593V120.536H66.0433V123.848H69.4753V125.648H66.0433ZM91.6719 137H89.4879L80.7039 123.68V137H78.5199V120.248H80.7039L89.4879 133.544V120.248H91.6719V137ZM94.5789 130.376C94.5789 129.032 94.8509 127.856 95.3949 126.848C95.9389 125.824 96.6829 125.032 97.6269 124.472C98.5869 123.912 99.6509 123.632 100.819 123.632C101.971 123.632 102.971 123.88 103.819 124.376C104.667 124.872 105.299 125.496 105.715 126.248V123.848H107.923V137H105.715V134.552C105.283 135.32 104.635 135.96 103.771 136.472C102.923 136.968 101.931 137.216 100.795 137.216C99.6269 137.216 98.5709 136.928 97.6269 136.352C96.6829 135.776 95.9389 134.968 95.3949 133.928C94.8509 132.888 94.5789 131.704 94.5789 130.376ZM105.715 130.4C105.715 129.408 105.515 128.544 105.115 127.808C104.715 127.072 104.171 126.512 103.483 126.128C102.811 125.728 102.067 125.528 101.251 125.528C100.435 125.528 99.6909 125.72 99.0189 126.104C98.3469 126.488 97.8109 127.048 97.4109 127.784C97.0109 128.52 96.8109 129.384 96.8109 130.376C96.8109 131.384 97.0109 132.264 97.4109 133.016C97.8109 133.752 98.3469 134.32 99.0189 134.72C99.6909 135.104 100.435 135.296 101.251 135.296C102.067 135.296 102.811 135.104 103.483 134.72C104.171 134.32 104.715 133.752 105.115 133.016C105.515 132.264 105.715 131.392 105.715 130.4ZM114.278 125.648V133.4C114.278 134.04 114.414 134.496 114.686 134.768C114.958 135.024 115.43 135.152 116.102 135.152H117.71V137H115.742C114.526 137 113.614 136.72 113.006 136.16C112.398 135.6 112.094 134.68 112.094 133.4V125.648H110.39V123.848H112.094V120.536H114.278V123.848H117.71V125.648H114.278ZM121.484 121.712C121.068 121.712 120.716 121.568 120.428 121.28C120.14 120.992 119.996 120.64 119.996 120.224C119.996 119.808 120.14 119.456 120.428 119.168C120.716 118.88 121.068 118.736 121.484 118.736C121.884 118.736 122.22 118.88 122.492 119.168C122.78 119.456 122.924 119.808 122.924 120.224C122.924 120.64 122.78 120.992 122.492 121.28C122.22 121.568 121.884 121.712 121.484 121.712ZM122.54 123.848V137H120.356V123.848H122.54ZM131.158 134.984L135.238 123.848H137.566L132.406 137H129.862L124.702 123.848H127.054L131.158 134.984ZM151.715 129.92C151.715 130.336 151.691 130.776 151.643 131.24H141.131C141.211 132.536 141.651 133.552 142.451 134.288C143.267 135.008 144.251 135.368 145.403 135.368C146.347 135.368 147.131 135.152 147.755 134.72C148.395 134.272 148.843 133.68 149.099 132.944H151.451C151.099 134.208 150.395 135.24 149.339 136.04C148.283 136.824 146.971 137.216 145.403 137.216C144.155 137.216 143.035 136.936 142.043 136.376C141.067 135.816 140.299 135.024 139.739 134C139.179 132.96 138.899 131.76 138.899 130.4C138.899 129.04 139.171 127.848 139.715 126.824C140.259 125.8 141.019 125.016 141.995 124.472C142.987 123.912 144.123 123.632 145.403 123.632C146.651 123.632 147.755 123.904 148.715 124.448C149.675 124.992 150.411 125.744 150.923 126.704C151.451 127.648 151.715 128.72 151.715 129.92ZM149.459 129.464C149.459 128.632 149.275 127.92 148.907 127.328C148.539 126.72 148.035 126.264 147.395 125.96C146.771 125.64 146.075 125.48 145.307 125.48C144.203 125.48 143.259 125.832 142.475 126.536C141.707 127.24 141.267 128.216 141.155 129.464H149.459Z" fill="#212529"/>
<defs>
<clipPath id="clip0_897_2072">
<rect width="81.2549" height="74" fill="white" transform="translate(36.5 7)"/>
</clipPath>
</defs>
</svg>
