<svg width="154" height="146" viewBox="0 0 154 146" fill="none" xmlns="http://www.w3.org/2000/svg">
<g clip-path="url(#clip0_897_2109)">
<path d="M119.339 40.0812L80.9192 1.66096C80.3931 1.13462 79.7685 0.717091 79.081 0.432223C78.3935 0.147355 77.6566 0.000732422 76.9124 0.000732422C76.1683 0.000732422 75.4314 0.147355 74.7439 0.432223C74.0564 0.717091 73.4318 1.13462 72.9057 1.66096L64.9307 9.63596L75.0507 19.756C77.4047 18.931 80.0997 19.4947 81.9752 21.3702C82.868 22.2646 83.4912 23.3921 83.7737 24.6238C84.0563 25.8555 83.9867 27.1419 83.5729 28.336L93.3272 38.0902C95.6867 37.2762 98.4092 37.8015 100.293 39.6907C100.919 40.3171 101.416 41.0607 101.755 41.879C102.094 42.6974 102.268 43.5745 102.268 44.4602C102.268 45.3459 102.093 46.2229 101.754 47.0412C101.415 47.8594 100.918 48.6029 100.292 49.2291C99.6652 49.8553 98.9216 50.352 98.1032 50.6908C97.2849 51.0297 96.4078 51.204 95.5221 51.2039C94.6364 51.2037 93.7593 51.0292 92.9411 50.6901C92.1228 50.351 91.3794 49.8541 90.7532 49.2277C88.7732 47.2477 88.2837 44.3327 89.2847 41.8935L80.1877 32.7965V56.7352C80.848 57.062 81.4516 57.4928 81.9752 58.0112C82.6014 58.6374 83.0981 59.3808 83.437 60.199C83.7759 61.0172 83.9504 61.8941 83.9504 62.7797C83.9504 63.6653 83.7759 64.5422 83.437 65.3604C83.0981 66.1786 82.6014 66.922 81.9752 67.5482C81.349 68.1744 80.6055 68.6712 79.7874 69.0101C78.9692 69.349 78.0923 69.5234 77.2067 69.5234C76.3211 69.5234 75.4442 69.349 74.626 69.0101C73.8078 68.6712 73.0644 68.1744 72.4382 67.5482C71.8112 66.9224 71.3138 66.1791 70.9745 65.3609C70.6351 64.5427 70.4604 63.6655 70.4604 62.7797C70.4604 61.8939 70.6351 61.0168 70.9745 60.1985C71.3138 59.3803 71.8112 58.637 72.4382 58.0112C73.0899 57.3622 73.8132 56.87 74.6464 56.54V32.3785C73.8434 32.0485 73.0899 31.5617 72.4382 30.9072C71.4913 29.9615 70.8475 28.7551 70.5889 27.4421C70.3303 26.129 70.4686 24.7686 70.9862 23.5345L61.0037 13.5575L34.6587 39.875C34.1319 40.4011 33.714 41.0259 33.4289 41.7136C33.1438 42.4014 32.9971 43.1386 32.9971 43.8831C32.9971 44.6276 33.1438 45.3648 33.4289 46.0525C33.714 46.7403 34.1319 47.3651 34.6587 47.8912L73.0817 86.3087C73.6078 86.8351 74.2324 87.2526 74.9199 87.5375C75.6074 87.8223 76.3443 87.9689 77.0884 87.9689C77.8326 87.9689 78.5695 87.8223 79.257 87.5375C79.9445 87.2526 80.5691 86.8351 81.0952 86.3087L119.339 48.125C119.866 47.5988 120.284 46.974 120.569 46.2863C120.854 45.5985 121.001 44.8613 121.001 44.1168C121.001 43.3723 120.854 42.6351 120.569 41.9474C120.284 41.2596 119.866 40.6348 119.339 40.1087" fill="#F03C2E"/>
</g>
<path d="M74.8559 125.12C74.3919 124.144 73.7199 123.392 72.8399 122.864C71.9599 122.32 70.9359 122.048 69.7679 122.048C68.5999 122.048 67.5439 122.32 66.5999 122.864C65.6719 123.392 64.9359 124.16 64.3919 125.168C63.8639 126.16 63.5999 127.312 63.5999 128.624C63.5999 129.936 63.8639 131.088 64.3919 132.08C64.9359 133.072 65.6719 133.84 66.5999 134.384C67.5439 134.912 68.5999 135.176 69.7679 135.176C71.3999 135.176 72.7439 134.688 73.7999 133.712C74.8559 132.736 75.4719 131.416 75.6479 129.752H68.9759V127.976H77.9759V129.656C77.8479 131.032 77.4159 132.296 76.6799 133.448C75.9439 134.584 74.9759 135.488 73.7759 136.16C72.5759 136.816 71.2399 137.144 69.7679 137.144C68.2159 137.144 66.7999 136.784 65.5199 136.064C64.2399 135.328 63.2239 134.312 62.4719 133.016C61.7359 131.72 61.3679 130.256 61.3679 128.624C61.3679 126.992 61.7359 125.528 62.4719 124.232C63.2239 122.92 64.2399 121.904 65.5199 121.184C66.7999 120.448 68.2159 120.08 69.7679 120.08C71.5439 120.08 73.1119 120.52 74.4719 121.4C75.8479 122.28 76.8479 123.52 77.4719 125.12H74.8559ZM81.9916 121.712C81.5756 121.712 81.2236 121.568 80.9356 121.28C80.6476 120.992 80.5036 120.64 80.5036 120.224C80.5036 119.808 80.6476 119.456 80.9356 119.168C81.2236 118.88 81.5756 118.736 81.9916 118.736C82.3916 118.736 82.7276 118.88 82.9996 119.168C83.2876 119.456 83.4316 119.808 83.4316 120.224C83.4316 120.64 83.2876 120.992 82.9996 121.28C82.7276 121.568 82.3916 121.712 81.9916 121.712ZM83.0476 123.848V137H80.8636V123.848H83.0476ZM89.4339 125.648V133.4C89.4339 134.04 89.5699 134.496 89.8419 134.768C90.1139 135.024 90.5859 135.152 91.2579 135.152H92.8659V137H90.8979C89.6819 137 88.7699 136.72 88.1619 136.16C87.5539 135.6 87.2499 134.68 87.2499 133.4V125.648H85.5459V123.848H87.2499V120.536H89.4339V123.848H92.8659V125.648H89.4339Z" fill="#212529"/>
<defs>
<clipPath id="clip0_897_2109">
<rect width="88" height="88" fill="white" transform="translate(33)"/>
</clipPath>
</defs>
</svg>
