<svg width="154" height="146" viewBox="0 0 154 146" fill="none" xmlns="http://www.w3.org/2000/svg">
<path d="M73.3044 1.17417C75.5044 -0.0715809 78.3094 -0.0770809 80.4544 1.17417L113.3 19.6899C115.355 20.8449 116.73 23.1357 116.71 25.5034V62.6284C116.724 65.0952 115.214 67.4354 113.047 68.5684L80.3774 86.9989C79.2599 87.6164 77.9976 87.9235 76.7214 87.8882C75.4452 87.8529 74.2017 87.4765 73.1201 86.7982L63.3164 81.1332C62.6481 80.7344 61.8974 80.4182 61.4244 79.7719C61.8424 79.2109 62.5849 79.1394 63.1899 78.8919C64.5539 78.4574 65.8024 77.7919 67.0564 77.0879C67.3726 76.8679 67.7604 76.9504 68.0629 77.1484L76.4229 81.9829C77.0196 82.3267 77.6246 81.8729 78.1361 81.5842L110.215 63.4809C110.611 63.2884 110.831 62.8704 110.798 62.4359V25.6684C110.842 25.1734 110.559 24.7224 110.11 24.5217L77.5229 6.17092C77.3351 6.04103 77.1123 5.97122 76.8839 5.97073C76.6556 5.97024 76.4325 6.03909 76.2441 6.16817L43.7034 24.5574C43.2634 24.7582 42.9609 25.2037 43.0159 25.6987V62.4662C42.9774 62.9007 43.2084 63.3104 43.6071 63.4974L52.3026 68.4062C53.9361 69.2862 55.9409 69.7812 57.7394 69.1349C58.5264 68.8383 59.2039 68.3082 59.6812 67.6157C60.1585 66.9231 60.4126 66.1012 60.4096 65.2602L60.4179 28.7127C60.3794 28.1709 60.8909 27.7227 61.4161 27.7777H65.5961C66.1461 27.7639 66.5779 28.3469 66.5036 28.8914L66.4954 65.6699C66.4981 68.9369 65.1561 72.4899 62.1339 74.0932C58.4104 76.0182 53.8069 75.6139 50.1274 73.7632L40.7774 68.5932C38.5774 67.4932 37.1006 65.1172 37.1144 62.6532V25.5282C37.1235 24.3215 37.4552 23.1393 38.0751 22.1041C38.695 21.0688 39.5805 20.2182 40.6399 19.6404L73.3044 1.17417ZM82.7754 26.9087C87.5246 26.6337 92.6094 26.7272 96.8829 29.0674C100.191 30.8604 102.025 34.6224 102.086 38.3019C101.992 38.7969 101.475 39.0719 101.002 39.0362C99.6274 39.0334 98.2469 39.0554 96.8664 39.0279C96.2806 39.0499 95.9424 38.5109 95.8681 37.9939C95.4721 36.2339 94.5124 34.4932 92.8569 33.6434C90.3159 32.3702 87.3679 32.4334 84.5959 32.4609C82.5719 32.5709 80.3966 32.7442 78.6834 33.9322C77.3634 34.8342 76.9674 36.6822 77.4376 38.1177C77.8776 39.1709 79.0959 39.5092 80.0886 39.8227C85.8141 41.3187 91.8779 41.1977 97.4961 43.1419C99.8199 43.9449 102.094 45.5069 102.892 47.9407C103.931 51.2022 103.477 55.1017 101.159 57.7197C99.2781 59.8757 96.5391 61.0197 93.8029 61.6852C90.1646 62.4964 86.3916 62.5157 82.6984 62.1527C79.2251 61.7567 75.6116 60.8437 72.9304 58.4787C70.6369 56.4877 69.5204 53.3857 69.6304 50.3937C69.6579 49.8877 70.1611 49.5357 70.6479 49.5769H74.7729C75.3284 49.5384 75.7354 50.0169 75.7629 50.5394C76.0186 52.1894 76.6484 53.9769 78.1114 54.9394C80.9329 56.7599 84.4721 56.6334 87.7006 56.6857C90.3764 56.5674 93.3794 56.5317 95.5656 54.7607C96.7206 53.7514 97.0589 52.0657 96.7481 50.6137C96.4099 49.3872 95.0981 48.8179 93.9981 48.4137C88.3469 46.6262 82.2144 47.2752 76.6181 45.2512C74.3466 44.4482 72.1494 42.9302 71.2776 40.5954C70.0594 37.2954 70.6176 33.2062 73.1834 30.6762C75.6584 28.1599 79.2884 27.1892 82.7259 26.8427L82.7754 26.9087Z" fill="#8CC84B"/>
<path d="M60.3359 137H58.1519L49.3679 123.68V137H47.1839V120.248H49.3679L58.1519 133.544V120.248H60.3359V137ZM69.7949 137.216C68.5629 137.216 67.4429 136.936 66.4349 136.376C65.4429 135.816 64.6589 135.024 64.0829 134C63.5229 132.96 63.2429 131.76 63.2429 130.4C63.2429 129.056 63.5309 127.872 64.1069 126.848C64.6989 125.808 65.4989 125.016 66.5069 124.472C67.5149 123.912 68.6429 123.632 69.8909 123.632C71.1389 123.632 72.2669 123.912 73.2749 124.472C74.2829 125.016 75.0749 125.8 75.6509 126.824C76.2429 127.848 76.5389 129.04 76.5389 130.4C76.5389 131.76 76.2349 132.96 75.6269 134C75.0349 135.024 74.2269 135.816 73.2029 136.376C72.1789 136.936 71.0429 137.216 69.7949 137.216ZM69.7949 135.296C70.5789 135.296 71.3149 135.112 72.0029 134.744C72.6909 134.376 73.2429 133.824 73.6589 133.088C74.0909 132.352 74.3069 131.456 74.3069 130.4C74.3069 129.344 74.0989 128.448 73.6829 127.712C73.2669 126.976 72.7229 126.432 72.0509 126.08C71.3789 125.712 70.6509 125.528 69.8669 125.528C69.0669 125.528 68.3309 125.712 67.6589 126.08C67.0029 126.432 66.4749 126.976 66.0749 127.712C65.6749 128.448 65.4749 129.344 65.4749 130.4C65.4749 131.472 65.6669 132.376 66.0509 133.112C66.4509 133.848 66.9789 134.4 67.6349 134.768C68.2909 135.12 69.0109 135.296 69.7949 135.296ZM78.5945 130.376C78.5945 129.032 78.8665 127.856 79.4105 126.848C79.9545 125.824 80.6985 125.032 81.6425 124.472C82.6025 123.912 83.6745 123.632 84.8585 123.632C85.8825 123.632 86.8345 123.872 87.7145 124.352C88.5945 124.816 89.2665 125.432 89.7305 126.2V119.24H91.9385V137H89.7305V134.528C89.2985 135.312 88.6585 135.96 87.8105 136.472C86.9625 136.968 85.9705 137.216 84.8345 137.216C83.6665 137.216 82.6025 136.928 81.6425 136.352C80.6985 135.776 79.9545 134.968 79.4105 133.928C78.8665 132.888 78.5945 131.704 78.5945 130.376ZM89.7305 130.4C89.7305 129.408 89.5305 128.544 89.1305 127.808C88.7305 127.072 88.1865 126.512 87.4985 126.128C86.8265 125.728 86.0825 125.528 85.2665 125.528C84.4505 125.528 83.7065 125.72 83.0345 126.104C82.3625 126.488 81.8265 127.048 81.4265 127.784C81.0265 128.52 80.8265 129.384 80.8265 130.376C80.8265 131.384 81.0265 132.264 81.4265 133.016C81.8265 133.752 82.3625 134.32 83.0345 134.72C83.7065 135.104 84.4505 135.296 85.2665 135.296C86.0825 135.296 86.8265 135.104 87.4985 134.72C88.1865 134.32 88.7305 133.752 89.1305 133.016C89.5305 132.264 89.7305 131.392 89.7305 130.4ZM107.629 129.92C107.629 130.336 107.605 130.776 107.557 131.24H97.0453C97.1253 132.536 97.5653 133.552 98.3653 134.288C99.1813 135.008 100.165 135.368 101.317 135.368C102.261 135.368 103.045 135.152 103.669 134.72C104.309 134.272 104.757 133.68 105.013 132.944H107.365C107.013 134.208 106.309 135.24 105.253 136.04C104.197 136.824 102.885 137.216 101.317 137.216C100.069 137.216 98.9493 136.936 97.9573 136.376C96.9813 135.816 96.2133 135.024 95.6533 134C95.0933 132.96 94.8133 131.76 94.8133 130.4C94.8133 129.04 95.0853 127.848 95.6293 126.824C96.1733 125.8 96.9333 125.016 97.9093 124.472C98.9013 123.912 100.037 123.632 101.317 123.632C102.565 123.632 103.669 123.904 104.629 124.448C105.589 124.992 106.325 125.744 106.837 126.704C107.365 127.648 107.629 128.72 107.629 129.92ZM105.373 129.464C105.373 128.632 105.189 127.92 104.821 127.328C104.453 126.72 103.949 126.264 103.309 125.96C102.685 125.64 101.989 125.48 101.221 125.48C100.117 125.48 99.1733 125.832 98.3893 126.536C97.6213 127.24 97.1813 128.216 97.0693 129.464H105.373Z" fill="#212529"/>
</svg>
