<svg width="154" height="146" viewBox="0 0 154 146" fill="none" xmlns="http://www.w3.org/2000/svg">
<g clip-path="url(#clip0_897_2064)">
<path fill-rule="evenodd" clip-rule="evenodd" d="M105.286 57.695C105.634 57.4948 105.924 57.2065 106.126 56.859C106.328 56.5114 106.435 56.1169 106.436 55.715L106.477 42.4531C106.479 42.0512 106.586 41.6566 106.788 41.3091C106.989 40.9616 107.279 40.6733 107.628 40.4731L114.817 36.3435C115.165 36.1434 115.56 36.0385 115.962 36.0391C116.364 36.0398 116.758 36.1461 117.106 36.3474C117.454 36.5486 117.742 36.8378 117.943 37.1859C118.144 37.5339 118.25 37.9286 118.25 38.3304V62.441C118.25 62.8441 118.143 63.2401 117.941 63.5889C117.739 63.9378 117.449 64.2272 117.099 64.4279L89.9682 80.0112C89.6217 80.2102 89.2291 80.315 88.8296 80.3155C88.43 80.3159 88.0372 80.2118 87.6903 80.0135L66.3984 67.8356C66.0477 67.6353 65.7561 67.3457 65.5533 66.9964C65.3504 66.6471 65.2435 66.2504 65.2434 65.8464V53.6892C65.2434 53.6754 65.2595 53.6662 65.2732 53.6731C65.2847 53.68 65.3007 53.6731 65.3007 53.6571V53.6433C65.3007 53.6341 65.3053 53.625 65.3145 53.6204L82.8503 43.5462C82.8663 43.5371 82.8595 43.5119 82.8411 43.5119C82.8363 43.5119 82.8316 43.5099 82.8282 43.5065C82.8247 43.503 82.8228 43.4984 82.8228 43.4935L82.8572 31.5746C82.8588 31.1715 82.754 30.7752 82.5536 30.4255C82.3531 30.0759 82.0639 29.7853 81.7153 29.5831C81.3666 29.3809 80.9708 29.2742 80.5678 29.2738C80.1647 29.2734 79.7687 29.3793 79.4197 29.5808L66.387 37.0906C66.0391 37.2909 65.6448 37.3963 65.2434 37.3963C64.842 37.3963 64.4477 37.2909 64.0999 37.0906L51.0259 29.5625C50.6776 29.3619 50.2827 29.2565 49.8807 29.2568C49.4788 29.2571 49.084 29.3631 48.736 29.5641C48.388 29.7652 48.0989 30.0542 47.8979 30.4023C47.6969 30.7503 47.5909 31.1451 47.5907 31.5471V53.0887C47.591 53.4902 47.4858 53.8848 47.2856 54.2328C47.0854 54.5809 46.7973 54.8702 46.4501 55.0719C46.1029 55.2736 45.7089 55.3805 45.3074 55.3819C44.9059 55.3834 44.511 55.2793 44.1624 55.0802L36.907 50.9323C36.5555 50.7315 36.2635 50.4413 36.0607 50.0911C35.8578 49.7409 35.7513 49.3432 35.752 48.9385L35.8161 11.2864C35.817 10.885 35.9233 10.4909 36.1244 10.1435C36.3254 9.79608 36.6142 9.50758 36.9618 9.30686C37.3094 9.10613 37.7037 9.00023 38.1051 8.99976C38.5065 8.99928 38.901 9.10425 39.249 9.30415L64.1022 23.5789C64.4495 23.7784 64.8429 23.8833 65.2434 23.8833C65.6439 23.8833 66.0374 23.7784 66.3847 23.5789L91.2309 9.30415C91.5795 9.10396 91.9746 8.99898 92.3766 8.99976C92.7786 9.00054 93.1733 9.10704 93.5211 9.30858C93.8689 9.51012 94.1576 9.7996 94.3582 10.148C94.5588 10.4963 94.6642 10.8913 94.6638 11.2933V48.9546C94.664 49.3574 94.5579 49.7532 94.3564 50.1021C94.1548 50.4509 93.8648 50.7404 93.5157 50.9414L80.5036 58.4352C80.1541 58.6367 79.864 58.9268 79.6626 59.2764C79.4611 59.6259 79.3556 60.0224 79.3565 60.4259C79.3574 60.8293 79.4648 61.2253 79.6679 61.5739C79.8709 61.9225 80.1624 62.2114 80.5128 62.4112L87.6903 66.4973C88.0372 66.6947 88.4296 66.7982 88.8287 66.7974C89.2278 66.7966 89.6199 66.6916 89.9659 66.4927L105.286 57.695ZM106.791 23.9112C106.792 24.3165 106.899 24.7144 107.104 25.0645C107.308 25.4145 107.601 25.7041 107.954 25.9037C108.307 26.1034 108.706 26.2059 109.111 26.2009C109.517 26.1959 109.913 26.0835 110.261 25.8752L117.136 21.7502C117.475 21.5468 117.756 21.259 117.951 20.9149C118.147 20.5707 118.249 20.1819 118.25 19.7862V11.3804C118.249 10.9753 118.141 10.5777 117.936 10.228C117.732 9.87825 117.439 9.58897 117.086 9.3896C116.733 9.19023 116.334 9.0879 115.929 9.09301C115.524 9.09813 115.128 9.21052 114.78 9.41873L107.905 13.5437C107.566 13.7471 107.285 14.0349 107.09 14.379C106.894 14.7232 106.792 15.112 106.791 15.5077V23.9112Z" fill="#007FFF"/>
</g>
<path d="M32.816 120.392V137H30.632V124.616L25.112 137H23.576L18.032 124.592V137H15.848V120.392H18.2L24.344 134.12L30.488 120.392H32.816ZM35.7039 130.376C35.7039 129.032 35.9759 127.856 36.5199 126.848C37.0639 125.824 37.8079 125.032 38.7519 124.472C39.7119 123.912 40.7759 123.632 41.9439 123.632C43.0959 123.632 44.0959 123.88 44.9439 124.376C45.7919 124.872 46.4239 125.496 46.8399 126.248V123.848H49.0479V137H46.8399V134.552C46.4079 135.32 45.7599 135.96 44.8959 136.472C44.0479 136.968 43.0559 137.216 41.9199 137.216C40.7519 137.216 39.6959 136.928 38.7519 136.352C37.8079 135.776 37.0639 134.968 36.5199 133.928C35.9759 132.888 35.7039 131.704 35.7039 130.376ZM46.8399 130.4C46.8399 129.408 46.6399 128.544 46.2399 127.808C45.8399 127.072 45.2959 126.512 44.6079 126.128C43.9359 125.728 43.1919 125.528 42.3759 125.528C41.5599 125.528 40.8159 125.72 40.1439 126.104C39.4719 126.488 38.9359 127.048 38.5359 127.784C38.1359 128.52 37.9359 129.384 37.9359 130.376C37.9359 131.384 38.1359 132.264 38.5359 133.016C38.9359 133.752 39.4719 134.32 40.1439 134.72C40.8159 135.104 41.5599 135.296 42.3759 135.296C43.1919 135.296 43.9359 135.104 44.6079 134.72C45.2959 134.32 45.8399 133.752 46.2399 133.016C46.6399 132.264 46.8399 131.392 46.8399 130.4ZM55.4026 125.648V133.4C55.4026 134.04 55.5386 134.496 55.8106 134.768C56.0826 135.024 56.5546 135.152 57.2266 135.152H58.8346V137H56.8666C55.6506 137 54.7386 136.72 54.1306 136.16C53.5226 135.6 53.2186 134.68 53.2186 133.4V125.648H51.5146V123.848H53.2186V120.536H55.4026V123.848H58.8346V125.648H55.4026ZM73.4808 129.92C73.4808 130.336 73.4568 130.776 73.4088 131.24H62.8968C62.9768 132.536 63.4168 133.552 64.2168 134.288C65.0328 135.008 66.0168 135.368 67.1688 135.368C68.1128 135.368 68.8968 135.152 69.5208 134.72C70.1608 134.272 70.6088 133.68 70.8648 132.944H73.2168C72.8648 134.208 72.1608 135.24 71.1048 136.04C70.0488 136.824 68.7368 137.216 67.1688 137.216C65.9208 137.216 64.8008 136.936 63.8088 136.376C62.8328 135.816 62.0648 135.024 61.5048 134C60.9448 132.96 60.6648 131.76 60.6648 130.4C60.6648 129.04 60.9368 127.848 61.4808 126.824C62.0248 125.8 62.7848 125.016 63.7608 124.472C64.7528 123.912 65.8888 123.632 67.1688 123.632C68.4168 123.632 69.5208 123.904 70.4808 124.448C71.4408 124.992 72.1768 125.744 72.6888 126.704C73.2168 127.648 73.4808 128.72 73.4808 129.92ZM71.2248 129.464C71.2248 128.632 71.0408 127.92 70.6728 127.328C70.3048 126.72 69.8008 126.264 69.1608 125.96C68.5368 125.64 67.8408 125.48 67.0728 125.48C65.9688 125.48 65.0248 125.832 64.2408 126.536C63.4728 127.24 63.0328 128.216 62.9208 129.464H71.2248ZM78.5476 125.984C78.9316 125.232 79.4756 124.648 80.1796 124.232C80.8996 123.816 81.7716 123.608 82.7956 123.608V125.864H82.2196C79.7716 125.864 78.5476 127.192 78.5476 129.848V137H76.3636V123.848H78.5476V125.984ZM86.4448 121.712C86.0288 121.712 85.6768 121.568 85.3888 121.28C85.1008 120.992 84.9568 120.64 84.9568 120.224C84.9568 119.808 85.1008 119.456 85.3888 119.168C85.6768 118.88 86.0288 118.736 86.4448 118.736C86.8448 118.736 87.1808 118.88 87.4528 119.168C87.7408 119.456 87.8848 119.808 87.8848 120.224C87.8848 120.64 87.7408 120.992 87.4528 121.28C87.1808 121.568 86.8448 121.712 86.4448 121.712ZM87.5008 123.848V137H85.3168V123.848H87.5008ZM90.407 130.376C90.407 129.032 90.679 127.856 91.223 126.848C91.767 125.824 92.511 125.032 93.455 124.472C94.415 123.912 95.479 123.632 96.647 123.632C97.799 123.632 98.799 123.88 99.647 124.376C100.495 124.872 101.127 125.496 101.543 126.248V123.848H103.751V137H101.543V134.552C101.111 135.32 100.463 135.96 99.599 136.472C98.751 136.968 97.759 137.216 96.623 137.216C95.455 137.216 94.399 136.928 93.455 136.352C92.511 135.776 91.767 134.968 91.223 133.928C90.679 132.888 90.407 131.704 90.407 130.376ZM101.543 130.4C101.543 129.408 101.343 128.544 100.943 127.808C100.543 127.072 99.999 126.512 99.311 126.128C98.639 125.728 97.895 125.528 97.079 125.528C96.263 125.528 95.519 125.72 94.847 126.104C94.175 126.488 93.639 127.048 93.239 127.784C92.839 128.52 92.639 129.384 92.639 130.376C92.639 131.384 92.839 132.264 93.239 133.016C93.639 133.752 94.175 134.32 94.847 134.72C95.519 135.104 96.263 135.296 97.079 135.296C97.895 135.296 98.639 135.104 99.311 134.72C99.999 134.32 100.543 133.752 100.943 133.016C101.343 132.264 101.543 131.392 101.543 130.4ZM109.626 119.24V137H107.442V119.24H109.626ZM121.882 120.272V130.856C121.882 132.344 122.242 133.448 122.962 134.168C123.698 134.888 124.714 135.248 126.01 135.248C127.29 135.248 128.29 134.888 129.01 134.168C129.746 133.448 130.114 132.344 130.114 130.856V120.272H132.298V130.832C132.298 132.224 132.018 133.4 131.458 134.36C130.898 135.304 130.138 136.008 129.178 136.472C128.234 136.936 127.17 137.168 125.986 137.168C124.802 137.168 123.73 136.936 122.77 136.472C121.826 136.008 121.074 135.304 120.514 134.36C119.97 133.4 119.698 132.224 119.698 130.832V120.272H121.882ZM138.126 120.272V137H135.942V120.272H138.126Z" fill="#212529"/>
<defs>
<clipPath id="clip0_897_2064">
<rect width="82.5" height="88" fill="white" transform="translate(35.75)"/>
</clipPath>
</defs>
</svg>
