<svg width="155" height="146" viewBox="0 0 155 146" fill="none" xmlns="http://www.w3.org/2000/svg">
<g clip-path="url(#clip0_897_2101)">
<path d="M77.2247 1.309C76.4378 1.35523 75.6681 1.5591 74.9615 1.9085L44.3127 16.5275C42.7122 17.2892 41.549 18.7385 41.1502 20.4655L33.6482 53.2757C33.2907 54.8157 33.5795 56.43 34.4732 57.75C34.5777 57.9095 34.6877 58.0635 34.8032 58.212L55.9782 84.5405C57.0975 85.9155 58.7777 86.7048 60.5487 86.6965H94.5112C96.2877 86.6992 97.9707 85.8715 99.0872 84.5157L120.251 58.1817C121.362 56.8067 121.777 54.9917 121.351 53.2702L113.8 20.4325C113.401 18.7055 112.232 17.2562 110.637 16.4945L80.038 1.91125C79.1562 1.47636 78.1796 1.26931 77.1972 1.309H77.2247Z" fill="#326CE5"/>
<path d="M77.5056 12.4905C76.4496 12.5647 75.6494 13.4695 75.7044 14.5255V15.0425C75.7539 15.6282 75.8419 16.2085 75.9574 16.7832C76.126 17.8838 76.1868 18.9983 76.1389 20.1107C76.0344 20.4765 75.8254 20.8065 75.5394 21.0595L75.4981 21.835C74.3844 21.9285 73.2789 22.099 72.1899 22.3465C67.6084 23.3805 63.4366 25.7565 60.2164 29.1802L59.5564 28.7127C59.1934 28.8227 58.8029 28.7815 58.4701 28.6027C57.5775 27.9421 56.7514 27.196 56.0034 26.3752C55.6276 25.9263 55.2264 25.4993 54.8016 25.0965L54.3946 24.772C54.0316 24.4805 53.5861 24.3127 53.1214 24.2907C52.844 24.276 52.5671 24.3272 52.3134 24.44C52.0596 24.5527 51.8361 24.724 51.6611 24.9397C51.0396 25.8115 51.2431 27.0187 52.1121 27.643L52.4916 27.9455C52.9801 28.2705 53.487 28.5671 54.0096 28.8337C54.9831 29.3755 55.9016 30.0107 56.7541 30.7587C56.9722 31.0697 57.0989 31.4355 57.1199 31.8147L57.7194 32.3647C54.4826 37.2212 53.1544 43.1035 53.9849 48.8812L53.2149 49.1012C53.0141 49.4202 52.7474 49.6925 52.4284 49.8932C51.3541 50.1801 50.2544 50.3615 49.1449 50.435C48.5561 50.4469 47.9684 50.4928 47.3849 50.5725L46.8981 50.6825H46.8431C46.5053 50.7294 46.1872 50.8691 45.9241 51.086C45.661 51.303 45.4633 51.5888 45.353 51.9115C45.2427 52.2341 45.2241 52.5811 45.2993 52.9137C45.3744 53.2464 45.5405 53.5516 45.7789 53.7955C46.0195 54.0381 46.3228 54.209 46.655 54.2891C46.9872 54.3693 47.3351 54.3555 47.6599 54.2492H47.6956L48.1906 54.1942C48.7489 54.0292 49.2989 53.8257 49.8351 53.5947C50.8664 53.1822 51.9361 52.866 53.0306 52.6597C53.4101 52.6817 53.7731 52.811 54.0811 53.031L54.9061 52.8935C56.6936 58.4402 60.4501 63.14 65.4661 66.1017L65.1306 66.803C65.2846 67.1247 65.3424 67.4822 65.2956 67.837C64.8419 68.8875 64.2864 69.894 63.6374 70.84C63.2813 71.3093 62.9526 71.7987 62.6529 72.3057L62.4191 72.8007C62.2495 73.0949 62.1645 73.4303 62.1735 73.7697C62.1825 74.1092 62.2852 74.4396 62.4701 74.7244C62.655 75.0092 62.9151 75.2373 63.2215 75.3836C63.528 75.5299 63.8689 75.5887 64.2066 75.5535C64.5452 75.5154 64.8665 75.3842 65.135 75.1745C65.4034 74.9648 65.6085 74.6847 65.7274 74.3655L65.9556 73.898C66.1646 73.348 66.3406 72.787 66.4836 72.2205C66.9704 71.0187 67.2344 69.729 67.8999 68.9315C68.1174 68.727 68.3915 68.5928 68.6864 68.5465L69.0989 67.7957C74.5363 69.8857 80.5528 69.9004 86.0004 67.837L86.3661 68.5382C86.7401 68.5932 87.0756 68.7995 87.3011 69.102C87.8181 70.0865 88.2361 71.1177 88.5551 72.182C88.7006 72.7518 88.8787 73.3129 89.0886 73.8622L89.3169 74.3297C89.4369 74.6478 89.6426 74.9264 89.9112 75.1348C90.1797 75.3432 90.5007 75.4732 90.8386 75.5105C91.1764 75.5478 91.5181 75.4909 91.8256 75.3461C92.1331 75.2013 92.3946 74.9742 92.5811 74.69C92.7658 74.4041 92.8677 74.0726 92.8754 73.7323C92.8832 73.392 92.7966 73.0563 92.6251 72.7622L92.3859 72.2672C92.0861 71.7619 91.7574 71.2744 91.4014 70.807C90.7689 69.894 90.2244 68.9205 89.7514 67.9002C89.7072 67.7137 89.701 67.5202 89.7332 67.3312C89.7653 67.1423 89.8351 66.9617 89.9384 66.8002C89.821 66.5604 89.7191 66.3133 89.6331 66.0605C94.6381 63.0767 98.3781 58.3605 100.146 52.8055L100.927 52.943C101.208 52.6872 101.576 52.5525 101.953 52.5635C103.045 52.7725 104.115 53.1135 105.149 53.4985C105.685 53.746 106.235 53.955 106.793 54.131C106.925 54.1667 107.118 54.197 107.266 54.2327H107.302C107.626 54.3376 107.974 54.3502 108.305 54.2693C108.636 54.1884 108.939 54.0171 109.179 53.7745C109.418 53.5319 109.586 53.2275 109.663 52.8952C109.74 52.5629 109.723 52.2158 109.615 51.8925C109.503 51.5695 109.305 51.2837 109.041 51.0671C108.776 50.8505 108.457 50.7116 108.119 50.666L107.585 50.5395C107.002 50.4599 106.414 50.4139 105.825 50.402C104.714 50.3305 103.614 50.149 102.542 49.8602C102.212 49.676 101.937 49.401 101.75 49.0682L101.007 48.8482C101.799 43.0732 100.442 37.2085 97.1956 32.3675L97.8446 31.768C97.8171 31.3912 97.9409 31.0172 98.1856 30.7285C99.0299 30.0025 99.9456 29.3617 100.908 28.8145C101.431 28.5477 101.938 28.2511 102.426 27.9262L102.828 27.6017C103.123 27.4182 103.361 27.1548 103.513 26.8419C103.665 26.529 103.726 26.1794 103.687 25.8336C103.649 25.4878 103.514 25.1599 103.297 24.8878C103.08 24.6158 102.79 24.4106 102.462 24.2962C102.134 24.182 101.78 24.1629 101.441 24.2412C101.102 24.3196 100.793 24.4921 100.548 24.739L100.141 25.0635C99.7162 25.4664 99.3149 25.8934 98.9391 26.3422C98.2131 27.1727 97.4101 27.929 96.5384 28.6055C96.1866 28.7487 95.8017 28.7906 95.4274 28.7265L94.7316 29.2215C90.7166 25.014 85.3074 22.4015 79.5104 21.879C79.5104 21.604 79.4746 21.1915 79.4691 21.0622C79.1584 20.8477 78.9411 20.5205 78.8696 20.1492C78.8315 19.0387 78.9015 17.927 79.0786 16.83C79.1969 16.2525 79.2794 15.675 79.3316 15.0892V14.5392C79.3866 13.4832 78.5891 12.5785 77.5304 12.5042L77.5056 12.4905ZM75.2121 26.697L74.6621 36.3027H74.6209C74.5934 36.8967 74.2441 37.4027 73.7079 37.6887C73.1716 37.9747 72.5364 37.8895 72.0579 37.5402L64.1791 31.9577C66.6868 29.4946 69.8329 27.7811 73.2624 27.0105C73.9059 26.873 74.5549 26.7685 75.2066 26.697H75.2121ZM79.7991 26.697C83.9379 27.2112 87.7906 29.0702 90.7716 31.988L82.9671 37.5347C82.4859 37.9197 81.8259 37.9967 81.2676 37.7327C80.7094 37.4687 80.3519 36.9077 80.3436 36.2917L79.7991 26.697ZM61.3191 35.5712L68.5241 42.0007V42.042C68.9724 42.4325 69.1676 43.0402 69.0356 43.6205C68.9036 44.2007 68.4581 44.66 67.8889 44.8167V44.8442L58.6434 47.5035C58.1859 43.3381 59.1283 39.1389 61.3219 35.5685L61.3191 35.5712ZM93.6399 35.5712C95.8289 39.1325 96.7969 43.3097 96.3954 47.4705L87.1361 44.803V44.7672C86.5586 44.6105 86.1186 44.1512 85.9894 43.571C85.8601 42.9907 86.0526 42.3885 86.5009 41.9925L93.6509 35.5932L93.6399 35.5712ZM76.0289 42.5012H78.9769L80.7781 44.7892L80.1236 47.6492L77.4754 48.9225L74.8216 47.6492L74.1974 44.7892L76.0289 42.5012ZM85.4724 50.3057C85.5961 50.292 85.7474 50.292 85.8436 50.3057L95.3779 51.9145C94.0029 55.8745 91.2886 59.257 87.7466 61.5202L84.0616 52.5992C83.9603 52.3599 83.918 52.0997 83.9382 51.8406C83.9584 51.5815 84.0405 51.331 84.1777 51.1103C84.3149 50.8895 84.5031 50.705 84.7265 50.5722C84.9499 50.4393 85.2019 50.3621 85.4614 50.347L85.4724 50.3057ZM69.4591 50.347C69.9981 50.3552 70.4959 50.633 70.7901 51.084C71.0844 51.535 71.1311 52.1015 70.9194 52.5965V52.6322L67.2564 61.4817C63.7501 59.235 61.0881 55.8937 59.6719 51.975L69.1236 50.3717C69.2281 50.3607 69.3354 50.3607 69.4426 50.3717L69.4591 50.347ZM77.4451 54.197C77.7456 54.1875 78.0428 54.2617 78.3035 54.4112C78.5643 54.5608 78.7784 54.7799 78.9219 55.044H78.9576L83.6161 63.4507L81.7544 64.0007C78.3279 64.7845 74.7501 64.6002 71.4199 63.4672L76.0949 55.0605C76.3781 54.5655 76.9006 54.263 77.4699 54.2492L77.4451 54.197Z" fill="white" stroke="white" stroke-width="0.11"/>
</g>
<path d="M20.3341 137L13.4461 129.368V137H11.2621V120.272H13.4461V128.024L20.3581 120.272H23.1181L15.5341 128.648L23.1901 137H20.3341ZM37.2933 123.848V137H35.1093V135.056C34.6933 135.728 34.1093 136.256 33.3573 136.64C32.6213 137.008 31.8053 137.192 30.9093 137.192C29.8853 137.192 28.9653 136.984 28.1493 136.568C27.3333 136.136 26.6853 135.496 26.2053 134.648C25.7413 133.8 25.5093 132.768 25.5093 131.552V123.848H27.6693V131.264C27.6693 132.56 27.9973 133.56 28.6533 134.264C29.3093 134.952 30.2053 135.296 31.3413 135.296C32.5093 135.296 33.4293 134.936 34.1013 134.216C34.7733 133.496 35.1093 132.448 35.1093 131.072V123.848H37.2933ZM43.1648 126.296C43.6128 125.512 44.2688 124.872 45.1328 124.376C45.9968 123.88 46.9808 123.632 48.0848 123.632C49.2688 123.632 50.3328 123.912 51.2768 124.472C52.2208 125.032 52.9648 125.824 53.5088 126.848C54.0528 127.856 54.3248 129.032 54.3248 130.376C54.3248 131.704 54.0528 132.888 53.5088 133.928C52.9648 134.968 52.2128 135.776 51.2528 136.352C50.3088 136.928 49.2528 137.216 48.0848 137.216C46.9488 137.216 45.9488 136.968 45.0848 136.472C44.2368 135.976 43.5968 135.344 43.1648 134.576V137H40.9808V119.24H43.1648V126.296ZM52.0928 130.376C52.0928 129.384 51.8928 128.52 51.4928 127.784C51.0928 127.048 50.5488 126.488 49.8608 126.104C49.1888 125.72 48.4448 125.528 47.6288 125.528C46.8288 125.528 46.0848 125.728 45.3968 126.128C44.7248 126.512 44.1808 127.08 43.7648 127.832C43.3648 128.568 43.1648 129.424 43.1648 130.4C43.1648 131.392 43.3648 132.264 43.7648 133.016C44.1808 133.752 44.7248 134.32 45.3968 134.72C46.0848 135.104 46.8288 135.296 47.6288 135.296C48.4448 135.296 49.1888 135.104 49.8608 134.72C50.5488 134.32 51.0928 133.752 51.4928 133.016C51.8928 132.264 52.0928 131.384 52.0928 130.376ZM69.1996 129.92C69.1996 130.336 69.1756 130.776 69.1276 131.24H58.6156C58.6956 132.536 59.1356 133.552 59.9356 134.288C60.7516 135.008 61.7356 135.368 62.8876 135.368C63.8316 135.368 64.6156 135.152 65.2396 134.72C65.8796 134.272 66.3276 133.68 66.5836 132.944H68.9356C68.5836 134.208 67.8796 135.24 66.8236 136.04C65.7676 136.824 64.4556 137.216 62.8876 137.216C61.6396 137.216 60.5196 136.936 59.5276 136.376C58.5516 135.816 57.7836 135.024 57.2236 134C56.6636 132.96 56.3836 131.76 56.3836 130.4C56.3836 129.04 56.6556 127.848 57.1996 126.824C57.7436 125.8 58.5036 125.016 59.4796 124.472C60.4716 123.912 61.6076 123.632 62.8876 123.632C64.1356 123.632 65.2396 123.904 66.1996 124.448C67.1596 124.992 67.8956 125.744 68.4076 126.704C68.9356 127.648 69.1996 128.72 69.1996 129.92ZM66.9436 129.464C66.9436 128.632 66.7596 127.92 66.3916 127.328C66.0236 126.72 65.5196 126.264 64.8796 125.96C64.2556 125.64 63.5596 125.48 62.7916 125.48C61.6876 125.48 60.7436 125.832 59.9596 126.536C59.1916 127.24 58.7516 128.216 58.6396 129.464H66.9436ZM74.2664 125.984C74.6504 125.232 75.1944 124.648 75.8984 124.232C76.6184 123.816 77.4904 123.608 78.5144 123.608V125.864H77.9384C75.4904 125.864 74.2664 127.192 74.2664 129.848V137H72.0824V123.848H74.2664V125.984ZM87.4435 123.608C89.0435 123.608 90.3395 124.096 91.3315 125.072C92.3235 126.032 92.8195 127.424 92.8195 129.248V137H90.6595V129.56C90.6595 128.248 90.3315 127.248 89.6755 126.56C89.0195 125.856 88.1235 125.504 86.9875 125.504C85.8355 125.504 84.9155 125.864 84.2275 126.584C83.5555 127.304 83.2195 128.352 83.2195 129.728V137H81.0355V123.848H83.2195V125.72C83.6515 125.048 84.2355 124.528 84.9715 124.16C85.7235 123.792 86.5475 123.608 87.4435 123.608ZM108.387 129.92C108.387 130.336 108.363 130.776 108.315 131.24H97.8031C97.8831 132.536 98.3231 133.552 99.1231 134.288C99.9391 135.008 100.923 135.368 102.075 135.368C103.019 135.368 103.803 135.152 104.427 134.72C105.067 134.272 105.515 133.68 105.771 132.944H108.123C107.771 134.208 107.067 135.24 106.011 136.04C104.955 136.824 103.643 137.216 102.075 137.216C100.827 137.216 99.7071 136.936 98.7151 136.376C97.7391 135.816 96.9711 135.024 96.4111 134C95.8511 132.96 95.5711 131.76 95.5711 130.4C95.5711 129.04 95.8431 127.848 96.3871 126.824C96.9311 125.8 97.6911 125.016 98.6671 124.472C99.6591 123.912 100.795 123.632 102.075 123.632C103.323 123.632 104.427 123.904 105.387 124.448C106.347 124.992 107.083 125.744 107.595 126.704C108.123 127.648 108.387 128.72 108.387 129.92ZM106.131 129.464C106.131 128.632 105.947 127.92 105.579 127.328C105.211 126.72 104.707 126.264 104.067 125.96C103.443 125.64 102.747 125.48 101.979 125.48C100.875 125.48 99.9311 125.832 99.1471 126.536C98.3791 127.24 97.9391 128.216 97.8271 129.464H106.131ZM113.934 125.648V133.4C113.934 134.04 114.07 134.496 114.342 134.768C114.614 135.024 115.086 135.152 115.758 135.152H117.366V137H115.398C114.182 137 113.27 136.72 112.662 136.16C112.054 135.6 111.75 134.68 111.75 133.4V125.648H110.046V123.848H111.75V120.536H113.934V123.848H117.366V125.648H113.934ZM132.012 129.92C132.012 130.336 131.988 130.776 131.94 131.24H121.428C121.508 132.536 121.948 133.552 122.748 134.288C123.564 135.008 124.548 135.368 125.7 135.368C126.644 135.368 127.428 135.152 128.052 134.72C128.692 134.272 129.14 133.68 129.396 132.944H131.748C131.396 134.208 130.692 135.24 129.636 136.04C128.58 136.824 127.268 137.216 125.7 137.216C124.452 137.216 123.332 136.936 122.34 136.376C121.364 135.816 120.596 135.024 120.036 134C119.476 132.96 119.196 131.76 119.196 130.4C119.196 129.04 119.468 127.848 120.012 126.824C120.556 125.8 121.316 125.016 122.292 124.472C123.284 123.912 124.42 123.632 125.7 123.632C126.948 123.632 128.052 123.904 129.012 124.448C129.972 124.992 130.708 125.744 131.22 126.704C131.748 127.648 132.012 128.72 132.012 129.92ZM129.756 129.464C129.756 128.632 129.572 127.92 129.204 127.328C128.836 126.72 128.332 126.264 127.692 125.96C127.068 125.64 126.372 125.48 125.604 125.48C124.5 125.48 123.556 125.832 122.772 126.536C122.004 127.24 121.564 128.216 121.452 129.464H129.756ZM139.551 137.216C138.543 137.216 137.639 137.048 136.839 136.712C136.039 136.36 135.407 135.88 134.943 135.272C134.479 134.648 134.223 133.936 134.175 133.136H136.431C136.495 133.792 136.799 134.328 137.343 134.744C137.903 135.16 138.631 135.368 139.527 135.368C140.359 135.368 141.015 135.184 141.495 134.816C141.975 134.448 142.215 133.984 142.215 133.424C142.215 132.848 141.959 132.424 141.447 132.152C140.935 131.864 140.143 131.584 139.071 131.312C138.095 131.056 137.295 130.8 136.671 130.544C136.063 130.272 135.535 129.88 135.087 129.368C134.655 128.84 134.439 128.152 134.439 127.304C134.439 126.632 134.639 126.016 135.039 125.456C135.439 124.896 136.007 124.456 136.743 124.136C137.479 123.8 138.319 123.632 139.263 123.632C140.719 123.632 141.895 124 142.791 124.736C143.687 125.472 144.167 126.48 144.231 127.76H142.047C141.999 127.072 141.719 126.52 141.207 126.104C140.711 125.688 140.039 125.48 139.191 125.48C138.407 125.48 137.783 125.648 137.319 125.984C136.855 126.32 136.623 126.76 136.623 127.304C136.623 127.736 136.759 128.096 137.031 128.384C137.319 128.656 137.671 128.88 138.087 129.056C138.519 129.216 139.111 129.4 139.863 129.608C140.807 129.864 141.575 130.12 142.167 130.376C142.759 130.616 143.263 130.984 143.679 131.48C144.111 131.976 144.335 132.624 144.351 133.424C144.351 134.144 144.151 134.792 143.751 135.368C143.351 135.944 142.783 136.4 142.047 136.736C141.327 137.056 140.495 137.216 139.551 137.216Z" fill="#212529"/>
<defs>
<clipPath id="clip0_897_2101">
<rect width="88" height="88" fill="white" transform="translate(33.5)"/>
</clipPath>
</defs>
</svg>
