<svg width="155" height="146" viewBox="0 0 155 146" fill="none" xmlns="http://www.w3.org/2000/svg">
<path d="M107.416 44.2548C97.1642 44.456 99.2996 50.946 92.0744 52.5873C84.7347 54.2547 83.576 34.6614 76.2381 34.6614C68.8993 34.6614 67.2736 53.6941 58.0844 66.7603L57.8223 67.1302L77.5237 78.5028L107.416 61.2461V44.2548Z" fill="#36A2EB"/>
<path d="M107.416 43.6641C103.984 39.2595 101.656 34.1958 96.6481 34.1958C87.7853 34.1958 90.1173 48.6539 80.3223 48.6539C70.5263 48.6539 69.4965 33.1022 58.3993 47.7212C54.8633 52.3793 52.017 57.5731 49.7812 62.4878L77.5237 78.5033L107.416 61.2466V43.6641Z" fill="#FFCE56"/>
<path opacity="0.8" d="M47.6299 49.6532C50.9931 40.3394 52.4447 32.7961 58.8655 32.7961C68.6605 32.7961 70.992 60.314 79.3892 57.5145C87.7849 54.7164 86.8518 39.7912 99.9129 39.7912C102.399 39.7912 104.937 41.3143 107.416 43.7778V61.2463L77.5238 78.503L47.6303 61.2463L47.6299 49.6532Z" fill="#FE6184"/>
<path d="M77.5 80.6666L45.7412 62.3337V25.6666L77.5 7.33325L109.259 25.6666V62.3333L77.5 80.6666ZM49.4725 60.1795L77.5 76.3592L105.528 60.1795V27.8208L77.5 11.6411L49.4725 27.8208V60.1795Z" fill="#E7E9ED"/>
<path d="M28.0242 128.624C28.0242 126.992 28.3922 125.528 29.1282 124.232C29.8642 122.92 30.8642 121.896 32.1282 121.16C33.4082 120.424 34.8242 120.056 36.3762 120.056C38.2002 120.056 39.7922 120.496 41.1522 121.376C42.5122 122.256 43.5042 123.504 44.1282 125.12H41.5122C41.0482 124.112 40.3762 123.336 39.4962 122.792C38.6322 122.248 37.5922 121.976 36.3762 121.976C35.2082 121.976 34.1602 122.248 33.2322 122.792C32.3042 123.336 31.5762 124.112 31.0482 125.12C30.5202 126.112 30.2562 127.28 30.2562 128.624C30.2562 129.952 30.5202 131.12 31.0482 132.128C31.5762 133.12 32.3042 133.888 33.2322 134.432C34.1602 134.976 35.2082 135.248 36.3762 135.248C37.5922 135.248 38.6322 134.984 39.4962 134.456C40.3762 133.912 41.0482 133.136 41.5122 132.128H44.1282C43.5042 133.728 42.5122 134.968 41.1522 135.848C39.7922 136.712 38.2002 137.144 36.3762 137.144C34.8242 137.144 33.4082 136.784 32.1282 136.064C30.8642 135.328 29.8642 134.312 29.1282 133.016C28.3922 131.72 28.0242 130.256 28.0242 128.624ZM53.9073 123.608C54.8993 123.608 55.7953 123.824 56.5953 124.256C57.3953 124.672 58.0193 125.304 58.4673 126.152C58.9313 127 59.1633 128.032 59.1633 129.248V137H57.0033V129.56C57.0033 128.248 56.6753 127.248 56.0193 126.56C55.3633 125.856 54.4673 125.504 53.3313 125.504C52.1793 125.504 51.2593 125.864 50.5713 126.584C49.8993 127.304 49.5633 128.352 49.5633 129.728V137H47.3793V119.24H49.5633V125.72C49.9953 125.048 50.5873 124.528 51.3393 124.16C52.1073 123.792 52.9633 123.608 53.9073 123.608ZM61.9148 130.376C61.9148 129.032 62.1868 127.856 62.7308 126.848C63.2748 125.824 64.0188 125.032 64.9628 124.472C65.9228 123.912 66.9868 123.632 68.1548 123.632C69.3068 123.632 70.3068 123.88 71.1548 124.376C72.0028 124.872 72.6348 125.496 73.0508 126.248V123.848H75.2588V137H73.0508V134.552C72.6188 135.32 71.9708 135.96 71.1068 136.472C70.2588 136.968 69.2668 137.216 68.1308 137.216C66.9628 137.216 65.9068 136.928 64.9628 136.352C64.0188 135.776 63.2748 134.968 62.7308 133.928C62.1868 132.888 61.9148 131.704 61.9148 130.376ZM73.0508 130.4C73.0508 129.408 72.8508 128.544 72.4508 127.808C72.0508 127.072 71.5068 126.512 70.8188 126.128C70.1468 125.728 69.4028 125.528 68.5868 125.528C67.7708 125.528 67.0268 125.72 66.3548 126.104C65.6828 126.488 65.1468 127.048 64.7468 127.784C64.3468 128.52 64.1468 129.384 64.1468 130.376C64.1468 131.384 64.3468 132.264 64.7468 133.016C65.1468 133.752 65.6828 134.32 66.3548 134.72C67.0268 135.104 67.7708 135.296 68.5868 135.296C69.4028 135.296 70.1468 135.104 70.8188 134.72C71.5068 134.32 72.0508 133.752 72.4508 133.016C72.8508 132.264 73.0508 131.392 73.0508 130.4ZM81.1336 125.984C81.5176 125.232 82.0616 124.648 82.7656 124.232C83.4856 123.816 84.3576 123.608 85.3816 123.608V125.864H84.8056C82.3576 125.864 81.1336 127.192 81.1336 129.848V137H78.9496V123.848H81.1336V125.984ZM90.5667 125.648V133.4C90.5667 134.04 90.7027 134.496 90.9747 134.768C91.2467 135.024 91.7187 135.152 92.3907 135.152H93.9987V137H92.0307C90.8147 137 89.9027 136.72 89.2947 136.16C88.6867 135.6 88.3827 134.68 88.3827 133.4V125.648H86.6787V123.848H88.3827V120.536H90.5667V123.848H93.9987V125.648H90.5667ZM111.467 120.272V132.632C111.467 134.008 111.043 135.112 110.195 135.944C109.347 136.76 108.227 137.168 106.835 137.168C105.427 137.168 104.299 136.752 103.451 135.92C102.603 135.072 102.179 133.92 102.179 132.464H104.363C104.379 133.28 104.587 133.944 104.987 134.456C105.403 134.968 106.019 135.224 106.835 135.224C107.651 135.224 108.259 134.984 108.659 134.504C109.059 134.008 109.259 133.384 109.259 132.632V120.272H111.467ZM121.074 137.168C119.97 137.168 118.978 136.976 118.098 136.592C117.234 136.192 116.554 135.648 116.058 134.96C115.562 134.256 115.306 133.448 115.29 132.536H117.618C117.698 133.32 118.018 133.984 118.578 134.528C119.154 135.056 119.986 135.32 121.074 135.32C122.114 135.32 122.93 135.064 123.522 134.552C124.13 134.024 124.434 133.352 124.434 132.536C124.434 131.896 124.258 131.376 123.906 130.976C123.554 130.576 123.114 130.272 122.586 130.064C122.058 129.856 121.346 129.632 120.45 129.392C119.346 129.104 118.458 128.816 117.786 128.528C117.13 128.24 116.562 127.792 116.082 127.184C115.618 126.56 115.386 125.728 115.386 124.688C115.386 123.776 115.618 122.968 116.082 122.264C116.546 121.56 117.194 121.016 118.026 120.632C118.874 120.248 119.842 120.056 120.93 120.056C122.498 120.056 123.778 120.448 124.77 121.232C125.778 122.016 126.346 123.056 126.474 124.352H124.074C123.994 123.712 123.658 123.152 123.066 122.672C122.474 122.176 121.69 121.928 120.714 121.928C119.802 121.928 119.058 122.168 118.482 122.648C117.906 123.112 117.618 123.768 117.618 124.616C117.618 125.224 117.786 125.72 118.122 126.104C118.474 126.488 118.898 126.784 119.394 126.992C119.906 127.184 120.618 127.408 121.53 127.664C122.634 127.968 123.522 128.272 124.194 128.576C124.866 128.864 125.442 129.32 125.922 129.944C126.402 130.552 126.642 131.384 126.642 132.44C126.642 133.256 126.426 134.024 125.994 134.744C125.562 135.464 124.922 136.048 124.074 136.496C123.226 136.944 122.226 137.168 121.074 137.168Z" fill="#212529"/>
</svg>
