<svg width="154" height="146" viewBox="0 0 154 146" fill="none" xmlns="http://www.w3.org/2000/svg">
<path fill-rule="evenodd" clip-rule="evenodd" d="M87.6343 20.0254L74.6185 46.2412L97.5342 72.8062L55 77.6324L121 78.3199L87.6343 20.0254ZM85.0658 9.67993L55.1843 34.6857L33 72.1132L51.8843 70.1882L85.0658 9.67993Z" fill="#035BDA"/>
<path d="M55.5954 133.28H48.2994L46.9554 137H44.6514L50.6994 120.368H53.2194L59.2434 137H56.9394L55.5954 133.28ZM54.9714 131.504L51.9474 123.056L48.9234 131.504H54.9714ZM63.5113 135.2H69.9673V137H61.0153V135.2L67.3993 125.624H61.0633V123.848H69.9193V125.624L63.5113 135.2ZM84.4651 123.848V137H82.2811V135.056C81.8651 135.728 81.2811 136.256 80.5291 136.64C79.7931 137.008 78.9771 137.192 78.0811 137.192C77.0571 137.192 76.1371 136.984 75.3211 136.568C74.5051 136.136 73.8571 135.496 73.3771 134.648C72.9131 133.8 72.6811 132.768 72.6811 131.552V123.848H74.8411V131.264C74.8411 132.56 75.1691 133.56 75.8251 134.264C76.4811 134.952 77.3771 135.296 78.5131 135.296C79.6811 135.296 80.6011 134.936 81.2731 134.216C81.9451 133.496 82.2811 132.448 82.2811 131.072V123.848H84.4651ZM90.3367 125.984C90.7207 125.232 91.2647 124.648 91.9687 124.232C92.6887 123.816 93.5607 123.608 94.5847 123.608V125.864H94.0087C91.5607 125.864 90.3367 127.192 90.3367 129.848V137H88.1527V123.848H90.3367V125.984ZM109.106 129.92C109.106 130.336 109.082 130.776 109.034 131.24H98.5218C98.6018 132.536 99.0418 133.552 99.8418 134.288C100.658 135.008 101.642 135.368 102.794 135.368C103.738 135.368 104.522 135.152 105.146 134.72C105.786 134.272 106.234 133.68 106.49 132.944H108.842C108.49 134.208 107.786 135.24 106.73 136.04C105.674 136.824 104.362 137.216 102.794 137.216C101.546 137.216 100.426 136.936 99.4338 136.376C98.4578 135.816 97.6898 135.024 97.1298 134C96.5698 132.96 96.2898 131.76 96.2898 130.4C96.2898 129.04 96.5618 127.848 97.1058 126.824C97.6498 125.8 98.4098 125.016 99.3858 124.472C100.378 123.912 101.514 123.632 102.794 123.632C104.042 123.632 105.146 123.904 106.106 124.448C107.066 124.992 107.802 125.744 108.314 126.704C108.842 127.648 109.106 128.72 109.106 129.92ZM106.85 129.464C106.85 128.632 106.666 127.92 106.298 127.328C105.93 126.72 105.426 126.264 104.786 125.96C104.162 125.64 103.466 125.48 102.698 125.48C101.594 125.48 100.65 125.832 99.8658 126.536C99.0978 127.24 98.6578 128.216 98.5458 129.464H106.85Z" fill="#212529"/>
</svg>
