<svg width="154" height="146" viewBox="0 0 154 146" fill="none" xmlns="http://www.w3.org/2000/svg">
<g clip-path="url(#clip0_879_1144)">
<path fill-rule="evenodd" clip-rule="evenodd" d="M75.9825 86.3169L56.3612 79.2769V50.5256L75.9825 57.2081V86.3169ZM79.5575 86.3169L99.1787 79.2769V50.5256L79.5575 57.2136V86.3169ZM58.3825 48.3669L78.1825 42.7761L96.5965 48.7161L78.1825 54.9669L58.3825 48.3669ZM52.6295 46.1669L33 39.1049V10.3124L52.6213 16.9949L52.6295 46.1669ZM56.2237 46.1669L75.845 39.1269V10.3124L56.2183 17.0279L56.2237 46.1669ZM35.0487 8.21688L54.8488 2.59863L73.2627 8.53863L54.8488 14.7894L35.0487 8.21688ZM98.4417 46.1669L78.8205 39.1269V10.3124L98.4417 16.9949V46.1669ZM102.017 46.1669L121.638 39.1269V10.3124L102.017 16.9949V46.1669ZM80.8417 8.21688L100.642 2.62613L119.056 8.56613L100.642 14.8169L80.8417 8.21688Z" fill="#FF9900"/>
</g>
<path d="M61.9001 133.28H54.6041L53.2601 137H50.9561L57.0041 120.368H59.5241L65.5481 137H63.2441L61.9001 133.28ZM61.2761 131.504L58.2521 123.056L55.2281 131.504H61.2761ZM89.2079 120.272L84.3599 137H81.9119L78.0239 123.536L73.9919 137L71.5679 137.024L66.8879 120.272H69.2159L72.8639 134.456L76.8959 120.272H79.3439L83.1839 134.408L86.8559 120.272H89.2079ZM96.902 137.168C95.798 137.168 94.806 136.976 93.926 136.592C93.062 136.192 92.382 135.648 91.886 134.96C91.39 134.256 91.134 133.448 91.118 132.536H93.446C93.526 133.32 93.846 133.984 94.406 134.528C94.982 135.056 95.814 135.32 96.902 135.32C97.942 135.32 98.758 135.064 99.35 134.552C99.958 134.024 100.262 133.352 100.262 132.536C100.262 131.896 100.086 131.376 99.734 130.976C99.382 130.576 98.942 130.272 98.414 130.064C97.886 129.856 97.174 129.632 96.278 129.392C95.174 129.104 94.286 128.816 93.614 128.528C92.958 128.24 92.39 127.792 91.91 127.184C91.446 126.56 91.214 125.728 91.214 124.688C91.214 123.776 91.446 122.968 91.91 122.264C92.374 121.56 93.022 121.016 93.854 120.632C94.702 120.248 95.67 120.056 96.758 120.056C98.326 120.056 99.606 120.448 100.598 121.232C101.606 122.016 102.174 123.056 102.302 124.352H99.902C99.822 123.712 99.486 123.152 98.894 122.672C98.302 122.176 97.518 121.928 96.542 121.928C95.63 121.928 94.886 122.168 94.31 122.648C93.734 123.112 93.446 123.768 93.446 124.616C93.446 125.224 93.614 125.72 93.95 126.104C94.302 126.488 94.726 126.784 95.222 126.992C95.734 127.184 96.446 127.408 97.358 127.664C98.462 127.968 99.35 128.272 100.022 128.576C100.694 128.864 101.27 129.32 101.75 129.944C102.23 130.552 102.47 131.384 102.47 132.44C102.47 133.256 102.254 134.024 101.822 134.744C101.39 135.464 100.75 136.048 99.902 136.496C99.054 136.944 98.054 137.168 96.902 137.168Z" fill="#212529"/>
<defs>
<clipPath id="clip0_879_1144">
<rect width="88" height="88" fill="white" transform="translate(33)"/>
</clipPath>
</defs>
</svg>
