<svg width="155" height="146" viewBox="0 0 155 146" fill="none" xmlns="http://www.w3.org/2000/svg">
<g clip-path="url(#clip0_897_2105)">
<path fill-rule="evenodd" clip-rule="evenodd" d="M114.558 68.5473C109.772 68.414 106.059 68.9046 102.947 70.2137C102.051 70.5736 100.613 70.5736 100.495 71.7014C100.974 72.1747 101.031 72.9492 101.451 73.6051C102.169 74.7955 103.427 76.3993 104.563 77.2311L108.393 79.968C110.727 81.3944 113.36 82.2276 115.634 83.6553C116.951 84.4885 118.267 85.559 119.584 86.4521C120.255 86.9281 120.662 87.7026 121.5 87.9985V87.8186C121.081 87.2853 120.961 86.5121 120.544 85.9149L118.746 84.1912C117.012 81.8716 114.856 79.848 112.522 78.1843C110.606 76.8752 106.419 75.0915 105.64 72.8919L105.522 72.7586C106.837 72.6253 108.393 72.1627 109.651 71.8054C111.688 71.2722 113.541 71.3895 115.634 70.8549L118.509 70.0217V69.4885C117.432 68.418 116.653 66.9903 115.517 65.9798C112.466 63.3629 109.112 60.8047 105.64 58.6637C103.785 57.4746 101.391 56.7001 99.4163 55.6909C98.696 55.3337 97.5008 55.155 97.0823 54.5605C96.0025 53.254 95.4055 51.5277 94.6275 49.9799L89.7206 39.6311C88.6435 37.3115 87.9835 34.9919 86.6689 32.851C80.5038 22.7394 73.7994 16.6139 63.5054 10.6056C61.2921 9.35648 58.6589 8.81924 55.8593 8.16602L51.371 7.92606C50.4119 7.51014 49.4554 6.37967 48.6171 5.84377C45.2059 3.70281 36.4075 -0.936366 33.8924 5.17722C32.276 9.0432 36.2868 12.8492 37.6483 14.8128C38.6678 16.1806 39.9824 17.727 40.7027 19.2734C41.1052 20.2839 41.2393 21.3557 41.6592 22.4262C42.6156 25.043 43.5143 27.9585 44.7712 30.3981C45.4419 31.6472 46.1462 32.9576 46.9846 34.0868C47.4635 34.7533 48.3018 35.0386 48.4802 36.1091C47.6418 37.2995 47.5842 39.0819 47.1053 40.5709C44.9496 47.2924 45.788 55.6189 48.8397 60.5674C49.7988 62.0538 52.0591 65.3265 55.1256 64.0761C57.8192 63.0056 57.2182 59.6156 57.9962 56.6414C58.1773 55.9282 58.0566 55.4523 58.4147 54.9751V55.1084L60.8695 60.0448C62.7247 62.959 65.9575 65.9931 68.6497 68.0167C70.085 69.0872 71.2225 70.9322 73.0174 71.5854V71.4055H72.8993C72.5398 70.8722 72.0006 70.6323 71.5217 70.2164C70.4445 69.1459 69.248 67.8368 68.4096 66.6477C65.8971 63.3176 63.6838 59.6289 61.7079 55.8229C60.7488 53.9792 59.9104 51.9569 59.1351 50.1132C58.7729 49.3987 58.7729 48.3269 58.176 47.9723C57.2772 49.2787 55.9626 50.4119 55.3013 52.0169C54.1638 54.5738 54.0458 57.7266 53.6272 60.998C53.3858 61.058 53.4931 60.998 53.3858 61.1313C51.4729 60.6567 50.813 58.6917 50.0953 57.028C48.3005 52.8048 48 46.0246 49.556 41.1468C49.9746 39.8977 51.7721 35.9718 51.0544 34.7826C50.6922 33.6522 49.4984 32.999 48.8384 32.1058C48.0604 30.9753 47.2247 29.5489 46.6854 28.2998C45.2501 24.967 44.5325 21.281 42.9751 17.9496C42.2547 16.4032 40.9992 14.7968 39.9811 13.3704C38.8435 11.764 37.5893 10.6336 36.6906 8.73125C36.3914 8.06471 35.9729 7.00623 36.4518 6.29169C36.5698 5.81577 36.8113 5.62514 37.2875 5.51849C38.0655 4.85194 40.2815 5.69713 41.0595 6.05173C43.2729 6.94491 45.128 7.77676 46.9832 9.02454C47.8216 9.6191 48.7204 10.7496 49.7975 11.0482H51.0557C52.9713 11.4641 55.1243 11.1815 56.9177 11.7147C60.0902 12.7279 62.9621 14.2129 65.5376 15.8207C73.3768 20.7571 79.8425 27.7759 84.2101 36.1637C84.9277 37.5315 85.2269 38.7806 85.8869 40.2083C87.1451 43.1238 88.7011 46.0966 89.9554 48.9535C91.2136 51.749 92.4101 54.6058 94.205 56.9254C95.1037 58.1745 98.6933 58.8277 100.308 59.4823C101.506 60.0155 103.36 60.4954 104.44 61.1486C106.474 62.3977 108.508 63.8255 110.423 65.1932C111.379 65.9051 114.373 67.3929 114.551 68.5793L114.558 68.5473ZM53.524 16.8605C52.6971 16.8532 51.8727 16.9531 51.0718 17.1578V17.2911H51.1899C51.6688 18.2429 52.5072 18.8975 53.1054 19.7306L54.4831 22.5861L54.6011 22.4528C55.4395 21.8583 55.8593 20.9064 55.8593 19.48C55.4999 19.0641 55.4408 18.6468 55.1417 18.2309C54.7822 17.6363 54.0042 17.3377 53.524 16.8631V16.8605Z" fill="#00678C"/>
</g>
<path d="M60.7379 120.392V137H58.5539V124.616L53.0339 137H51.4979L45.9539 124.592V137H43.7699V120.392H46.1219L52.2659 134.12L58.4099 120.392H60.7379ZM75.7698 123.848L67.8498 143.192H65.5938L68.1858 136.856L62.8818 123.848H65.3058L69.4338 134.504L73.5138 123.848H75.7698ZM83.2692 137.168C82.1652 137.168 81.1732 136.976 80.2932 136.592C79.4292 136.192 78.7492 135.648 78.2532 134.96C77.7572 134.256 77.5012 133.448 77.4852 132.536H79.8132C79.8932 133.32 80.2132 133.984 80.7732 134.528C81.3492 135.056 82.1812 135.32 83.2692 135.32C84.3092 135.32 85.1252 135.064 85.7172 134.552C86.3252 134.024 86.6292 133.352 86.6292 132.536C86.6292 131.896 86.4532 131.376 86.1012 130.976C85.7492 130.576 85.3092 130.272 84.7812 130.064C84.2532 129.856 83.5412 129.632 82.6452 129.392C81.5412 129.104 80.6532 128.816 79.9812 128.528C79.3252 128.24 78.7572 127.792 78.2772 127.184C77.8132 126.56 77.5812 125.728 77.5812 124.688C77.5812 123.776 77.8132 122.968 78.2772 122.264C78.7412 121.56 79.3892 121.016 80.2212 120.632C81.0692 120.248 82.0372 120.056 83.1252 120.056C84.6932 120.056 85.9732 120.448 86.9652 121.232C87.9732 122.016 88.5412 123.056 88.6692 124.352H86.2692C86.1892 123.712 85.8532 123.152 85.2612 122.672C84.6692 122.176 83.8852 121.928 82.9092 121.928C81.9972 121.928 81.2532 122.168 80.6772 122.648C80.1012 123.112 79.8132 123.768 79.8132 124.616C79.8132 125.224 79.9812 125.72 80.3172 126.104C80.6692 126.488 81.0932 126.784 81.5892 126.992C82.1012 127.184 82.8132 127.408 83.7252 127.664C84.8292 127.968 85.7172 128.272 86.3892 128.576C87.0612 128.864 87.6372 129.32 88.1172 129.944C88.5972 130.552 88.8372 131.384 88.8372 132.44C88.8372 133.256 88.6212 134.024 88.1892 134.744C87.7572 135.464 87.1172 136.048 86.2692 136.496C85.4212 136.944 84.4212 137.168 83.2692 137.168ZM105.467 140.168L102.131 136.832C101.315 137.056 100.483 137.168 99.6351 137.168C98.0831 137.168 96.6671 136.808 95.3871 136.088C94.1071 135.352 93.0911 134.336 92.3391 133.04C91.6031 131.728 91.2351 130.256 91.2351 128.624C91.2351 126.992 91.6031 125.528 92.3391 124.232C93.0911 122.92 94.1071 121.904 95.3871 121.184C96.6671 120.448 98.0831 120.08 99.6351 120.08C101.203 120.08 102.627 120.448 103.907 121.184C105.187 121.904 106.195 122.912 106.931 124.208C107.667 125.504 108.035 126.976 108.035 128.624C108.035 130.224 107.683 131.664 106.979 132.944C106.275 134.224 105.307 135.232 104.075 135.968L108.299 140.168H105.467ZM93.4671 128.624C93.4671 129.952 93.7311 131.12 94.2591 132.128C94.8031 133.136 95.5391 133.912 96.4671 134.456C97.4111 135 98.4671 135.272 99.6351 135.272C100.803 135.272 101.851 135 102.779 134.456C103.723 133.912 104.459 133.136 104.987 132.128C105.531 131.12 105.803 129.952 105.803 128.624C105.803 127.28 105.531 126.112 104.987 125.12C104.459 124.112 103.731 123.336 102.803 122.792C101.875 122.248 100.819 121.976 99.6351 121.976C98.4511 121.976 97.3951 122.248 96.4671 122.792C95.5391 123.336 94.8031 124.112 94.2591 125.12C93.7311 126.112 93.4671 127.28 93.4671 128.624ZM113.149 135.224H119.005V137H110.965V120.272H113.149V135.224Z" fill="#212529"/>
<defs>
<clipPath id="clip0_897_2105">
<rect width="88" height="88" fill="white" transform="translate(33.5)"/>
</clipPath>
</defs>
</svg>
