<svg width="88" height="88" viewBox="0 0 88 88" fill="none" xmlns="http://www.w3.org/2000/svg">
<path d="M82.4722 86.711H40.251C38.3524 86.711 36.8135 85.172 36.8135 83.2735V31.3856C36.8135 29.4871 38.3524 27.9481 40.251 27.9481H82.4722C84.3708 27.9481 85.9097 29.4871 85.9097 31.3856V83.2735C85.9097 85.172 84.3708 86.711 82.4722 86.711Z" fill="#1ED760"/>
<path d="M82.4722 27.9481H80.7812V78.1848C80.7812 80.0833 79.2422 81.6223 77.3437 81.6223H36.8135V83.2735C36.8135 85.172 38.3524 86.711 40.251 86.711H82.4722C84.3708 86.711 85.9097 85.172 85.9097 83.2735V31.3856C85.9097 29.4873 84.3708 27.9481 82.4722 27.9481Z" fill="#11B84D"/>
<path d="M61.3618 61.8036C68.1255 61.8036 73.6086 56.3205 73.6086 49.5568C73.6086 42.7931 68.1255 37.3101 61.3618 37.3101C54.5981 37.3101 49.115 42.7931 49.115 49.5568C49.115 56.3205 54.5981 61.8036 61.3618 61.8036Z" fill="white"/>
<path d="M64.0474 37.6091C66.763 39.8554 68.4935 43.2506 68.4935 47.0501C68.4935 53.8139 63.0105 59.2968 56.2467 59.2968C55.3431 59.2963 54.4424 59.196 53.5608 58.9978C55.6793 60.7502 58.3974 61.8036 61.3615 61.8036C68.1253 61.8036 73.6083 56.3206 73.6083 49.5568C73.6085 43.7162 69.5187 38.8339 64.0474 37.6091Z" fill="#F8F6F6"/>
<path d="M72.5544 77.8076H50.1686C47.9206 77.8076 46.0984 75.9854 46.0984 73.7374C46.0984 71.4895 47.9206 69.6672 50.1686 69.6672H72.5544C74.8024 69.6672 76.6246 71.4895 76.6246 73.7374C76.6246 75.9854 74.8024 77.8076 72.5544 77.8076Z" fill="#FFD15B"/>
<path d="M72.5544 69.6672H71.4928C71.4971 69.7437 71.4997 69.8207 71.4997 69.8984C71.4997 72.1464 69.6774 73.9686 67.4295 73.9686H46.1055C46.2253 76.1089 47.9983 77.8076 50.1688 77.8076H72.5546C74.8026 77.8076 76.6248 75.9854 76.6248 73.7374C76.6246 71.4896 74.8024 69.6672 72.5544 69.6672Z" fill="#FFC344"/>
<path d="M25.363 86.7109H5.52759C3.62906 86.7109 2.09009 85.1719 2.09009 83.2734V70.2355C2.09009 68.3369 3.62906 66.798 5.52759 66.798H25.363C27.2615 66.798 28.8005 68.3369 28.8005 70.2355V83.2734C28.8005 85.1719 27.2614 86.7109 25.363 86.7109Z" fill="#0586E3"/>
<path d="M25.363 66.798H22.8593V78.1785C22.8593 80.077 21.3203 81.616 19.4218 81.616H2.09009V83.2734C2.09009 85.1719 3.62906 86.7109 5.52759 86.7109H25.363C27.2615 86.7109 28.8005 85.1719 28.8005 83.2734V70.2355C28.8005 68.3369 27.2614 66.798 25.363 66.798Z" fill="#0867AC"/>
<path d="M25.363 57.913H5.52759C3.62906 57.913 2.09009 56.374 2.09009 54.4755V31.3856C2.09009 29.4871 3.62906 27.9481 5.52759 27.9481H25.363C27.2615 27.9481 28.8005 29.4871 28.8005 31.3856V54.4755C28.8005 56.374 27.2614 57.913 25.363 57.913Z" fill="#FF4444"/>
<path d="M25.363 27.9481H22.8593V49.3282C22.8593 51.2267 21.3203 52.7657 19.4218 52.7657H2.09009V54.4755C2.09009 56.374 3.62906 57.913 5.52759 57.913H25.363C27.2615 57.913 28.8005 56.374 28.8005 54.4755V31.3856C28.8005 29.4873 27.2614 27.9481 25.363 27.9481Z" fill="#E00505"/>
<path d="M21.1689 76.7544H9.72168M15.4243 36.0621H22.4408M15.4243 42.9306H22.4408M15.4243 49.7989H22.4408M8.44964 36.0621H9.18612M8.44964 42.9306H9.18612M8.44964 49.7989H9.18612M14.4957 1.28906V11.3883M2.09009 1.28906V8.23848C2.09009 9.42202 2.67721 10.2188 3.67443 10.856C4.16015 11.1664 4.77357 11.3874 5.53601 11.3884C6.19618 11.3893 6.74807 11.2365 7.20423 11.0067C8.36645 10.4215 9.10757 9.53253 9.10757 8.23127V1.28906M41.7606 1.28906L48.8652 11.3883M48.3652 1.28906L41.2506 11.3883M30.1492 1.28906V8.23848C30.1492 9.42202 30.7363 10.2188 31.7335 10.856C32.2193 11.1664 32.8327 11.3874 33.5951 11.3884C34.2553 11.3893 34.8072 11.2365 35.2633 11.0067C36.4256 10.4215 37.1667 9.53253 37.1667 8.23127V1.28906M24.6581 1.28906L20.3874 11.3883M2.09009 19.6524H85.9097M76.9233 1.32344H85.9097M85.9097 6.33858H76.9233M85.9097 11.3539H76.9233M9.10929 66.798H5.52759C3.62906 66.798 2.09009 68.337 2.09009 70.2355V83.2734C2.09009 85.172 3.62906 86.7109 5.52759 86.7109H25.363C27.2615 86.7109 28.8005 85.172 28.8005 83.2734V70.2355C28.8005 68.337 27.2615 66.798 25.363 66.798H15.1249M2.09009 43.005V54.4754C2.09009 56.374 3.62906 57.9129 5.52759 57.9129H25.363C27.2615 57.9129 28.8005 56.374 28.8005 54.4754V31.3856C28.8005 29.487 27.2615 27.9481 25.363 27.9481H5.52759C3.62906 27.9481 2.09009 29.487 2.09009 31.3856V36.9894M82.4722 86.7109H40.251C38.3525 86.7109 36.8135 85.172 36.8135 83.2734V31.3856C36.8135 29.487 38.3525 27.9481 40.251 27.9481H82.4722C84.3708 27.9481 85.9097 29.487 85.9097 31.3856V83.2734C85.9097 85.172 84.3708 86.7109 82.4722 86.7109Z" stroke="black" stroke-width="2" stroke-miterlimit="10" stroke-linecap="round" stroke-linejoin="round"/>
<path d="M49.4881 52.5647C50.8289 57.8739 55.6357 61.8036 61.3616 61.8036C68.1254 61.8036 73.6084 56.3206 73.6084 49.5568C73.6084 42.793 68.1254 37.3101 61.3616 37.3101C55.6359 37.3101 50.8291 41.2398 49.4881 46.549M72.5544 77.8074H50.1686C47.9206 77.8074 46.0984 75.9852 46.0984 73.7372C46.0984 71.4893 47.9206 69.6671 50.1686 69.6671H72.5544C74.8024 69.6671 76.6246 71.4893 76.6246 73.7372C76.6246 75.9852 74.8024 77.8074 72.5544 77.8074Z" stroke="black" stroke-width="2" stroke-miterlimit="10" stroke-linecap="round" stroke-linejoin="round"/>
</svg>
