<svg width="89" height="88" viewBox="0 0 89 88" fill="none" xmlns="http://www.w3.org/2000/svg">
<path d="M6.72901 33.9285C5.09558 34.7922 4.19995 35.7274 4.19995 36.7041V51.296C4.19995 55.6688 22.1089 59.2144 44.2 59.2144C66.291 59.2144 84.2 55.6689 84.2 51.296V36.7041C84.2 35.7274 83.3043 34.7924 81.6709 33.9285C75.9898 36.9325 61.3576 39.0711 44.2 39.0711C27.0423 39.0711 12.4101 36.9325 6.72901 33.9285Z" fill="#4DB6AC"/>
<path d="M6.72901 58.7141C5.09558 59.578 4.19995 60.5131 4.19995 61.4897V76.0817C4.19995 80.4545 22.1089 84 44.2 84C66.291 84 84.2 80.4545 84.2 76.0816V61.4895C84.2 60.513 83.3043 59.578 81.6709 58.7139C75.9898 61.718 61.3576 63.8569 44.2 63.8569C27.0423 63.8569 12.4101 61.718 6.72901 58.7141ZM44.2 4C22.1089 4 4.19995 7.54516 4.19995 11.9186V26.5103C4.19995 30.8834 22.1089 34.4288 44.2 34.4288C66.291 34.4288 84.2 30.8836 84.2 26.5103V11.9186C84.2 7.54516 66.291 4 44.2 4Z" fill="#4DB6AC"/>
</svg>
