<svg width="88" height="88" viewBox="0 0 88 88" fill="none" xmlns="http://www.w3.org/2000/svg">
<g clip-path="url(#clip0_160_647)">
<path d="M46.9064 4.14392L39.9489 8.73298C40.1649 9.34967 40.5186 9.90898 40.9833 10.3684C41.448 10.8277 42.0114 11.1751 42.6305 11.384C43.2496 11.5929 43.9082 11.6578 44.5562 11.5739C45.2043 11.4899 45.8246 11.2593 46.37 10.8995C46.9155 10.5397 47.3717 10.0603 47.704 9.49765C48.0363 8.93502 48.2359 8.30402 48.2876 7.65265C48.3393 7.00127 48.2418 6.34669 48.0024 5.73868C47.7631 5.13067 47.3882 4.58525 46.9064 4.14392Z" fill="#00CCFF"/>
<path d="M47.1522 5.5721C47.1521 5.08549 47.069 4.60247 46.9064 4.14382C46.617 3.87675 46.2919 3.65116 45.9405 3.47351L39.7031 7.48507C39.72 7.91075 39.8012 8.33144 39.9437 8.73289C40.558 9.29696 41.3231 9.67011 42.1457 9.80683C42.9684 9.94355 43.8131 9.83792 44.5767 9.50283C45.3404 9.16774 45.99 8.61767 46.4464 7.9197C46.9028 7.22174 47.1463 6.40604 47.147 5.5721H47.1522Z" fill="#C0F6FF"/>
<path d="M39.7031 7.30464V7.47651C40.3039 7.78325 40.969 7.9429 41.6436 7.94229C42.7832 7.94229 43.8761 7.48959 44.6819 6.68377C45.4878 5.87795 45.9405 4.78502 45.9405 3.64542V3.46495C45.2849 3.13315 44.5553 2.97498 43.8212 3.00555C43.0871 3.03613 42.3731 3.25442 41.7475 3.63958C41.1218 4.02474 40.6053 4.56391 40.2474 5.20556C39.8895 5.84721 39.7021 6.56992 39.7031 7.30464Z" fill="white"/>
<path d="M83.6017 40.8392L76.6442 45.4283C76.8602 46.045 77.214 46.6043 77.6787 47.0637C78.1433 47.523 78.7067 47.8704 79.3258 48.0793C79.9449 48.2882 80.6036 48.3531 81.2516 48.2692C81.8996 48.1852 82.5199 47.9546 83.0653 47.5948C83.6108 47.235 84.067 46.7556 84.3993 46.193C84.7316 45.6303 84.9312 44.9993 84.9829 44.348C85.0346 43.6966 84.9371 43.042 84.6977 42.434C84.4584 41.826 84.0835 41.2806 83.6017 40.8392Z" fill="#00CCFF"/>
<path d="M83.8475 42.2674C83.8474 41.7808 83.7643 41.2978 83.6017 40.8391C83.3123 40.5721 82.9872 40.3465 82.6358 40.1688L76.4036 44.1804C76.4205 44.6061 76.5016 45.0267 76.6442 45.4282C77.2584 45.9923 78.0235 46.3654 78.8462 46.5021C79.6688 46.6389 80.5135 46.5332 81.2772 46.1981C82.0408 45.863 82.6905 45.313 83.1469 44.615C83.6033 43.917 83.8467 43.1014 83.8475 42.2674Z" fill="#75EEFF"/>
<path d="M76.3984 44V44.1804C77.0533 44.5119 77.7822 44.6701 78.5156 44.6399C79.2489 44.6098 79.9624 44.3922 80.5878 44.0081C81.2132 43.6239 81.7298 43.0859 82.0883 42.4455C82.4469 41.805 82.6353 41.0833 82.6358 40.3494V40.1775C81.9816 39.8463 81.2535 39.6881 80.5208 39.7179C79.7881 39.7477 79.0753 39.9645 78.4501 40.3476C77.8249 40.7308 77.3081 41.2675 76.949 41.9068C76.5899 42.5461 76.4004 43.2667 76.3984 44Z" fill="white"/>
<path d="M50.9696 38.2748L35.3805 46.6726C35.7741 47.9459 36.4448 49.1162 37.3445 50.0994C38.2441 51.0826 39.3504 51.8543 40.5839 52.3591C41.8173 52.8639 43.1472 53.0891 44.4781 53.0188C45.8089 52.9484 47.1077 52.5841 48.281 51.952C49.4543 51.3199 50.473 50.4358 51.264 49.3632C52.0549 48.2906 52.5984 47.0561 52.8555 45.7484C53.1126 44.4407 53.0768 43.0923 52.7507 41.8001C52.4246 40.5079 51.8163 39.3039 50.9696 38.2748Z" fill="#00CCFF"/>
<path d="M42.35 49.9709C43.7636 49.9703 45.1573 49.6378 46.4188 49.0001C47.6803 48.3623 48.7745 47.4372 49.6131 46.2993C50.4517 45.1614 51.0113 43.8424 51.247 42.4486C51.4826 41.0548 51.3875 39.6252 50.9696 38.2748C50.4098 37.5949 49.7545 36.9997 49.0239 36.5079L35.0367 45.0312C35.1005 45.5883 35.2156 46.1384 35.3805 46.6743C36.226 47.7052 37.2897 48.5356 38.4949 49.1056C39.7001 49.6757 41.0168 49.9712 42.35 49.9709Z" fill="#75EEFF"/>
<path d="M34.9766 44C34.9774 44.3446 34.9975 44.6889 35.0367 45.0313C36.3945 45.9427 37.9745 46.4679 39.6077 46.5506C41.2409 46.6334 42.8659 46.2706 44.3088 45.501C45.7517 44.7314 46.9583 43.5841 47.7994 42.1816C48.6406 40.7792 49.0846 39.1745 49.0841 37.5392C49.0832 37.1946 49.0632 36.8503 49.0239 36.508C47.6662 35.5965 46.0862 35.0713 44.4529 34.9886C42.8197 34.9059 41.1947 35.2687 39.7518 36.0383C38.3089 36.8078 37.1023 37.9552 36.2612 39.3576C35.4201 40.76 34.976 42.3647 34.9766 44Z" fill="white"/>
<path d="M26.4532 73.2375L19.4957 77.8266C19.7117 78.4433 20.0655 79.0026 20.5302 79.462C20.9949 79.9214 21.5582 80.2687 22.1774 80.4776C22.7965 80.6865 23.4551 80.7514 24.1031 80.6675C24.7511 80.5835 25.3715 80.3529 25.9169 79.9931C26.4624 79.6333 26.9186 79.1539 27.2509 78.5913C27.5831 78.0287 27.7827 77.3977 27.8344 76.7463C27.8862 76.0949 27.7886 75.4403 27.5493 74.8323C27.3099 74.2243 26.9351 73.6789 26.4532 73.2375Z" fill="#C0F6FF"/>
<path d="M26.6991 74.666C26.699 74.1794 26.6159 73.6963 26.4533 73.2377C26.1639 72.9706 25.8388 72.745 25.4873 72.5674L19.25 76.5789C19.2669 77.0046 19.348 77.4253 19.4906 77.8268C20.1049 78.3908 20.8699 78.764 21.6926 78.9007C22.5153 79.0374 23.3599 78.9318 24.1236 78.5967C24.8872 78.2616 25.5369 77.7115 25.9933 77.0136C26.4497 76.3156 26.6931 75.4999 26.6939 74.666H26.6991Z" fill="#E0F4FF"/>
<path d="M19.25 76.3985V76.5789C19.9049 76.9104 20.6338 77.0686 21.3671 77.0384C22.1005 77.0082 22.8139 76.7907 23.4394 76.4065C24.0648 76.0224 24.5814 75.4844 24.9399 74.8439C25.2984 74.2035 25.4869 73.4818 25.4873 72.7478V72.5674C24.8325 72.2359 24.1036 72.0777 23.3702 72.1079C22.6368 72.1381 21.9234 72.3556 21.298 72.7398C20.6726 73.1239 20.156 73.6619 19.7974 74.3023C19.4389 74.9428 19.2505 75.6645 19.25 76.3985Z" fill="white"/>
<path d="M10.211 40.8392L3.25354 45.4283C3.46954 46.045 3.82334 46.6043 4.28802 47.0637C4.75271 47.523 5.31605 47.8704 5.93518 48.0793C6.55431 48.2882 7.21293 48.3531 7.86093 48.2692C8.50894 48.1852 9.12927 47.9546 9.67472 47.5948C10.2202 47.235 10.6764 46.7556 11.0087 46.193C11.341 45.6303 11.5405 44.9993 11.5923 44.348C11.644 43.6966 11.5464 43.042 11.3071 42.434C11.0678 41.826 10.6929 41.2806 10.211 40.8392Z" fill="#C0F6FF"/>
<path d="M10.4568 42.2674C10.4568 41.7808 10.3737 41.2978 10.2111 40.8391C9.92167 40.5721 9.59658 40.3465 9.24513 40.1688L3.01294 44.1804C3.02985 44.6061 3.11098 45.0267 3.25356 45.4282C3.86779 45.9923 4.63289 46.3654 5.45555 46.5021C6.2782 46.6389 7.12287 46.5332 7.88653 46.1981C8.65018 45.863 9.29983 45.313 9.75623 44.615C10.2126 43.917 10.4561 43.1014 10.4568 42.2674Z" fill="#E0F4FF"/>
<path d="M3.00781 44V44.1804C3.6627 44.5119 4.39157 44.6701 5.12494 44.6399C5.85831 44.6098 6.57173 44.3922 7.19717 44.0081C7.8226 43.6239 8.33921 43.0859 8.69772 42.4455C9.05623 41.805 9.2447 41.0833 9.24516 40.3494V40.1775C8.59092 39.8463 7.86283 39.6881 7.13017 39.7179C6.39751 39.7477 5.68466 39.9645 5.05945 40.3476C4.43425 40.7308 3.91751 41.2675 3.55839 41.9068C3.19927 42.5461 3.00973 43.2667 3.00781 44Z" fill="white"/>
<path d="M44 53.0234C42.2153 53.0234 40.4707 52.4942 38.9869 51.5027C37.503 50.5112 36.3464 49.1019 35.6634 47.4531C34.9805 45.8043 34.8018 43.99 35.1499 42.2396C35.4981 40.4892 36.3575 38.8814 37.6195 37.6195C38.8814 36.3575 40.4892 35.4981 42.2396 35.1499C43.99 34.8018 45.8043 34.9805 47.4531 35.6634C49.1019 36.3464 50.5112 37.503 51.5027 38.9869C52.4942 40.4707 53.0234 42.2153 53.0234 44C53.0207 46.3923 52.0692 48.6859 50.3775 50.3775C48.6859 52.0691 46.3923 53.0207 44 53.0234ZM44 37.5547C42.7252 37.5547 41.4791 37.9327 40.4192 38.6409C39.3593 39.3491 38.5331 40.3558 38.0453 41.5335C37.5575 42.7112 37.4298 44.0072 37.6785 45.2574C37.9272 46.5077 38.5411 47.6561 39.4425 48.5575C40.3439 49.4589 41.4923 50.0728 42.7426 50.3215C43.9929 50.5702 45.2888 50.4425 46.4665 49.9547C47.6442 49.4669 48.6509 48.6408 49.3591 47.5808C50.0673 46.5209 50.4453 45.2748 50.4453 44C50.4435 42.2912 49.7639 40.6528 48.5555 39.4445C47.3472 38.2362 45.7088 37.5565 44 37.5547ZM44 11.6016C43.1502 11.6016 42.3194 11.3496 41.6128 10.8774C40.9062 10.4053 40.3554 9.73418 40.0302 8.94903C39.705 8.16388 39.6199 7.29992 39.7857 6.46641C39.9515 5.6329 40.3607 4.86727 40.9617 4.26634C41.5626 3.66541 42.3282 3.25617 43.1617 3.09038C43.9952 2.92458 44.8592 3.00967 45.6443 3.33489C46.4295 3.66011 47.1006 4.21086 47.5727 4.91747C48.0449 5.62409 48.2969 6.45485 48.2969 7.30469C48.2969 7.86896 48.1857 8.42771 47.9698 8.94903C47.7539 9.47035 47.4374 9.94404 47.0384 10.343C46.6394 10.742 46.1657 11.0585 45.6443 11.2745C45.123 11.4904 44.5643 11.6016 44 11.6016ZM44 5.58594C43.6601 5.58594 43.3278 5.68674 43.0451 5.8756C42.7625 6.06446 42.5422 6.33289 42.4121 6.64695C42.282 6.96101 42.248 7.3066 42.3143 7.64C42.3806 7.97341 42.5443 8.27966 42.7847 8.52003C43.025 8.7604 43.3313 8.9241 43.6647 8.99041C43.9981 9.05673 44.3437 9.0227 44.6577 8.89261C44.9718 8.76252 45.2402 8.54222 45.4291 8.25958C45.618 7.97693 45.7188 7.64463 45.7188 7.30469C45.7188 6.84885 45.5377 6.41168 45.2153 6.08935C44.893 5.76702 44.4558 5.58594 44 5.58594Z" fill="#27AAE1"/>
<path d="M84.5064 45.9722C84.9423 45.1274 85.0856 44.1618 84.9141 43.2267C84.7425 42.2917 84.2657 41.4399 83.5583 40.8048C82.8509 40.1697 81.9528 39.7871 81.0047 39.717C80.0566 39.6468 79.112 39.8931 78.3189 40.4172C76.3222 38.9864 74.2429 37.6744 72.0918 36.4882C73.2378 34.5838 74.2842 32.6212 75.2268 30.6083C79.1989 22.0558 79.4859 15.4421 76.0329 11.9857C72.58 8.52927 65.9662 8.81286 57.4034 12.778C55.3925 13.718 53.4316 14.7615 51.5287 15.9044C51.1506 15.2261 50.7662 14.5609 50.3754 13.909C50.291 13.7587 50.1773 13.627 50.0411 13.5215C49.9048 13.4159 49.7488 13.3388 49.5823 13.2946C49.4157 13.2504 49.242 13.2401 49.0714 13.2642C48.9007 13.2883 48.7367 13.3464 48.5889 13.435C48.4411 13.5236 48.3126 13.6409 48.2109 13.7801C48.1092 13.9192 48.0365 14.0773 47.997 14.245C47.9575 14.4128 47.952 14.5867 47.9809 14.7566C48.0098 14.9265 48.0724 15.0889 48.1651 15.2341C48.5604 15.8941 48.9506 16.5707 49.3356 17.264C45.6954 19.6217 42.2143 22.2163 38.9148 25.031C36.1935 24.536 33.5134 24.1516 30.8745 23.8777C30.5363 23.8462 30.1993 23.9494 29.9368 24.165C29.6743 24.3805 29.5075 24.691 29.4726 25.0289C29.4377 25.3667 29.5376 25.7047 29.7506 25.9694C29.9635 26.234 30.2723 26.4039 30.6098 26.4421C32.5176 26.6392 34.4512 26.897 36.4106 27.2155C34.819 28.6432 33.2458 30.1328 31.6909 31.6843C30.136 33.2357 28.6419 34.8135 27.2084 36.4177C24.1353 17.6008 27.1534 4.29427 32.9594 2.7474C34.025 2.46208 35.204 2.5549 36.4639 3.0224C36.7846 3.14137 37.1394 3.12808 37.4503 2.98545C37.7612 2.84282 38.0026 2.58253 38.1216 2.26185C38.2406 1.94116 38.2273 1.58635 38.0847 1.27547C37.942 0.964582 37.6818 0.723089 37.3611 0.604114C35.5908 -0.0524481 33.8858 -0.169323 32.2925 0.260364C27.5745 1.52193 24.5117 7.38974 23.6661 16.7827C23.0869 23.228 23.5715 30.8644 25.0325 38.9202C22.2175 42.215 19.6218 45.6909 17.262 49.3255C15.203 48.1936 13.2122 46.9419 11.2997 45.5769C11.4988 45.0742 11.6003 44.5381 11.5987 43.9974C11.5985 43.2589 11.408 42.5328 11.0455 41.8894C10.6829 41.2459 10.1607 40.7068 9.52911 40.324C8.89753 39.9412 8.17794 39.7276 7.43979 39.7039C6.70163 39.6802 5.96982 39.8471 5.31498 40.1886C3.61857 38.1536 2.06998 35.4518 2.74717 32.9269C3.76295 29.1457 9.7631 26.5865 18.8003 26.0846C19.1422 26.0657 19.4625 25.9117 19.6909 25.6566C19.9193 25.4015 20.0369 25.0661 20.018 24.7242C19.9991 24.3823 19.8452 24.0619 19.59 23.8336C19.3349 23.6052 18.9995 23.4875 18.6576 23.5065C8.1492 24.0926 1.61451 27.2001 0.256697 32.2583C-0.539084 35.2266 0.578103 38.5868 3.48795 42.0225C3.05206 42.8674 2.90868 43.833 3.08024 44.7681C3.2518 45.7031 3.72862 46.5549 4.43604 47.19C5.14345 47.8251 6.04152 48.2077 6.98961 48.2778C7.93771 48.3479 8.88229 48.1017 9.67545 47.5775C11.6721 49.0084 13.7514 50.3204 15.9025 51.5066C14.7565 53.411 13.7101 55.3736 12.7675 57.3865C8.79545 65.9389 8.50842 72.5527 11.9614 76.0091C13.5633 77.6127 15.8114 78.4154 18.6645 78.4154C19.0083 78.4154 19.3744 78.4016 19.7404 78.3775C20.1866 79.2265 20.9039 79.9018 21.7782 80.2959C22.6526 80.69 23.6336 80.7803 24.5652 80.5525C25.4967 80.3245 26.3253 79.7915 26.9189 79.0383C27.5125 78.285 27.8371 77.3549 27.8409 76.3958C30.8261 75.2038 33.7074 73.7666 36.4553 72.099C37.5308 74.0423 38.7063 75.9285 39.977 77.7502C44.6847 84.4344 49.5092 87.9974 53.794 87.9974C54.4405 87.9978 55.0842 87.9135 55.7087 87.7465C60.4267 86.4849 63.4895 80.6171 64.3351 71.2241C64.5259 69.0123 64.6022 66.7922 64.5637 64.5725C64.9401 64.5725 65.3183 64.5829 65.6895 64.5829C67.6093 64.5829 69.457 64.5055 71.2136 64.3491C80.6083 63.5121 86.4778 60.4544 87.7445 55.7365C88.5334 52.763 87.4162 49.408 84.5064 45.9722ZM7.30185 45.7161C6.96192 45.7161 6.62961 45.6153 6.34697 45.4265C6.06432 45.2376 5.84402 44.9692 5.71393 44.6551C5.58385 44.3411 5.54981 43.9955 5.61613 43.6621C5.68245 43.3287 5.84614 43.0224 6.08651 42.7821C6.32688 42.5417 6.63314 42.378 6.96654 42.3117C7.29995 42.2453 7.64553 42.2794 7.95959 42.4095C8.27365 42.5396 8.54208 42.7599 8.73094 43.0425C8.9198 43.3252 9.0206 43.6575 9.0206 43.9974C9.0206 44.4532 8.83952 44.8904 8.51719 45.2127C8.19486 45.5351 7.75769 45.7161 7.30185 45.7161ZM80.6925 42.2786C81.0324 42.2786 81.3647 42.3794 81.6474 42.5683C81.93 42.7572 82.1503 43.0256 82.2804 43.3397C82.4105 43.6537 82.4445 43.9993 82.3782 44.3327C82.3119 44.6661 82.1482 44.9724 81.9078 45.2127C81.6674 45.4531 81.3612 45.6168 81.0278 45.6831C80.6944 45.7494 80.3488 45.7154 80.0347 45.5853C79.7207 45.4552 79.4522 45.2349 79.2634 44.9523C79.0745 44.6696 78.9737 44.3373 78.9737 43.9974C78.9737 43.5416 79.1548 43.1044 79.4771 42.7821C79.7995 42.4597 80.2366 42.2786 80.6925 42.2786ZM58.4948 15.1224C65.8854 11.6952 71.6158 11.2191 74.2093 13.8144C77.3993 17.0061 75.904 25.1582 69.8351 35.285C65.9698 33.3107 61.9808 31.5884 57.8933 30.1288C56.4473 26.037 54.7335 22.0449 52.7628 18.1783C54.6186 17.06 56.532 16.04 58.4948 15.1224ZM60.8083 39.5046C60.2411 37.3871 59.6258 35.3074 58.9658 33.2793C62.2066 34.5011 65.3784 35.8988 68.467 37.4661C66.5766 40.3677 64.5258 43.1616 62.3242 45.8347C61.883 43.7424 61.3777 41.6307 60.8083 39.4994V39.5046ZM50.5576 19.5465C52.1288 22.6328 53.5283 25.8035 54.7497 29.0443C52.7089 28.3751 50.6281 27.7558 48.5072 27.1863C46.3862 26.6168 44.2773 26.1104 42.1804 25.6669C44.8578 23.4738 47.6545 21.4305 50.5576 19.5465ZM33.5128 33.513C35.4914 31.5348 37.5391 29.6269 39.6522 27.793C42.3529 28.3155 45.0794 28.9457 47.8317 29.6836C50.5817 30.421 53.2629 31.2477 55.8617 32.1501C56.7537 34.7385 57.5804 37.418 58.3092 40.1697C59.062 42.9816 59.6842 45.7144 60.1998 48.351C58.4433 50.374 56.5337 52.4193 54.4815 54.4818C53.9488 55.0136 53.4114 55.5407 52.8693 56.063C52.737 56.1775 52.6294 56.3177 52.553 56.4751C52.4766 56.6325 52.4331 56.8038 52.4251 56.9786C52.417 57.1534 52.4446 57.328 52.5062 57.4917C52.5678 57.6555 52.6621 57.805 52.7834 57.9311C52.9046 58.0573 53.0503 58.1574 53.2114 58.2255C53.3726 58.2935 53.546 58.328 53.7209 58.3269C53.8959 58.3258 54.0688 58.2891 54.2291 58.219C54.3894 58.1489 54.5338 58.0469 54.6534 57.9193C55.2017 57.3916 55.7551 56.8485 56.2983 56.3054C57.8543 54.7459 59.3502 53.1698 60.7859 51.5771C61.3524 54.9974 61.7288 58.4465 61.9134 61.9085C55.1948 61.5647 47.7354 60.3479 40.1558 58.3146C37.4058 57.5772 34.7194 56.7488 32.1189 55.8447C31.2475 53.3096 30.4276 50.6352 29.6783 47.8285C28.9289 45.0218 28.3033 42.2838 27.7876 39.6472C29.6296 37.5415 31.539 35.4957 33.5128 33.513ZM25.6633 42.1549C26.1044 44.2518 26.6097 46.3658 27.1792 48.4971C27.7487 50.6283 28.3634 52.704 29.0234 54.7241C25.7846 53.4982 22.6146 52.0976 19.5273 50.5286C21.4175 47.6247 23.4683 44.8286 25.6701 42.1532L25.6633 42.1549ZM23.544 78.1146C23.2041 78.1146 22.8718 78.0138 22.5892 77.8249C22.3065 77.6361 22.0862 77.3676 21.9561 77.0536C21.826 76.7395 21.792 76.3939 21.8583 76.0605C21.9246 75.7271 22.0883 75.4209 22.3287 75.1805C22.5691 74.9401 22.8753 74.7764 23.2087 74.7101C23.5421 74.6438 23.8877 74.6778 24.2018 74.8079C24.5158 74.938 24.7843 75.1583 24.9731 75.4409C25.162 75.7236 25.2628 76.0559 25.2628 76.3958C25.2628 76.8517 25.0817 77.2888 24.7594 77.6112C24.4371 77.9335 23.9999 78.1146 23.544 78.1146ZM27.0572 73.926C26.5598 73.2202 25.8614 72.6806 25.0529 72.3776C24.2444 72.0746 23.3633 72.0221 22.5246 72.2271C21.6859 72.4321 20.9284 72.8851 20.3508 73.5269C19.7732 74.1687 19.4024 74.9696 19.2867 75.8252C16.8375 75.9404 14.9898 75.3921 13.7867 74.1855C10.5967 70.9938 12.092 62.8418 18.1609 52.7149C22.0267 54.6896 26.0162 56.412 30.1045 57.8711C31.5506 61.9596 33.2633 65.9488 35.2315 69.813C32.6232 71.4042 29.8893 72.7797 27.0572 73.926ZM55.035 85.256C54.6353 85.3627 54.2232 85.4159 53.8095 85.4141C49.5401 85.4141 43.8408 80.1204 38.6312 70.7394C40.4267 69.5867 42.244 68.3217 44.0831 66.9444C44.3566 66.7393 44.5374 66.4339 44.5858 66.0955C44.6341 65.757 44.546 65.4132 44.3409 65.1397C44.1358 64.8662 43.8304 64.6854 43.492 64.6371C43.1535 64.5887 42.8097 64.6768 42.5362 64.8819C40.8175 66.1744 39.1102 67.3661 37.4144 68.4569C35.8454 65.3681 34.4493 62.1944 33.2326 58.9505C35.2762 59.6191 37.3576 60.243 39.4872 60.8119C47.3161 62.914 55.0367 64.1652 62.0028 64.4986C62.1833 76.2824 59.3937 84.0907 55.035 85.256ZM85.2472 55.0679C84.2967 58.6119 79.0957 61.0594 70.9815 61.7813C68.8195 61.9668 66.6491 62.038 64.4795 61.9944C64.2579 57.6633 63.7521 53.3514 62.9653 49.0866C65.7803 45.7907 68.3761 42.3137 70.7358 38.6779C72.7947 39.8098 74.7856 41.0615 76.6981 42.4265C76.4989 42.9263 76.3963 43.4593 76.3956 43.9974C76.3958 44.7359 76.5863 45.462 76.9489 46.1054C77.3114 46.7488 77.8336 47.288 78.4652 47.6708C79.0968 48.0536 79.8164 48.2672 80.5545 48.2909C81.2927 48.3146 82.0245 48.1476 82.6793 47.8061C84.3757 49.8497 85.9243 52.543 85.2472 55.0679Z" fill="#27AAE1"/>
</g>
<defs>
<clipPath id="clip0_160_647">
<rect width="88" height="88" fill="white"/>
</clipPath>
</defs>
</svg>
