<svg width="88" height="89" viewBox="0 0 88 89" fill="none" xmlns="http://www.w3.org/2000/svg">
<g clip-path="url(#clip0_816_1074)">
<path d="M3.66699 13.4483C3.66699 9.02998 7.24871 5.44824 11.667 5.44824H76.3337C80.7519 5.44824 84.3337 9.02996 84.3337 13.4482V75.9149C84.3337 80.3332 80.7519 83.9149 76.3337 83.9149H11.667C7.2487 83.9149 3.66699 80.3332 3.66699 75.9149V13.4483Z" fill="#2E001E"/>
<path d="M8 1.78174C3.58172 1.78174 0 5.36346 0 9.78174V79.5817C0 84 3.58172 87.5817 8 87.5817H80C84.4183 87.5817 88 84 88 79.5817V9.78173C88 5.36345 84.4183 1.78174 80 1.78174H8ZM3.66667 13.4484C3.66667 9.03014 7.24839 5.44841 11.6667 5.44841H76.3333C80.7516 5.44841 84.3333 9.03013 84.3333 13.4484V75.9151C84.3333 80.3333 80.7516 83.9151 76.3333 83.9151H11.6667C7.24838 83.9151 3.66667 80.3334 3.66667 75.9151V13.4484Z" fill="#FF2BC2"/>
<path d="M63.9095 37.8252C63.3595 37.5685 62.6629 37.4585 61.7829 37.4585C57.1629 37.4585 54.0829 41.0152 54.0829 46.9185C54.0829 53.6652 57.2362 56.3785 61.3429 56.3785C62.2229 56.3785 63.1762 56.2685 63.8729 55.9752V37.8252H63.9095ZM47.4829 47.2118C47.4829 38.6685 52.9829 31.9952 62.0029 31.9952C62.7729 31.9952 63.1762 31.9952 63.9095 32.0685V22.5352C63.9095 22.3152 64.0929 22.1685 64.2762 22.1685H70.1795C70.4729 22.1685 70.5462 22.2785 70.5462 22.4618V55.9752C70.5462 56.9652 70.5462 58.2118 70.7295 59.5685C70.7295 59.8252 70.7295 59.8618 70.5095 59.9718C67.4295 61.4385 64.2029 62.0985 61.1229 62.0985C53.1662 62.0985 47.4829 57.1852 47.4829 47.2118ZM34.9795 41.2718L45.2462 61.1818C45.4295 61.4752 45.3195 61.7685 45.0262 61.7685H38.6462C38.2429 61.7685 38.0595 61.6585 37.8762 61.2918C35.5295 56.4518 33.1462 51.4285 30.6895 46.2218H30.6162C28.4162 51.1352 25.9962 56.4885 23.6495 61.3285C23.4662 61.6218 23.2829 61.7318 22.9895 61.7318H16.9029C16.5362 61.7318 16.4995 61.4385 16.6829 61.2185L26.7295 41.8952L17.0129 22.6818C16.7929 22.3885 17.0129 22.1318 17.2695 22.1318H23.5762C23.9429 22.1318 24.1262 22.2052 24.2362 22.5352C26.5462 27.4118 28.8929 32.2152 31.0929 37.1285H31.1662C33.2929 32.2885 35.6395 27.4118 37.8762 22.6085C38.0595 22.3152 38.1695 22.1318 38.5362 22.1318H44.4395C44.7329 22.1318 44.8429 22.3518 44.6595 22.6818L34.9795 41.2718Z" fill="#FF2BC2"/>
</g>
<defs>
<clipPath id="clip0_816_1074">
<rect y="0.681641" width="88" height="88" rx="8" fill="white"/>
</clipPath>
</defs>
</svg>
