<svg width="88" height="88" viewBox="0 0 88 88" fill="none" xmlns="http://www.w3.org/2000/svg">
<g clip-path="url(#clip0_897_2030)">
<path fill-rule="evenodd" clip-rule="evenodd" d="M42.9825 86.3169L23.3612 79.2769V50.5256L42.9825 57.2081V86.3169ZM46.5575 86.3169L66.1787 79.2769V50.5256L46.5575 57.2136V86.3169ZM25.3825 48.3669L45.1825 42.7761L63.5965 48.7161L45.1825 54.9669L25.3825 48.3669ZM19.6295 46.1669L0 39.1049V10.3124L19.6213 16.9949L19.6295 46.1669ZM23.2237 46.1669L42.845 39.1269V10.3124L23.2183 17.0279L23.2237 46.1669ZM2.04875 8.21688L21.8488 2.59863L40.2627 8.53863L21.8488 14.7894L2.04875 8.21688ZM65.4417 46.1669L45.8205 39.1269V10.3124L65.4417 16.9949V46.1669ZM69.0168 46.1669L88.638 39.1269V10.3124L69.0168 16.9949V46.1669ZM47.8417 8.21688L67.6418 2.62613L86.0557 8.56613L67.6418 14.8169L47.8417 8.21688Z" fill="#FF9900"/>
</g>
<defs>
<clipPath id="clip0_897_2030">
<rect width="88" height="88" fill="white"/>
</clipPath>
</defs>
</svg>
