<svg width="88" height="88" viewBox="0 0 88 88" fill="none" xmlns="http://www.w3.org/2000/svg">
<path d="M88 68.1862C84.799 69.0002 82.819 68.222 81.0425 65.5545L68.409 48.0755L66.583 45.6555L51.8293 65.6122C50.1435 68.013 48.3753 69.058 45.2293 68.2082L64.1217 42.8477L46.5327 19.9402C49.5577 19.3517 51.6477 19.6515 53.504 22.3602L66.6077 40.0565L79.8077 22.4565C81.499 20.0557 83.3167 19.1427 86.3527 20.0282L79.5327 29.0702L70.2928 41.1015C69.1927 42.4765 69.344 43.417 70.356 44.7452L88 68.1862ZM0.022 42.4242L1.5675 34.8232C5.775 19.7807 23.0175 13.53 34.9085 22.825C41.8577 28.292 43.5848 36.025 43.241 44.6875H4.07C3.4815 60.28 14.7043 69.6905 29.0125 64.889C34.0312 63.2032 36.9875 59.2735 38.467 54.3565C39.2178 51.8925 40.4608 51.5075 42.7763 52.2115C41.5938 58.3605 38.9263 63.4975 33.2887 66.7122C24.8655 71.5247 12.8425 69.9682 6.5175 63.2802C2.75 59.4 1.1935 54.483 0.495 49.225C0.385 48.356 0.165 47.5282 0 46.695C0.0146667 45.2723 0.022 43.8497 0.022 42.427V42.4242ZM4.1415 41.3792H39.5395C39.3085 30.1042 32.2878 22.0962 22.693 22.0275C12.1605 21.945 4.598 29.7632 4.1415 41.3792Z" fill="black"/>
</svg>
