<svg width="89" height="89" viewBox="0 0 89 89" fill="none" xmlns="http://www.w3.org/2000/svg">
<g clip-path="url(#clip0_816_1061)">
<path d="M29.6774 88.6815C33.5672 88.6815 37.2978 87.1362 40.0483 84.3857C42.7988 81.6352 44.3441 77.9047 44.3441 74.0148V59.3481H29.6774C25.7876 59.3481 22.057 60.8934 19.3065 63.6439C16.556 66.3944 15.0107 70.125 15.0107 74.0148C15.0107 77.9047 16.556 81.6352 19.3065 84.3857C22.057 87.1362 25.7876 88.6815 29.6774 88.6815Z" fill="#0ACF83"/>
<path d="M15.0107 44.6818C15.0107 40.792 16.556 37.0614 19.3065 34.3109C22.057 31.5604 25.7876 30.0151 29.6774 30.0151H44.3441V59.3485H29.6774C25.7876 59.3485 22.057 57.8032 19.3065 55.0527C16.556 52.3022 15.0107 48.5716 15.0107 44.6818Z" fill="#A259FF"/>
<path d="M15.0107 15.3483C15.0107 11.4604 16.5544 7.73166 19.3025 4.98146C22.0505 2.23125 25.7781 0.684678 29.6659 0.681641L44.3326 0.681641V30.015H29.6774C25.7876 30.015 22.057 28.4697 19.3065 25.7192C16.556 22.9687 15.0107 19.2381 15.0107 15.3483Z" fill="#F24E1E"/>
<path d="M44.3447 0.681641H59.0114C62.9012 0.681641 66.6318 2.22687 69.3823 4.97741C72.1328 7.72794 73.6781 11.4585 73.6781 15.3483C73.6781 19.2381 72.1328 22.9687 69.3823 25.7192C66.6318 28.4697 62.9012 30.015 59.0114 30.015H44.3447V0.681641Z" fill="#FF7262"/>
<path d="M73.6781 44.6818C73.6781 48.5716 72.1328 52.3022 69.3823 55.0527C66.6318 57.8032 62.9012 59.3485 59.0114 59.3485C55.1216 59.3485 51.391 57.8032 48.6405 55.0527C45.89 52.3022 44.3447 48.5716 44.3447 44.6818C44.3447 40.792 45.89 37.0614 48.6405 34.3109C51.391 31.5604 55.1216 30.0151 59.0114 30.0151C62.9012 30.0151 66.6318 31.5604 69.3823 34.3109C72.1328 37.0614 73.6781 40.792 73.6781 44.6818Z" fill="#1ABCFE"/>
</g>
<defs>
<clipPath id="clip0_816_1061">
<rect width="88" height="88" fill="white" transform="translate(0.333008 0.681641)"/>
</clipPath>
</defs>
</svg>
