<svg width="88" height="88" viewBox="0 0 88 88" fill="none" xmlns="http://www.w3.org/2000/svg">
<g clip-path="url(#clip0_897_2025)">
<path d="M53.9549 31.7844L45.1466 39.9794L36.9736 23.4932L41.2031 14.0112C42.3031 12.0862 44.0191 12.1082 45.0916 14.0112L53.9549 31.7844Z" fill="#FFA000"/>
<path d="M36.974 23.4932L45.147 39.9794L12.2295 70.6007L36.974 23.4932Z" fill="#F57F17"/>
<path d="M63.5885 19.2582C65.1615 17.7457 66.7895 18.2627 67.2047 20.405L75.7737 70.1937L47.3717 87.2437C46.3817 87.7937 43.7417 88.0302 43.7417 88.0302C43.7417 88.0302 41.3382 87.7442 40.4225 87.2052L12.2295 70.6007L63.5885 19.2582Z" fill="#FFCA28"/>
<path d="M36.9742 23.4933L12.2324 70.6008L23.2517 1.75451C23.6587 -0.390493 24.8797 -0.596744 25.9687 1.29526L36.9742 23.4933Z" fill="#FFA000"/>
</g>
<defs>
<clipPath id="clip0_897_2025">
<rect width="88" height="88" fill="white"/>
</clipPath>
</defs>
</svg>
