<svg width="88" height="88" viewBox="0 0 88 88" fill="none" xmlns="http://www.w3.org/2000/svg">
<g clip-path="url(#clip0_901_2245)">
<path d="M86.3394 40.0812L47.9192 1.66096C47.3931 1.13462 46.7685 0.717091 46.081 0.432223C45.3935 0.147355 44.6566 0.000732422 43.9124 0.000732422C43.1683 0.000732422 42.4314 0.147355 41.7439 0.432223C41.0564 0.717091 40.4318 1.13462 39.9057 1.66096L31.9307 9.63596L42.0507 19.756C44.4047 18.931 47.0997 19.4947 48.9752 21.3702C49.868 22.2646 50.4912 23.3921 50.7737 24.6238C51.0563 25.8555 50.9867 27.1419 50.5729 28.336L60.3272 38.0902C62.6867 37.2762 65.4092 37.8015 67.2929 39.6907C67.9191 40.3171 68.4158 41.0607 68.7547 41.879C69.0935 42.6974 69.2678 43.5745 69.2677 44.4602C69.2676 45.3459 69.093 46.2229 68.7539 47.0412C68.4149 47.8594 67.9179 48.6029 67.2915 49.2291C66.6652 49.8553 65.9216 50.352 65.1032 50.6908C64.2849 51.0297 63.4078 51.204 62.5221 51.2039C61.6364 51.2037 60.7593 51.0292 59.9411 50.6901C59.1228 50.351 58.3794 49.8541 57.7532 49.2277C55.7732 47.2477 55.2837 44.3327 56.2847 41.8935L47.1877 32.7965V56.7352C47.848 57.062 48.4516 57.4928 48.9752 58.0112C49.6014 58.6374 50.0981 59.3808 50.437 60.199C50.7759 61.0172 50.9504 61.8941 50.9504 62.7797C50.9504 63.6653 50.7759 64.5422 50.437 65.3604C50.0981 66.1786 49.6014 66.922 48.9752 67.5482C48.349 68.1744 47.6055 68.6712 46.7874 69.0101C45.9692 69.349 45.0923 69.5234 44.2067 69.5234C43.3211 69.5234 42.4442 69.349 41.626 69.0101C40.8078 68.6712 40.0644 68.1744 39.4382 67.5482C38.8112 66.9224 38.3138 66.1791 37.9745 65.3609C37.6351 64.5427 37.4604 63.6655 37.4604 62.7797C37.4604 61.8939 37.6351 61.0168 37.9745 60.1985C38.3138 59.3803 38.8112 58.637 39.4382 58.0112C40.0899 57.3622 40.8132 56.87 41.6464 56.54V32.3785C40.8434 32.0485 40.0899 31.5617 39.4382 30.9072C38.4913 29.9615 37.8475 28.7551 37.5889 27.4421C37.3303 26.129 37.4686 24.7686 37.9862 23.5345L28.0037 13.5575L1.65868 39.875C1.13192 40.4011 0.714045 41.0259 0.428933 41.7136C0.143822 42.4014 -0.00292969 43.1386 -0.00292969 43.8831C-0.00292969 44.6276 0.143822 45.3648 0.428933 46.0525C0.714045 46.7403 1.13192 47.3651 1.65868 47.8912L40.0817 86.3087C40.6078 86.8351 41.2324 87.2526 41.9199 87.5375C42.6074 87.8223 43.3443 87.9689 44.0884 87.9689C44.8326 87.9689 45.5695 87.8223 46.257 87.5375C46.9445 87.2526 47.5691 86.8351 48.0952 86.3087L86.3394 48.125C86.8662 47.5988 87.2841 46.974 87.5692 46.2863C87.8543 45.5985 88.001 44.8613 88.001 44.1168C88.001 43.3723 87.8543 42.6351 87.5692 41.9474C87.2841 41.2596 86.8662 40.6348 86.3394 40.1087" fill="#F03C2E"/>
</g>
<defs>
<clipPath id="clip0_901_2245">
<rect width="88" height="88" fill="white"/>
</clipPath>
</defs>
</svg>
