<svg width="88" height="88" viewBox="0 0 88 88" fill="none" xmlns="http://www.w3.org/2000/svg">
<g clip-path="url(#clip0_1748_1257)">
<path d="M44 -0.00268555C19.8327 -0.00268555 0 19.83 0 43.9973C0 64.6203 14.471 83.3539 33.6875 87.9973V73.4404C31.7835 73.8572 30.0312 73.8694 28.093 73.298C25.4925 72.5306 23.3796 70.7985 21.8113 68.1573C20.8117 66.4707 19.0398 64.6417 17.1915 64.7761L16.7384 59.64C20.7352 59.2976 24.1926 62.0751 26.2451 65.5233C27.1569 67.0568 28.2062 67.9558 29.553 68.3532C30.855 68.7365 32.2527 68.5526 33.8815 67.9773C34.2904 64.7163 35.7842 63.4957 36.9129 61.7769V61.7743C25.4523 60.0649 20.8849 53.985 19.0721 49.1859C16.6698 42.8136 17.9589 34.8531 22.2068 29.8224C22.2893 29.7243 22.4385 29.4679 22.3807 29.2886C20.433 23.4053 22.8063 18.5383 22.8936 18.0222C25.1414 18.6867 25.5066 17.3533 32.6576 21.6979L33.8936 22.4404C34.4106 22.7486 34.2482 22.5728 34.765 22.5337C37.7508 21.7227 40.8982 21.2749 43.9993 21.2347C47.124 21.2749 50.2513 21.7228 53.3605 22.5667L53.7606 22.607C53.7257 22.6016 53.8694 22.5813 54.1104 22.4378C63.0432 17.027 62.7223 18.7955 65.1178 18.0167C65.2044 18.5337 67.5464 23.4797 65.6193 29.2886C65.3594 30.0888 73.3638 37.4183 68.9272 49.1838C67.1144 53.9848 62.5477 60.0649 51.0871 61.7743V61.7769C52.5561 64.0161 54.3213 65.207 54.3118 69.8262V87.9973C73.529 83.3539 87.9993 64.6203 87.9993 43.9973C88 19.83 68.1673 -0.00268555 44 -0.00268555Z" fill="black"/>
</g>
<defs>
<clipPath id="clip0_1748_1257">
<rect width="88" height="88" fill="white" transform="translate(0 -0.00268555)"/>
</clipPath>
</defs>
</svg>
