<svg width="88" height="88" viewBox="0 0 88 88" fill="none" xmlns="http://www.w3.org/2000/svg">
<path d="M0 0L5.46562 77.0175L38.8781 88L72.2903 77.0175L77.7559 0H0Z" fill="#FF7816"/>
<path d="M77.7559 0L72.2903 77.0175L38.878 88V0H77.7559Z" fill="#FF4B00"/>
<path d="M63.164 23.375H24.9562L25.884 36.2656H62.2363L60.0186 67.4778L38.8779 74.542L17.7373 67.4778L17.0156 57.0625H27.3281L27.5344 59.8984L38.8781 63.6622L50.2219 59.8984L51.1496 46.5781H16.2422L13.8703 13.0625H63.8859L63.164 23.375Z" fill="#ECECF1"/>
<path d="M62.2363 36.2656L60.0186 67.4778L38.878 74.542V63.6623L50.2217 59.8984L51.1497 46.5781H38.878V36.2656H62.2363ZM63.8859 13.0625L63.1641 23.375H38.8781V13.0625H63.8859Z" fill="#E2E2E7"/>
</svg>
