<svg width="89" height="88" viewBox="0 0 89 88" fill="none" xmlns="http://www.w3.org/2000/svg">
<g clip-path="url(#clip0_901_2182)">
<path d="M44.2247 1.309C43.4378 1.35523 42.6681 1.5591 41.9615 1.9085L11.3127 16.5275C9.71223 17.2892 8.54898 18.7385 8.15023 20.4655L0.648233 53.2757C0.290733 54.8157 0.579483 56.43 1.47323 57.75C1.57773 57.9095 1.68773 58.0635 1.80323 58.212L22.9782 84.5405C24.0975 85.9155 25.7777 86.7048 27.5487 86.6965H61.5112C63.2877 86.6992 64.9707 85.8715 66.0872 84.5157L87.2512 58.1817C88.3622 56.8067 88.7775 54.9917 88.3512 53.2702L80.7997 20.4325C80.401 18.7055 79.2322 17.2562 77.6372 16.4945L47.038 1.91125C46.1562 1.47636 45.1796 1.26931 44.1972 1.309H44.2247Z" fill="#326CE5"/>
<path d="M44.5056 12.4905C43.4496 12.5647 42.6494 13.4695 42.7044 14.5255V15.0425C42.7539 15.6282 42.8419 16.2085 42.9574 16.7832C43.126 17.8838 43.1868 18.9983 43.1389 20.1107C43.0344 20.4765 42.8254 20.8065 42.5394 21.0595L42.4981 21.835C41.3844 21.9285 40.2789 22.099 39.1899 22.3465C34.6084 23.3805 30.4366 25.7565 27.2164 29.1802L26.5564 28.7127C26.1934 28.8227 25.8029 28.7815 25.4701 28.6027C24.5775 27.9421 23.7514 27.196 23.0034 26.3752C22.6276 25.9263 22.2264 25.4993 21.8016 25.0965L21.3946 24.772C21.0316 24.4805 20.5861 24.3127 20.1214 24.2907C19.844 24.276 19.5671 24.3272 19.3134 24.44C19.0596 24.5527 18.8361 24.724 18.6611 24.9397C18.0396 25.8115 18.2431 27.0187 19.1121 27.643L19.4916 27.9455C19.9801 28.2705 20.487 28.5671 21.0096 28.8337C21.9831 29.3755 22.9016 30.0107 23.7541 30.7587C23.9722 31.0697 24.0989 31.4355 24.1199 31.8147L24.7194 32.3647C21.4826 37.2212 20.1544 43.1035 20.9849 48.8812L20.2149 49.1012C20.0141 49.4202 19.7474 49.6925 19.4284 49.8932C18.3541 50.1801 17.2544 50.3615 16.1449 50.435C15.5561 50.4469 14.9684 50.4928 14.3849 50.5725L13.8981 50.6825H13.8431C13.5053 50.7294 13.1872 50.8691 12.9241 51.086C12.661 51.303 12.4633 51.5888 12.353 51.9115C12.2427 52.2341 12.2241 52.5811 12.2993 52.9137C12.3744 53.2464 12.5405 53.5516 12.7789 53.7955C13.0195 54.0381 13.3228 54.209 13.655 54.2891C13.9872 54.3693 14.3351 54.3555 14.6599 54.2492H14.6956L15.1906 54.1942C15.7489 54.0292 16.2989 53.8257 16.8351 53.5947C17.8664 53.1822 18.9361 52.866 20.0306 52.6597C20.4101 52.6817 20.7731 52.811 21.0811 53.031L21.9061 52.8935C23.6936 58.4402 27.4501 63.14 32.4661 66.1017L32.1306 66.803C32.2846 67.1247 32.3424 67.4822 32.2956 67.837C31.8419 68.8875 31.2864 69.894 30.6374 70.84C30.2813 71.3093 29.9526 71.7987 29.6529 72.3057L29.4191 72.8007C29.2495 73.0949 29.1645 73.4303 29.1735 73.7697C29.1825 74.1092 29.2852 74.4396 29.4701 74.7244C29.655 75.0092 29.9151 75.2373 30.2215 75.3836C30.528 75.5299 30.8689 75.5887 31.2066 75.5535C31.5452 75.5154 31.8665 75.3842 32.135 75.1745C32.4034 74.9648 32.6085 74.6847 32.7274 74.3655L32.9556 73.898C33.1646 73.348 33.3406 72.787 33.4836 72.2205C33.9704 71.0187 34.2344 69.729 34.8999 68.9315C35.1174 68.727 35.3915 68.5928 35.6864 68.5465L36.0989 67.7957C41.5363 69.8857 47.5528 69.9004 53.0004 67.837L53.3661 68.5382C53.7401 68.5932 54.0756 68.7995 54.3011 69.102C54.8181 70.0865 55.2361 71.1177 55.5551 72.182C55.7006 72.7518 55.8787 73.3129 56.0886 73.8622L56.3169 74.3297C56.4369 74.6478 56.6426 74.9264 56.9112 75.1348C57.1797 75.3432 57.5007 75.4732 57.8386 75.5105C58.1764 75.5478 58.5181 75.4909 58.8256 75.3461C59.1331 75.2013 59.3946 74.9742 59.5811 74.69C59.7658 74.4041 59.8677 74.0726 59.8754 73.7323C59.8832 73.392 59.7966 73.0563 59.6251 72.7622L59.3859 72.2672C59.0861 71.7619 58.7574 71.2744 58.4014 70.807C57.7689 69.894 57.2244 68.9205 56.7514 67.9002C56.7072 67.7137 56.701 67.5202 56.7332 67.3312C56.7653 67.1423 56.8351 66.9617 56.9384 66.8002C56.821 66.5604 56.7191 66.3133 56.6331 66.0605C61.6381 63.0767 65.3781 58.3605 67.1464 52.8055L67.9274 52.943C68.2079 52.6872 68.5764 52.5525 68.9531 52.5635C70.0449 52.7725 71.1146 53.1135 72.1486 53.4985C72.6849 53.746 73.2349 53.955 73.7931 54.131C73.9251 54.1667 74.1176 54.197 74.2661 54.2327H74.3019C74.6265 54.3376 74.9738 54.3502 75.3051 54.2693C75.6365 54.1884 75.9389 54.0171 76.1786 53.7745C76.4184 53.5319 76.5861 53.2275 76.6631 52.8952C76.74 52.5629 76.7233 52.2158 76.6146 51.8925C76.5035 51.5695 76.3047 51.2837 76.0405 51.0671C75.7764 50.8505 75.4572 50.7116 75.1186 50.666L74.5851 50.5395C74.0016 50.4599 73.4139 50.4139 72.8251 50.402C71.7141 50.3305 70.6141 50.149 69.5416 49.8602C69.2116 49.676 68.9366 49.401 68.7496 49.0682L68.0071 48.8482C68.7988 43.0732 67.4425 37.2085 64.1956 32.3675L64.8446 31.768C64.8171 31.3912 64.9409 31.0172 65.1856 30.7285C66.0299 30.0025 66.9456 29.3617 67.9081 28.8145C68.4307 28.5477 68.9376 28.2511 69.4261 27.9262L69.8276 27.6017C70.1232 27.4182 70.3609 27.1548 70.513 26.8419C70.6651 26.529 70.7256 26.1794 70.6873 25.8336C70.649 25.4878 70.5136 25.1599 70.2968 24.8878C70.0799 24.6158 69.7905 24.4106 69.4619 24.2962C69.1336 24.182 68.7796 24.1629 68.4409 24.2412C68.1023 24.3196 67.7927 24.4921 67.5479 24.739L67.1409 25.0635C66.7162 25.4664 66.3149 25.8934 65.9391 26.3422C65.2131 27.1727 64.4101 27.929 63.5384 28.6055C63.1866 28.7487 62.8017 28.7906 62.4274 28.7265L61.7316 29.2215C57.7166 25.014 52.3074 22.4015 46.5104 21.879C46.5104 21.604 46.4746 21.1915 46.4691 21.0622C46.1584 20.8477 45.9411 20.5205 45.8696 20.1492C45.8315 19.0387 45.9015 17.927 46.0786 16.83C46.1969 16.2525 46.2794 15.675 46.3316 15.0892V14.5392C46.3866 13.4832 45.5891 12.5785 44.5304 12.5042L44.5056 12.4905ZM42.2121 26.697L41.6621 36.3027H41.6209C41.5934 36.8967 41.2441 37.4027 40.7079 37.6887C40.1716 37.9747 39.5364 37.8895 39.0579 37.5402L31.1791 31.9577C33.6868 29.4946 36.8329 27.7811 40.2624 27.0105C40.9059 26.873 41.5549 26.7685 42.2066 26.697H42.2121ZM46.7991 26.697C50.9379 27.2112 54.7906 29.0702 57.7716 31.988L49.9671 37.5347C49.4859 37.9197 48.8259 37.9967 48.2676 37.7327C47.7094 37.4687 47.3519 36.9077 47.3436 36.2917L46.7991 26.697ZM28.3191 35.5712L35.5241 42.0007V42.042C35.9724 42.4325 36.1676 43.0402 36.0356 43.6205C35.9036 44.2007 35.4581 44.66 34.8889 44.8167V44.8442L25.6434 47.5035C25.1859 43.3381 26.1283 39.1389 28.3219 35.5685L28.3191 35.5712ZM60.6399 35.5712C62.8289 39.1325 63.7969 43.3097 63.3954 47.4705L54.1361 44.803V44.7672C53.5586 44.6105 53.1186 44.1512 52.9894 43.571C52.8601 42.9907 53.0526 42.3885 53.5009 41.9925L60.6509 35.5932L60.6399 35.5712ZM43.0289 42.5012H45.9769L47.7781 44.7892L47.1236 47.6492L44.4754 48.9225L41.8216 47.6492L41.1974 44.7892L43.0289 42.5012ZM52.4724 50.3057C52.5961 50.292 52.7474 50.292 52.8436 50.3057L62.3779 51.9145C61.0029 55.8745 58.2886 59.257 54.7466 61.5202L51.0616 52.5992C50.9603 52.3599 50.918 52.0997 50.9382 51.8406C50.9584 51.5815 51.0405 51.331 51.1777 51.1103C51.3149 50.8895 51.5031 50.705 51.7265 50.5722C51.9499 50.4393 52.2019 50.3621 52.4614 50.347L52.4724 50.3057ZM36.4591 50.347C36.9981 50.3552 37.4959 50.633 37.7901 51.084C38.0844 51.535 38.1311 52.1015 37.9194 52.5965V52.6322L34.2564 61.4817C30.7501 59.235 28.0881 55.8937 26.6719 51.975L36.1236 50.3717C36.2281 50.3607 36.3354 50.3607 36.4426 50.3717L36.4591 50.347ZM44.4451 54.197C44.7456 54.1875 45.0428 54.2617 45.3035 54.4112C45.5643 54.5608 45.7784 54.7799 45.9219 55.044H45.9576L50.6161 63.4507L48.7544 64.0007C45.3279 64.7845 41.7501 64.6002 38.4199 63.4672L43.0949 55.0605C43.3781 54.5655 43.9006 54.263 44.4699 54.2492L44.4451 54.197Z" fill="white" stroke="white" stroke-width="0.11"/>
</g>
<defs>
<clipPath id="clip0_901_2182">
<rect width="88" height="88" fill="white" transform="translate(0.5)"/>
</clipPath>
</defs>
</svg>
