<svg width="88" height="88" viewBox="0 0 88 88" fill="none" xmlns="http://www.w3.org/2000/svg">
<g clip-path="url(#clip0_1777_1363)">
<path d="M83.0933 64.1232C83.0933 63.9829 83.0589 63.8441 83.0589 63.7038C83.0589 63.5993 83.0245 63.5292 83.0245 63.459C82.9947 63.2574 82.9478 63.0587 82.8843 62.8651C82.7442 62.4683 82.5311 62.1012 82.2559 61.7829C81.9768 61.4694 81.6619 61.2247 81.3484 61.0514C80.9991 60.8754 80.6499 60.7723 80.3721 60.7022C80.2676 60.7022 80.1975 60.6678 80.1274 60.6678C80.5124 58.9931 80.0229 57.7033 79.708 57.1107L79.7768 57.0419L80.8575 55.8553L80.9263 55.7865C81.171 55.4373 81.3113 55.088 81.4144 54.7745C81.4831 54.4954 81.5546 54.252 81.5546 54.0073V53.3432C81.5203 52.8207 81.4501 52.1579 81.1009 51.4251C80.9263 51.0758 80.6829 50.6922 80.3694 50.3429C80.0405 49.9768 79.6512 49.6699 79.2185 49.4354C79.1841 49.401 79.1497 49.4011 79.114 49.3667C78.2806 48.1638 77.2952 47.0735 76.1825 46.123L74.8556 45.078L73.9839 44.4497C73.5645 44.1362 73.2524 43.9602 73.1121 43.8914L72.3793 43.4033C72.2748 43.2988 72.2046 43.263 72.1689 43.2287C72.1689 43.2287 72.1689 43.1943 72.1345 43.1242C72.1001 43.0197 72.1001 42.8794 72.1001 42.636L72.1345 41.0658L72.448 36.3908L72.4824 34.5414C72.448 33.5995 72.3078 32.7622 72.1331 31.9949C72.0988 31.8203 72.0286 31.6457 71.9929 31.4724C71.9585 31.3322 71.9241 31.262 71.8884 31.1933C71.8506 31.0735 71.8037 30.9567 71.7481 30.844C71.7138 30.7753 71.7138 30.7038 71.6436 30.6337C71.5749 30.459 71.5034 30.2844 71.3989 30.1112L71.3645 30.0768L71.3288 29.9723L71.2944 29.9035C71.1198 29.59 70.9094 29.3095 70.7004 29.0648C70.5959 28.5767 70.4212 27.8795 70.1091 27.0765C69.83 26.378 69.4808 25.6122 68.9583 24.8435C68.7836 24.5644 68.5733 24.321 68.3643 24.0763L68.433 24.0075C68.5375 23.903 70.9795 21.3222 72.932 17.974C76.5249 11.7315 75.3383 7.9283 73.6992 5.83555L73.6649 5.7668L73.6291 5.69805C72.0616 3.9518 69.8974 2.9068 67.2808 2.55892C61.8028 1.86042 55.5933 4.58292 53.957 5.35017L50.9568 2.0708C50.6776 1.79167 50.3985 1.51255 50.085 1.30355L49.0758 0.719173C48.3993 0.394673 47.6183 0.185673 46.7809 0.079798C45.1405 -0.129202 43.2568 0.079798 41.2493 0.605048C38.2146 1.3723 34.8308 2.90817 31.2723 5.03255C27.7138 7.15692 24.0178 9.91655 20.4235 13.1945C16.018 17.171 12.3743 21.3923 9.73838 25.4375C8.41151 27.4258 7.33213 29.3783 6.52913 31.262C5.72751 33.1114 5.20226 34.892 4.99326 36.4953C4.85301 37.6819 4.85301 38.7984 5.09776 39.7953C5.20226 40.249 5.34251 40.6684 5.55151 41.0878C5.79626 41.6103 6.10976 42.0984 6.49338 42.5178L9.59813 45.7628L9.94738 46.112L9.91301 46.1464L9.80851 46.3554C9.73976 46.4599 9.70401 46.5658 9.63388 46.6346L9.52938 46.8449C9.49501 46.9494 9.42488 47.0539 9.38913 47.1584L9.28463 47.3688C9.25026 47.4733 9.18013 47.5792 9.14438 47.6823C9.11001 47.7511 9.07563 47.8226 9.07563 47.8927L8.97113 48.2062C8.93538 48.2749 8.93538 48.3464 8.90238 48.4166C8.86801 48.5211 8.83363 48.6255 8.79788 48.7658C8.79788 48.8002 8.76351 48.8345 8.76351 48.8703C8.76351 48.906 8.72913 48.939 8.72913 48.9748C8.69338 49.0793 8.66038 49.2182 8.62463 49.3241C8.62463 49.3928 8.59026 49.4643 8.59026 49.533C8.59026 49.5674 8.55588 49.6376 8.55588 49.6733C8.55588 49.7421 8.52151 49.8135 8.52151 49.8823C8.52151 49.951 8.48713 50.0225 8.48713 50.0927C8.45138 50.2329 8.45138 50.3718 8.41838 50.5464C8.41838 50.5808 8.41838 50.6152 8.38401 50.6867V50.7224C8.38401 50.8269 8.34963 50.9314 8.34963 51.0015C8.34963 51.1418 8.31525 51.3151 8.31525 51.4553V53.2016C8.31525 53.2703 8.31526 53.3418 8.34963 53.4119C8.34963 53.4807 8.34963 53.5866 8.38401 53.6911V53.7956C8.38401 53.8643 8.41838 53.9702 8.41838 54.0403C8.41838 54.1104 8.45275 54.1805 8.45275 54.2837C8.45275 54.3181 8.45275 54.3524 8.4885 54.3882C8.4885 54.4226 8.52288 54.4927 8.52288 54.5284V54.5972C8.52288 54.6659 8.55726 54.7374 8.59163 54.8763C8.59163 54.9107 8.59163 54.9107 8.62601 54.945C8.66038 55.0138 8.66038 55.0853 8.66038 55.1197L8.69476 55.1884C8.69476 55.2228 8.69476 55.2228 8.7305 55.2572L8.76488 55.3259V55.4304C8.76488 55.4648 8.76488 55.4648 8.79926 55.4992L8.83363 55.5679C8.83363 55.6367 8.868 55.6724 8.868 55.7425C8.90238 55.8113 8.90238 55.8828 8.93676 56.0217C8.93676 56.056 8.93676 56.056 8.97251 56.0904C9.00688 56.1949 9.04126 56.265 9.04126 56.2994C9.07563 56.3682 9.11 56.4397 9.14576 56.5785L9.18013 56.6129C9.21451 56.6817 9.21451 56.7532 9.24888 56.7875L9.28326 56.8563C9.28326 56.8907 9.31763 56.925 9.31763 56.9608C9.31763 56.9965 9.35201 57.0653 9.38638 57.1011L9.42076 57.1698C9.45513 57.2042 9.45513 57.2743 9.48951 57.3101C9.52388 57.3458 9.52388 57.3788 9.52388 57.4146C9.55826 57.4833 9.59263 57.5548 9.62838 57.6593L9.66276 57.6937C9.69713 57.7281 9.69713 57.7624 9.73151 57.7982C9.76588 57.8339 9.76588 57.9027 9.80025 57.9384C9.84913 58.0007 9.8847 58.0723 9.90476 58.1488L9.93913 58.1832C9.97351 58.2189 9.97351 58.2519 10.0079 58.2877C10.0423 58.3564 10.0766 58.3922 10.0766 58.4279C10.111 58.4637 10.1454 58.5324 10.1811 58.6025V58.6369C10.2155 58.6727 10.2155 58.7057 10.2499 58.7414C10.2764 58.7939 10.3117 58.8413 10.3544 58.8817C10.3888 58.9161 10.4231 58.9862 10.4946 59.0921C10.529 59.1264 10.5634 59.1608 10.5634 59.1965C10.5978 59.2653 10.6321 59.301 10.6679 59.334C10.7036 59.3671 10.7366 59.4385 10.7724 59.5087C10.8068 59.543 10.8411 59.6132 10.8769 59.6489C10.9113 59.7177 10.9456 59.7534 11.0171 59.7892L11.1574 59.9294C11.2261 59.9982 11.2619 60.0697 11.332 60.1384L11.4008 60.2072L11.5053 60.3117L11.7858 60.5908L11.8903 60.6953L11.9246 60.731C11.9934 60.7998 12.0993 60.8686 12.168 60.9744L12.2024 61.0088C12.2368 61.0432 12.2711 61.0432 12.3069 61.1133C12.4114 61.2178 12.5159 61.2879 12.6204 61.3924L12.6891 61.4268L12.7235 61.4612L12.7923 61.4955C12.8968 61.5643 12.9669 61.6358 13.0714 61.7059L13.1058 61.7403C13.1401 61.7747 13.1745 61.7747 13.1745 61.7747L13.2433 61.8434C13.312 61.9122 13.3835 61.9479 13.4536 62.0181L13.5224 62.0538L13.6269 62.1583C13.6956 62.1927 13.8015 62.2628 13.8703 62.2985C13.906 62.3329 13.939 62.3673 14.0105 62.3673L14.0793 62.4017L14.1136 62.4361H14.148C14.2883 62.5048 14.3928 62.5763 14.4973 62.6451L14.566 62.6794L14.984 62.8898H15.0184L15.0816 62.909L15.2906 63.0135C15.325 63.0135 15.3594 63.0479 15.3951 63.0479C15.4309 63.0823 15.4639 63.0823 15.5354 63.1167H15.5698C15.6385 63.1511 15.71 63.1854 15.7801 63.1854H15.8145C15.8833 63.2198 15.9548 63.2542 16.0593 63.2899H16.0936L16.1624 63.3243C16.1968 63.3243 16.2311 63.3587 16.2669 63.3587H16.3013C16.4161 63.3987 16.5326 63.4335 16.6505 63.4632H16.6863C16.8609 63.5319 17.0355 63.5677 17.2088 63.6034H17.2431C17.3834 63.6392 17.5566 63.6722 17.6969 63.7079H17.8371C17.9774 63.7437 18.1163 63.7767 18.2565 63.7767H18.3968C18.5013 63.7767 18.5714 63.8111 18.6759 63.8111C18.6759 63.8468 18.7103 63.8798 18.7103 63.9156C18.9536 64.5783 19.1984 65.2424 19.4775 65.868C23.5943 77.2737 35.0013 86.1356 48.0088 87.7718C61.0204 89.3764 74.9368 80.7263 80.588 69.0402C80.8314 68.5864 81.0418 68.1684 81.2508 67.7147C81.809 67.1207 82.2614 66.528 82.5433 65.8997C82.997 65.5147 83.1015 64.7474 83.0658 64.0847" fill="#664F44"/>
<path d="M71.9666 7.05648C71.3585 6.38425 70.6234 5.83891 69.8037 5.45186C69.6635 5.38311 69.5246 5.34736 69.35 5.31436C69.2812 5.27861 69.2097 5.20986 69.141 5.17411C68.4425 4.89498 67.711 4.72036 66.9437 4.61586C63.1762 4.12636 58.8505 5.52336 56.4085 6.49961C56.2682 6.56836 56.1294 6.60411 55.9891 6.67423L55.3607 6.95336L54.2786 7.44148C54.2099 7.47586 54.1741 7.47586 54.104 7.51023L53.4412 6.74298L53.1277 6.39373L52.8486 6.08023L52.7441 5.94273L50.2004 3.01123L49.99 2.76648L49.7109 2.45298H49.6765L48.9436 2.62761L48.1049 2.80223C47.6511 2.59186 47.0929 2.45298 46.4645 2.34848C45.2091 2.17386 43.6045 2.34848 41.7895 2.80223C39.9745 3.25598 37.9175 4.05761 35.7532 5.13973C31.3945 7.30123 26.5792 10.6164 21.907 14.8706C20.268 16.335 18.7679 17.8709 17.3722 19.3696C16.011 20.834 14.79 22.3355 13.6735 23.7655C11.4047 26.73 9.69699 29.59 8.58049 32.1709C7.84899 33.88 7.39524 35.4502 7.21924 36.8101C7.07899 37.7726 7.11474 38.6581 7.28799 39.3566C7.35674 39.6 7.42824 39.776 7.49837 39.985C7.67299 40.4044 7.88337 40.7522 8.16112 41.0671L10.9867 44.0316L11.3002 44.3451L11.3346 44.3107C11.4098 44.2014 11.5044 44.1068 11.6137 44.0316L11.754 43.8914C11.8227 43.7869 11.9286 43.7181 11.9974 43.6122C12.0661 43.5435 12.1019 43.5077 12.172 43.472C12.2421 43.4362 12.2765 43.3675 12.3466 43.3317L12.4154 43.263C12.4841 43.2272 12.5199 43.1585 12.59 43.1227C12.6587 43.054 12.7632 42.9825 12.8334 42.9137C12.8677 42.878 12.9379 42.845 12.9736 42.8092H13.0094C13.1139 42.7405 13.184 42.669 13.2885 42.5989C13.3572 42.5645 13.393 42.5301 13.4631 42.4586C13.5676 42.3899 13.6377 42.3184 13.7422 42.2482C13.811 42.2139 13.8467 42.1795 13.9169 42.1437C14.0214 42.075 14.1259 42.0035 14.2304 41.9691C14.2991 41.9347 14.3349 41.9004 14.405 41.8646C14.5095 41.7959 14.6154 41.7601 14.7185 41.69C14.7872 41.6556 14.823 41.6212 14.8931 41.5855L14.9619 41.5511C15.0664 41.5167 15.1365 41.4466 15.241 41.4109C15.2767 41.3765 15.3455 41.3765 15.3812 41.3421C15.45 41.3077 15.5215 41.2734 15.626 41.2376L15.835 41.1331L15.9037 41.0987L16.4262 40.8884C16.495 40.854 16.5307 40.854 16.6009 40.8196C16.671 40.7852 16.7054 40.7852 16.7755 40.7509L16.8442 40.7165C16.88 40.7165 16.913 40.6821 16.9487 40.6821C17.0202 40.6491 17.0904 40.6491 17.1962 40.6134H17.265C17.3695 40.579 17.4396 40.579 17.5441 40.5446C17.6129 40.5102 17.7187 40.5102 17.7889 40.4759C17.8934 40.4415 17.9979 40.4415 18.1024 40.4071C18.1381 40.4071 18.1711 40.3727 18.2426 40.3727C18.277 40.3727 18.3471 40.3727 18.3829 40.3384C18.4874 40.3026 18.5932 40.3026 18.6964 40.3026C18.7995 40.3026 18.871 40.2682 18.9755 40.2682C19.0442 40.2682 19.1157 40.2339 19.1859 40.2339H19.465C19.8142 40.2339 20.2322 40.2339 20.6516 40.2682H20.7204C21.1895 40.309 21.6557 40.3793 22.116 40.4786C22.2205 40.513 22.3607 40.513 22.4652 40.5474C22.4996 40.513 22.4996 40.4429 22.534 40.4071C22.8131 39.9534 23.0565 39.4652 23.3356 39.0115C24.9059 36.3962 26.5806 34.0931 28.2884 32.0705C28.8824 31.372 29.475 30.7436 30.0676 30.118C32.5426 27.5371 35.0204 25.5489 37.2534 24.013C37.7429 23.6637 38.264 23.3502 38.7191 23.0505C39.3819 22.6311 40.0116 22.2832 40.6029 21.934C41.0571 21.6698 41.5228 21.4257 41.9985 21.2025C42.73 20.8175 43.3941 20.504 43.9867 20.2606L44.5092 20.0516C44.7526 19.9471 44.9974 19.8426 45.2064 19.7725C45.0317 19.7381 44.8214 19.7381 44.6481 19.7381H43.9496C43.775 19.7381 43.5646 19.7381 43.3914 19.7725L42.2749 19.877C42.1346 19.9114 42.0315 19.9114 41.8899 19.9457C42.8317 19.4576 43.7736 19.107 44.6454 18.8292C45.2197 18.6608 45.8021 18.5208 46.3902 18.4099C47.1575 18.2696 47.889 18.1665 48.5531 18.1307C49.0069 18.0964 49.4262 18.0964 49.8085 18.0964C50.1907 18.0964 50.5757 18.1307 50.8906 18.1307C51.5123 18.1609 52.1304 18.2423 52.7386 18.3741C52.564 18.1307 52.3536 17.9561 52.1474 17.7829C51.728 17.4666 51.2756 17.2604 50.8549 17.0844C50.6802 17.0156 50.5414 16.9799 50.4011 16.9097C50.2966 16.8754 50.1921 16.841 50.122 16.841C50.3324 16.8066 50.507 16.7722 50.6802 16.7722C50.8892 16.7379 51.0652 16.7379 51.2742 16.7035C52.9132 16.5632 54.3776 16.7035 55.4597 16.8781C56.7522 17.1215 57.5539 17.4364 57.5539 17.4364C57.3792 17.0871 57.1001 16.7736 56.7866 16.4945C56.5762 16.3199 56.3329 16.1452 56.1239 16.0064C56.548 16.1015 56.9669 16.2181 57.3792 16.3556C58.4242 16.6691 59.2974 17.0541 59.9945 17.3676L60.6242 17.6811C60.693 17.7155 60.7287 17.7499 60.7645 17.7499C61.3929 18.0991 61.727 18.3439 61.727 18.3439C61.6122 17.954 61.4089 17.5959 61.133 17.2975C61.0642 17.2287 60.9927 17.1229 60.924 17.0541H60.9584C60.9941 17.0541 61.0271 17.0885 61.0986 17.0885C61.133 17.0885 61.2031 17.1229 61.2732 17.1572C61.6768 17.3115 62.0724 17.4859 62.4585 17.6797C62.4929 17.6797 62.4929 17.7141 62.5272 17.7141L62.7362 17.8186C62.9109 17.9231 63.0855 17.9932 63.2587 18.1321L63.7812 18.4456C63.8857 18.5144 63.9559 18.5501 64.0604 18.6202C64.235 18.7605 64.4454 18.8994 64.6186 19.074C64.829 19.2486 65.0036 19.4232 65.1769 19.5965L65.2814 19.701C65.4216 19.8412 65.5605 19.9801 65.6664 20.1204C65.9111 20.3995 66.1201 20.7144 66.3291 21.0279C66.5725 21.4129 66.7485 21.8666 66.9231 22.3204C66.9231 22.3547 66.9231 22.3891 66.9575 22.3891C67.062 22.2846 67.271 22.0756 67.5157 21.7951C69.5301 19.426 75.6007 11.7521 71.9377 7.07848" fill="#132134"/>
<path d="M80.9844 64.3665C80.9844 64.3665 81.0531 63.844 80.774 63.3559C80.774 63.3215 80.7396 63.2871 80.7396 63.2871L80.5994 63.1469C80.5306 63.0781 80.4591 63.0066 80.356 62.9365C80.3029 62.8938 80.2441 62.8587 80.1814 62.832C79.9919 62.7479 79.7922 62.6891 79.5874 62.6574C79.4127 62.623 79.2381 62.623 79.0291 62.623H78.75V62.6918C78.75 62.7261 78.7844 62.7605 78.7844 62.832C78.7844 62.8664 78.7844 62.9007 78.8201 62.9007C78.8545 63.0052 78.8889 63.1799 78.9246 63.3201C78.9246 63.3201 78.9246 63.3545 78.8902 63.4246V63.459C78.7857 63.7038 78.5052 64.2606 77.8783 64.9578C77.7737 65.098 77.6693 65.2011 77.529 65.3428C75.7828 67.1577 72.0153 69.7015 64.065 71.1343C61.3783 71.5192 58.8675 71.5536 56.7747 71.2745C53.6356 70.8895 51.2981 69.8789 50.1816 68.519C50.0771 68.4145 50.007 68.2756 49.9025 68.1698C49.8337 68.0653 49.798 67.9951 49.7279 67.8906C49.6935 67.8563 49.6935 67.8219 49.6591 67.7861C49.2243 66.9825 48.9965 66.0832 48.9964 65.1695C48.9964 64.0888 49.3456 63.0768 49.9039 62.3095C50.3576 61.6811 50.9489 61.193 51.6831 60.984C52.0324 60.8795 52.416 60.8094 52.7996 60.8438C52.9052 60.8415 53.0106 60.853 53.1131 60.8781C53.3565 60.9139 53.7415 60.9469 54.1953 61.0184C54.2296 61.0184 54.2998 61.0184 54.3355 61.0528C55.8343 61.2274 58.2075 61.4721 61.0675 61.2961C66.3008 60.9826 73.1716 59.3436 79.4141 53.6924V53.6566C79.4485 53.1685 79.3797 52.3311 78.7857 51.6684C78.6812 51.5639 78.5754 51.458 78.4365 51.3549C78.3678 51.2861 78.2619 51.2504 78.1931 51.1803C78.0886 51.1459 78.0185 51.0758 77.9484 51.04L77.6349 50.8296V50.7953C77.601 50.7174 77.5535 50.6461 77.4946 50.5849C75.8886 48.1429 73.6584 46.7129 72.7509 46.0501C72.3315 45.7366 72.0524 45.5964 72.0524 45.5964C70.1342 44.4097 69.8551 44.0261 70.0284 40.8526L70.3419 36.1446C70.3419 35.8655 70.3763 35.6221 70.3763 35.3774V34.3668C70.3763 34.1921 70.3419 34.0175 70.3419 33.8786C70.3419 33.8099 70.3419 33.7384 70.3075 33.6696C70.2731 33.495 70.2731 33.3204 70.2387 33.1471C70.2387 33.0784 70.203 32.9725 70.203 32.9038C70.203 32.7993 70.1686 32.7291 70.1342 32.6246C70.0999 32.5559 70.0999 32.45 70.0655 32.3813C70.0311 32.2768 69.9967 32.1709 69.9967 32.0678C69.9967 32.0334 69.9624 31.999 69.9624 31.9633C69.9624 31.9275 69.928 31.8945 69.928 31.8588V31.8244L69.8936 31.7199C69.8592 31.6511 69.8249 31.5796 69.8249 31.5109V31.4875L69.7905 31.4188L69.7561 31.35C69.6874 31.2098 69.6516 31.0709 69.5815 30.965L69.5457 30.8605C69.477 30.756 69.4055 30.6158 69.3354 30.5113L69.2666 30.4425C69.1979 30.3738 69.1621 30.3023 69.092 30.2335L69.0232 30.129C68.9545 30.0245 68.883 29.9544 68.8129 29.8856V29.6065C68.7745 29.4446 68.7396 29.2818 68.7084 29.1184C68.7084 29.084 68.674 29.0139 68.674 28.9781V28.9438C68.674 28.875 68.6382 28.8393 68.6382 28.7691C68.6039 28.6289 68.5695 28.49 68.498 28.3498C68.498 28.3154 68.4636 28.2453 68.4636 28.2095L68.3591 27.896C68.3247 27.8273 68.3247 27.7558 68.2904 27.7214C68.256 27.6169 68.2216 27.511 68.1501 27.4079L68.0456 27.1975C68.0112 27.093 67.9411 26.9871 67.9054 26.884L67.8009 26.6736C67.7321 26.5691 67.6964 26.4646 67.6263 26.3601L67.5218 26.1498C67.4441 26.0383 67.3742 25.9216 67.3127 25.8005C67.2784 25.7318 67.244 25.696 67.2082 25.6259C67.1739 25.5901 67.1395 25.5214 67.1037 25.4856C66.9992 25.3811 66.9291 25.2753 66.8246 25.1721L66.7559 25.1378C66.6156 24.9975 66.5111 24.8586 66.3709 24.7528L66.3365 24.7184C66.2677 24.6826 66.199 24.6139 66.1632 24.5781H66.1275C66.0588 24.5424 66.023 24.5094 65.9529 24.4736L65.9185 24.4393C65.8498 24.4049 65.7439 24.3348 65.605 24.2646C65.5706 24.2303 65.5005 24.2303 65.4304 24.1959C65.1169 24.0914 64.7332 23.9525 64.2451 23.8109C64.2108 23.8109 64.1764 23.8109 64.1406 23.7765C63.7556 23.672 63.3019 23.5661 62.8138 23.4974C62.6391 23.4616 62.5003 23.4616 62.3256 23.4286C62.2569 23.4286 62.1854 23.4286 62.0809 23.3943H61.9764C61.5914 23.3585 61.2449 23.3255 60.8599 23.3255H60.8255C60.3374 23.3255 59.863 23.3599 59.3955 23.4658C59.5 23.2911 59.8149 23.0808 60.094 22.9075C60.479 22.6985 60.8255 22.5583 60.8255 22.5583C60.6144 22.5638 60.4042 22.5873 60.1971 22.6284C60.1284 22.6284 60.0569 22.6628 59.9868 22.6628C59.9524 22.6628 59.8822 22.6628 59.8492 22.6985H59.8149C59.7791 22.6985 59.7461 22.6985 59.7104 22.7329C58.6283 22.9776 57.5833 23.3613 56.9879 23.606L56.7775 23.7105H56.7431C56.6744 23.7105 56.6386 23.7105 56.5685 23.7449C56.9879 22.9433 57.6135 22.5253 58.1044 22.3149C58.1731 22.2805 58.279 22.2461 58.3491 22.2104C58.3835 22.2104 58.3835 22.2104 58.4179 22.176C58.4866 22.1416 58.5581 22.1416 58.5925 22.1073C58.697 22.0729 58.7671 22.0729 58.7671 22.0729H58.2089C57.0906 22.2029 56.0104 22.5589 55.034 23.1193C54.4056 23.4685 53.8474 23.8521 53.3592 24.2358C53.219 24.2701 53.1159 24.3045 52.9743 24.3045C51.6474 24.5836 50.15 24.9329 48.5798 25.421C47.9858 25.5956 47.3931 25.806 46.8005 26.015L45.4049 26.5375L44.3929 26.9555C41.9866 28.0376 39.5804 29.4676 37.5921 31.3858L37.3831 31.5961L36.8606 32.1186L36.6502 32.3276C36.5815 32.4321 36.4756 32.538 36.4069 32.6068C36.0187 33.0375 35.6573 33.4916 35.3248 33.9666C35.0721 34.326 34.8389 34.6987 34.6262 35.0831L34.5919 35.1175C34.1381 35.9191 33.7201 36.7565 33.4066 37.6984C33.232 38.1521 33.0931 38.6403 32.9529 39.1284C32.9185 39.2686 32.8841 39.3731 32.8484 39.5134L32.814 39.5821C32.6775 40.1229 32.5751 40.6717 32.5074 41.2253C32.5074 41.3298 32.473 41.4356 32.473 41.5745C32.4386 41.8536 32.4043 42.1328 32.4043 42.4463C32.3699 42.7254 32.3699 42.9688 32.3699 43.2479V44.33C32.364 44.6444 32.3755 44.9588 32.4043 45.2719V45.3063C32.4043 45.6225 32.44 45.9346 32.473 46.2825C32.473 46.4228 32.5074 46.5616 32.5074 46.7019V46.8064C32.5074 46.8751 32.5074 46.9466 32.5418 47.0497C32.5761 47.399 32.6462 47.7826 32.682 48.1663C32.682 48.2708 32.7178 48.3766 32.7178 48.4798C32.7865 48.7933 32.8223 49.1425 32.8924 49.456C32.8924 49.456 32.8236 49.0366 32.858 48.411C32.858 48.2708 32.8924 48.0975 32.8924 47.9572C32.9281 47.608 32.9969 47.19 33.1371 46.8064L33.2416 46.4929C33.2416 46.4585 33.276 46.4241 33.3104 46.3526C33.3791 46.178 33.485 45.9676 33.5895 45.7944C33.6239 45.9346 33.6239 46.0735 33.6583 46.1794V48.0274C33.6926 49.214 33.7985 50.644 34.0433 51.8636C34.0433 51.8636 34.0776 49.6664 34.4626 49.3886C34.4626 49.3886 35.1254 53.5054 35.718 55.0399C35.7868 55.2489 35.8926 55.3891 35.9627 55.4936V55.0743L35.894 52.8082V52.5635C36.3478 53.5054 36.8565 54.4473 37.4643 55.4593C37.6389 55.7384 37.7778 56.0175 37.9524 56.298C36.8359 57.2605 35.7895 58.7043 35.0209 60.379C34.9164 60.6581 34.7775 60.9373 34.6716 61.2178C34.6029 61.3924 34.5671 61.5312 34.497 61.7059C34.497 61.7402 34.4613 61.8104 34.4613 61.8461C34.4269 61.9506 34.3925 62.0909 34.3568 62.1954C34.3568 62.2641 34.3224 62.2999 34.3224 62.37C34.288 62.4745 34.2536 62.6134 34.2179 62.7192C34.2179 62.788 34.1835 62.8238 34.1835 62.8939L34.079 63.4164C34.0446 63.591 34.0103 63.7656 34.0103 63.9389C34.0103 64.0076 34.0103 64.0434 33.9759 64.1135C33.9759 64.2537 33.9415 64.3583 33.9415 64.4985C33.9415 64.5673 33.9415 64.6388 33.9071 64.7089C33.9071 64.8491 33.8727 64.9523 33.8727 65.0939V66.3149C33.8682 66.4669 33.8797 66.619 33.9071 66.7686V66.8731C33.9071 67.0478 33.9415 67.2224 33.9759 67.4314C33.9759 67.5001 33.9759 67.5359 34.0103 67.606C34.0103 67.7462 34.0446 67.8508 34.079 67.991C34.079 68.0598 34.1134 68.1312 34.1134 68.2C34.1478 68.3045 34.1477 68.4448 34.1821 68.5493C34.1821 68.618 34.2165 68.6895 34.2165 68.7596C34.2509 68.8641 34.2853 68.9686 34.2853 69.1089C34.3196 69.1776 34.3196 69.2491 34.354 69.3536C34.3884 69.4581 34.4228 69.5984 34.4585 69.7029C34.4942 69.7716 34.4943 69.8431 34.5273 69.9132C34.5616 70.0177 34.596 70.1566 34.6318 70.2625C34.6661 70.3312 34.6661 70.4027 34.7005 70.4729C34.7349 70.6131 34.805 70.752 34.8407 70.8579C34.8751 70.9266 34.8751 70.9624 34.9095 71.0325L35.432 72.1834C35.4664 72.2521 35.5008 72.2879 35.5365 72.358L35.7469 72.7774C35.7812 72.8461 35.8156 72.9176 35.8871 72.9864C35.9559 73.0909 36.0274 73.2311 36.0961 73.3356C36.1319 73.4044 36.2006 73.4759 36.2364 73.546C36.3051 73.6505 36.3766 73.7894 36.4798 73.8953C36.5485 73.964 36.5842 74.0355 36.6544 74.14L36.8978 74.4893C36.9665 74.558 37.0023 74.6295 37.0724 74.7326C37.1769 74.8371 37.247 74.9774 37.3515 75.0819C37.4202 75.1506 37.456 75.2221 37.5261 75.2923C37.6306 75.4325 37.7365 75.5356 37.8754 75.6773L38.05 75.8519C38.2246 76.0265 38.3993 76.2369 38.5725 76.4101C38.5725 76.4101 38.468 76.2699 38.3278 75.9907C38.2934 75.9564 38.259 75.8862 38.259 75.8161L38.1545 75.6058C38.1201 75.537 38.0857 75.4655 38.05 75.361C37.7041 74.5698 37.5374 73.712 37.5619 72.8489L37.8754 73.2683C37.9799 73.513 38.1545 73.8265 38.3291 74.1757C38.4017 74.2844 38.4603 74.4018 38.5037 74.525C38.7829 75.0145 39.062 75.57 39.4113 76.0953C39.8306 76.758 40.25 77.3878 40.7038 77.979C40.7038 77.979 40.1813 76.8625 40.0053 76.1296C39.9709 75.9206 39.9365 75.7446 39.9709 75.6415C40.0053 75.6759 40.0396 75.746 40.1111 75.7817C40.1455 75.8175 40.1799 75.8863 40.2514 75.922C40.3504 76.0654 40.455 76.2048 40.5649 76.34L40.6336 76.4087C40.7024 76.4775 40.7381 76.5834 40.8083 76.6535C40.877 76.758 40.9485 76.8639 41.0516 76.967C41.7845 77.9089 42.7979 79.1642 43.4936 79.827C43.7384 80.0374 43.9474 80.212 44.0876 80.2808L43.0756 78.4658C45.3787 80.3495 54.9364 82.7558 64.3194 80.0704C65.4756 79.7471 66.6066 79.3394 67.7033 78.8507C68.366 78.5716 69.0287 78.2224 69.6915 77.8745L69.796 77.8057C70.2572 77.5514 70.7112 77.2841 71.1572 77.0041C71.5065 76.7951 71.8544 76.5504 72.1679 76.3414C72.7428 75.9456 73.3015 75.5268 73.8426 75.086C73.8784 75.0516 73.9114 75.0172 73.9471 75.0172C74.4696 74.5635 74.9921 74.0754 75.4459 73.5873C76.0438 72.9593 76.6026 72.2953 77.1192 71.599L77.1536 71.5633C77.2939 71.3886 77.3984 71.2498 77.5029 71.0751L77.5372 71.0407C77.5716 70.972 77.606 70.9363 77.6418 70.8661L78.1299 70.1676C78.1643 70.0989 78.1986 70.0631 78.2344 69.993C78.3034 69.8576 78.3854 69.7291 78.4791 69.6094C78.5479 69.5049 78.5836 69.4348 78.6537 69.3303C78.7251 69.2337 78.7838 69.1283 78.8284 69.0168C78.9329 68.8421 79.0387 68.6318 79.1419 68.4585L79.2464 68.2481L79.4567 67.8288L79.5571 67.6156L79.5915 67.5469C79.6602 67.3722 79.7661 67.1976 79.8362 67.0244V66.99C80.1497 66.7109 80.3587 66.4318 80.5677 66.1884C80.6021 66.154 80.6365 66.1196 80.6365 66.0839C80.8455 65.4211 80.9857 64.9014 80.9857 64.4105M24.861 57.6455C24.861 57.6111 24.861 57.5767 24.8266 57.5052C24.7221 56.914 24.6163 56.2856 24.5833 55.6573V55.517C24.4788 55.5514 24.3729 55.6916 24.234 55.8663C24.1996 55.935 24.1295 56.0065 24.0938 56.1096C23.7802 56.7036 23.4998 57.5396 23.4998 57.5396C23.5398 57.2622 23.5628 56.9825 23.5685 56.7023V56.5978L23.673 55.7246V55.6201C23.7074 55.2709 23.7775 54.9574 23.8476 54.6576C23.8476 54.6232 23.8476 54.5889 23.882 54.5174V54.483C23.882 54.4486 23.882 54.4143 23.9164 54.3785C23.9164 54.3098 23.9508 54.274 23.9508 54.2039C23.9851 53.9605 24.0553 53.7158 24.091 53.4724L24.1955 52.8811V52.8124C24.1955 52.778 24.1955 52.7436 24.2299 52.7436V52.6749C24.2299 52.6405 24.2643 52.5704 24.2643 52.5346C24.2643 52.4989 24.2642 52.4659 24.3 52.4301C24.3 52.3614 24.3344 52.2899 24.3344 52.2555C24.3344 52.2211 24.3688 52.151 24.3688 52.1153C24.3688 52.0465 24.4031 51.975 24.4031 51.942C24.4031 51.909 24.4031 51.8733 24.4375 51.8375C24.4375 51.8031 24.4375 51.7688 24.4719 51.7688C24.4719 51.7 24.5063 51.6643 24.5063 51.6285V51.524L24.4375 51.5928C24.3687 51.6271 24.333 51.6973 24.2629 51.733L24.1941 51.8018C24.1254 51.8705 24.0539 51.942 24.0195 52.0121L23.9851 52.0465L23.7761 52.36L23.7417 52.3944C23.7417 52.4288 23.7074 52.4287 23.7074 52.4631L23.6029 52.6735V52.7423C23.5685 52.8468 23.4984 52.9526 23.4626 53.0557C23.3592 53.3192 23.2661 53.5866 23.1835 53.8574C23.1491 53.9261 23.1491 54.032 23.1147 54.0677C23.0804 54.208 23.046 54.3469 23.046 54.3813C23.046 54.2768 23.046 54.2066 23.0804 54.1021C23.0804 53.9275 23.1147 53.7171 23.1147 53.5439C23.1147 53.4036 23.1505 53.2304 23.1835 53.0901C23.1835 53.0544 23.1835 52.9856 23.2179 52.9499C23.2179 52.8811 23.2523 52.8096 23.2523 52.7395C23.2523 52.6694 23.2866 52.5992 23.2866 52.5305V52.426C23.2866 52.3573 23.321 52.2514 23.321 52.1826V51.9392C23.321 51.9035 23.321 51.8705 23.3554 51.8348C23.3898 51.7303 23.4241 51.5914 23.4241 51.4855V51.4511C23.4585 51.3824 23.4585 51.2765 23.4929 51.2064V51.172C23.5272 50.9974 23.5974 50.8228 23.6331 50.6495V50.5808C23.6331 50.5464 23.6331 50.512 23.6675 50.4762C23.7363 50.1971 23.8421 49.918 23.9109 49.6746V49.6389C23.9796 49.4299 24.0855 49.1851 24.1543 48.9761V48.9418C24.1886 48.8373 24.223 48.7671 24.2588 48.6626C24.3275 48.5224 24.3632 48.3835 24.4334 48.2432C24.4334 48.2089 24.4677 48.1388 24.5379 47.9999C24.5723 47.9655 24.5723 47.8954 24.6066 47.8596C24.641 47.7909 24.6754 47.7194 24.7111 47.6163L24.7455 47.5475L25.3395 46.4654C25.3739 46.431 25.3739 46.3609 25.4083 46.3251V46.2908L25.444 46.222C25.5128 46.1175 25.5843 45.9773 25.653 45.8728C25.7575 45.6981 25.8276 45.5235 25.9321 45.3846C26.1067 45.0711 26.2456 44.7906 26.3515 44.6518C26.3859 44.5473 26.4202 44.5115 26.456 44.4771C26.4216 44.4771 26.2456 44.3369 25.9679 44.1636C25.6186 43.9533 25.1291 43.6755 24.5379 43.3964C24.3275 43.2919 24.1529 43.2218 23.9439 43.1173C23.6991 43.0128 23.4214 42.9083 23.1423 42.8038C23.0735 42.7694 23.002 42.7694 22.9319 42.735L22.2348 42.5246L21.7452 42.4201C21.605 42.3844 21.4661 42.3844 21.3272 42.3514C21.2585 42.3514 21.187 42.3514 21.1169 42.3156C21.0481 42.3156 20.9794 42.3156 20.9079 42.2813C20.7332 42.2813 20.5229 42.2469 20.3496 42.2469H20.0705C19.6511 42.2469 19.2689 42.2813 18.8853 42.3514H18.8206C18.1299 42.4561 17.4517 42.6311 16.7966 42.8739C16.5876 42.9426 16.3772 43.0485 16.1339 43.153C16.0651 43.1874 16.0294 43.2218 15.9592 43.2218L15.7489 43.3263C15.1205 43.6398 14.5279 44.0591 13.9696 44.5129H13.9366C13.4485 44.8979 13.0291 45.3516 12.6441 45.8054L12.3306 46.2248C12.1904 46.3994 12.0872 46.574 11.9814 46.7473C11.7629 47.0714 11.565 47.409 11.3887 47.7579C11.32 47.8981 11.2485 48.0026 11.2141 48.1429C11.2141 48.1773 11.1798 48.1773 11.1798 48.2116C10.8305 49.0504 10.5514 49.9208 10.4469 50.8626C10.4125 51.0359 10.4125 51.2119 10.3781 51.4209V51.4896C10.3781 51.6299 10.3438 51.7688 10.3438 51.9434V52.5718C10.3438 52.712 10.3438 52.8509 10.3781 52.9911V53.1658C10.3781 53.2703 10.4125 53.3748 10.4125 53.4793V53.5136C10.4125 53.5824 10.4125 53.6181 10.4469 53.6883C10.4469 53.7928 10.4826 53.8986 10.4826 53.9674C10.4826 54.0361 10.517 54.1076 10.517 54.1764C10.5514 54.2809 10.5514 54.351 10.5858 54.4555C10.5858 54.5243 10.6201 54.5958 10.6545 54.6645V54.6989L10.6889 54.7676V54.8364L10.7233 54.9051C10.759 54.9739 10.759 55.0454 10.792 55.1141C10.825 55.1829 10.8264 55.2888 10.8607 55.3589C10.8951 55.429 10.9295 55.4991 10.9295 55.6023L10.9653 55.671C10.9996 55.7397 10.9996 55.7755 11.034 55.8456C11.0684 55.9158 11.1027 55.9859 11.1385 56.089L11.243 56.2994C11.2774 56.3338 11.2774 56.3681 11.3117 56.4039C11.3461 56.4396 11.3461 56.4726 11.3805 56.5084L11.485 56.7174C11.5194 56.7861 11.5537 56.892 11.6252 56.9621C11.6519 57.0249 11.6871 57.0836 11.7297 57.1368C11.7641 57.2055 11.8343 57.3114 11.87 57.3801C11.9058 57.4489 11.9388 57.4846 11.9745 57.5548C12.0103 57.6249 12.079 57.7294 12.1491 57.7981C12.1835 57.8669 12.2179 57.9026 12.2536 57.9384C12.3224 58.0071 12.3581 58.113 12.4283 58.1818C12.4626 58.2161 12.497 58.2863 12.5327 58.322C12.6015 58.3908 12.673 58.4966 12.7418 58.5668C12.7853 58.6063 12.8208 58.6539 12.8463 58.707C12.915 58.7757 12.9865 58.8816 13.0552 58.9518L13.1597 59.0563C13.2285 59.125 13.3 59.2309 13.4031 59.301L13.5076 59.4055L13.7524 59.6503C13.7867 59.6846 13.8211 59.719 13.8569 59.719C13.9256 59.7878 14.0315 59.8593 14.136 59.9624C14.1717 59.9968 14.2048 59.9968 14.2405 60.0311C14.345 60.0999 14.4151 60.1714 14.5196 60.2415C14.5554 60.2759 14.5884 60.2759 14.5884 60.3102L14.9019 60.5193L14.9706 60.555L15.2841 60.764L15.3529 60.7998C15.4574 60.8685 15.5976 60.9373 15.7021 61.0088L15.7709 61.0431C15.8754 61.1119 16.0142 61.1834 16.1201 61.2178L16.1889 61.2521C16.3291 61.3209 16.4336 61.3566 16.5739 61.4268L16.6083 61.4611C16.7485 61.5299 16.8874 61.5656 16.9932 61.6358H17.029C17.1665 61.6701 17.3081 61.7403 17.447 61.776H17.4814C17.5501 61.8104 17.6216 61.8104 17.6904 61.8448C17.7591 61.8791 17.8306 61.8791 17.9351 61.9135H17.9695L18.4233 62.018C18.5635 62.0524 18.7367 62.0868 18.877 62.0868C19.3651 62.1555 19.8395 62.1913 20.3414 62.227H20.6906C20.8653 62.227 21.0041 62.227 21.1787 62.1926C21.3891 62.1582 21.6325 62.1583 21.8773 62.1239L22.4685 62.0194C22.782 61.9506 23.0969 61.8791 23.376 61.7746C24.2835 61.5312 25.0508 61.1806 25.5389 60.8121C25.5389 60.8121 25.2254 59.4151 24.9806 58.0209C24.9091 57.948 24.8734 57.8078 24.839 57.6689" fill="#90694C"/>
<path d="M47.2703 5.76672L47.1658 4.37109L47.8643 2.83522L48.1434 2.76647C47.6897 2.55747 47.1314 2.41722 46.5044 2.31272C45.2491 2.13809 43.6444 2.31272 41.8294 2.76647C40.0144 3.22022 37.9574 4.02184 35.7932 5.10397C31.4344 7.26684 26.6192 10.5806 21.9442 14.8362C20.3052 16.3006 18.8051 17.8365 17.4094 19.3352C16.0344 20.7996 14.8286 22.3011 13.7107 23.7311C11.4419 26.6956 9.73418 29.5556 8.61768 32.1365C7.88618 33.8456 7.43106 35.4158 7.24268 36.7757C7.10243 37.7382 7.13818 38.6251 7.31143 39.3222C7.38018 39.5656 7.45168 39.7416 7.52043 39.9506C7.6781 40.3464 7.90224 40.7124 8.18318 41.0327L11.0088 43.9986L11.3223 44.3121L11.3567 44.2777C11.4254 44.1732 11.5313 44.0673 11.6358 43.9986L11.6702 43.9628L11.7747 43.8583C11.8434 43.7538 11.9493 43.6837 12.0181 43.5792C12.0868 43.5105 12.1226 43.4747 12.1927 43.439C12.2628 43.4032 12.2972 43.3345 12.3673 43.2987L12.4361 43.23C12.5048 43.1956 12.5406 43.1255 12.6107 43.0897C12.6794 43.021 12.7853 42.9495 12.8554 42.8793C12.8898 42.845 12.9599 42.8106 12.9957 42.7748H13.0301C13.1346 42.7061 13.2047 42.6346 13.3092 42.5658C13.3779 42.5315 13.4137 42.4971 13.4838 42.4256C13.5883 42.3568 13.6584 42.2853 13.7629 42.2166C13.8317 42.1822 13.8674 42.1478 13.9376 42.1121C14.0421 42.0433 14.1466 41.9718 14.2511 41.9375C14.3198 41.9017 14.3556 41.8687 14.4257 41.833C14.5302 41.7642 14.6361 41.7285 14.7392 41.6583C14.8079 41.624 14.8437 41.5896 14.9138 41.5538L14.9826 41.5195C15.6453 39.6715 16.6573 37.6117 17.9828 35.519C19.5874 32.9381 21.6458 30.217 24.0878 27.4958C25.6223 25.7867 27.2971 24.0762 29.1107 22.4358C31.3627 20.3842 33.7391 18.4735 36.2263 16.7145C37.7498 15.6442 39.3207 14.6431 40.9343 13.7142C41.0746 13.6455 41.2134 13.5396 41.3881 13.4695C41.7874 13.2355 42.1941 13.0144 42.6077 12.8067C43.4505 12.3637 44.3115 11.9563 45.1886 11.5857L44.7692 11.0976L44.7004 11.0288L44.1779 10.4348L41.3028 6.94372L41.3372 4.43159L41.3028 4.39722L43.3612 3.76884L47.2703 5.76259" fill="#2F83C1"/>
<path d="M80.9911 64.3665C80.9911 64.3665 81.0598 63.844 80.7807 63.3559C80.7807 63.3215 80.7463 63.2871 80.7463 63.2871L80.6061 63.1469C80.5373 63.0781 80.4658 63.0066 80.3627 62.9365C80.3096 62.8938 80.2508 62.8587 80.1881 62.832C79.9987 62.7479 79.7989 62.6891 79.5941 62.6574C79.4195 62.623 79.2448 62.623 79.0358 62.623H78.7567V62.6918C78.7567 62.7261 78.7911 62.7605 78.7911 62.832C78.7911 62.8664 78.7911 62.9007 78.8268 62.9007C78.8612 63.0052 78.8956 63.1799 78.9313 63.3201C78.9313 63.3201 78.9313 63.3545 78.897 63.4246V63.459C78.7925 63.7038 78.512 64.2606 77.885 64.9578C77.7805 65.098 77.676 65.2011 77.5357 65.3428C75.7895 67.1577 72.022 69.7015 64.0717 71.1343C61.385 71.5193 58.8742 71.5536 56.7815 71.2745C53.6423 70.8895 51.3048 69.8789 50.1883 68.519C50.0838 68.4145 50.0137 68.2756 49.9092 68.1698C49.8405 68.0653 49.8047 67.9951 49.7346 67.8906C49.7002 67.8563 49.7002 67.8219 49.6658 67.7861C49.231 66.9825 49.0032 66.0832 49.0031 65.1695C49.0031 64.0888 49.3523 63.0768 49.9106 62.3095C50.3643 61.6811 50.9556 61.193 51.6898 60.984C52.0391 60.8795 52.4227 60.8094 52.8063 60.8438C52.9119 60.8415 53.0173 60.853 53.1198 60.8781C53.3632 60.9139 53.7482 60.9469 54.202 61.0184C54.2363 61.0184 54.3065 61.0184 54.3422 61.0528C55.841 61.2274 58.2142 61.4721 61.0742 61.2961C66.3075 60.9826 73.1783 59.3436 79.4208 53.6924V53.6566C79.4552 53.1685 79.3865 52.3311 78.7925 51.6684C78.688 51.5639 78.5821 51.458 78.4432 51.3549C78.3745 51.2861 78.2686 51.2504 78.1998 51.1803C78.0953 51.1459 78.0252 51.0758 77.9551 51.04L77.6416 50.8296V50.7953C77.6077 50.7174 77.5602 50.6461 77.5013 50.5849C75.8953 48.1429 73.6651 46.7129 72.7576 46.0501C72.3382 45.7366 72.0591 45.5964 72.0591 45.5964C70.141 44.4098 69.8618 44.0261 70.0351 40.8526L70.3486 36.1446C70.3486 35.8655 70.383 35.6221 70.383 35.3774V34.3668C70.383 34.1921 70.3486 34.0175 70.3486 33.8786C70.3486 33.8099 70.3486 33.7384 70.3142 33.6696C70.2798 33.495 70.2798 33.3204 70.2455 33.1471C70.2455 33.0784 70.2097 32.9725 70.2097 32.9038C70.2097 32.7993 70.1753 32.7291 70.141 32.6246C70.1066 32.5559 70.1066 32.45 70.0722 32.3813C70.0378 32.2768 70.0035 32.1709 70.0035 32.0678C70.0035 32.0334 69.9691 31.999 69.9691 31.9633C69.9691 31.9275 69.9347 31.8945 69.9347 31.8588V31.8244L69.9003 31.7199C69.866 31.6511 69.8316 31.5796 69.8316 31.5109V31.4875L69.7972 31.4188L69.7628 31.35C69.6941 31.2098 69.6583 31.0709 69.5882 30.965L69.5525 30.8605C69.4837 30.756 69.4122 30.6158 69.3421 30.5113L69.2733 30.4425C69.2046 30.3738 69.1688 30.3023 69.0987 30.2335L69.03 30.129C68.9612 30.0245 68.8897 29.9544 68.8196 29.8856L68.5405 29.6065C68.4439 29.5351 68.3385 29.4764 68.227 29.4319C68.1926 29.3975 68.1582 29.3975 68.1225 29.3975L67.9135 29.293C67.8791 29.293 67.8447 29.2573 67.809 29.2573C67.7402 29.2229 67.6687 29.2229 67.6343 29.1885C67.6 29.1885 67.5656 29.1541 67.4941 29.1541C67.4226 29.1541 67.3896 29.1198 67.3195 29.1198H66.5522C66.5178 29.1198 66.4835 29.1198 66.4477 29.1541C66.4133 29.1541 66.379 29.1541 66.3432 29.1885C66.2745 29.1885 66.2057 29.2229 66.0998 29.2573H66.0311C65.8207 29.326 65.6461 29.3975 65.4371 29.4676L65.3683 29.502C65.2996 29.5364 65.2281 29.5708 65.1236 29.6065L65.0191 29.6409L64.8101 29.7454L64.7056 29.8141L64.4952 29.9186L64.3907 29.9874C64.322 30.0218 64.2505 30.0919 64.1803 30.1276L64.1116 30.162C64.0428 30.2308 63.937 30.2665 63.8668 30.3366L63.8325 30.371C63.728 30.4398 63.6578 30.5113 63.5533 30.5456C63.3787 30.6501 63.2041 30.789 63.0308 30.8949C62.8906 30.9994 62.7517 31.1039 62.5771 31.2084L62.5083 31.2428C62.3681 31.3473 62.1948 31.4531 62.0546 31.5219L61.9858 31.5563C61.8456 31.6608 61.6723 31.7309 61.5321 31.8354L61.4633 31.8698C61.3231 31.9743 61.1471 32.0444 60.9738 32.1145L60.9051 32.1489C60.7305 32.2176 60.5916 32.2891 60.417 32.3579L60.3482 32.3923C60.1736 32.461 59.999 32.4968 59.8257 32.5669H59.7982L59.24 32.6714C58.9237 32.7058 58.5758 32.7401 58.2637 32.7401C57.7412 32.7401 57.2187 32.7058 56.6591 32.6356L56.1366 32.5311C56.0678 32.5311 55.9963 32.4968 55.962 32.4968L54.5636 32.175C54.3532 32.1406 54.1786 32.0705 53.9723 32.0348L52.9961 31.8244C52.9273 31.8244 52.8558 31.79 52.8215 31.79C52.7871 31.79 52.717 31.7556 52.6812 31.7556C52.6125 31.7556 52.541 31.7199 52.4708 31.7199C52.4007 31.7199 52.3306 31.6855 52.2605 31.6855H52.1917C52.123 31.6855 52.0515 31.6511 52.0171 31.6511C51.8768 31.6168 51.738 31.5824 51.5633 31.5824C51.529 31.5824 51.4588 31.5824 51.4231 31.548C51.3186 31.548 51.2127 31.5136 51.1096 31.5136C51.0408 31.5136 51.0051 31.5136 50.935 31.4793C50.8305 31.4793 50.7603 31.4449 50.6558 31.4449H49.0498C48.8752 31.4449 48.7363 31.4793 48.5617 31.4793H48.4215C48.317 31.4793 48.2111 31.5136 48.108 31.5136H48.0736C48.0048 31.5136 47.9691 31.548 47.899 31.548C47.7945 31.5824 47.69 31.5824 47.5855 31.6168C47.5167 31.6168 47.4452 31.6511 47.4108 31.6511C47.3063 31.6855 47.2018 31.7199 47.0973 31.7199C47.0286 31.7199 46.9928 31.7556 46.9227 31.7886C46.8182 31.823 46.678 31.8574 46.5735 31.8931C46.5047 31.9275 46.469 31.9275 46.4332 31.9619C46.2679 32.0252 46.1051 32.095 45.9451 32.1709C44.6182 32.9381 43.4701 33.9859 42.597 35.1711C42.2937 35.573 42.0141 35.9921 41.7596 36.4265C41.4805 36.8803 41.2701 37.3684 41.0625 37.8565C40.9937 37.9968 40.958 38.1356 40.8878 38.2759C40.8191 38.5193 40.7132 38.764 40.6431 39.0088C40.6431 39.0431 40.6431 39.0775 40.6087 39.0775L40.3983 39.9493C40.3296 40.2628 40.2938 40.5405 40.2581 40.8568C40.2223 41.0314 40.2223 41.1703 40.2223 41.3449C40.188 41.7986 40.188 42.218 40.2223 42.6718V42.7763C40.2223 42.8808 40.2223 42.9866 40.2581 43.1255C40.2873 43.4418 40.3341 43.7563 40.3983 44.0674C40.4421 44.1788 40.4658 44.297 40.4685 44.4166C40.5028 44.5211 40.5028 44.627 40.5372 44.7301C40.7462 45.5317 41.0597 46.266 41.4447 46.8916C42.8747 49.3694 45.2466 50.8681 46.9915 51.6711C47.6542 51.9503 48.3527 52.2294 49.0842 52.4727L49.0155 52.5415C48.8752 52.5759 48.7363 52.6102 48.5617 52.646C48.3183 52.7147 48.0035 52.8206 47.69 52.9251C47.3407 53.0296 46.9227 53.2043 46.5033 53.3789C45.3868 53.8326 44.1315 54.4954 43.015 55.4029C42.8747 55.5074 42.7358 55.6463 42.5956 55.7521C42.3508 55.9625 42.1418 56.1701 41.9328 56.4149L41.7582 56.5895C41.6895 56.694 41.5836 56.7641 41.5135 56.8686L41.409 56.9731C41.3045 57.1134 41.1986 57.2523 41.1298 57.3925C41.0253 57.5328 40.9552 57.6716 40.8507 57.8119C40.188 58.9627 39.8057 60.3584 39.9088 62.0331V61.9644C39.9088 61.93 39.9088 61.8956 39.9432 61.8599V61.8255C39.9432 61.7911 39.9776 61.7568 39.9776 61.6852V61.6509C39.9776 61.6151 40.012 61.5464 40.012 61.4762C40.012 61.4061 40.0463 61.3718 40.0807 61.3016V61.2604C40.1151 61.1916 40.1151 61.1201 40.1495 61.0514V61.017C40.1852 60.9483 40.1852 60.8768 40.2182 60.8066V60.775C40.254 60.7063 40.287 60.6348 40.3227 60.5303L40.3571 60.4959C40.3915 60.4271 40.4258 60.3213 40.4973 60.2525C40.5661 60.1123 40.6376 60.0078 40.7077 59.8675C40.7421 59.8331 40.7765 59.763 40.8122 59.7273L40.8466 59.6929L41.057 59.3794C41.1257 59.3106 41.1945 59.2048 41.266 59.136L41.3347 59.0673C41.4035 58.9985 41.4392 58.927 41.5093 58.8926L41.5781 58.8239C41.6468 58.7551 41.7527 58.6864 41.8215 58.5805C41.8215 58.5805 40.3227 62.0001 40.9827 64.6855V64.163C40.9827 64.0943 40.9827 64.0228 41.0171 63.9526C41.0171 63.8839 41.0171 63.8124 41.0528 63.7423V63.7079C41.0528 63.6391 41.0872 63.5332 41.0872 63.4631V63.3944C41.1216 63.2899 41.1216 63.2198 41.156 63.1153V63.0809C41.1903 62.9764 41.2247 62.8705 41.2247 62.8018C41.2247 62.766 41.2591 62.733 41.2591 62.6973L41.2948 62.6285C41.3292 62.5598 41.3636 62.4539 41.3993 62.3838C41.4337 62.2793 41.5038 62.1747 41.574 62.0702C41.574 62.0345 41.6083 62.0015 41.6083 62.0015L41.8173 61.688C41.8173 61.688 41.7486 62.5268 41.7486 63.5374C41.7486 63.712 41.7486 63.8509 41.783 64.0255C41.783 64.13 41.783 64.2345 41.8173 64.339C41.8892 63.3097 42.0765 62.2918 42.3756 61.3044C42.0965 62.2463 41.8875 63.2569 41.8173 64.339C41.783 65.0361 41.783 65.7346 41.8531 66.4661C41.9576 67.6858 42.2725 69.0099 42.7936 70.3711C42.7936 70.3711 42.3055 68.8009 43.004 67.232L43.2143 67.6514C43.2831 68.1051 43.3546 68.7679 43.4935 69.4994C43.6337 70.7204 44.192 74.3834 46.7027 76.9285C46.7027 76.9285 45.7608 75.7089 45.9011 74.1372C46.0056 74.3462 46.1101 74.5223 46.1802 74.6955C46.5996 75.4971 47.4356 76.9642 48.3775 77.9955C48.3775 77.9955 47.646 76.5655 47.8192 76.2493C47.8192 76.2493 50.2612 79.2839 51.0285 79.5493L50.0178 77.8759L49.9835 77.8401C53.5062 80.4224 58.3888 81.3629 64.3893 79.6895C65.4343 79.4104 66.4821 79.0268 67.5986 78.573C68.2613 78.2939 68.9241 77.9446 69.5868 77.5967L69.6913 77.528C70.1451 77.2846 70.5988 77.0055 71.0663 76.7264C71.4156 76.516 71.7635 76.2726 72.077 76.0622C72.6519 75.6665 73.2106 75.2477 73.7517 74.8069C73.7861 74.7725 73.8205 74.7381 73.8562 74.7381C74.3787 74.2844 74.9012 73.7963 75.355 73.3081C75.9529 72.6802 76.5117 72.0162 77.0283 71.3199L77.0641 71.2855C77.1915 71.1309 77.3082 70.9678 77.4133 70.7974L77.4477 70.763C77.4835 70.6943 77.5165 70.6585 77.5522 70.5884L78.0417 69.8899C78.0761 69.8211 78.1105 69.7854 78.1462 69.7166C78.215 69.5764 78.2865 69.4719 78.391 69.3316C78.4597 69.2271 78.4955 69.157 78.5656 69.0525C78.6357 68.948 78.7058 68.8435 78.7402 68.739C78.8447 68.5644 78.9506 68.354 79.0537 68.1807L79.1582 67.9717L79.4745 67.3434L79.5088 67.2746C79.5776 67.1 79.6835 66.9254 79.7536 66.7521V66.7178C80.0671 66.4386 80.2761 66.1595 80.4851 65.9161C80.5195 65.8804 80.5538 65.8474 80.5538 65.8116C80.8477 65.3825 81.0045 64.8743 81.0035 64.3541M24.601 55.4579C24.4965 55.4923 24.3906 55.6325 24.2517 55.8071C24.2173 55.8759 24.1472 55.9474 24.1115 56.0505C23.798 56.6445 23.5175 57.4805 23.5175 57.4805C23.5575 57.2031 23.5805 56.9234 23.5862 56.6431V56.5386L23.6907 55.6655V55.561C23.7251 55.2118 23.7952 54.8983 23.8653 54.5985C23.8653 54.5641 23.8653 54.5298 23.8997 54.4583V54.4239C23.8997 54.3895 23.8997 54.3551 23.9341 54.3194C23.9341 54.2506 23.9685 54.2149 23.9685 54.1447C24.0028 53.9014 24.073 53.6566 24.1087 53.4133L24.2132 52.822V52.7533C24.2132 52.7189 24.2132 52.6845 24.2476 52.6845V52.6157C24.2476 52.5814 24.282 52.5113 24.282 52.4755C24.282 52.4398 24.282 52.4068 24.3177 52.371C24.3177 52.3023 24.3521 52.2307 24.3521 52.1964C24.3521 52.162 24.3865 52.0919 24.3865 52.0561C24.3865 51.9874 24.4208 51.9159 24.4208 51.8829C24.4208 51.8499 24.4208 51.8141 24.4552 51.7784C24.4552 51.744 24.4552 51.7096 24.4896 51.7096C24.4896 51.6409 24.524 51.6051 24.524 51.5694V51.4649L24.4552 51.5336C24.3865 51.568 24.3507 51.6381 24.2806 51.6739L24.2118 51.7426C24.1431 51.8114 24.0716 51.8829 24.0372 51.953L24.0028 51.9874L23.7938 52.3009L23.7595 52.3353C23.7595 52.3696 23.7251 52.3696 23.7251 52.404L23.6206 52.6144V52.6831C23.5862 52.7876 23.5161 52.8935 23.4803 52.9966C23.3769 53.2601 23.2838 53.5275 23.2012 53.7983C23.1668 53.867 23.1668 53.9729 23.1325 54.0086C23.0981 54.1489 23.0637 54.2878 23.0637 54.3221C23.0637 54.2176 23.0637 54.1475 23.0981 54.043C23.0981 53.8684 23.1325 53.658 23.1325 53.4848C23.1325 53.3445 23.1682 53.1713 23.2012 53.031C23.2012 52.9953 23.2012 52.9265 23.2356 52.8908C23.2356 52.822 23.27 52.7505 23.27 52.6804C23.27 52.6103 23.3043 52.5401 23.3043 52.4714V52.3669C23.3043 52.2981 23.3387 52.1923 23.3387 52.1235V51.8801C23.3387 51.8444 23.3387 51.8114 23.3731 51.7756C23.4075 51.6711 23.4418 51.5323 23.4418 51.4264V51.392C23.4762 51.3233 23.4762 51.2174 23.5106 51.1473V51.1129C23.545 50.9383 23.6151 50.7636 23.6508 50.5904V50.5216C23.6508 50.4873 23.6508 50.4529 23.6852 50.4171C23.754 50.138 23.8598 49.8589 23.9286 49.6155V49.5798C23.9973 49.3708 24.1032 49.126 24.172 48.917V48.8826C24.2063 48.7781 24.2407 48.708 24.2765 48.6035C24.3452 48.4633 24.381 48.3244 24.4511 48.1841C24.4511 48.1497 24.4855 48.0796 24.5556 47.9408C24.59 47.9064 24.59 47.8363 24.6243 47.8005C24.6587 47.7318 24.6931 47.6603 24.7288 47.5571L24.7632 47.4884C24.7288 47.454 24.6587 47.454 24.623 47.4196H24.5886L24.5198 47.3853C24.2063 47.245 23.8571 47.1061 23.5092 47.0002H23.4405C23.1957 46.9315 22.9867 46.8958 22.742 46.86C22.6017 46.86 22.4628 46.8243 22.3226 46.8243H21.9788C21.8042 46.8243 21.6296 46.86 21.4563 46.86C21.3876 46.86 21.3518 46.86 21.2817 46.8944C21.213 46.8944 21.1071 46.9301 21.037 46.9301C21.0026 46.9301 20.9682 46.9301 20.9325 46.9645C20.8637 46.9645 20.828 46.9989 20.7578 46.9989C20.6533 47.0333 20.5131 47.0676 20.4086 47.1034C20.3742 47.1034 20.3041 47.1391 20.2683 47.1391C20.1281 47.2079 19.9548 47.2436 19.8146 47.3138C19.7458 47.3481 19.7101 47.3825 19.64 47.3825L19.3608 47.5228C19.2921 47.5571 19.2206 47.5915 19.1505 47.663C19.0817 47.6974 19.0102 47.7318 18.9415 47.8032C18.8727 47.839 18.8012 47.9078 18.7311 47.9435C18.6967 47.9779 18.6266 48.0123 18.5908 48.048C18.4863 48.1525 18.3461 48.257 18.2416 48.3615L18.067 48.5361C17.9625 48.6406 17.8923 48.7465 17.7878 48.8496L17.7535 48.884C17.7177 48.9527 17.649 48.9885 17.6132 49.0586L17.5087 49.1631C17.3341 49.4079 17.1595 49.6856 17.0192 49.9648C16.9848 49.9991 16.9848 50.0335 16.9505 50.0693C16.8817 50.2095 16.846 50.3484 16.7758 50.4886C16.7415 50.5574 16.7415 50.5931 16.7071 50.6633C16.6713 50.8035 16.6026 50.9424 16.5668 51.117V51.2573C16.5325 51.3618 16.5325 51.4663 16.4981 51.5708C16.4981 51.6395 16.4981 51.6753 16.4637 51.7454C16.4637 51.8141 16.4637 51.8499 16.4293 51.92V52.0603C16.4293 52.2349 16.395 52.4095 16.4293 52.5828C16.4293 52.723 16.4293 52.8619 16.4637 53.0008V53.0695C16.4637 53.1383 16.4981 53.2098 16.4981 53.2799C16.5325 53.559 16.6026 53.8024 16.6727 54.0815C16.7373 54.2696 16.8075 54.4558 16.8831 54.6397C17.0206 54.989 17.1966 55.3025 17.4056 55.6023C17.825 56.2306 18.3681 56.7889 19.0446 57.2069C19.4115 57.4477 19.8105 57.6356 20.2298 57.7651C20.6339 57.9141 21.0561 58.008 21.4852 58.0443C21.5897 58.0443 21.6956 58.0786 21.7643 58.0786H22.2181C22.3583 58.0786 22.4972 58.0443 22.6375 58.0443C22.7062 58.0443 22.8121 58.0443 22.8822 58.0099L23.4762 57.9054H23.5106C23.5793 57.871 23.6508 57.871 23.754 57.8366C23.9948 57.765 24.2286 57.6716 24.4525 57.5575L24.4868 57.5231C24.5556 57.4888 24.6271 57.4544 24.6615 57.4544C24.557 56.8631 24.4525 56.2348 24.4181 55.6064C24.5941 55.5294 24.5941 55.4964 24.5941 55.4606" fill="#FCE9CD"/>
<path d="M78.8738 62.9365C78.8738 62.9021 78.8738 62.8678 78.8394 62.8678C78.8036 62.799 78.8036 62.7633 78.8036 62.7275C78.629 62.1693 78.4186 61.765 78.2124 61.435C77.9676 61.05 77.7586 60.841 77.7586 60.841L77.8631 60.4216C77.9031 60.2501 77.9261 60.0751 77.9319 59.8991C78.0721 58.6438 77.7573 57.6661 77.4781 57.1079C77.4494 57.0243 77.4145 56.9429 77.3736 56.8645L76.7796 57.2825C73.0121 59.829 68.8046 61.4694 64.2231 62.1665C61.084 62.6546 57.7702 62.689 54.3162 62.271L54.385 62.3054C54.385 62.3054 52.2923 62.5845 51.734 64.5741L51.7684 64.6085L51.5938 65.9354C51.6625 67.7504 52.4655 68.8641 53.4087 69.4554C54.3712 69.8404 55.5716 70.1181 56.8971 70.2941C59.1659 70.5733 61.8155 70.5045 64.4665 70.0851C68.025 69.5956 73.0465 67.7133 76.6407 65.2726C77.4424 64.7144 78.211 64.1218 78.838 63.5264L78.9068 63.4576C78.9068 63.2143 78.8724 63.0726 78.8724 62.9351" fill="white"/>
<path d="M72.0754 45.705C70.1573 44.5183 69.8781 44.1347 70.0514 40.9612L70.3649 36.2518L70.3993 35.4846V34.474C70.3993 34.2993 70.3649 34.1247 70.3649 33.9858C70.3649 33.9171 70.3649 33.8456 70.3305 33.7755C70.2961 33.6008 70.2961 33.4262 70.2617 33.253C70.2617 33.1842 70.226 33.0783 70.226 33.0096C70.226 32.9051 70.1916 32.835 70.1572 32.7305C70.1229 32.6617 70.1229 32.5558 70.0885 32.4857C69.8197 32.0777 69.4906 31.7128 69.1123 31.4036L69.0435 31.3348L68.9748 31.3018H68.9404C68.8716 31.2661 68.8359 31.2331 68.7658 31.1973C68.6956 31.1616 68.6255 31.1286 68.5911 31.0928C68.0329 30.7436 67.3715 30.5346 66.7074 30.4301C66.3224 30.3613 65.9401 30.3613 65.5565 30.3613C65.3819 30.3613 65.1715 30.3971 64.9983 30.3971C64.4922 30.4707 63.9913 30.5754 63.4981 30.7106L62.9756 31.0598L62.5219 31.3733L62.4531 31.4077C62.3101 31.5136 62.1583 31.6069 61.9994 31.6868L61.9306 31.7212C61.7904 31.8257 61.6144 31.8958 61.4769 32.0003L61.4081 32.0347C61.2679 32.1392 61.0946 32.2093 60.92 32.2795L60.8512 32.3138L60.3631 32.5242L60.2944 32.5586C60.1198 32.6273 59.9451 32.6631 59.7719 32.7332H59.7375L59.1792 32.8377L58.2168 32.9065C57.6943 32.9065 57.1717 32.8721 56.6121 32.802L56.0896 32.6975C56.0209 32.6975 55.9494 32.6631 55.915 32.6631L54.5207 32.3496C54.3104 32.3152 54.1357 32.2451 53.9268 32.2093L52.9642 31.999C52.8955 31.999 52.824 31.9646 52.7896 31.9646C52.5211 31.9687 52.2533 31.9917 51.988 32.0333H51.9193C51.1114 32.1364 50.3164 32.3235 49.5474 32.5916C49.513 32.5916 49.4786 32.626 49.4071 32.626C49.2669 32.6617 49.1624 32.7305 49.0221 32.7662L48.534 32.9766C47.3831 33.4647 46.301 34.1632 45.2546 35.035C44.8353 35.3842 44.453 35.7665 44.0694 36.1515C43.5111 36.7455 43.0244 37.3711 42.5569 38.0352C42.5225 38.071 42.5225 38.104 42.4881 38.1397C42.2532 38.4848 42.0428 38.8459 41.8584 39.2205L41.6494 39.6055V39.6398C41.439 40.0936 41.2644 40.513 41.1269 40.9667C41.1269 41.0011 41.1269 41.0355 41.0925 41.0355C41.0567 41.1042 41.0568 41.1757 41.0238 41.2458C40.955 41.4548 40.8835 41.6638 40.8491 41.8742C40.7804 42.0832 40.7446 42.2936 40.7089 42.537C40.7089 42.5713 40.6745 42.6415 40.6745 42.6772C40.6401 42.8175 40.6401 42.9563 40.6058 43.0622L40.4683 44.5266V44.8758C40.6631 45.6374 40.9688 46.3661 41.3758 47.0387C42.8058 49.5165 45.1776 51.0152 46.9211 51.8182L49.0139 52.6198L49.0482 52.6542L49.0826 52.6198C49.1871 52.5511 49.2573 52.4796 49.3618 52.4095C49.3961 52.3751 49.4305 52.3751 49.4663 52.3407L49.7798 52.1317C49.8141 52.096 49.8485 52.096 49.8843 52.063L50.1978 51.854C50.2321 51.8196 50.2665 51.8196 50.3023 51.7852L50.6515 51.5762C50.6859 51.5418 50.7202 51.5418 50.756 51.5075L51.1053 51.2971C51.1396 51.2627 51.174 51.2627 51.2098 51.2283L51.559 51.018C51.5934 50.9822 51.6635 50.9822 51.6992 50.9492L52.0485 50.7402C52.0829 50.7045 52.153 50.6715 52.1888 50.6715C52.2933 50.6027 52.4335 50.5312 52.5738 50.4625C52.6425 50.4281 52.6783 50.3937 52.7484 50.3937C52.8886 50.325 52.9917 50.2535 53.1334 50.2191C53.2021 50.1847 53.2379 50.1503 53.308 50.1503L53.693 49.9757L53.902 49.8712L54.287 49.6966C54.3558 49.6622 54.4273 49.6278 54.5318 49.5921C54.6693 49.5577 54.7751 49.4876 54.9168 49.4518C54.9855 49.4175 55.0914 49.3831 55.1601 49.3473C55.3004 49.313 55.4049 49.2428 55.5451 49.2071L55.8242 49.1026C55.9645 49.0682 56.069 48.9981 56.2093 48.9623L56.5228 48.8578C56.6273 48.8235 56.7661 48.7891 56.872 48.7176L57.5705 48.5086L57.9555 48.4041L58.3048 48.2996C58.445 48.2652 58.5839 48.2308 58.7585 48.1593C58.8273 48.125 58.8988 48.125 58.9675 48.0906C59.5257 46.6606 61.2363 43.1021 64.1306 42.7185L65.0037 42.6497H65.2127C65.1784 42.4393 65.144 42.2303 65.144 41.987C65.0395 40.4511 65.529 39.1613 66.189 39.127C66.7115 39.0926 67.1309 39.8598 67.201 40.0895C67.41 40.5432 67.5503 41.1345 67.586 41.7986C67.6139 42.3487 67.5667 42.9002 67.4458 43.4376C67.5145 43.5063 67.5503 43.5778 67.6204 43.6122C68.2831 44.4372 68.3876 45.5647 68.3519 46.4035C68.5966 46.3691 68.8744 46.3691 69.1535 46.3347C69.2223 46.3347 69.2938 46.3347 69.3625 46.3003H69.5027L70.5134 46.2316L72.8509 46.0913L72.1221 45.7091M79.4124 67.1962C78.2169 68.2567 76.9072 69.1809 75.5074 69.9517L73.5549 70.8936C72.1249 71.5219 70.7636 71.9386 69.544 72.2686C66.8573 72.9327 65.0093 72.9327 65.0093 72.9327C66.4736 73.7343 68.3092 73.7343 69.5784 73.6298C70.4515 73.5611 71.0441 73.3851 71.0441 73.3851C71.0098 73.9076 70.9396 74.3957 70.8695 74.8976C70.7752 75.3753 70.6348 75.8427 70.4501 76.2932V76.3276C70.2398 76.8501 69.962 77.2901 69.6829 77.7232C69.6485 77.7576 69.6141 77.8277 69.5784 77.8634L69.6829 77.7947L71.0579 76.9931L72.0685 76.3303L73.7433 75.075C73.7776 75.0406 73.812 75.0062 73.8478 75.0062L75.3603 73.5762C75.9586 72.9483 76.5179 72.2843 77.035 71.588L77.0694 71.5522C77.2096 71.3776 77.3141 71.2387 77.4186 71.0641L77.453 71.0297C77.4874 70.961 77.5218 70.9252 77.5575 70.8551L78.0456 70.1566C78.08 70.0878 78.1144 70.0521 78.1501 69.982C78.2192 69.8465 78.3012 69.718 78.3949 69.5983L78.5695 69.3192C78.6383 69.2147 78.7098 69.1088 78.7441 69.0057L79.0576 68.4475L79.5114 67.54C79.5801 67.3653 79.686 67.1907 79.7547 67.0175C79.6145 67.056 79.5457 67.1247 79.4412 67.2292M47.5509 53.1355C47.2016 53.24 46.7836 53.4146 46.3656 53.5892C45.2491 54.043 43.9938 54.7057 42.8773 55.6132C42.737 55.7177 42.5981 55.8566 42.4579 55.9625C42.22 56.1657 41.9984 56.3873 41.7951 56.6252L41.6191 56.8012C41.5504 56.9057 41.4445 56.9758 41.3744 57.0803L41.2699 57.1848C41.1654 57.3251 41.0609 57.464 40.9907 57.6042C40.8862 57.7445 40.8161 57.8833 40.7116 58.0236C40.0489 59.1745 39.6666 60.5701 39.7697 62.2448V62.1761C39.7697 62.1417 39.7697 62.1073 39.8055 62.0716V62.0358C39.8055 62.0015 39.8399 61.9671 39.8399 61.8956V61.8585C39.8399 61.8241 39.8742 61.754 39.8742 61.6838C39.8742 61.6137 39.91 61.5793 39.943 61.5092V61.4748C39.9774 61.4061 39.9774 61.3346 40.0118 61.2645V61.2301C40.0461 61.1613 40.0461 61.0898 40.0805 61.0211V60.9867C40.1149 60.918 40.1493 60.8465 40.185 60.7433L40.2194 60.7076C40.2551 60.6388 40.2881 60.533 40.3596 60.4628L40.5686 60.0778C40.6044 60.0435 40.6374 59.9733 40.6731 59.9376L40.7075 59.9018L40.9165 59.5883C40.9852 59.5196 41.0568 59.4137 41.1269 59.3436L41.1956 59.2748C41.2644 59.2061 41.3001 59.1346 41.3703 59.1002L41.439 59.0315C41.5077 58.9627 41.6136 58.8912 41.6838 58.7881C41.6838 58.7881 40.1712 62.2063 40.8587 64.8931V64.3706C40.8587 64.3018 40.8587 64.2303 40.8931 64.1616C40.8931 64.0928 40.8931 64.0213 40.9275 63.9512V63.9168C40.9275 63.8481 40.9619 63.7422 40.9619 63.6735V63.6047C40.9962 63.5002 40.9962 63.4301 41.0306 63.3256V63.2926C41.0665 63.2032 41.0896 63.1092 41.0994 63.0135C41.0994 62.9791 41.1337 62.9447 41.1337 62.909L41.1681 62.8402C41.2025 62.7715 41.2369 62.6656 41.2726 62.5955C41.3084 62.491 41.3771 62.3865 41.4473 62.282C41.4473 62.2462 41.4816 62.2132 41.4816 62.2132L41.6934 61.875L41.6246 63.723C41.6246 63.8976 41.6246 64.0365 41.659 64.2111C41.659 64.3156 41.659 64.4215 41.6934 64.5246C41.7621 63.4438 41.9725 62.4318 42.2516 61.49L42.4964 60.7241C42.4964 60.6883 42.5308 60.6553 42.5308 60.6196L42.8099 59.9225C42.8443 59.8867 42.8442 59.8537 42.8786 59.7822L43.1921 59.1195C43.2265 59.0851 43.2265 59.0507 43.2265 59.015L43.958 57.7596C43.9937 57.7238 43.9937 57.6908 44.0267 57.6551L44.3403 57.2013C44.3746 57.167 44.3746 57.1326 44.409 57.0968C44.4434 57.0611 44.4434 57.0281 44.4778 56.9923L44.8628 56.4698C44.8985 56.4355 44.8985 56.4011 44.9315 56.4011L45.3509 55.9116L45.8734 55.3203C46.0136 55.1801 46.1168 55.0412 46.2584 54.9353L46.3986 54.7951L47.2236 53.9935C47.9909 53.295 48.6192 52.8426 48.8283 52.701L48.3745 52.8055C48.1628 52.9155 47.8836 53.0186 47.5495 53.1217M67.6451 45.5675C67.6451 45.5675 67.6451 45.4987 67.6107 45.3571C67.4705 44.8676 66.9824 43.6823 65.0643 43.8446C63.0403 44.055 62.3417 45.694 62.1685 46.2508C62.1341 46.3553 62.1341 46.4255 62.1341 46.4255L62.2029 46.4598C62.4463 46.2495 62.9344 46.2495 63.3881 46.5643C63.5985 46.7046 63.7374 46.8435 63.8763 47.0181C64.0509 47.2972 64.0866 47.5763 63.9808 47.7853L63.8763 47.8898C63.8763 47.8898 63.945 47.9242 64.0866 47.9586C64.6449 48.1332 66.2151 48.4467 67.0511 47.3673C67.0869 47.2986 67.1199 47.2628 67.1556 47.1927C66.981 47.124 66.9109 46.8792 66.9109 46.5643C66.9109 46.4241 66.9453 46.2852 66.9796 46.1106C67.0841 45.694 67.3962 45.4506 67.6396 45.5537M57.5581 60.4835L54.21 61.1118C54.2444 61.1118 54.3145 61.1118 54.3503 61.1476C55.8628 61.3222 58.2223 61.5656 61.0823 61.391C66.3155 61.0775 73.1864 59.4385 79.4289 53.7872V53.7625C79.4646 53.2743 79.3945 52.4356 78.8005 51.7742C78.696 51.6697 78.5915 51.5652 78.4513 51.4607C78.4169 51.4607 78.4169 51.4263 78.3825 51.4263C78.2079 51.3218 78.069 51.2517 77.9288 51.1472L77.6152 50.9382V50.9038C77.2223 51.467 76.7781 51.9926 76.2884 52.4741C76.1138 52.6487 75.9391 52.8233 75.7301 52.9966C74.021 54.5325 71.788 55.8566 69.3818 56.9043C65.3943 58.6478 60.942 59.8001 57.5595 60.4972M24.4907 51.3947C24.422 51.4291 24.3862 51.4992 24.3161 51.535L24.2474 51.6037C24.1786 51.6725 24.1071 51.744 24.0727 51.8141L24.037 51.8485L23.828 52.162L23.7936 52.1963C23.7936 52.2307 23.7593 52.2307 23.7593 52.2651L23.6547 52.4755V52.5442C23.619 52.6487 23.5503 52.7532 23.5145 52.8577C23.4111 53.1212 23.318 53.3886 23.2354 53.6593C23.201 53.7281 23.201 53.834 23.1666 53.8697C23.1371 53.9727 23.1137 54.0774 23.0965 54.1832C23.0965 54.0787 23.0965 54.0086 23.1309 53.9041C23.1309 53.7295 23.1666 53.5191 23.1666 53.3458C23.1666 53.2056 23.201 53.0323 23.2354 52.8921C23.2354 52.8577 23.2354 52.7876 23.2697 52.7518C23.2697 52.6831 23.3041 52.6116 23.3041 52.5428C23.3041 52.4741 23.3385 52.4026 23.3385 52.3325V52.228C23.3385 52.1592 23.3729 52.0533 23.3729 51.9846V51.7398C23.3729 51.7055 23.3729 51.6711 23.4072 51.6353C23.4473 51.5229 23.4704 51.4052 23.476 51.2861V51.2517C23.5104 51.183 23.5104 51.0771 23.5448 51.007V50.9726C23.5791 50.7993 23.6492 50.6233 23.685 50.4501V50.3813C23.685 50.347 23.685 50.3126 23.7194 50.2768C23.7881 49.9977 23.894 49.7186 23.9641 49.4752V49.4408C24.0329 49.2305 24.1388 48.9871 24.2075 48.7781V48.7437C24.2419 48.6392 24.2763 48.5691 24.312 48.4646C24.3808 48.3243 24.4165 48.1855 24.4866 48.0466C24.4866 48.0108 24.521 47.9421 24.5911 47.8018C24.6255 47.7675 24.6255 47.6973 24.6599 47.6616C24.6942 47.5928 24.7286 47.5213 24.7644 47.4182L24.8001 47.3495C24.7644 47.3151 24.6956 47.3151 24.6599 47.2807H24.6255L24.5568 47.2463C24.2433 47.1061 23.894 46.9672 23.5448 46.8613H23.476C23.2469 46.7974 23.0135 46.7506 22.7775 46.7211C22.6372 46.7211 22.4984 46.6867 22.3581 46.6867H22.0034C21.8287 46.6867 21.6541 46.7211 21.4809 46.7211C21.4121 46.7211 21.3764 46.7211 21.3062 46.7555C21.2375 46.7555 21.1316 46.7898 21.0629 46.7898C21.0285 46.7898 20.9941 46.7898 20.9584 46.8242C20.8896 46.8242 20.8539 46.86 20.7837 46.86C20.6792 46.8943 20.539 46.9287 20.4345 46.9645C20.4001 46.9645 20.33 46.9988 20.2942 46.9988C20.154 47.0676 19.9807 47.1033 19.8405 47.1735C19.7717 47.2078 19.736 47.2422 19.6659 47.2422L19.3867 47.3825C19.318 47.4168 19.2465 47.4512 19.1764 47.5227C19.1076 47.5571 19.0361 47.5915 18.966 47.663C18.8973 47.6973 18.8257 47.7675 18.757 47.8032C18.7226 47.839 18.6525 47.872 18.6167 47.9077C18.5122 48.0122 18.3734 48.1181 18.2675 48.2212L18.0929 48.3958C17.9884 48.5003 17.9182 48.6048 17.8137 48.7093L17.7794 48.7437C17.745 48.8125 17.6749 48.8482 17.6391 48.917L17.5346 49.0215C17.3512 49.2755 17.188 49.5435 17.0465 49.8231C17.0108 49.8575 17.0108 49.8918 16.9778 49.9276C16.909 50.0678 16.8733 50.2067 16.8031 50.347C16.7688 50.4157 16.7688 50.4515 16.7344 50.5216C16.7344 50.556 16.7687 50.5903 16.7687 50.6261C16.8031 50.7663 16.8375 50.8695 16.8732 51.0111V51.0798C16.9076 51.1843 16.9778 51.3232 17.0108 51.4291C17.151 51.7783 17.2899 52.0918 17.4645 52.371C17.4989 52.4053 17.4989 52.4397 17.5332 52.4755V52.5098L17.5676 52.5442C17.6566 52.7272 17.7615 52.9021 17.8811 53.0667C18.0557 53.3101 18.1946 53.4861 18.3005 53.625L18.3693 53.6937C18.3693 53.7281 18.4036 53.7281 18.4036 53.7281L18.4724 53.7968C18.4724 53.7281 18.438 53.6566 18.438 53.6222C18.3398 53.1873 18.2927 52.7425 18.2978 52.2967V52.228C18.2978 51.9488 18.2977 51.6697 18.3321 51.4263L18.4366 51.7398C18.471 51.8801 18.5411 52.019 18.5769 52.1592V52.228C18.7535 52.7411 18.9874 53.2328 19.274 53.6937C19.475 54.0515 19.7088 54.3899 19.9725 54.7043C20.0082 54.7387 20.0412 54.7731 20.0412 54.8088L20.11 54.8776C20.0055 54.3895 19.9354 53.9357 19.9354 53.482V53.0282C19.9354 52.8192 19.9354 52.6432 19.9697 52.47C20.042 52.7785 20.1352 53.0817 20.2489 53.3775V53.4118C20.5415 54.1884 20.928 54.9263 21.3997 55.6091L21.4341 55.6435C21.5029 55.7122 21.5386 55.7837 21.5744 55.8525C21.6101 55.8868 21.6431 55.9212 21.6431 55.957L21.7462 56.0601V55.9913C21.7462 55.9226 21.7119 55.8511 21.7119 55.781L21.6074 55.0825C21.6074 54.9422 21.5716 54.769 21.5716 54.6287V53.8587C21.5716 53.6841 21.6074 53.4737 21.6074 53.3005C21.6417 53.405 21.6761 53.5452 21.7119 53.6497C21.7462 53.7185 21.7806 53.8243 21.8164 53.8945V53.9288L21.8507 53.9632C21.8851 54.0677 21.9195 54.1736 21.9552 54.2423C22.024 54.417 22.0955 54.5916 22.2 54.7305C22.3045 54.9408 22.3746 55.1155 22.4791 55.253C22.5479 55.3575 22.5836 55.4276 22.6194 55.4977C22.6881 55.6022 22.7596 55.7081 22.794 55.7768C22.8628 55.8456 22.8985 55.9171 22.9342 55.9872L22.9686 56.0216C23.003 56.0903 23.0731 56.1261 23.1089 56.1962C23.1446 56.2306 23.1776 56.265 23.1776 56.3007C23.2464 56.3695 23.2821 56.441 23.3179 56.441L23.3523 56.4753V56.375L23.4567 55.5032V55.4125C23.4932 55.0881 23.5516 54.7665 23.6314 54.45C23.6314 54.4156 23.6314 54.3812 23.6657 54.3097V54.2753C23.6657 54.241 23.6657 54.2066 23.7001 54.1708C23.7001 54.1021 23.7345 54.0663 23.7345 53.9962C23.7689 53.7528 23.839 53.5081 23.8747 53.2633L23.9792 52.6721V52.6033C23.9792 52.569 23.9792 52.5346 24.0136 52.5346V52.4658C24.0136 52.4315 24.0494 52.3613 24.0494 52.3256C24.0494 52.2898 24.0494 52.2568 24.0838 52.2211C24.0838 52.1523 24.1181 52.0808 24.1181 52.0465C24.1181 52.0121 24.1525 51.942 24.1525 51.9062C24.1525 51.8375 24.1869 51.766 24.1869 51.7316C24.1869 51.6972 24.1869 51.6628 24.2213 51.6271C24.2213 51.5927 24.2213 51.5583 24.2556 51.5583C24.2556 51.4896 24.2914 51.4538 24.2914 51.4181V51.3136L24.4674 51.4236M66.7734 65.9725L68.0288 65.5187C68.6915 65.2396 69.0394 65.0306 69.0394 64.9605C69.005 64.8917 68.62 64.9261 67.9229 65.1007C67.5736 65.1695 67.1556 65.241 66.6304 65.3798C66.3668 65.4455 66.0989 65.4923 65.8288 65.5201C65.5496 65.5558 65.2348 65.6246 64.9213 65.6603C64.2915 65.7648 63.5944 65.835 62.8285 65.9037L61.6776 66.0082C61.2926 66.0426 60.876 66.0426 60.4566 66.077C58.7832 66.1113 56.9339 66.0426 55.0501 65.692C53.9068 65.471 52.8023 65.0827 51.7721 64.5397L51.7378 64.5053C52.296 62.5171 54.3888 62.2366 54.3888 62.2366L54.32 62.2022H54.2155C53.9476 62.1726 53.6804 62.1377 53.4139 62.0977C53.2393 62.0633 53.1004 62.0633 52.9945 62.029C52.89 62.029 52.7841 61.9946 52.7498 61.9946C51.4944 61.9258 50.7973 62.9571 50.5883 63.4246L50.4838 63.6336C50.2901 64.076 50.172 64.5477 50.1345 65.0292C50.0658 65.9711 50.3091 66.9817 51.042 67.8548C51.5301 68.4488 52.3689 68.9713 53.4482 69.3907C52.5064 68.7967 51.669 67.6445 51.6333 65.868C52.7154 66.3217 53.935 66.6008 54.8783 66.7755C56.8665 67.1605 58.819 67.1948 60.5158 67.089L61.7711 66.9845C62.1649 66.9234 62.5606 66.8767 62.9578 66.8442L65.0519 66.4592C65.3654 66.3905 65.6802 66.319 65.9594 66.2145C66.2337 66.1577 66.5021 66.0753 66.761 65.9683" fill="#F2D2AC"/>
<path d="M65.132 42.6705C66.177 42.7049 66.8783 43.0197 67.365 43.5092C67.4695 43.0555 67.5396 42.4986 67.5052 41.8702C67.4709 41.2075 67.3306 40.6149 67.1203 40.1611C67.0515 39.882 66.6307 39.1491 66.1082 39.1849C65.4455 39.2192 64.9574 40.5117 65.0633 42.0449C65.0633 42.2539 65.0976 42.4642 65.132 42.6732M66.8783 46.614C66.8783 46.8931 66.9827 47.1365 67.123 47.2424C67.3664 47.3826 67.6812 47.1021 67.8201 46.6484C67.8201 46.614 67.8545 46.5796 67.8545 46.5439C67.959 46.1245 67.8545 45.7051 67.6111 45.602C67.3664 45.4617 67.0529 45.7422 66.9126 46.1932C66.9126 46.3335 66.8783 46.4751 66.8783 46.614ZM62.1345 47.3799C62.2606 47.5754 62.4271 47.7418 62.6226 47.868C63.0764 48.1471 63.5645 48.1815 63.8423 47.9367L63.9468 47.8322C64.0513 47.6232 64.0155 47.3441 63.8423 47.065C63.7378 46.8904 63.5631 46.7157 63.3541 46.6112C62.9004 46.3321 62.4122 46.2977 62.1675 46.5067C62.1331 46.5411 62.0987 46.5755 62.063 46.647C61.9585 46.8202 61.9943 47.1021 62.1345 47.3799ZM79.4691 53.7626C79.4334 53.7626 79.4334 53.7626 79.4691 53.7626V53.7626ZM78.9109 63.4261C78.2189 64.0817 77.4718 64.6765 76.6779 65.204C73.085 67.646 68.0635 69.5655 64.5036 70.0192C61.8182 70.4386 59.2016 70.5074 56.9342 70.2282C55.6074 70.0536 54.4565 69.7745 53.4459 69.3895C52.3651 68.9701 51.5278 68.4476 51.0396 67.8536C50.3068 66.9805 50.0978 65.9355 50.1321 65.0294C50.1665 64.5399 50.2724 64.0531 50.4814 63.6324L50.5859 63.4234C50.8306 62.9696 51.4934 61.8875 52.7474 61.9934C52.8303 61.992 52.9128 62.0036 52.9921 62.0277C53.0966 62.0277 53.2712 62.0635 53.4115 62.0965L54.2131 62.201H54.3176C57.7689 62.6204 61.0826 62.586 64.2245 62.0965C68.7936 61.398 73.0149 59.759 76.781 57.2125L77.375 56.7931L79.4334 53.7241C73.1909 59.4097 66.3159 61.0501 61.0867 61.3636C58.8402 61.5033 56.5853 61.4213 54.3547 61.1189C54.286 61.1189 54.2502 61.1189 54.2145 61.0845C53.7607 61.0157 53.4129 60.98 53.1324 60.9442C52.9921 60.9442 52.889 60.9099 52.8189 60.9099C52.4412 60.8847 52.0621 60.9323 51.7024 61.0501C51.0052 61.2591 50.3769 61.7472 49.9231 62.3756C49.3649 63.1429 49.0156 64.1906 49.0156 65.2356C49.0156 66.1074 49.226 67.0149 49.6784 67.8509C49.7127 67.8852 49.7128 67.9196 49.7471 67.9554C49.8159 68.0599 49.8516 68.13 49.9218 68.2345C49.9919 68.339 50.0964 68.4792 50.2009 68.5837C51.283 69.945 53.6521 70.9212 56.794 71.3392C58.9211 71.6184 61.4002 71.584 64.0842 71.199C72.0372 69.769 75.8047 67.1881 77.5482 65.4102C77.6885 65.27 77.7916 65.1655 77.8975 65.0252C78.5259 64.2924 78.805 63.7327 78.9095 63.5265V63.4921C78.9439 63.4234 78.9439 63.3876 78.9439 63.3876L78.9095 63.4247" fill="#664F44"/>
<path d="M53.6153 35.8696C53.3706 35.7294 53.0928 35.6249 52.8137 35.5561L52.2554 35.4516C52.1867 35.4516 52.1152 35.4516 52.0464 35.4172C51.1046 35.3485 50.3002 35.486 50.3002 35.486C50.1256 35.5204 49.9509 35.5547 49.8121 35.6262C48.7306 35.9374 47.7694 36.5705 47.0566 37.4412C46.5684 38.0696 46.2178 38.7337 46.0459 39.3937C46.0102 39.4625 46.0102 39.4983 46.0102 39.5684C45.9758 39.743 45.9057 39.9176 45.8699 40.0565C45.7654 40.6147 45.6953 41.1015 45.6953 41.5222L45.7297 42.4297C45.9401 41.9416 46.1834 41.5222 46.4282 41.1042C47.0222 40.0922 47.6492 39.2549 48.3119 38.5921C49.5673 37.2996 50.8557 36.6039 51.8319 36.2546C52.8797 35.904 53.6126 35.8696 53.6126 35.8696M68.7156 34.089L68.6812 34.0203C68.5409 33.8456 68.3677 33.671 68.1587 33.5321C67.6706 33.2186 67.0078 33.044 66.1003 33.2186C66.1003 33.2186 65.0182 33.462 64.3912 34.1811C64.3912 34.1811 66.2749 33.3795 68.2962 34.8095C68.4708 34.9497 68.6812 35.0886 68.8544 35.2632C69.0277 35.4379 69.2394 35.6125 69.4127 35.8572C69.4127 35.8572 69.3439 34.9841 68.8187 34.2169C68.7843 34.1481 68.7499 34.1137 68.7142 34.0794" fill="#E9B784"/>
<path d="M53.8632 47.9738L56.2351 47.3455C56.3753 46.6827 56.4097 45.8811 56.3038 45.008C56.0591 42.984 55.153 41.4151 54.2455 41.5196C53.338 41.6241 52.8155 43.369 53.0602 45.3916C53.1977 46.4393 53.4782 47.3441 53.8632 47.9738Z" fill="#664F44"/>
<path d="M49.7097 2.38284L47.8259 2.80222L48.2109 6.22185L43.2224 3.67397L41.1641 4.30372L41.1984 4.33809L47.2677 11.2447L47.4079 11.176L47.9662 10.8267C48.0349 10.7923 48.1064 10.758 48.1766 10.6865L49.0153 10.197L46.4317 7.23247L50.5979 9.25372L50.9829 9.04472L50.5979 6.07885L52.4817 8.27609H52.5161C52.6907 8.20735 52.8296 8.10147 53.0042 8.03134L53.0729 7.99697L53.1417 7.96122C53.1761 7.96122 53.2104 7.92684 53.2104 7.92684L53.4194 7.82235C53.4194 7.82235 53.4538 7.82234 53.4538 7.78797L54.1166 7.47447L49.7193 2.38147" fill="#FFD250"/>
<path d="M47.8533 2.80092L48.1324 2.73217C47.6787 2.52179 47.1204 2.38292 46.4934 2.27842C45.2381 2.10379 43.6334 2.27842 41.8184 2.73217C40.0034 3.18592 37.9464 3.98754 35.7822 5.06967C31.4234 7.23117 26.6082 10.5463 21.9332 14.8005C20.2942 16.2649 18.7941 17.8008 17.3984 19.2995L23.0359 26.2749C24.5718 24.6002 26.2094 22.9268 28.0244 21.2864C30.4307 19.0892 32.8727 17.1339 35.2789 15.4619C37.6164 13.8215 39.9539 12.4273 42.1498 11.3094L41.1873 6.84617L41.2231 4.33404L41.1873 4.29967L43.2457 3.66992L47.2566 5.72829L47.1521 4.33267L47.8492 2.79954" fill="#4D9ED7"/>
<path d="M47.8537 2.8009L47.1552 4.33678L47.2597 5.76678L48.2223 6.2549L47.8537 2.8009ZM46.4375 7.23253L50.623 9.2909L49.0184 10.1984L46.4375 7.23253ZM50.623 6.08028L51.008 9.04615L52.5067 8.2789L50.623 6.08028Z" fill="#132134"/>
<path d="M66.3811 4.99807H67.1511C67.8483 4.99807 68.5124 5.10257 69.1394 5.24282C69.1738 5.24282 69.2081 5.24282 69.2439 5.27719H69.2783L69.347 5.31294H69.4157C69.347 5.27719 69.2755 5.20844 69.2054 5.17269C68.5083 4.89357 67.7754 4.71894 67.0081 4.61444C63.2406 4.12494 58.9149 5.52194 56.4756 6.49819C56.3354 6.56694 56.1965 6.60269 56.0563 6.67282L55.4279 6.95194L54.3458 7.44007C54.277 7.47444 54.2413 7.47444 54.1711 7.50882L53.5084 7.82507C53.5084 7.82507 53.4726 7.82507 53.4726 7.85944L53.2636 7.96394C53.2279 7.96394 53.1949 7.99969 53.1949 7.99969H53.0546L53.0189 8.03407C52.8495 8.10167 52.6862 8.18355 52.5308 8.27882H52.4964C52.462 8.31319 52.4276 8.31319 52.3919 8.34757H52.3575C52.3218 8.34757 52.2887 8.38194 52.2887 8.38194L51.5573 8.76694C51.3826 8.87144 51.208 8.94157 51.0347 9.04607H51.0004L50.6154 9.25507C50.196 9.46544 49.8137 9.70882 49.3944 9.95357C49.36 9.98794 49.3256 9.98794 49.2541 10.0223C49.2198 10.0567 49.1854 10.0567 49.1496 10.0911C49.1139 10.1254 49.0809 10.1254 49.0451 10.1598L49.0107 10.1942L48.172 10.6837C48.1032 10.7181 48.0317 10.7524 47.9616 10.8239L47.4034 11.1732L47.2631 11.2419L45.6929 12.2869L43.1464 14.1019C43.0419 14.1707 42.9374 14.2752 42.8329 14.3453C40.6356 15.9843 38.5429 17.7649 36.5216 19.5786L30.4166 25.5433L27.7656 28.2988L25.5326 30.8811C25.5326 30.8811 25.6729 30.7766 25.9176 30.5318L25.3594 31.1946C28.5686 27.7763 32.0914 24.2879 35.8946 21.0099C38.2037 19.0083 40.6014 17.1112 43.0804 15.3243C44.1611 14.5571 45.2776 13.7884 46.3941 13.0556C46.7434 12.8122 47.1256 12.6018 47.4762 12.3584C47.6509 12.2539 47.8255 12.1481 48.0345 12.0449C48.1311 11.9736 48.2365 11.9149 48.348 11.8703C48.5584 11.7658 48.733 11.6256 48.942 11.5211C49.1166 11.4166 49.327 11.3107 49.5002 11.1718C49.6047 11.1031 49.7106 11.0673 49.8137 10.9972L50.5453 10.5778C50.6855 10.5091 50.8244 10.4032 50.9646 10.3331L52.3603 9.60157C52.3946 9.56719 52.429 9.56719 52.4648 9.53282L52.6751 9.42832C52.7796 9.39394 52.8498 9.32382 52.9543 9.28807C52.9886 9.25369 53.023 9.25369 53.0588 9.21932L53.2678 9.11482C53.2678 9.11482 53.3021 9.11482 53.3021 9.08044H53.3365C53.5305 8.98014 53.7282 8.88703 53.9291 8.80132C53.9649 8.80132 53.9979 8.76694 54.0336 8.73257L54.244 8.62807C54.4888 8.52357 54.6978 8.41907 54.9425 8.31457C55.0112 8.28019 55.0828 8.24582 55.1171 8.21007C55.1515 8.21007 55.1859 8.17569 55.2216 8.17569C55.2904 8.14132 55.3619 8.10694 55.4306 8.10694C55.7098 8.00244 55.9531 7.86219 56.2322 7.75769C56.477 7.65319 56.686 7.54732 56.9308 7.44419C58.1448 6.93158 59.3782 6.46602 60.6281 6.04857C62.7938 5.45044 64.7119 5.06819 66.3853 4.99807" fill="white"/>
</g>
<defs>
<clipPath id="clip0_1777_1363">
<rect width="88" height="88" fill="white"/>
</clipPath>
</defs>
</svg>
