<svg width="88" height="88" viewBox="0 0 88 88" fill="none" xmlns="http://www.w3.org/2000/svg">
<g clip-path="url(#clip0_901_2165)">
<path d="M43.7252 0.239258L46.0737 4.65026C46.6017 5.46426 47.1737 6.18476 47.8475 6.85576C49.8137 8.82201 51.681 10.8818 53.3585 13.0873C57.3377 18.3123 60.0217 24.1148 61.9385 30.3903C63.088 34.2238 63.7122 38.1563 63.759 42.1328C63.9515 54.021 59.876 64.229 51.659 72.7128C50.317 74.0548 48.8815 75.2978 47.3415 76.4033C46.5275 76.4033 46.1425 75.779 45.807 75.2043C45.1827 74.151 44.8005 72.9493 44.608 71.753C44.3192 70.3148 44.1295 68.8765 44.223 67.3915V66.7205C44.157 66.5775 43.4392 0.577508 43.7252 0.239258Z" fill="#599636"/>
<path d="M43.7248 0.0933876C43.6286 -0.0991124 43.5323 0.0466376 43.4361 0.140138C43.4828 1.10264 43.1473 1.96064 42.6221 2.78014C42.0446 3.59414 41.2801 4.21839 40.5128 4.88939C36.2503 8.57989 32.8953 13.0376 30.2086 18.0234C26.6336 24.7334 24.7911 31.9246 24.2686 39.4954C24.0293 42.2261 25.1321 51.8621 25.9928 54.6424C28.3413 62.0234 32.5598 68.2081 38.0241 73.5761C39.3661 74.8686 40.8016 76.0676 42.2866 77.2199C42.7183 77.2199 42.7651 76.8349 42.8641 76.5489C43.0534 75.9369 43.1977 75.3119 43.2958 74.6789L44.2583 67.4904L43.7248 0.0933876Z" fill="#6CAC48"/>
<path d="M46.0739 79.3238C46.1701 78.2238 46.6981 77.3108 47.2729 76.4005C46.6954 76.1613 46.2664 75.6855 45.9309 75.1548C45.6421 74.6763 45.4029 74.1015 45.2159 73.5735C44.5449 71.5605 44.4019 69.4485 44.2094 67.3915V66.1458C43.9701 66.3383 43.9206 67.9663 43.9206 68.2083C43.7807 70.3823 43.4922 72.5443 43.0571 74.679C42.9141 75.5425 42.8179 76.4033 42.2871 77.1705C42.2871 77.2668 42.2871 77.363 42.3339 77.506C43.1974 80.047 43.4339 82.6348 43.5796 85.272V86.2345C43.5796 87.384 43.5329 87.142 44.4871 87.527C44.8721 87.67 45.3011 87.7195 45.6861 88.0055C45.9749 88.0055 46.0216 87.7663 46.0216 87.5738L45.8786 85.9925V81.5815C45.8319 80.8115 45.9749 80.047 46.0711 79.3265L46.0739 79.3238Z" fill="#C2BFBF"/>
</g>
<defs>
<clipPath id="clip0_901_2165">
<rect width="88" height="88" fill="white"/>
</clipPath>
</defs>
</svg>
