<svg width="89" height="88" viewBox="0 0 89 88" fill="none" xmlns="http://www.w3.org/2000/svg">
<g clip-path="url(#clip0_168_3434)">
<path fill-rule="evenodd" clip-rule="evenodd" d="M70.3148 56.45C70.6317 56.2681 70.8951 56.006 71.0787 55.69C71.2622 55.3741 71.3595 55.0154 71.3606 54.65L71.3981 42.5938C71.3993 42.2284 71.4965 41.8697 71.6801 41.5538C71.8637 41.2378 72.1271 40.9757 72.444 40.7938L78.9794 37.0396C79.2961 36.8577 79.6551 36.7623 80.0204 36.7629C80.3857 36.7635 80.7443 36.8602 81.0605 37.0431C81.3766 37.2261 81.6391 37.489 81.8216 37.8054C82.0041 38.1218 82.1001 38.4806 82.1002 38.8459V60.7646C82.1001 61.1311 82.0034 61.491 81.8198 61.8082C81.6362 62.1253 81.3722 62.3884 81.0544 62.5709L56.3898 76.7375C56.0748 76.9184 55.7179 77.0137 55.3547 77.0141C54.9914 77.0145 54.6344 76.9198 54.319 76.7396L34.9627 65.6688C34.6439 65.4866 34.3788 65.2235 34.1944 64.9059C34.01 64.5883 33.9128 64.2277 33.9127 63.8605V52.8084C33.9127 52.7959 33.9273 52.7875 33.9398 52.7938C33.9502 52.8 33.9648 52.7938 33.9648 52.7792V52.7667C33.9648 52.7584 33.969 52.75 33.9773 52.7459L49.919 43.5875C49.9335 43.5792 49.9273 43.5563 49.9106 43.5563C49.9062 43.5563 49.902 43.5545 49.8988 43.5514C49.8957 43.5483 49.894 43.544 49.894 43.5396L49.9252 32.7042C49.9267 32.3378 49.8315 31.9775 49.6492 31.6596C49.467 31.3418 49.2041 31.0776 48.8871 30.8938C48.5702 30.7099 48.2104 30.6129 47.844 30.6126C47.4775 30.6122 47.1175 30.7085 46.8002 30.8917L34.9523 37.7188C34.6361 37.9009 34.2776 37.9967 33.9127 37.9967C33.5478 37.9967 33.1893 37.9009 32.8731 37.7188L20.9877 30.875C20.6711 30.6927 20.312 30.5969 19.9466 30.5971C19.5812 30.5974 19.2224 30.6937 18.906 30.8765C18.5896 31.0593 18.3268 31.3221 18.1441 31.6385C17.9613 31.9549 17.865 32.3138 17.8648 32.6792V52.2625C17.865 52.6275 17.7694 52.9862 17.5874 53.3026C17.4054 53.619 17.1435 53.8821 16.8279 54.0654C16.5123 54.2487 16.154 54.3459 15.789 54.3473C15.424 54.3486 15.0651 54.254 14.7481 54.0729L8.1523 50.3021C7.83282 50.1196 7.56737 49.8558 7.38294 49.5374C7.19851 49.2191 7.10168 48.8575 7.1023 48.4896L7.16063 14.2604C7.16143 13.8955 7.25805 13.5372 7.44084 13.2214C7.62363 12.9056 7.88617 12.6433 8.20218 12.4608C8.51819 12.2783 8.87658 12.1821 9.24149 12.1816C9.6064 12.1812 9.96502 12.2766 10.2815 12.4584L32.8752 25.4354C33.1909 25.6167 33.5486 25.7122 33.9127 25.7122C34.2768 25.7122 34.6345 25.6167 34.9502 25.4354L57.5377 12.4584C57.8546 12.2764 58.2138 12.1809 58.5792 12.1816C58.9447 12.1824 59.3035 12.2792 59.6197 12.4624C59.9359 12.6456 60.1983 12.9088 60.3807 13.2255C60.563 13.5422 60.6588 13.9013 60.6585 14.2667V48.5042C60.6587 48.8704 60.5623 49.2303 60.379 49.5474C60.1958 49.8645 59.9322 50.1277 59.6148 50.3104L47.7856 57.1229C47.4679 57.3061 47.2041 57.5699 47.021 57.8877C46.8379 58.2054 46.7419 58.5659 46.7428 58.9327C46.7436 59.2994 46.8413 59.6594 47.0258 59.9763C47.2104 60.2933 47.4754 60.5558 47.794 60.7375L54.319 64.4521C54.6343 64.6316 54.991 64.7257 55.3539 64.725C55.7167 64.7242 56.0731 64.6287 56.3877 64.4479L70.3148 56.45ZM71.6835 25.7375C71.6838 26.106 71.7818 26.4677 71.9675 26.7859C72.1532 27.1041 72.42 27.3674 72.7406 27.5489C73.0612 27.7304 73.4243 27.8236 73.7927 27.8191C74.1611 27.8145 74.5217 27.7123 74.8377 27.5229L81.0877 23.7729C81.3962 23.5881 81.6517 23.3265 81.8291 23.0136C82.0065 22.7007 82.0999 22.3472 82.1002 21.9875V14.3459C82.0995 13.9776 82.0013 13.6161 81.8154 13.2982C81.6296 12.9803 81.3628 12.7173 81.0422 12.536C80.7217 12.3548 80.3588 12.2618 79.9906 12.2664C79.6223 12.2711 79.2619 12.3732 78.946 12.5625L72.696 16.3125C72.3875 16.4974 72.1321 16.759 71.9547 17.0719C71.7772 17.3848 71.6838 17.7383 71.6835 18.0979V25.7375Z" fill="#007FFF"/>
</g>
<defs>
<clipPath id="clip0_168_3434">
<rect width="75" height="80" fill="white" transform="translate(7.1001 4)"/>
</clipPath>
</defs>
</svg>
