<svg width="88" height="88" viewBox="0 0 88 88" fill="none" xmlns="http://www.w3.org/2000/svg">
<path fill-rule="evenodd" clip-rule="evenodd" d="M22.55 0H51.9713L76.9068 25.991V76.5438C76.9068 82.8766 71.7834 88 65.4725 88H22.55C16.2172 88 11.0938 82.8766 11.0938 76.5438V11.4562C11.0936 5.12342 16.2171 0 22.55 0Z" fill="#E5252A"/>
<path fill-rule="evenodd" clip-rule="evenodd" d="M51.9492 0V25.7931H76.9068L51.9492 0Z" fill="black"/>
<path d="M23.8252 65.6592V49.5852H30.6638C32.357 49.5852 33.6983 50.047 34.7098 50.9925C35.7213 51.916 36.2271 53.1695 36.2271 54.7306C36.2271 56.2918 35.7213 57.5452 34.7098 58.4688C33.6983 59.4143 32.357 59.8761 30.6638 59.8761H27.9371V65.6592H23.8252ZM27.9371 56.3799H30.202C30.8177 56.3799 31.3015 56.2479 31.6314 55.9401C31.9611 55.6543 32.1371 55.2584 32.1371 54.7308C32.1371 54.2031 31.9612 53.8072 31.6314 53.5214C31.3016 53.2135 30.8178 53.0816 30.202 53.0816H27.9371V56.3799ZM37.9201 65.6592V49.5852H43.6153C44.7367 49.5852 45.7922 49.7391 46.7817 50.069C47.7711 50.3988 48.6728 50.8606 49.4643 51.4983C50.256 52.1139 50.8936 52.9495 51.3554 54.005C51.7951 55.0605 52.0371 56.2699 52.0371 57.6332C52.0371 58.9746 51.7953 60.184 51.3554 61.2393C50.8936 62.2949 50.256 63.1304 49.4643 63.7461C48.6727 64.3837 47.7711 64.8455 46.7817 65.1754C45.7922 65.5052 44.7367 65.6592 43.6153 65.6592H37.9201ZM41.9441 62.163H43.1315C43.7692 62.163 44.3629 62.0971 44.9126 61.9431C45.4403 61.7892 45.9461 61.5472 46.4299 61.2174C46.8916 60.8877 47.2655 60.4258 47.5293 59.8101C47.7932 59.1945 47.9251 58.4688 47.9251 57.6332C47.9251 56.7756 47.7932 56.05 47.5293 55.4343C47.2655 54.8187 46.8916 54.3569 46.4299 54.027C45.9461 53.6973 45.4404 53.4553 44.9126 53.3014C44.3629 53.1475 43.7692 53.0815 43.1315 53.0815H41.9441V62.163ZM54.1041 65.6592V49.5852H65.5384V53.0815H58.216V55.6542H64.065V59.1284H58.216V65.6592H54.1041Z" fill="white"/>
</svg>
