<svg width="88" height="88" viewBox="0 0 88 88" fill="none" xmlns="http://www.w3.org/2000/svg">
<path d="M43.9998 51.7854C48.3397 51.7854 51.8579 48.2672 51.8579 43.9273C51.8579 39.5873 48.3397 36.0691 43.9998 36.0691C39.6598 36.0691 36.1416 39.5873 36.1416 43.9273C36.1416 48.2672 39.6598 51.7854 43.9998 51.7854Z" fill="#00D8FF"/>
<path fill-rule="evenodd" clip-rule="evenodd" d="M44 27.9502C54.5506 27.9502 64.3519 29.4641 71.742 32.0083C80.6461 35.0737 86.1207 39.7201 86.1207 43.9275C86.1207 48.3118 80.3187 53.248 70.7569 56.4161C63.528 58.8111 54.0152 60.0614 44 60.0614C33.7316 60.0614 24.008 58.8878 16.6976 56.3898C7.44867 53.2284 1.87793 48.2283 1.87793 43.9275C1.87793 39.7543 7.10501 35.1437 15.8839 32.083C23.3016 29.4969 33.3449 27.9502 43.9986 27.9502H44Z" stroke="#00D8FF" stroke-width="2.73408"/>
<path fill-rule="evenodd" clip-rule="evenodd" d="M30.0912 35.9848C35.3621 26.8451 41.5697 19.1109 47.4657 13.98C54.5693 7.79802 61.3294 5.37699 64.9739 7.47863C68.7721 9.66893 70.1496 17.1612 68.1172 27.0267C66.5822 34.4856 62.9115 43.3504 57.9081 52.0264C52.7781 60.9217 46.9041 68.7587 41.0885 73.842C33.7296 80.2749 26.615 82.6029 22.8893 80.4542C19.2741 78.3709 17.8916 71.5383 19.6259 62.4041C21.0912 54.6865 24.7687 45.2137 30.0894 35.9846L30.0912 35.9848Z" stroke="#00D8FF" stroke-width="2.73408"/>
<path fill-rule="evenodd" clip-rule="evenodd" d="M30.1048 52.0497C24.819 42.9204 21.2201 33.6778 19.718 26.0075C17.9097 16.7657 19.1882 9.69971 22.8295 7.59196C26.6239 5.39524 33.8029 7.94346 41.3349 14.6314C47.0297 19.6877 52.8774 27.2937 57.8954 35.9615C63.04 44.8482 66.8959 53.8513 68.3959 61.4283C70.2939 71.0167 68.7577 78.343 65.0355 80.4977C61.4238 82.5885 54.8147 80.3749 47.7675 74.3104C41.8131 69.1867 35.4427 61.2697 30.1048 52.0495V52.0497Z" stroke="#00D8FF" stroke-width="2.73408"/>
</svg>
