<svg width="89" height="88" viewBox="0 0 89 88" fill="none" xmlns="http://www.w3.org/2000/svg">
<g clip-path="url(#clip0_901_2230)">
<path d="M85.0505 64.4461C80.3544 66.8956 56.0292 76.8968 50.8502 79.5959C45.6712 82.2951 42.7947 82.2694 38.7028 80.3145C34.6109 78.3595 8.72504 67.9034 4.05925 65.6732C1.72635 64.5581 0.503906 63.6202 0.503906 62.7337V53.8384C0.503906 53.8384 34.2073 46.5014 39.65 44.5488C45.0926 42.5961 46.9753 42.5262 51.6084 44.2222C56.2415 45.9182 83.9261 50.9129 88.5009 52.5903V61.362C88.5009 62.2415 87.4464 63.2283 85.0552 64.4507L85.0505 64.4461Z" fill="#A41E11"/>
<path d="M85.0508 55.5484C80.3546 57.998 56.0295 67.9991 50.8505 70.6983C45.6714 73.3974 42.795 73.3718 38.7031 71.4168C34.6112 69.4618 8.7253 59.0058 4.05951 56.7755C-0.606292 54.5453 -0.69961 53.0126 3.87987 51.2186L39.6479 37.3705C45.0882 35.4202 46.9732 35.3478 51.6063 37.0439C56.2395 38.7399 80.4176 48.3631 84.9901 50.0661C89.5626 51.7691 89.7422 53.1222 85.0461 55.5717L85.0508 55.5484Z" fill="#D82C20"/>
<path d="M85.0505 49.94C80.3544 52.3895 56.0292 62.3906 50.8502 65.0898C45.6712 67.789 42.7947 67.7633 38.7028 65.8084C34.6109 63.8534 8.72504 53.3973 4.05925 51.1671C1.72635 50.0519 0.503906 49.1141 0.503906 48.2276V39.3323C0.503906 39.3323 34.2073 31.9953 39.65 30.0427C45.0926 28.09 46.9753 28.02 51.6084 29.7161C56.2415 31.4121 83.9261 36.4068 88.5009 38.0842V46.8559C88.5009 47.7354 87.4464 48.7222 85.0552 49.9446L85.0505 49.94Z" fill="#A41E11"/>
<path d="M85.0508 41.0447C80.3546 43.4942 56.0295 53.4954 50.8505 56.1946C45.6714 58.8937 42.795 58.8681 38.7031 56.9131C34.6112 54.9581 8.7253 44.5021 4.05951 42.2718C-0.606293 40.0416 -0.69961 38.5088 3.87987 36.7148L39.6479 22.8691C45.0882 20.9165 46.9732 20.8465 51.6063 22.5425C56.2395 24.2385 80.4176 33.864 84.9948 35.5367C89.5719 37.2094 89.7469 38.5928 85.0508 41.0424V41.0447Z" fill="#D82C20"/>
<path d="M85.0505 34.8974C80.3544 37.3469 56.0292 47.3481 50.8502 50.0496C45.6712 52.7511 42.7947 52.7231 38.7028 50.7681C34.6109 48.8131 8.72504 38.3571 4.05925 36.1268C1.72635 35.0117 0.503906 34.0739 0.503906 33.1874V24.2874C0.503906 24.2874 34.2073 16.9504 39.65 14.9978C45.0926 13.0451 46.9753 12.9751 51.6084 14.6711C56.2415 16.3672 83.9261 21.3619 88.5009 23.0393V31.811C88.5009 32.6905 87.4464 33.6773 85.0552 34.8997L85.0505 34.8974Z" fill="#A41E11"/>
<path d="M85.0508 25.9998C80.3546 28.4493 56.0295 38.4505 50.8505 41.1496C45.6714 43.8488 42.795 43.8231 38.7031 41.8682C34.6112 39.9132 8.7253 29.4571 4.05951 27.2269C-0.606293 24.9966 -0.69961 23.4639 3.87987 21.6699L39.6479 7.82417C45.0882 5.87153 46.9732 5.80154 51.6063 7.49756C56.2395 9.19358 80.4176 18.8191 84.9948 20.4918C89.5719 22.1645 89.7469 23.5479 85.0508 25.9974V25.9998Z" fill="#D82C20"/>
<path d="M46.6977 22.3324L43.9402 17.7483L35.1359 16.9551L41.7053 14.5849L39.734 10.9456L45.8835 13.3484L51.6831 11.4495L50.1154 15.2101L56.027 17.4263L48.403 18.2195L46.6977 22.3324ZM32.0098 31.4587L52.3993 28.328L46.2405 37.361L32.0098 31.4587Z" fill="white"/>
<path d="M26.5136 28.167C32.5331 28.167 37.4129 26.2755 37.4129 23.9422C37.4129 21.6088 32.5331 19.7173 26.5136 19.7173C20.494 19.7173 15.6143 21.6088 15.6143 23.9422C15.6143 26.2755 20.494 28.167 26.5136 28.167Z" fill="white"/>
<path d="M77.1095 23.3262L65.0484 28.09L65.0391 18.5554L77.1095 23.3262Z" fill="#7A0C00"/>
<path d="M65.0506 28.0901L63.7441 28.6033L51.6924 23.8395L65.0436 18.5579L65.0506 28.0901Z" fill="#AD2115"/>
</g>
<defs>
<clipPath id="clip0_901_2230">
<rect width="88" height="88" fill="white" transform="translate(0.5)"/>
</clipPath>
</defs>
</svg>
