<svg width="88" height="88" viewBox="0 0 88 88" fill="none" xmlns="http://www.w3.org/2000/svg">
<path d="M71.1332 28.0693V59.7946L44.1928 75.5893L43.9453 75.8148V87.7731L44.1928 87.9986L82.1236 66.0894V21.9106H81.7619L71.0672 27.8919V28.1394" fill="#2F406A"/>
<path d="M17.1603 60.0188L44.2368 75.7006V88L5.99121 66V22H6.37621L17.049 28.2054L17.1617 28.567V60.1562" fill="#2379BD"/>
<path d="M17.1598 28.4982L5.87793 22L44.1029 0L82.1217 21.9093L71.1327 28.0693L44.0548 12.6583L17.1144 28.4529" fill="#03AFEF"/>
<path d="M43.7177 56.3887L43.4248 56.0959V44.2049L43.7177 44.0467V43.7539L53.9161 37.7974H54.2323V50.072L43.6503 56.3447" fill="#2F406A"/>
<path d="M32.9546 50.5216V37.7712H33.2475L43.6287 43.8185V56.4094L32.8652 50.5202" fill="#2379BD"/>
<path d="M43.5381 31.522L32.9561 37.7947L43.7182 44.0001L54.3002 37.8181L43.5367 31.4546" fill="#03AFEF"/>
<path d="M30.539 64.1711L30.2461 63.8783V51.9639L30.539 51.8058V51.5129L40.7373 45.5564H41.0536V57.831L30.4716 64.1038" fill="#2F406A"/>
<path d="M19.7783 58.2834V45.5344H20.0712L30.4524 51.5817V64.1726L19.7797 58.2834" fill="#2379BD"/>
<path d="M30.3817 39.2837L19.7764 45.5345L30.5399 51.8072L41.1219 45.6252L30.3584 39.2617" fill="#03AFEF"/>
<path d="M57.8437 64.4656L57.5508 64.1727V52.2583L57.8437 52.1002V51.8073L68.042 45.8508H68.3583V58.1255L57.7763 64.3982" fill="#2F406A"/>
<path d="M47.0796 58.5751V45.8289H47.4178L57.7991 51.8761V64.467L47.0342 58.5751" fill="#2379BD"/>
<path d="M57.6621 39.4873L47.0801 45.7601L57.8436 52.0328L68.4256 45.8508L57.6621 39.4873Z" fill="#03AFEF"/>
<path d="M44.6659 72.2288L44.373 71.936V60.0188L44.6659 59.8607V59.5678L54.8643 53.6113H55.1805V65.886L44.5985 72.1587" fill="#2F406A"/>
<path d="M33.8799 66.3383V53.6113H34.1728L44.554 59.6586V72.2494L33.8813 66.3369" fill="#2379BD"/>
<path d="M44.4853 47.3411L33.8799 53.6111L44.6654 59.7931L55.2474 53.6111L44.4839 47.3384" fill="#03AFEF"/>
<path d="M43.7177 39.4873L43.4248 39.1945V27.3255L43.7177 27.1673V26.8745L53.9161 20.918H54.2323V33.1926L43.7177 39.4873Z" fill="#2F406A"/>
<path d="M32.9546 33.6435V20.8945H33.2475L43.6287 26.9418V39.4873L32.8652 33.5982" fill="#2379BD"/>
<path d="M43.5381 14.6672L32.9561 20.94L43.7196 27.2127L54.3016 21.0307L43.5381 14.6672Z" fill="#03AFEF"/>
<path d="M30.539 47.2725L30.2461 46.9796V34.9759L30.539 34.8177V34.5249L40.7373 28.5684H41.0536V40.843L30.4716 47.1157" fill="#2F406A"/>
<path d="M19.7783 41.4054V28.655H20.0712L30.4524 34.7023V47.2932L19.7797 41.404" fill="#2379BD"/>
<path d="M30.3817 22.4055L19.7764 28.6563L30.5399 34.9744L41.1219 28.7924L30.3584 22.4289" fill="#03AFEF"/>
<path d="M57.8437 47.5653L57.5508 47.2724V35.3787L57.8437 35.2206V34.9277L68.042 28.9712H68.3583V41.2458L57.7763 47.5186" fill="#2F406A"/>
<path d="M47.0801 41.7451V28.9507H47.4183L57.7528 34.9759V47.5668L47.0801 41.7451Z" fill="#2379BD"/>
<path d="M57.6621 22.7012L47.0801 28.9712L57.8436 35.244L68.4256 29.062L57.6621 22.6985" fill="#03AFEF"/>
<path d="M44.6659 55.2818L44.373 54.989V43.1433L44.6659 42.9852V42.6923L54.8643 36.7358H55.1805V49.0105L44.6659 55.2818Z" fill="#2F406A"/>
<path d="M33.8799 49.4587V36.7124H34.1728L44.554 42.7597V55.2832L33.8799 49.4587Z" fill="#2379BD"/>
<path d="M44.4853 30.4617L33.8799 36.7124L44.6434 42.9852L55.2254 36.8032L44.4866 30.4644" fill="#03AFEF"/>
</svg>
