<svg width="88" height="88" viewBox="0 0 88 88" fill="none" xmlns="http://www.w3.org/2000/svg">
<path d="M82.8186 0L75.7496 79.1908L43.9741 88L12.2861 79.2032L5.22461 0H82.8186Z" fill="#264DE4"/>
<path d="M44.0215 81.2667L69.6976 74.1482L75.7386 6.47607H44.0215V81.2667Z" fill="#2965F1"/>
<path d="M44.0217 35.8513H21.4131L22.2837 45.5652H44.0217V35.8513Z" fill="#EBEBEB"/>
<path d="M44.0221 16.1902H43.9885H19.6641L20.5471 25.9042H44.0221V16.1902Z" fill="#EBEBEB"/>
<path d="M22.7178 50.4224L24.0787 65.6747L43.977 71.1986L44.0217 71.1861V61.0796L43.9791 61.0909L33.1606 58.1697L32.4691 50.4224H27.2121H22.7178Z" fill="#EBEBEB"/>
<path d="M55.9499 45.5653L54.8224 58.1636L43.9883 61.0878V71.1939L63.9024 65.6747L64.0485 64.0336L66.3312 38.4599L66.5682 35.8515L68.3219 16.1902H43.9883V25.9042H57.6762L56.7923 35.8515H43.9883V45.5653H55.9499Z" fill="white"/>
</svg>
