<svg width="88" height="89" viewBox="0 0 88 89" fill="none" xmlns="http://www.w3.org/2000/svg">
<g clip-path="url(#clip0_816_1045)">
<path d="M82.4722 87.3927H40.251C38.3524 87.3927 36.8135 85.8538 36.8135 83.9552V32.0674C36.8135 30.1689 38.3524 28.6299 40.251 28.6299H82.4722C84.3708 28.6299 85.9097 30.1689 85.9097 32.0674V83.9552C85.9097 85.8538 84.3708 87.3927 82.4722 87.3927Z" fill="#1ED760"/>
<path d="M82.4722 28.6299H80.7812V78.8665C80.7812 80.7651 79.2422 82.304 77.3437 82.304H36.8135V83.9552C36.8135 85.8538 38.3524 87.3927 40.251 87.3927H82.4722C84.3708 87.3927 85.9097 85.8538 85.9097 83.9552V32.0674C85.9097 30.169 84.3708 28.6299 82.4722 28.6299Z" fill="#11B84D"/>
<path d="M61.361 62.4853C68.1247 62.4853 73.6078 57.0022 73.6078 50.2385C73.6078 43.4748 68.1247 37.9917 61.361 37.9917C54.5973 37.9917 49.1143 43.4748 49.1143 50.2385C49.1143 57.0022 54.5973 62.4853 61.361 62.4853Z" fill="white"/>
<path d="M64.0472 38.291C66.7628 40.5373 68.4932 43.9325 68.4932 47.7319C68.4932 54.4957 63.0102 59.9787 56.2464 59.9787C55.3429 59.9781 54.4421 59.8778 53.5605 59.6797C55.6791 61.4321 58.3971 62.4855 61.3613 62.4855C68.1251 62.4855 73.608 57.0025 73.608 50.2387C73.6082 44.3981 69.5185 39.5158 64.0472 38.291Z" fill="#F8F6F6"/>
<path d="M72.5547 78.489H50.1688C47.9209 78.489 46.0986 76.6668 46.0986 74.4188C46.0986 72.1709 47.9209 70.3486 50.1688 70.3486H72.5547C74.8026 70.3486 76.6248 72.1709 76.6248 74.4188C76.6248 76.6668 74.8026 78.489 72.5547 78.489Z" fill="#FFD15B"/>
<path d="M72.5544 70.3486H71.4928C71.4971 70.4251 71.4997 70.5021 71.4997 70.5798C71.4997 72.8278 69.6774 74.65 67.4295 74.65H46.1055C46.2253 76.7903 47.9983 78.489 50.1688 78.489H72.5546C74.8026 78.489 76.6248 76.6668 76.6248 74.4188C76.6246 72.171 74.8024 70.3486 72.5544 70.3486Z" fill="#FFC344"/>
<path d="M25.3628 87.3924H5.52734C3.62881 87.3924 2.08984 85.8534 2.08984 83.9549V70.917C2.08984 69.0185 3.62881 67.4795 5.52734 67.4795H25.3628C27.2613 67.4795 28.8003 69.0185 28.8003 70.917V83.9549C28.8003 85.8534 27.2611 87.3924 25.3628 87.3924Z" fill="#0586E3"/>
<path d="M25.3628 67.4795H22.859V78.86C22.859 80.7586 21.3201 82.2975 19.4215 82.2975H2.08984V83.9549C2.08984 85.8534 3.62881 87.3924 5.52734 87.3924H25.3628C27.2613 87.3924 28.8003 85.8534 28.8003 83.9549V70.917C28.8003 69.0185 27.2611 67.4795 25.3628 67.4795Z" fill="#0867AC"/>
<path d="M25.3628 58.5947H5.52734C3.62881 58.5947 2.08984 57.0558 2.08984 55.1572V32.0674C2.08984 30.1689 3.62881 28.6299 5.52734 28.6299H25.3628C27.2613 28.6299 28.8003 30.1689 28.8003 32.0674V55.1572C28.8003 57.0558 27.2611 58.5947 25.3628 58.5947Z" fill="#FF4444"/>
<path d="M25.3628 28.6299H22.859V50.0099C22.859 51.9085 21.3201 53.4474 19.4215 53.4474H2.08984V55.1572C2.08984 57.0558 3.62881 58.5947 5.52734 58.5947H25.3628C27.2613 58.5947 28.8003 57.0558 28.8003 55.1572V32.0674C28.8003 30.169 27.2611 28.6299 25.3628 28.6299Z" fill="#E00505"/>
<path d="M21.1687 77.436H9.72144M15.4241 36.7438H22.4405M15.4241 43.6122H22.4405M15.4241 50.4805H22.4405M8.44939 36.7438H9.18588M8.44939 43.6122H9.18588M8.44939 50.4805H9.18588M14.4954 1.9707V12.0699M2.08984 1.9707V8.92013C2.08984 10.1037 2.67697 10.9005 3.67419 11.5376C4.15991 11.848 4.77333 12.069 5.53577 12.0701C6.19594 12.0709 6.74783 11.9181 7.20399 11.6883C8.3662 11.1031 9.10733 10.2142 9.10733 8.91291V1.9707M41.7603 1.9707L48.8649 12.0699M48.365 1.9707L41.2504 12.0699M30.149 1.9707V8.92013C30.149 10.1037 30.7361 10.9005 31.7333 11.5376C32.219 11.848 32.8324 12.069 33.5949 12.0701C34.255 12.0709 34.8069 11.9181 35.2631 11.6883C36.4253 11.1031 37.1664 10.2142 37.1664 8.91291V1.9707M24.6579 1.9707L20.3871 12.0699M2.08984 20.334H85.9095M76.923 2.00508H85.9095M85.9095 7.02022H76.923M85.9095 12.0355H76.923M9.10905 67.4797H5.52734C3.62881 67.4797 2.08984 69.0186 2.08984 70.9172V83.9551C2.08984 85.8536 3.62881 87.3926 5.52734 87.3926H25.3628C27.2613 87.3926 28.8003 85.8536 28.8003 83.9551V70.9172C28.8003 69.0186 27.2613 67.4797 25.3628 67.4797H15.1247M2.08984 43.6867V55.1571C2.08984 57.0556 3.62881 58.5946 5.52734 58.5946H25.3628C27.2613 58.5946 28.8003 57.0556 28.8003 55.1571V32.0672C28.8003 30.1687 27.2613 28.6297 25.3628 28.6297H5.52734C3.62881 28.6297 2.08984 30.1687 2.08984 32.0672V37.671M82.472 87.3926H40.2507C38.3522 87.3926 36.8132 85.8536 36.8132 83.9551V32.0672C36.8132 30.1687 38.3522 28.6297 40.2507 28.6297H82.472C84.3705 28.6297 85.9095 30.1687 85.9095 32.0672V83.9551C85.9095 85.8536 84.3705 87.3926 82.472 87.3926Z" stroke="black" stroke-width="2" stroke-miterlimit="10" stroke-linecap="round" stroke-linejoin="round"/>
<path d="M49.4884 53.2463C50.8292 58.5555 55.636 62.4853 61.3618 62.4853C68.1256 62.4853 73.6086 57.0023 73.6086 50.2385C73.6086 43.4747 68.1256 37.9917 61.3618 37.9917C55.6362 37.9917 50.8293 41.9214 49.4884 47.2307M72.5547 78.4891H50.1688C47.9209 78.4891 46.0986 76.6668 46.0986 74.4189C46.0986 72.1709 47.9209 70.3487 50.1688 70.3487H72.5547C74.8026 70.3487 76.6248 72.1709 76.6248 74.4189C76.6248 76.6668 74.8026 78.4891 72.5547 78.4891Z" stroke="black" stroke-width="2" stroke-miterlimit="10" stroke-linecap="round" stroke-linejoin="round"/>
</g>
<defs>
<clipPath id="clip0_816_1045">
<rect width="88" height="88" fill="white" transform="translate(0 0.681641)"/>
</clipPath>
</defs>
</svg>
