<svg width="88" height="88" viewBox="0 0 88 88" fill="none" xmlns="http://www.w3.org/2000/svg">
<g clip-path="url(#clip0_35_172)">
<path d="M6.215 44C6.215 58.9875 14.8225 71.8988 27.39 77.957L9.5645 28.6963C7.49375 33.4785 6.215 38.5825 6.215 44ZM69.5062 42.086C69.5062 37.466 67.7517 34.111 66.3162 31.724C64.4023 28.534 62.6505 25.9848 62.6505 22.7975C62.6505 19.2913 65.362 16.1012 69.0305 16.1012H69.509C62.81 9.8835 53.8835 6.215 44 6.215C37.7469 6.27036 31.602 7.85353 26.1006 10.8266C20.5992 13.7997 15.908 18.0726 12.4355 23.2733H14.828C18.8155 23.2733 24.871 22.7947 24.871 22.7947C26.9445 22.6352 27.104 25.663 25.19 25.9848C25.19 25.9848 23.1165 26.3037 20.8862 26.3037L34.5978 67.1138L42.8862 42.4022L36.9875 26.301L33 25.9875C30.9265 25.828 31.2455 22.7975 33.1595 22.7975C33.1595 22.7975 39.3745 23.276 43.043 23.276C47.0305 23.276 53.086 22.7975 53.086 22.7975C55.1595 22.638 55.319 25.6657 53.405 25.9875C53.405 25.9875 51.3315 26.3065 49.1012 26.3065L62.81 66.9625L66.66 54.3675C68.255 49.1068 69.5283 45.441 69.5283 42.0915L69.5062 42.086ZM44.638 47.3467L33.319 80.19C36.6657 81.147 40.3315 81.785 44 81.785C48.4632 81.785 52.6075 80.96 56.595 79.7115C56.4355 79.552 56.4355 79.3925 56.276 79.233L44.638 47.3467ZM77.1595 25.9875L77.4785 29.8375C77.4785 33.6875 76.8405 37.9692 74.6103 43.3895L63.1318 76.7085C74.2913 70.1717 81.9417 58.0553 81.9417 44.0275C81.7822 37.4907 80.0277 31.4325 77.1567 26.015L77.1595 25.9875ZM44 0C19.767 0 0 19.767 0 44C0 68.233 19.767 88 44 88C68.233 88 88 68.233 88 44C88 19.767 68.233 0 44 0ZM44 86.086C20.8835 86.086 2.0735 67.276 2.0735 44C2.09095 32.8858 6.5138 22.2317 14.3728 14.3728C22.2317 6.5138 32.8858 2.09095 44 2.0735C55.1142 2.09095 65.7683 6.5138 73.6272 14.3728C81.4862 22.2317 85.909 32.8858 85.9265 44C85.9265 67.276 67.1165 86.086 44 86.086Z" fill="#00749A"/>
</g>
<defs>
<clipPath id="clip0_35_172">
<rect width="88" height="88" fill="white"/>
</clipPath>
</defs>
</svg>
